<?xml version="1.0" encoding="UTF-8" standalone="no"?>
<!-- Created with Inkscape (http://www.inkscape.org/) -->

<svg
   xmlns:dc="http://purl.org/dc/elements/1.1/"
   xmlns:cc="http://creativecommons.org/ns#"
   xmlns:rdf="http://www.w3.org/1999/02/22-rdf-syntax-ns#"
   xmlns:svg="http://www.w3.org/2000/svg"
   xmlns="http://www.w3.org/2000/svg"
   xmlns:sodipodi="http://sodipodi.sourceforge.net/DTD/sodipodi-0.dtd"
   xmlns:inkscape="http://www.inkscape.org/namespaces/inkscape"
   width="28.5cm"
   height="30cm"
   viewBox="0 0 285 299.99999"
   version="1.1"
   id="svg8"
   sodipodi:docname="ukhc-18-tote-bag-front.svg"
   inkscape:version="0.92.3 (2405546, 2018-03-11)">
  <defs
     id="defs2">
    <path
       d="M.092 45.866h7.775V.15H.092z"
       id="a" />
    <path
       d="M.033 45.866h7.775V.15H.033z"
       id="c" />
    <path
       d="M0 49.923h118V0H0z"
       id="e" />
    <path
       d="M0 49.923h118V0H0z"
       id="g" />
    <path
       d="M0 49.923h118V0H0z"
       id="i" />
    <path
       d="M0 49.923h118V0H0z"
       id="k" />
    <path
       d="M0 49.923h118V0H0z"
       id="m" />
    <path
       d="M0 49.923h118V0H0z"
       id="o" />
    <path
       d="M0 49.923h118V0H0z"
       id="q" />
    <path
       d="M0 49.923h118V0H0z"
       id="s" />
    <path
       d="M.092 45.866h7.775V.15H.092z"
       id="a-5" />
    <path
       d="M.033 45.866h7.775V.15H.033z"
       id="c-1" />
    <path
       d="M0 49.923h118V0H0z"
       id="e-3" />
    <path
       d="M0 49.923h118V0H0z"
       id="g-1" />
    <path
       d="M0 49.923h118V0H0z"
       id="i-5" />
    <path
       d="M0 49.923h118V0H0z"
       id="k-9" />
    <path
       d="M0 49.923h118V0H0z"
       id="m-4" />
    <path
       d="M0 49.923h118V0H0z"
       id="o-9" />
    <path
       d="M0 49.923h118V0H0z"
       id="q-8" />
    <path
       d="M0 49.923h118V0H0z"
       id="s-0" />
    <linearGradient
       gradientUnits="userSpaceOnUse"
       y2="453.293"
       x2="37.42"
       y1="449.768"
       x1="62.501"
       id="ukgc-grad-b">
      <stop
         id="stop1196"
         stop-color="#8f1924"
         offset="0" />
      <stop
         id="stop1198"
         stop-color="#d43b47"
         offset="1" />
    </linearGradient>
    <linearGradient
       gradientUnits="userSpaceOnUse"
       y2="408.503"
       x2="33.073"
       y1="418.916"
       x1="59.274"
       id="ukgc-grad-a">
      <stop
         id="stop1201"
         stop-color="#192751"
         offset="0" />
      <stop
         id="stop1203"
         stop-color="#3d50a1"
         offset="1" />
    </linearGradient>
    <style
       id="style1239">.c{fill:#001a4b}</style>
    <path
       d="M.092 45.866h7.775V.15H.092z"
       id="a-4" />
    <path
       d="M.033 45.866h7.775V.15H.033z"
       id="c-6" />
    <path
       d="M0 49.923h118V0H0z"
       id="e-1" />
    <path
       d="M0 49.923h118V0H0z"
       id="g-7" />
    <path
       d="M0 49.923h118V0H0z"
       id="i-0" />
    <path
       d="M0 49.923h118V0H0z"
       id="k-5" />
    <path
       d="M0 49.923h118V0H0z"
       id="m-7" />
    <path
       d="M0 49.923h118V0H0z"
       id="o-1" />
    <path
       d="M0 49.923h118V0H0z"
       id="q-7" />
    <path
       d="M0 49.923h118V0H0z"
       id="s-5" />
    <path
       d="M.092 45.866h7.775V.15H.092z"
       id="a-48" />
    <path
       d="M.033 45.866h7.775V.15H.033z"
       id="b" />
    <path
       d="M0 49.923h118V0H0z"
       id="c-3" />
    <path
       d="M0 49.923h118V0H0z"
       id="d" />
    <path
       d="M0 49.923h118V0H0z"
       id="e-8" />
    <path
       d="M0 49.923h118V0H0z"
       id="f" />
    <path
       d="M0 49.923h118V0H0z"
       id="g-19" />
    <path
       d="M0 49.923h118V0H0z"
       id="h" />
    <path
       d="M0 49.923h118V0H0z"
       id="i-4" />
    <path
       d="M0 49.923h118V0H0z"
       id="j" />
  </defs>
  <sodipodi:namedview
     id="base"
     pagecolor="#ffffff"
     bordercolor="#666666"
     borderopacity="1.0"
     inkscape:pageopacity="0.0"
     inkscape:pageshadow="2"
     inkscape:zoom="0.35"
     inkscape:cx="503.19766"
     inkscape:cy="667.89679"
     inkscape:document-units="mm"
     inkscape:current-layer="layer1"
     showgrid="false"
     inkscape:window-width="1351"
     inkscape:window-height="741"
     inkscape:window-x="343"
     inkscape:window-y="884"
     inkscape:window-maximized="0"
     units="cm"
     showguides="false"
     inkscape:pagecheckerboard="true">
    <inkscape:grid
       type="xygrid"
       id="grid1489" />
  </sodipodi:namedview>
  <metadata
     id="metadata5">
    <rdf:RDF>
      <cc:Work
         rdf:about="">
        <dc:format>image/svg+xml</dc:format>
        <dc:type
           rdf:resource="http://purl.org/dc/dcmitype/StillImage" />
        <dc:title />
      </cc:Work>
    </rdf:RDF>
  </metadata>
  <g
     inkscape:groupmode="layer"
     id="layer2"
     inkscape:label="White"
     style="display:none">
    <path
       id="path6528-3"
       d="m 131.48532,132.989 c 13.11737,-5.52304 13.6351,-26.2347 7.76683,-36.93576 -7.76683,-14.49821 -27.44287,-12.08179 -40.73291,-8.28469 3.6246,-10.52841 10.35581,-25.02659 22.61027,-27.097739 12.0818,-2.071147 23.99091,5.350507 34.34675,10.355849 9.32023,4.3149 25.88956,9.83804 32.62088,-2.07119 2.07119,-5.005299 -3.96973,-9.147631 -9.49285,-12.599625 -5.35053,-3.451856 -11.04618,-6.731214 -16.9145,-8.802397 128.75739,-27.270302 132.20938,242.844062 -3.96974,204.354872 -9.83801,-2.76148 -19.33085,-6.73121 -28.47849,-11.39134 12.77213,1.03553 26.4073,-0.34513 36.59051,-8.62984 8.80251,-7.07649 13.29005,-21.74727 -1.03558,-25.1992 -12.94472,-3.10675 -26.92513,4.83271 -39.69728,5.86827 -16.05152,1.38081 -29.68672,1.72602 -38.83436,-10.87361 7.07648,-0.86293 12.59963,-2.76148 15.36112,-4.83267 4.83277,-3.45194 9.49286,-8.28466 9.83806,-14.49814 0.86302,-11.90926 -8.28463,-22.95548 -18.46782,-27.96075 -4.66018,-2.24375 -10.35585,-3.10671 -15.36115,-1.72597 -6.55868,1.89853 -8.4573,7.59425 -13.1174,11.90918 -4.4875,4.31493 -8.62983,7.42173 -14.84331,8.62983 -7.24909,1.20821 -14.15305,-2.2437 -19.84868,-6.55865 -3.10676,-2.41635 -5.69575,-5.1779 -8.28467,-7.93947 11.56402,1.72596 27.09774,4.66008 33.82903,-8.45725 5.5231,-10.52838 -1.03562,-22.43762 4.83266,-32.96607 7.42169,-13.63511 26.23479,-2.93411 35.555,2.41641 10.70105,6.21348 21.22948,19.33081 35.72763,13.28995 z m 60.23631,-19.84865 c -2.76153,0 -5.0053,2.24374 -5.0053,5.00532 v 19.67608 h -19.67607 c -2.7615,0 -5.00529,2.24371 -5.00529,5.00531 v 14.84327 c 0,2.76159 2.24379,5.00536 5.00529,5.00536 h 19.67607 v 19.6761 c 0,2.76155 2.24377,5.00526 5.0053,5.00526 h 14.8434 c 2.76151,0 5.00529,-2.24371 5.00529,-5.00526 v -20.02128 h 19.67606 c 2.76161,0 5.00533,-2.24378 5.00533,-5.00531 v -14.84341 c 0,-2.76146 -2.24372,-5.00528 -5.00533,-5.00528 h -19.84865 v -19.50343 c 0,-2.76159 -2.24372,-5.00531 -5.00531,-5.00531 h -14.67079 z"
       inkscape:connector-curvature="0"
       style="fill:#ffffff;fill-opacity:1;stroke-width:1.72597063" />
  </g>
  <g
     inkscape:groupmode="layer"
     id="layer3"
     inkscape:label="Black"
     style="display:none">
    <path
       id="path6528-6"
       d="m 131.48532,132.989 c 13.11737,-5.52304 13.6351,-26.2347 7.76683,-36.935755 -7.76683,-14.498212 -27.44288,-12.081791 -40.73291,-8.284697 3.62459,-10.528411 10.3558,-25.026588 22.61026,-27.097737 12.08181,-2.071147 23.99092,5.350507 34.34676,10.355847 9.32023,4.314898 25.88956,9.83804 32.62088,-2.071184 2.07119,-5.005303 -3.96973,-9.147635 -9.49285,-12.599629 -5.35053,-3.451856 -11.04618,-6.731214 -16.9145,-8.802397 128.75739,-27.270302 132.20938,242.844062 -3.96974,204.354872 -9.83801,-2.76148 -19.33085,-6.73121 -28.47849,-11.39134 12.77213,1.03553 26.4073,-0.34513 36.59051,-8.62984 8.80251,-7.07649 13.29005,-21.74727 -1.03558,-25.1992 -12.94472,-3.10675 -26.92513,4.83271 -39.69728,5.86827 -16.05153,1.38081 -29.68672,1.72602 -38.83437,-10.87361 7.07649,-0.86293 12.59964,-2.76148 15.36112,-4.83267 4.83277,-3.45194 9.49286,-8.28466 9.83806,-14.49814 0.86302,-11.90926 -8.28463,-22.95548 -18.46781,-27.96075 -4.66018,-2.24375 -10.35585,-3.10671 -15.36116,-1.72597 -6.55868,1.89853 -8.4573,7.59425 -13.1174,11.90918 -4.4875,4.31493 -8.62983,7.42173 -14.84331,8.62983 -7.24909,1.20821 -14.15304,-2.2437 -19.84868,-6.55865 -3.10676,-2.41635 -5.69575,-5.1779 -8.28466,-7.93947 11.56402,1.72596 27.09774,4.66008 33.82902,-8.45725 5.52311,-10.52838 -1.03561,-22.43762 4.83267,-32.96607 7.42169,-13.6351 26.23479,-2.93411 35.555,2.41641 10.70104,6.21348 21.22947,19.33081 35.72763,13.28995 z m 60.23631,-19.84865 c -2.76153,0 -5.0053,2.24374 -5.0053,5.00532 v 19.67608 h -19.67607 c -2.7615,0 -5.00529,2.24371 -5.00529,5.00531 v 14.84327 c 0,2.76159 2.24379,5.00536 5.00529,5.00536 h 19.67607 v 19.6761 c 0,2.76155 2.24377,5.00526 5.0053,5.00526 h 14.8434 c 2.76151,0 5.00529,-2.24371 5.00529,-5.00526 v -20.02128 h 19.67606 c 2.76161,0 5.00533,-2.24378 5.00533,-5.00531 v -14.84341 c 0,-2.76146 -2.24372,-5.00528 -5.00533,-5.00528 h -19.84865 v -19.50343 c 0,-2.76159 -2.24372,-5.00531 -5.00531,-5.00531 h -14.67079 z"
       inkscape:connector-curvature="0"
       style="fill:#000000;fill-opacity:1;stroke-width:1.72597063" />
  </g>
  <g
     inkscape:label="Colour"
     inkscape:groupmode="layer"
     id="layer1"
     transform="translate(0,2.9999847)"
     style="display:inline">
    <path
       id="path6528"
       d="m 131.48483,129.98922 c 13.11737,-5.52304 13.6351,-26.2347 7.76683,-36.93575 -7.76683,-14.498211 -27.44287,-12.08179 -40.732906,-8.284697 3.624596,-10.528412 10.355806,-25.026588 22.610266,-27.097737 12.0818,-2.071147 23.99091,5.350507 34.34675,10.355847 9.32023,4.314897 25.88957,9.83804 32.62089,-2.071184 2.07118,-5.005303 -3.96974,-9.147635 -9.49285,-12.599629 -5.35054,-3.451856 -11.04618,-6.731214 -16.91451,-8.802397 128.7574,-27.270302 132.20938,242.844057 -3.96974,204.354867 -9.838,-2.76148 -19.33084,-6.7312 -28.47848,-11.39134 12.77213,1.03553 26.4073,-0.34513 36.5905,-8.62984 8.80251,-7.07649 13.29005,-21.74727 -1.03558,-25.19919 -12.94472,-3.10676 -26.92512,4.8327 -39.69728,5.86827 -16.05152,1.38081 -29.686716,1.72601 -38.834359,-10.87362 7.076483,-0.86293 12.599633,-2.76148 15.361119,-4.83267 4.83277,-3.45193 9.49286,-8.28466 9.83806,-14.49814 0.86302,-11.90926 -8.28463,-22.95547 -18.467816,-27.96075 -4.660178,-2.24374 -10.355849,-3.1067 -15.361153,-1.72597 -6.558683,1.89854 -8.457299,7.59426 -13.117399,11.90919 -4.487499,4.31492 -8.629831,7.42172 -14.84331,8.62983 -7.249089,1.20821 -14.153045,-2.24371 -19.848683,-6.55865 -3.106757,-2.41635 -5.695746,-5.17791 -8.284663,-7.93948 11.564021,1.72597 27.097738,4.66008 33.829021,-8.45725 5.523108,-10.52837 -1.03561,-22.43762 4.832667,-32.96607 7.42169,-13.6351 26.234794,-2.93411 35.555,2.41642 10.701046,6.21348 21.229476,19.3308 35.727626,13.28994 z m 60.23632,-19.84865 c -2.76153,0 -5.00531,2.24375 -5.00531,5.00533 v 19.67607 h -19.67607 c -2.7615,0 -5.00528,2.24372 -5.00528,5.00531 v 14.84327 c 0,2.7616 2.24378,5.00537 5.00528,5.00537 h 19.67607 v 19.67609 c 0,2.76155 2.24378,5.00527 5.00531,5.00527 h 14.84339 c 2.76151,0 5.00529,-2.24372 5.00529,-5.00527 v -20.02128 h 19.67606 c 2.76161,0 5.00533,-2.24378 5.00533,-5.00531 v -14.84341 c 0,-2.76145 -2.24372,-5.00527 -5.00533,-5.00527 h -19.84865 v -19.50343 c 0,-2.7616 -2.24372,-5.00532 -5.00531,-5.00532 h -14.67078 z"
       inkscape:connector-curvature="0"
       style="fill:#e5332a;fill-opacity:1;stroke-width:1.72597063" />
  </g>
  <style
     id="style1094">.st0{fill:#1aa3dd}.st1{fill:#006a97}.st2{enable-background:new}.st3{fill:#0c6e99}.st4{fill:#10a5de}</style>
</svg>
