<?xml version="1.0" encoding="UTF-8" standalone="no"?>
<!-- Created with Inkscape (http://www.inkscape.org/) -->

<svg
   xmlns:dc="http://purl.org/dc/elements/1.1/"
   xmlns:cc="http://creativecommons.org/ns#"
   xmlns:rdf="http://www.w3.org/1999/02/22-rdf-syntax-ns#"
   xmlns:svg="http://www.w3.org/2000/svg"
   xmlns="http://www.w3.org/2000/svg"
   xmlns:sodipodi="http://sodipodi.sourceforge.net/DTD/sodipodi-0.dtd"
   xmlns:inkscape="http://www.inkscape.org/namespaces/inkscape"
   width="58mm"
   height="8mm"
   viewBox="0 0 58 8"
   version="1.1"
   id="svg6738"
   inkscape:version="0.92.3 (2405546, 2018-03-11)"
   sodipodi:docname="ukhc-18-pen.svg">
  <defs
     id="defs6732" />
  <sodipodi:namedview
     id="base"
     pagecolor="#ffffff"
     bordercolor="#666666"
     borderopacity="1.0"
     inkscape:pageopacity="0.0"
     inkscape:pageshadow="2"
     inkscape:zoom="1.4"
     inkscape:cx="129.6941"
     inkscape:cy="-75.309422"
     inkscape:document-units="mm"
     inkscape:current-layer="layer1"
     showgrid="false"
     units="mm"
     inkscape:window-width="1281"
     inkscape:window-height="735"
     inkscape:window-x="78"
     inkscape:window-y="78"
     inkscape:window-maximized="0" />
  <metadata
     id="metadata6735">
    <rdf:RDF>
      <cc:Work
         rdf:about="">
        <dc:format>image/svg+xml</dc:format>
        <dc:type
           rdf:resource="http://purl.org/dc/dcmitype/StillImage" />
        <dc:title></dc:title>
      </cc:Work>
    </rdf:RDF>
  </metadata>
  <g
     inkscape:label="Layer 1"
     inkscape:groupmode="layer"
     id="layer1"
     transform="translate(0,-289)">
    <path
       id="path6528"
       d="m 6.4614883,292.38461 c 0.4850485,-0.20424 0.5041935,-0.9701 0.2871983,-1.3658 -0.2871983,-0.5361 -1.0147709,-0.44675 -1.5062041,-0.30635 0.1340284,-0.38931 0.3829325,-0.92542 0.8360732,-1.002 0.4467554,-0.0766 0.8871261,0.19785 1.2700598,0.38294 0.3446402,0.15954 0.9573345,0.36378 1.2062422,-0.0766 0.076586,-0.18508 -0.1467913,-0.33826 -0.3510226,-0.4659 -0.1978502,-0.12764 -0.4084617,-0.2489 -0.6254587,-0.32549 4.7611386,-1.00839 4.8887836,8.97978 -0.1467912,7.55655 -0.3637858,-0.10212 -0.7148075,-0.24891 -1.0530653,-0.42123 0.4722826,0.0383 0.9764779,-0.0128 1.3530282,-0.31911 0.3254945,-0.26167 0.4914325,-0.80416 -0.038293,-0.93181 -0.4786655,-0.11488 -0.9956266,0.17871 -1.4679106,0.217 -0.5935459,0.0511 -1.097743,0.0638 -1.4360003,-0.40209 0.2616712,-0.0319 0.4659035,-0.10211 0.5680169,-0.17869 0.1787039,-0.12765 0.351023,-0.30635 0.3637882,-0.53611 0.031912,-0.44037 -0.3063458,-0.84883 -0.6828961,-1.03391 -0.1723215,-0.083 -0.3829338,-0.11488 -0.5680181,-0.0638 -0.2425242,0.0702 -0.3127306,0.28082 -0.4850497,0.44038 -0.1659368,0.15954 -0.3191103,0.27444 -0.5488693,0.3191 -0.2680541,0.0447 -0.5233459,-0.083 -0.7339563,-0.24252 -0.1148805,-0.0893 -0.2106153,-0.19147 -0.306347,-0.29358 0.4276097,0.0638 1.0020089,0.17232 1.2509154,-0.31273 0.2042312,-0.38932 -0.038293,-0.82969 0.1787002,-1.21901 0.2744362,-0.50418 0.9700993,-0.1085 1.3147376,0.0893 0.395699,0.22975 0.7850157,0.7148 1.3211218,0.49143 z m 2.2273942,-0.73396 c -0.1021162,0 -0.1850855,0.083 -0.1850855,0.18508 v 0.72757 H 7.7762235 c -0.102113,0 -0.1850825,0.083 -0.1850825,0.18509 v 0.54887 c 0,0.10212 0.082969,0.18509 0.1850825,0.18509 H 8.503797 v 0.72757 c 0,0.10212 0.082969,0.18509 0.1850855,0.18509 h 0.5488706 c 0.1021152,0 0.1850856,-0.083 0.1850856,-0.18509 v -0.74034 h 0.7275723 c 0.102118,0 0.185084,-0.083 0.185084,-0.18507 v -0.54888 c 0,-0.10212 -0.08297,-0.18508 -0.185084,-0.18508 H 9.4164565 v -0.72119 c 0,-0.10212 -0.082967,-0.18509 -0.1850856,-0.18509 H 8.6888825 Z"
       inkscape:connector-curvature="0"
       style="fill:#e5332a;fill-opacity:1;stroke-width:0.06382221" />
    <text
       x="12.48122"
       y="294.67416"
       style="font-weight:bold;font-size:5.23351765px;font-family:'Open Sans';white-space:pre;fill:#e5332a;stroke-width:0.02180632"
       id="text5">UK Health Camp </text>
  </g>
</svg>
