<svg xmlns="http://www.w3.org/2000/svg" viewBox="0 0 269.782 91.025"><title>UKGovCamp</title><defs><linearGradient id="ukgc-grad-b" x1="62.501" y1="449.768" x2="37.42" y2="453.293" gradientUnits="userSpaceOnUse"><stop offset="0" stop-color="#8f1924"/><stop offset="1" stop-color="#d43b47"/></linearGradient><linearGradient id="ukgc-grad-a" x1="59.274" y1="418.916" x2="33.073" y2="408.503" gradientUnits="userSpaceOnUse"><stop offset="0" stop-color="#192751"/><stop offset="1" stop-color="#3d50a1"/></linearGradient></defs><g id="g4960"><path d="M-24.702 435.593c6.608 1.912 12.002 1.23 15.24-3.446 3.237-4.675.498-8.435.133-10.867-.364-2.431-.586-6.365 4.74-6.556 5.326-.191 10.649 6.539 18.902 9.602 8.254 3.064 15.611-5.893 12.652-12.374-2.959-6.482-9.009-10.392-19.48-6.075 2.445-11.362 8.554-13.77 21.295-8.458 3.537 1.475 12.743 5.445 15.72 1.665 1.984-3.307-6.413-9.2-13.736-9.342 35.56-9.533 43.924 26.057 44.412 42.002-6.048-3.165-8.373-2.382-8.67-.543-.296 1.839 1.825 9.776-1.984 10.087-4.3.352-4.505-5.455-4.583-10.607-1.707-4.126-4.45.734-6.331.355-1.882-.38-7.607-3.638-9.308-1.725-2.079 2.457-2.315 6.78-7.016 6.78-5.15.33-9.827-5.055-15.568-4.37-5.74.685-7.2 1.426-11.192 5.939-1.352-1.05-5.229-6.147-11.15-5.513-5.92.635-5.39 6.707-9.63 8.28-4.24 1.573-6.808 1.305-14.446-4.834z" fill="url(#ukgc-grad-a)" stroke="url(#ukgc-grad-a)" stroke-linejoin="round" transform="translate(27.637 -387.656)"/><path d="M2.981 455.87s2.492 3.446 8.639 4.95c6.214.436 12.964-4.292 18.71-4.091 5.747.2 7.77 1.87 8.407 5.757.638 3.887-3.475 10.53-14.7 10.13 26.471 14.076 48.765 1.425 51.27-37.354 0 0-5.547-3.677-6.054-1.339-.59 2.726 1.254 9.474-4.48 10.43-5.733.956-6.407-3.951-7.05-8.917-.573-4.421-3.265-.83-5.537-.897-2.271-.067-4.945-2.72-6.68-1.28-1.49 1.236-1.699 3.42-4.466 5.007-5.767 2.745-12.414-1.853-17.536-3.366-3.942-1.135-6.304.317-10.683 5.438 1.614 7.348-2.406 17.32-9.84 15.531z" fill="url(#ukgc-grad-b)" stroke="url(#ukgc-grad-b)" stroke-linecap="round" stroke-linejoin="round" transform="translate(27.637 -387.656)"/><path d="M26.272 64.812s3.909 6.849 10.056 8.352c6.214 1.57 14.098-3.441 19.845-3.24 5.746.2 7.296 1.68 7.65 5.378.355 3.698-4.042 8.452-15.268 8.052 29.685 17.1 51.885 3.031 54.39-35.748 0 0-5.547-3.677-6.054-1.339-.592 2.726 1.253 9.474-4.48 10.43-5.734.956-6.408-3.951-7.05-8.917-.573-4.421-3.265-.83-5.537-.897-2.272-.067-4.946-2.72-6.68-1.28-1.49 1.236-1.7 3.42-4.467 5.007-5.767 2.745-12.413-1.853-17.535-3.365-3.943-1.136-8.478 1.922-12.857 7.043 1.33 8.955-4.013 14.013-12.013 10.524z" fill="none" stroke="#8f1924" stroke-linecap="round" stroke-linejoin="round"/><path d="M.5 46.286c3.669.609 10.461 2.046 14.434-3.331 3.973-5.377-1.09-8.767.067-12.772.775-2.683 3.441-5.206 6.878-5.253 6.874-.094 11.76 7.166 18.568 10.37 6.808 3.206 15.611-4.193 12.285-12.307-3.327-8.115-14.883-6.355-17.576-.095 2.776-11.61 8.523-18.448 21.26-13.134 3.538 1.475 10.773 4.842 13.75 1.063 1.984-3.308-4.441-8.6-11.765-8.741 35.561-9.533 43.924 26.057 44.412 42.003-6.047-3.166-8.373-2.383-8.67-.544-.296 1.839 1.826 9.776-1.984 10.087-4.3.352-4.505-5.454-4.583-10.607-1.706-4.126-4.449.734-6.33.355-1.883-.38-7.608-3.638-9.308-1.725-2.08 2.457-2.316 6.78-7.017 6.78-5.15.331-9.827-5.055-15.568-4.37-5.74.685-9.662 2.906-12.662 7.843-1.352-1.05-6.878-5.933-11.717-6.615-4.839-.68-6.008 4.01-10.016 6.426-4.01 2.416-10.021.67-14.458-5.433z" fill="none" stroke="#192751" stroke-linejoin="round"/><g fill="#3d50a1" stroke-width="1.798"><path d="M117.877 38.605v6.99c-.776 1.036-1.51 1.424-2.308 1.424-.993 0-1.597-.626-1.597-1.489v-6.925h-5.825v7.27c0 3.064 1.964 5.243 5.286 5.243 1.877 0 3.344-.669 4.444-2.028v1.597h5.825V38.605ZM136 50.687h6.105l-4.875-7.077 4.638-5.005h-6.192l-3.862 4.336v-8.22h-5.825v15.966h5.825v-2.309l1.597-1.596z"/><path d="M158.2 38.605h-5.825v1.445c-1.165-1.38-2.74-1.877-4.466-1.877-3.733 0-6.235 2.18-6.235 6.041 0 3.84 2.502 6.041 6.235 6.041 1.704 0 3.3-.496 4.466-1.877v.82c0 1.294-.95 2.46-3.646 2.46-1.748 0-3.733-.497-4.617-.993l-1.338 3.473c1.661.799 4.444 1.295 6.688 1.295 3.905 0 8.738-1.51 8.738-7.357zm-8.63 7.68c-1.575 0-2.416-.884-2.416-2.07 0-1.209.841-2.072 2.416-2.072 1.057 0 2.028.475 2.805 1.424v1.294c-.777.95-1.748 1.424-2.805 1.424zM168.102 51.204c4.984 0 8.199-2.48 8.199-6.558 0-4.078-3.215-6.559-8.199-6.559-4.983 0-8.198 2.481-8.198 6.559 0 4.077 3.215 6.558 8.198 6.558zm0-4.228c-1.575 0-2.718-.863-2.718-2.33s1.143-2.33 2.718-2.33c1.597 0 2.719.863 2.719 2.33s-1.122 2.33-2.719 2.33zM193.193 38.605h-5.89l-2.675 6.86-2.675-6.86h-5.976l5.652 12.082h5.912zM208.166 47.472l-4.639-1.899c-.539 1.058-1.488 1.403-2.502 1.403-1.618 0-2.675-.885-2.675-2.33 0-1.446 1.057-2.33 2.675-2.33 1.035 0 1.92.366 2.416 1.359l4.639-1.899c-.95-1.92-3.129-3.689-7.12-3.689-4.94 0-8.09 2.503-8.09 6.559s3.15 6.558 8.09 6.558c3.991 0 6.213-1.726 7.206-3.732zM216.515 38.13c-2.006 0-4.66.345-6.429 1.057l.97 3.56a11.256 11.256 0 0 1 4.23-.841c2.157 0 3.343.733 3.343 1.898v.734c-.906-.885-2.437-1.403-4.271-1.403-2.46 0-5.523.971-5.523 3.992 0 3.02 3.063 3.991 5.523 3.991 1.834 0 3.365-.518 4.271-1.402v.064c0 .324.151.67.367.907h5.825c-.345-.69-.496-1.381-.496-2.244V43.89c0-3.69-2.89-5.76-7.81-5.76zm2.2 9.061c-.69.734-1.725.928-2.48.928-.863 0-1.791-.259-1.791-.992 0-.734.928-.993 1.79-.993.756 0 1.791.194 2.482.928zM246.007 38.173c-2.438 0-3.948 1.273-4.703 2.827-.712-1.726-2.287-2.827-4.682-2.827-1.855 0-3.236.67-4.271 2.072v-1.64h-5.825v12.082h5.825v-6.904c.669-1.079 1.359-1.51 2.136-1.51.927 0 1.423.625 1.423 1.488v6.926h5.826v-6.904c.668-1.079 1.359-1.51 2.135-1.51.928 0 1.424.625 1.424 1.488v6.926h5.825v-7.25c0-3.063-1.726-5.264-5.113-5.264zM263.547 51.118c3.733 0 6.235-2.395 6.235-6.472 0-4.078-2.502-6.473-6.235-6.473-1.726 0-3.3.497-4.466 1.877v-1.445h-5.825V55h5.825v-5.76c1.165 1.38 2.74 1.877 4.466 1.877zm-1.769-8.845c1.64 0 2.524.949 2.524 2.373 0 1.424-.884 2.373-2.524 2.373-.928 0-1.92-.302-2.697-1.295v-2.157c.777-.992 1.77-1.294 2.697-1.294z"/></g></g></svg>