<svg width="600.1" height="269.093" xmlns="http://www.w3.org/2000/svg"><title>College of Healthcare Information Management Executives</title><style>.st1{fill:#2284c8}.st2{fill:#b5c430}</style><path d="M326.037 78.863c-11.329 7.38-24.342 11.197-38.045 13.72v3.378c14.025-2.778 27.245-7.268 38.611-14.8-.131-.868-.317-1.636-.566-2.298z" class="st2"/><path d="M588.4 256.093c1.1.7 2.9 1.5 4.6 1.5 2.5 0 3.7-1.4 3.7-3.2 0-1.8-1-2.8-3.5-3.9-3.5-1.4-5.1-3.5-5.1-6 0-3.4 2.5-6.2 6.6-6.2 1.9 0 3.6.6 4.7 1.3l-.8 2.8c-.7-.5-2.1-1.2-3.9-1.2-2 0-3.2 1.3-3.2 2.9 0 1.8 1.1 2.6 3.6 3.6 3.3 1.4 5 3.2 5 6.4 0 3.8-2.6 6.4-7.1 6.4-2.1 0-4-.6-5.4-1.5zm-17.3-6.1c.1 5.2 3 7.4 6.5 7.4 2.5 0 4-.5 5.3-1.1l.6 2.7c-1.2.6-3.4 1.4-6.4 1.4-5.8 0-9.4-4.3-9.4-10.7 0-6.4 3.4-11.5 9-11.5 6.2 0 7.8 6.1 7.8 10 0 .8 0 1.4-.1 1.8zm10.1-2.7c0-2.4-.9-6.3-4.8-6.3-3.5 0-5 3.6-5.3 6.3zm-29.3-8.5 3.7 11.9c.6 2 1.1 3.7 1.5 5.5h.1c.4-1.8 1-3.5 1.6-5.5l3.7-11.9h3.6l-7.5 21.2h-3.3l-7.3-21.2zm-8.9-3.9c-1.3 0-2.2-1.1-2.2-2.5s.9-2.5 2.2-2.5c1.3 0 2.2 1.1 2.2 2.5.1 1.3-.8 2.5-2.2 2.5zm-1.6 3.9h3.5v21.2h-3.5zm-8.9-5.1v5.1h5v2.9h-5v11.4c0 2.6.7 4.1 2.6 4.1 1 0 1.5-.1 2-.3l.2 2.9c-.7.3-1.7.5-3.1.5-1.6 0-2.9-.6-3.7-1.6-.9-1.2-1.3-3.1-1.3-5.6v-11.6h-3v-2.9h3v-3.9zm-9.9 20.5c0 2.2 0 4.1.2 5.8h-3.1l-.2-3.5h-.1c-.9 1.7-2.9 3.9-6.3 3.9-3 0-6.6-1.9-6.6-9.3v-12.4h3.5v11.7c0 4 1.1 6.8 4.3 6.8 2.3 0 3.9-1.8 4.6-3.5.2-.5.3-1.2.3-2v-13h3.5v15.5zm-20.1 5c-.9.5-2.9 1.2-5.5 1.2-5.8 0-9.5-4.3-9.5-10.9 0-6.5 4-11.3 10.3-11.3 2 0 3.9.6 4.8 1.1l-.8 2.9c-.8-.5-2.1-1-4-1-4.4 0-6.7 3.6-6.7 8.1 0 4.9 2.8 7.9 6.6 7.9 2 0 3.3-.5 4.3-1zm-31.3-9.2c.1 5.2 3 7.4 6.5 7.4 2.5 0 4-.5 5.3-1.1l.6 2.7c-1.2.6-3.4 1.4-6.4 1.4-5.8 0-9.4-4.3-9.4-10.7 0-6.4 3.4-11.5 9-11.5 6.2 0 7.8 6.1 7.8 10 0 .8 0 1.4-.1 1.8zm10.1-2.7c0-2.4-.9-6.3-4.8-6.3-3.5 0-5 3.6-5.3 6.3zm-28.2-8.5 2.7 4.5c.7 1.2 1.3 2.3 1.9 3.5h.1c.6-1.2 1.3-2.3 1.9-3.5l2.6-4.5h3.8l-6.5 10.3 6.7 10.9h-3.9l-2.8-4.8c-.8-1.2-1.4-2.4-2.1-3.7h-.1c-.6 1.3-1.3 2.4-2 3.7l-2.8 4.8h-3.8l6.8-10.8-6.5-10.4zm-6.5-5.1h-10.9v9.3H446v3.1h-10.3v10.7h11.5v3.2h-15v-29.5h14.4zm-31.7 0v5.1h5v2.9h-5v11.4c0 2.6.7 4.1 2.6 4.1.9 0 1.5-.1 2-.3l.2 2.9c-.7.3-1.7.5-3.1.5-1.6 0-2.9-.6-3.7-1.6-.9-1.2-1.3-3.1-1.3-5.6v-11.6h-3v-2.9h3v-3.9zm-25.9 10.8c0-2.2 0-4-.2-5.7h3.1l.2 3.5h.1c.9-2 3.2-3.9 6.3-3.9 2.6 0 6.7 1.8 6.7 9v12.7h-3.5v-12.2c0-3.4-1.1-6.3-4.4-6.3-2.2 0-4 1.8-4.7 3.9-.2.5-.2 1.2-.2 1.8v12.8h-3.5v-15.6zm-17.8 5.5c.1 5.2 3 7.4 6.5 7.4 2.5 0 4-.5 5.3-1.1l.6 2.7c-1.2.6-3.4 1.4-6.4 1.4-5.8 0-9.4-4.3-9.4-10.7 0-6.4 3.4-11.5 9-11.5 6.2 0 7.8 6.1 7.8 10 0 .8 0 1.4-.1 1.8zm10.2-2.7c0-2.4-.9-6.3-4.8-6.3-3.5 0-5 3.6-5.3 6.3zm-45-2.8c0-2.2-.1-4-.2-5.7h3l.2 3.4h.1c1.1-2 2.8-3.9 6-3.9 2.6 0 4.5 1.8 5.4 4.2h.1c.6-1.2 1.4-2.1 2.2-2.8 1.1-1 2.4-1.5 4.2-1.5 2.6 0 6.3 1.8 6.3 9.2v12.5h-3.4v-12c0-4.1-1.4-6.5-4.1-6.5-2 0-3.5 1.6-4.1 3.5-.2.6-.3 1.3-.3 1.9v13.1h-3.5v-12.7c0-3.4-1.3-5.8-4-5.8-2.1 0-3.7 1.9-4.3 3.9-.2.6-.3 1.2-.3 1.9v12.8h-3.4v-15.5zm-17.8 5.5c.1 5.2 3 7.4 6.5 7.4 2.5 0 4-.5 5.3-1.1l.6 2.7c-1.2.6-3.4 1.4-6.4 1.4-5.8 0-9.4-4.3-9.4-10.7 0-6.4 3.4-11.5 9-11.5 6.2 0 7.8 6.1 7.8 10 0 .8 0 1.4-.1 1.8zm10.1-2.7c0-2.4-.9-6.3-4.8-6.3-3.5 0-5 3.6-5.3 6.3zm-17.8 9.6c0 4.9-.9 7.8-2.7 9.7-1.9 1.9-4.6 2.5-7 2.5-2.3 0-4.8-.6-6.3-1.8l.9-3c1.3.9 3.2 1.7 5.6 1.7 3.5 0 6.2-2.1 6.2-7.4v-2.3h-.1c-1 2-3.1 3.5-6.1 3.5-4.7 0-8.1-4.5-8.1-10.4 0-7.2 4.2-11.2 8.6-11.2 3.3 0 5.1 1.9 5.9 3.6h.1l.1-3.2h3.1c-.1 1.5-.2 3.2-.2 5.8zm-3.4-9.8c0-.6 0-1.2-.2-1.7-.6-2.3-2.3-4.1-4.8-4.1-3.3 0-5.7 3.1-5.7 8.1 0 4.1 1.9 7.6 5.6 7.6 2.2 0 4.1-1.5 4.8-4 .2-.6.3-1.4.3-2.1zm-18.5 7.8c0 1.8.1 3.6.3 5.1h-3.1l-.3-2.7h-.1c-1 1.7-3.1 3.2-5.8 3.2-3.9 0-5.8-3-5.8-6.1 0-5.1 4.1-7.9 11.5-7.9v-.4c0-1.8-.4-4.9-4.3-4.9-1.8 0-3.7.6-5 1.6l-.8-2.6c1.6-1.1 3.9-1.8 6.3-1.8 5.9 0 7.3 4.4 7.3 8.7v7.8zm-3.3-5.7c-3.8-.1-8.1.7-8.1 4.8 0 2.5 1.5 3.7 3.2 3.7 2.5 0 4.1-1.8 4.7-3.5.1-.4.2-.8.2-1.2zm-32-4.7c0-2.2 0-4-.2-5.7h3.1l.2 3.5h.1c.9-2 3.2-3.9 6.3-3.9 2.6 0 6.7 1.8 6.7 9v12.7h-3.5v-12.2c0-3.4-1.1-6.3-4.4-6.3-2.2 0-4 1.8-4.7 3.9-.2.5-.2 1.2-.2 1.8v12.8h-3.5v-15.6zm-5.5 10.4c0 1.8.1 3.6.3 5.1h-3.2l-.3-2.7h-.1c-1 1.7-3.1 3.2-5.8 3.2-3.9 0-5.8-3-5.8-6.1 0-5.1 4.1-7.9 11.5-7.9v-.4c0-1.8-.4-4.9-4.3-4.9-1.8 0-3.7.6-5 1.6l-.8-2.6c1.6-1.1 3.9-1.8 6.3-1.8 5.9 0 7.3 4.4 7.3 8.7v7.8zm-3.4-5.7c-3.8-.1-8.1.7-8.1 4.8 0 2.5 1.5 3.7 3.2 3.7 2.5 0 4.1-1.8 4.7-3.5.1-.4.2-.8.2-1.2zm-19.5-2.2c-.2-4.1-.4-9.1-.4-12.7h-.1c-.9 3.4-2 7.1-3.4 11.2l-4.7 14.3h-2.6l-4.3-14.1c-1.3-4.2-2.3-8-3-11.5h-.1c-.1 3.7-.3 8.6-.5 13.1l-.7 12.7h-3.3l1.8-29.5h4.4l4.5 14.3c1.1 3.6 2 6.9 2.7 9.9h.1c.7-3 1.7-6.2 2.8-9.9l4.7-14.3h4.4l1.7 29.5h-3.4zm-52.7-2.5c0-2.2 0-4-.2-5.7h3.1l.2 3.5h.1c.9-2 3.2-3.9 6.3-3.9 2.6 0 6.7 1.8 6.7 9v12.7h-3.5v-12.2c0-3.4-1.1-6.3-4.4-6.3-2.2 0-4 1.8-4.7 3.9-.2.5-.2 1.2-.2 1.8v12.8h-3.5v-15.6zm-13.9 16c-5.1 0-9.1-4.2-9.1-10.9 0-7.1 4.2-11.3 9.5-11.3 5.5 0 9.2 4.4 9.2 10.9-.1 7.8-5 11.3-9.6 11.3zm.1-2.9c3.3 0 5.8-3.5 5.8-8.3 0-3.6-1.6-8.1-5.7-8.1s-5.8 4.2-5.8 8.2c0 4.7 2.3 8.2 5.7 8.2zm-15.4-22.7c-1.3 0-2.2-1.1-2.2-2.5s.9-2.5 2.2-2.5c1.3 0 2.2 1.1 2.2 2.5.1 1.3-.8 2.5-2.2 2.5zm-1.7 3.9h3.5v21.2h-3.5zm-8.9-5.1v5.1h5v2.9h-5v11.4c0 2.6.7 4.1 2.6 4.1.9 0 1.5-.1 2-.3l.2 2.9c-.7.3-1.7.5-3.1.5-1.6 0-2.9-.6-3.7-1.6-.9-1.2-1.3-3.1-1.3-5.6v-11.6h-3v-2.9h3v-3.9zm-9.5 21.2c0 1.8.1 3.6.3 5.1h-3.1l-.3-2.7h-.1c-1 1.7-3.1 3.2-5.8 3.2-3.9 0-5.8-3-5.8-6.1 0-5.1 4.1-7.9 11.5-7.9v-.4c0-1.8-.4-4.9-4.3-4.9-1.8 0-3.7.6-5 1.6l-.8-2.6c1.6-1.1 3.9-1.8 6.3-1.8 5.9 0 7.3 4.4 7.3 8.7v7.8zm-3.4-5.7c-3.8-.1-8.1.7-8.1 4.8 0 2.5 1.5 3.7 3.2 3.7 2.5 0 4.1-1.8 4.7-3.5.1-.4.2-.8.2-1.2zm-43-4.7c0-2.2-.1-4-.2-5.7h3l.2 3.4h.1c1.1-2 2.8-3.9 6-3.9 2.6 0 4.5 1.8 5.4 4.2h.1c.6-1.2 1.4-2.1 2.2-2.8 1.1-1 2.4-1.5 4.2-1.5 2.6 0 6.3 1.8 6.3 9.2v12.5h-3.4v-12c0-4.1-1.4-6.5-4.1-6.5-2 0-3.5 1.6-4.1 3.5-.2.6-.3 1.3-.3 1.9v13.1h-3.4v-12.7c0-3.4-1.3-5.8-4-5.8-2.1 0-3.7 1.9-4.3 3.9-.2.6-.3 1.2-.3 1.9v12.8h-3.4zm-13 .9c0-2.5 0-4.6-.2-6.6h3l.2 4.2h.1c.9-2.8 3-4.6 5.3-4.6.4 0 .6 0 .9.1v3.6c-.4 0-.8-.1-1.2-.1-2.4 0-4.2 2.1-4.7 4.9-.1.6-.1 1.2-.1 1.8v11.3h-3.5zm-13.9 15.1c-5.1 0-9.1-4.2-9.1-10.9 0-7.1 4.2-11.3 9.5-11.3 5.5 0 9.2 4.4 9.2 10.9-.1 7.8-5 11.3-9.6 11.3zm.1-2.9c3.3 0 5.8-3.5 5.8-8.3 0-3.6-1.6-8.1-5.7-8.1s-5.8 4.2-5.8 8.2c0 4.7 2.4 8.2 5.7 8.2zm-18.6 2.4v-18.3h-2.6v-2.9h2.6v-1c0-3 .6-5.7 2.2-7.4 1.3-1.4 3-2 4.6-2 1.3 0 2.3.3 3 .6l-.4 3c-.6-.3-1.2-.5-2.2-.5-2.9 0-3.7 2.9-3.7 6.1v1.1h4.6v2.9H35v18.3h-3.5zm-22.2-15.5c0-2.2 0-4-.2-5.7h3.2l.2 3.5h.1c.9-2 3.2-3.9 6.3-3.9 2.6 0 6.7 1.8 6.7 9v12.7h-3.5v-12.2c0-3.4-1.1-6.3-4.4-6.3-2.2 0-4 1.8-4.7 3.9-.2.5-.2 1.2-.2 1.8v12.8H9.3zm-9.3-14h3.5v29.5H0Zm460.2-29.8c.1 5.2 3 7.4 6.5 7.4 2.5 0 4-.5 5.3-1.1l.6 2.7c-1.2.6-3.4 1.4-6.4 1.4-5.8 0-9.4-4.3-9.4-10.7 0-6.4 3.4-11.5 9-11.5 6.2 0 7.8 6.1 7.8 10 0 .8 0 1.4-.1 1.8zm10.1-2.8c0-2.4-.9-6.3-4.8-6.3-3.5 0-5 3.6-5.3 6.3zm-24.7-1.9c0-2.5 0-4.6-.2-6.6h3l.2 4.2h.1c.9-2.8 3-4.6 5.3-4.6.4 0 .6 0 .9.1v3.6c-.4 0-.7-.1-1.2-.1-2.4 0-4.2 2.1-4.7 4.9-.1.6-.1 1.2-.1 1.8v11.3h-3.5zm-5.6 9.5c0 1.8.1 3.6.3 5.1h-3.1l-.3-2.7h-.1c-1 1.7-3.1 3.2-5.8 3.2-3.9 0-5.8-3-5.8-6.1 0-5.1 4.1-7.9 11.5-7.9v-.4c0-1.8-.4-4.9-4.3-4.9-1.8 0-3.7.6-5 1.6l-.8-2.6c1.6-1.1 3.9-1.8 6.3-1.8 5.9 0 7.3 4.4 7.3 8.7v7.8zm-3.4-5.7c-3.8-.1-8.1.7-8.1 4.8 0 2.5 1.5 3.7 3.2 3.7 2.5 0 4.1-1.8 4.7-3.5.1-.4.2-.8.2-1.2zm-14.1 10.1c-.9.5-2.9 1.2-5.5 1.2-5.8 0-9.5-4.3-9.5-10.9 0-6.5 4-11.3 10.3-11.3 2 0 3.9.6 4.8 1.1l-.8 2.9c-.8-.5-2.1-1-4-1-4.4 0-6.7 3.6-6.7 8.1 0 4.9 2.8 7.9 6.6 7.9 2 0 3.3-.5 4.3-1zm-35.5-30.4h3.5v13.2h.1c.6-1.1 1.4-2.1 2.5-2.7 1-.7 2.2-1.1 3.5-1.1 2.6 0 6.7 1.8 6.7 9.1v12.6h-3.5v-12.2c0-3.5-1.1-6.3-4.4-6.3-2.2 0-4 1.8-4.7 3.9-.2.5-.2 1.1-.2 1.8v12.8H387Zm-8.9 4.8v5.1h5v2.9h-5v11.4c0 2.6.7 4.1 2.6 4.1.9 0 1.5-.1 2-.3l.2 2.9c-.7.3-1.7.5-3.1.5-1.6 0-2.9-.6-3.7-1.6-.9-1.2-1.3-3.1-1.3-5.6v-11.6h-3v-2.9h3v-3.9zm-13.4-4.8h3.5v31.1h-3.5zm-5.5 26c0 1.8.1 3.6.3 5.1h-3.2l-.3-2.7h-.1c-1 1.7-3.1 3.2-5.8 3.2-3.9 0-5.8-3-5.8-6.1 0-5.1 4.1-7.9 11.5-7.9v-.4c0-1.8-.4-4.9-4.3-4.9-1.8 0-3.7.6-5 1.6l-.8-2.6c1.6-1.1 3.9-1.8 6.3-1.8 5.9 0 7.3 4.4 7.3 8.7v7.8zm-3.4-5.7c-3.8-.1-8.1.7-8.1 4.8 0 2.5 1.5 3.7 3.2 3.7 2.5 0 4.1-1.8 4.7-3.5.1-.4.2-.8.2-1.2zm-27.8.9c.1 5.2 3 7.4 6.5 7.4 2.5 0 4-.5 5.3-1.1l.6 2.7c-1.2.6-3.4 1.4-6.4 1.4-5.8 0-9.4-4.3-9.4-10.7 0-6.4 3.4-11.5 9-11.5 6.2 0 7.8 6.1 7.8 10 0 .8 0 1.4-.1 1.8zm10.1-2.8c0-2.4-.9-6.3-4.8-6.3-3.6 0-5 3.6-5.3 6.3zm-34.3-1.1v13.8h-3.5v-29.5h3.5v12.3h12.8v-12.3h3.5v29.5h-3.5v-13.8zm-23.1 13.8v-18.3h-2.6v-2.9h2.6v-1c0-3 .6-5.7 2.2-7.4 1.3-1.4 3-2 4.6-2 1.3 0 2.3.3 3 .6l-.4 3c-.6-.3-1.2-.5-2.2-.5-2.9 0-3.7 2.9-3.7 6.1v1.1h4.6v2.9h-4.6v18.3h-3.5zm-14.2.5c-5.1 0-9.1-4.2-9.1-10.9 0-7.1 4.2-11.3 9.5-11.3 5.5 0 9.2 4.4 9.2 10.9-.1 7.9-5 11.3-9.6 11.3zm.1-2.9c3.3 0 5.8-3.5 5.8-8.3 0-3.6-1.6-8.1-5.7-8.1s-5.8 4.2-5.8 8.2c0 4.7 2.3 8.2 5.7 8.2zm-34-7.5c.1 5.2 3 7.4 6.5 7.4 2.5 0 4-.5 5.3-1.1l.6 2.7c-1.2.6-3.3 1.4-6.4 1.4-5.8 0-9.4-4.3-9.4-10.7 0-6.4 3.4-11.5 9-11.5 6.2 0 7.8 6.1 7.8 10 0 .8 0 1.4-.1 1.8zm10.1-2.8c0-2.4-.9-6.3-4.8-6.3-3.6 0-5 3.6-5.3 6.3zm-17.8 9.6c0 4.9-.9 7.8-2.7 9.7-1.9 1.9-4.6 2.5-7 2.5-2.3 0-4.8-.6-6.3-1.8l.9-3c1.3.9 3.2 1.7 5.6 1.7 3.6 0 6.2-2.1 6.2-7.4v-2.3h-.1c-1 2-3.1 3.5-6.1 3.5-4.7 0-8.1-4.5-8.1-10.4 0-7.2 4.2-11.2 8.6-11.2 3.3 0 5.1 1.9 5.9 3.6h.1l.1-3.2h3.1c-.1 1.5-.2 3.2-.2 5.8zm-3.4-9.8c0-.6 0-1.2-.2-1.7-.6-2.3-2.3-4.1-4.8-4.1-3.3 0-5.7 3.1-5.7 8.1 0 4.1 1.9 7.6 5.6 7.6 2.2 0 4.1-1.5 4.8-4 .2-.6.3-1.4.3-2.1zm-30.7 3c.1 5.2 3 7.4 6.5 7.4 2.5 0 4-.5 5.3-1.1l.6 2.7c-1.2.6-3.4 1.4-6.4 1.4-5.8 0-9.4-4.3-9.4-10.7 0-6.4 3.4-11.5 9-11.5 6.2 0 7.8 6.1 7.8 10 0 .8 0 1.4-.1 1.8zm10.2-2.8c0-2.4-.9-6.3-4.8-6.3-3.5 0-5 3.6-5.3 6.3zm-21.4-18.4h3.5v31.1h-3.5zm-9.2 0h3.5v31.1h-3.5zm-13.9 31.6c-5.1 0-9.1-4.2-9.1-10.9 0-7.1 4.2-11.3 9.5-11.3 5.5 0 9.2 4.4 9.2 10.9-.1 7.9-5 11.3-9.6 11.3zm.2-2.9c3.3 0 5.8-3.5 5.8-8.3 0-3.6-1.6-8.1-5.7-8.1s-5.8 4.2-5.8 8.2c-.1 4.7 2.3 8.2 5.7 8.2zm-11.6 1.5c-1.2.7-3.8 1.4-7 1.4-7.5 0-13.1-5.3-13.1-15 0-9.3 5.6-15.5 13.9-15.5 3.3 0 5.4.8 6.3 1.3l-.9 3.1c-1.3-.7-3.1-1.2-5.3-1.2-6.2 0-10.4 4.4-10.4 12.2 0 7.3 3.7 11.9 10.2 11.9 2.1 0 4.3-.5 5.6-1.2z" style="fill:#727171"/><path class="st1" d="M301.6 124.193c0 9.8.5 30.6 4.7 31.1l2.4.3c1 .8 1 4.1-.1 4.9-4.4-.3-9.3-.4-15.1-.4-5.7 0-11 .1-15.1.4-1.1-.8-1.1-4.1-.1-4.9l2.4-.3c4.2-.6 4.7-21.3 4.7-31.1v-21.1c0-5.6 0-7.1-2.4-9l-1.8-1.3c-.9-.8-.9-3.4 0-4.2 5.9-1.8 14.9-5.6 18.6-8.1 1 0 1.8.4 2.3 1.3-.3 4.2-.4 10.4-.4 16.7v25.7z"/><circle cx="502.2" cy="73.993" r="4.8" style="fill:none;stroke:#2284c8;stroke-width:.3884"/><path class="st2" d="M313.437 18.57c-23.842-.228-48.288 10.961-66.838 24.524-15.6 11.4-30.9 29.9-27.6 50.6 3.7 23.8 31.7 30.7 52 30.6 14.2 0 28.7-4.1 42.2-8.2 7.6-2.3 14.8-5.302 21.6-9.602 1.1-.7 2.2-4.499.2-3.299-5.6 3.6-11.4 6.1-17.7 8.3-13 4.4-27.4 8.3-41.1 9-20.2 1.1-47.5-4.4-53.8-26.9-7.6-27.3 24.3-49.5 44.6-59.7 21.2-10.7 57.6-19.5 77.5-1.9 12.738 11.244 2.304 27.83-6.667 37.156.94-.019 1.906-.047 2.875-.09a73.651 73.651 0 0 0 5.892-7.465c5.2-7.5 7.8-17 4.7-25.9-3.8-11-17.4-14.701-27.7-16.301a70.19 70.19 0 0 0-10.162-.823zM333.1 57.193c6-14.8-2.1-23.1-16.6-26-13.2-2.7-28.7 1.4-40.6 7.3-.8.4-1.7 3.1-.6 2.5 8.6-4.3 18.2-6.8 27.7-7.7 15.2-1.5 36.3 4.5 28.5 23.9-.7 1.8 1.1 1.2 1.6 0"/><path class="st1" d="M315 72.193c-1-1.1-1-4.5.4-4.9 4.3.3 9.7.4 15.9.4 4.2 0 7.8 0 12.3-.4 0 8.7 4.4 17.2 10 30.4l8.3 19.7c1.3 2.8 5 10.8 6.8 14.3 1.6-3.4 3.6-7.7 7-16l6.4-15.4c6.2-14.4 8.8-21 11.6-33 5.8.6 9.7.4 13.5.4 4.2 0 9.9-.1 14.5-.4 1.4.8 1.4 3.5.4 4.9l-3.6.7c-5.2 1.1-7.7 2.7-7.7 10.1 0 28.8.3 43.9 1 61.6.3 6.4.8 9.7 5.7 10.5l4 .6c1 1.1 1 4.3-.3 4.9-5.8-.3-11.2-.4-17.4-.4-5.7 0-12.6.1-18.6.4-1.5-.7-1.6-3.9-.4-4.9l3.8-.6c5.8-1.3 5.8-2.5 5.8-11.1l-.3-36.4v-16h-.2c-9.3 22.4-19.4 45.8-27.7 69.4-.6.6-1.5 1-2.5 1-1.1 0-2.5-.3-3.3-.8-4.9-17.3-19.9-51.4-27-69.5h-.2c-.5 9.1-.8 14.6-.9 21.8-.1 9.1-.3 23.1-.3 31.5 0 7 .8 8.8 5.8 9.8l4.9.8c1 1 .8 4.2-.3 4.9-4.7-.3-10.1-.4-14.9-.4-4 0-9.2.1-14.2.4-1.6-.6-1.6-4.2-.5-4.9l2.3-.4c6.4-1.4 6.8-2.1 7.6-10.8.6-6.9 1.3-19 2-32.3.5-9.4.9-20.7.9-28.3 0-8-2.8-9.8-7.8-11.1z"/><path d="M257.2 48.693c-17.4 12.3-33.8 41.5-11.8 57.4 21.8 15.7 59.3 4.2 80.2-6.3 20.8-10.4 40.5-26.7 48.6-49.2 3.1-8.7 4.5-20.1-.4-28.4-6.8-11.4-18.8-17.4-31.3-20.3-15.7-3.6-32-1.5-47.6 1.6-18 3.6-37.9 11.7-51.4 24.7-2.3 2.2-3 9.5 1 5.6 16.1-15.4 40.5-22.2 62-25.1 20.7-2.8 55.5-.6 63.5 23.3 8.6 25.6-20.3 47.7-39.7 58.7-21.2 11.9-65 25.5-85.2 3.9-11.9-12.6.4-31.2 11.6-39.1 2.3-1.5 4.4-9.6.5-6.8" class="st2"/><path class="st1" d="M212.3 115.693c-5.2 0-5.3.1-5.3 4.1v20.1c0 13 .8 14 6.4 15.1l4 .6c1 .8 1 4.1 0 4.9-7.2-.3-13.5-.4-19.2-.4-6 0-12.3.1-18.8.4-1-.8-1-4.1 0-4.9l3-.4c5.7-1.3 6.4-2.2 6.4-15.3v-52.1c0-13-.8-14-6.4-15.3l-3-.4c-1-.8-1-4.1 0-4.9 6.2.3 12.7.4 18.8.4 5.7 0 12-.1 17.5-.4 1 .8 1 4.1 0 4.9l-2.6.4c-5.4 1.3-6.2 2.2-6.2 15.3v16.2c0 4.1.1 4.2 5.3 4.2h26.2c5.3 0 5.3-.1 5.3-4.2v-16.2c0-13-.6-14-6.4-15.1l-3.4-.6c-1-.8-1-4.1 0-4.9 6.9.3 13.1.4 19.1.4 6.2 0 12-.1 17.8-.4 1 .8 1 4.1 0 4.9l-2.5.4c-5.8 1.3-6.5 2.2-6.5 15.3v52.1c0 13 .8 14 6.5 15.1l3 .6c1 .8 1 4.1 0 4.9-6.3-.3-12.5-.4-18.3-.4-6.3 0-12.5.1-18.5.4-1-.8-1-4.1 0-4.9l2.8-.4c5.8-1.3 6.4-2.2 6.4-15.3v-20.1c0-3.9 0-4.1-5.3-4.1zm288.2-44.2c.4-.1.9-.1 1.3-.1.7 0 1.2.1 1.6.4.3.2.4.6.4 1 0 .7-.4 1.2-1 1.4.4.1.7.5.8 1.1.2.8.3 1.3.4 1.5h-.7c-.1-.2-.2-.6-.4-1.3-.2-.7-.4-1-1.1-1h-.7v2.3h-.7v-5.3zm.7 2.4h.7c.7 0 1.2-.4 1.2-1 0-.7-.5-1-1.2-1-.3 0-.6 0-.7.1zm-332.2-4.8c0 2.5.4 13.7 1.5 21.8-.5 1.7-3.9 2.2-4.8 1-3.4-13-11.5-20-23.7-20-14 0-29 13.3-29 41.1s14.5 42.8 29.6 42.8c15.2 0 22.3-12.2 25.7-21.7 1-1.1 4-.7 4.8 1-.9 10.4-3 18.8-4.8 22-6.8 2.1-15.7 5.2-25.6 5.2-12.3 0-24.9-3.2-33.9-10.6-9.1-7.7-16-19.3-16-36.7 0-17.1 6.6-29.1 15.2-37.1 8.9-8.3 21.8-12.5 34.9-12.5 13 .1 22.3 3.5 26.1 3.7m288.4 35c0 3.9.1 4.2 3.5 4.2h8.7c6.5 0 7.9-1 9.3-7.7l.6-3.5c.9-1.1 4-1.1 4.7.1-.3 4.5-.4 9.5-.4 14.8 0 5.3.1 10.4.4 14.8-.6 1.3-3.8 1.4-4.7.1l-.6-3.5c-1.4-6.7-2.8-7.8-9.3-7.8h-8.7c-3.4 0-3.5.1-3.5 4.3v16.7c0 6.4.5 10.9 2 13.3 1.6 2.5 4 3.6 13.2 3.6 11 0 15.2-.4 22.2-16.2 1-1.5 4.1-1 4.7.7-.5 7.3-3.5 18.6-5.3 22.4-6.7-.3-18.8-.4-29.1-.4h-16.4c-6.1 0-12.2.1-21.7.4-1-.8-1-4.2 0-4.9l5.9-1c5.7-.8 6.4-1.8 6.4-14.7v-52.2c0-12.7-.7-13.7-6.4-14.8l-3.1-.7c-1.1-.8-1-4.1.3-4.9 5.9.3 12.1.4 18.1.4h26.7c8.1 0 15.2-.1 16.9-.4.1 2.2 1 12.3 1.6 21.7-.5 1.5-3.4 1.8-4.7.6-1.4-4.9-3.1-9.1-4.8-11.1-2.4-2.7-6.2-4.3-12.3-4.3h-10.1c-4.1 0-4.1.3-4.1 5.5zm-154.9-41.3c0 6.7-4.6 10.1-9.3 10.1-5.4 0-8.7-4.2-8.7-9.8 0-6 4.4-10.1 9.3-10.1 5.2-.1 8.7 4.3 8.7 9.8"/></svg>