<svg viewBox="0 0 249.002 91.025" xml:space="preserve" xmlns="http://www.w3.org/2000/svg"><title>UKGovCamp</title><path d="M303.78 82.71s2.491 3.446 8.638 4.95c6.214.436 12.964-4.292 18.71-4.091 5.747.2 7.77 1.87 8.407 5.757.638 3.887-3.475 10.53-14.7 10.13 26.471 14.076 48.765 1.425 51.27-37.354 0 0-5.547-3.677-6.054-1.34-.59 2.727 1.254 9.475-4.48 10.43-5.733.957-6.407-3.95-7.05-8.916-.573-4.421-3.265-.83-5.537-.897-2.27-.067-4.945-2.72-6.68-1.28-1.49 1.236-1.699 3.42-4.466 5.007-5.767 2.745-12.414-1.853-17.536-3.366-3.942-1.135-6.304.317-10.683 5.438 1.614 7.348-2.406 17.32-9.84 15.53z" fill="url(#a)" stroke="url(#a)" stroke-linecap="round" stroke-linejoin="round" style="fill:#d43b47;fill-opacity:1;stroke:#d43b47;stroke-opacity:1" transform="translate(-273.161 -14.496)"/><path style="fill:#8f1924;stroke:#8f1924;stroke-width:.00330439" d="M347.37 59.675a1.818 1.818 0 0 0-1.066.424c-.27.225-.492.488-.701.766a1.542 1.542 0 0 0 .924 1.453 1.542 1.542 0 0 0 1.96-.955 1.542 1.542 0 0 0-.43-1.637 2.788 2.788 0 0 0-.687-.05zm9.746.391c-.325-.01-.696.117-1.082.275a1.555 1.555 0 0 0-.109.124 1.555 1.555 0 0 0 .96 1.978 1.555 1.555 0 0 0 1.575-.508c-.24-1.374-.719-1.85-1.344-1.869zm-1.41.41c-.644.293-1.332.651-2.012.815a1.555 1.555 0 0 0 .094.082 1.555 1.555 0 0 0 1.918-.897zm-5.537.014a1.555 1.555 0 0 0-1.51.933 1.555 1.555 0 0 0 .961 1.977 1.555 1.555 0 0 0 1.977-.963 1.555 1.555 0 0 0-.242-1.447 22.12 22.12 0 0 1-1.186-.5zm3.565 1.04a1.555 1.555 0 0 0-1.977.964 1.555 1.555 0 0 0 .96 1.976 1.555 1.555 0 0 0 1.977-.963 1.555 1.555 0 0 0-.96-1.976zm-33.881.255c-.38.147-.76.34-1.145.572a.854.854 0 0 0 .047.041.854.854 0 0 0 1.086-.527.854.854 0 0 0 .012-.086zm2.582.002a.927.927 0 0 0-1.178.572.927.927 0 0 0 .572 1.18.927.927 0 0 0 1.18-.574.927.927 0 0 0-.574-1.178zm24.015.748a1.506 1.506 0 0 0-1.914.932 1.506 1.506 0 0 0 .932 1.914 1.506 1.506 0 0 0 1.914-.932 1.506 1.506 0 0 0-.932-1.914zm10.381.066a1.555 1.555 0 0 0-1.976.963 1.555 1.555 0 0 0 .96 1.977 1.555 1.555 0 0 0 1.98-.963 1.555 1.555 0 0 0-.964-1.977zm-31.277.192a.994.994 0 0 0-1.264.615.994.994 0 0 0 .615 1.264.994.994 0 0 0 1.264-.616.994.994 0 0 0-.615-1.263zm18.728.06a7.75 7.75 0 0 1-1.203 1.348 1.433 1.433 0 0 0 1.137-.846 1.433 1.433 0 0 0 .066-.502zm5.282.711a1.549 1.549 0 0 0-1.97.96 1.549 1.549 0 0 0 .958 1.968 1.549 1.549 0 0 0 1.969-.957 1.549 1.549 0 0 0-.957-1.97zm9.162.2a1.555 1.555 0 0 0-.774.87 1.555 1.555 0 0 0 .963 1.977 1.555 1.555 0 0 0 .336-.02c-.225-.885-.384-1.843-.525-2.828zm11.568.02a1.555 1.555 0 0 0-.39.024c-.004.94-.022 1.933-.174 2.889a1.555 1.555 0 0 0 1.527-.936 1.555 1.555 0 0 0-.963-1.976zm-41.621.022a1.055 1.055 0 0 0-1.342.653 1.055 1.055 0 0 0 .653 1.341 1.055 1.055 0 0 0 1.341-.652 1.055 1.055 0 0 0-.652-1.342zm-10.453.14a.786.786 0 0 0-1 .487.786.786 0 0 0 .486 1 .786.786 0 0 0 1.002-.486.786.786 0 0 0-.488-1zm34.443.683a1.555 1.555 0 0 0-1.976.962 1.555 1.555 0 0 0 .96 1.977 1.555 1.555 0 0 0 1.977-.96 1.555 1.555 0 0 0-.96-1.98zm-10.295.123c-.173.119-.331.24-.529.353-.443.211-.893.365-1.346.494a1.378 1.378 0 0 0 .848 1.69 1.378 1.378 0 0 0 1.752-.854 1.378 1.378 0 0 0-.725-1.683zm-10.576.06a1.122 1.122 0 0 0-1.426.695 1.122 1.122 0 0 0 .694 1.426 1.122 1.122 0 0 0 1.427-.693 1.122 1.122 0 0 0-.695-1.428zm41.6.043a1.555 1.555 0 0 0-1.977.961 1.555 1.555 0 0 0 .963 1.979 1.555 1.555 0 0 0 1.977-.963 1.555 1.555 0 0 0-.963-1.977zm-52.05.094a.86.86 0 0 0-1.093.531.86.86 0 0 0 .531 1.094.86.86 0 0 0 1.094-.533.86.86 0 0 0-.531-1.092zm24.019.742a1.445 1.445 0 0 0-1.838.893 1.445 1.445 0 0 0 .894 1.838 1.445 1.445 0 0 0 1.838-.893 1.445 1.445 0 0 0-.895-1.838zm10.4.008a1.555 1.555 0 0 0-1.977.963 1.555 1.555 0 0 0 .961 1.976 1.555 1.555 0 0 0 1.979-.96 1.555 1.555 0 0 0-.963-1.98zm-20.846.115a1.195 1.195 0 0 0-1.52.738 1.195 1.195 0 0 0 .739 1.522 1.195 1.195 0 0 0 1.52-.74 1.195 1.195 0 0 0-.739-1.52zm4.598.012a9.814 9.814 0 0 1-1.49.12 1.317 1.317 0 0 0 .24.214 1.317 1.317 0 0 0 1.25-.334zm-15.05.129a.927.927 0 0 0-1.179.574.927.927 0 0 0 .573 1.178.927.927 0 0 0 1.18-.575.927.927 0 0 0-.575-1.177zm51.314.013a1.555 1.555 0 0 0-1.264.918 1.555 1.555 0 0 0 .072 1.188 1.555 1.555 0 0 0 .85.756c.127-.935.24-1.89.342-2.862zm-61.43.391c-.243.275-.47.519-.727.818.012.056.018.114.03.17a.67.67 0 0 0 .779-.41.67.67 0 0 0-.082-.578zm34.137.332a1.518 1.518 0 0 0-1.932.94 1.518 1.518 0 0 0 .94 1.931 1.518 1.518 0 0 0 1.931-.94 1.518 1.518 0 0 0-.94-1.93zm10.377.078a1.555 1.555 0 0 0-1.979.963 1.555 1.555 0 0 0 .963 1.977 1.555 1.555 0 0 0 1.976-.961 1.555 1.555 0 0 0 .065-.309c-.19-.414-.351-.861-.49-1.334a1.555 1.555 0 0 0-.536-.336zm-20.83.063a1.25 1.25 0 0 0-1.59.773 1.25 1.25 0 0 0 .773 1.59 1.25 1.25 0 0 0 1.59-.773 1.25 1.25 0 0 0-.774-1.59zm-10.45.136a.988.988 0 0 0-1.256.61.988.988 0 0 0 .61 1.256.988.988 0 0 0 1.258-.61.988.988 0 0 0-.612-1.256zm-10.449.13a.732.732 0 0 0-.93.45.732.732 0 0 0 .453.932.732.732 0 0 0 .93-.453.732.732 0 0 0-.453-.93zm52.516.019c-.21 1.022-.602 1.963-1.301 2.697a1.555 1.555 0 0 0 1.84-.955 1.555 1.555 0 0 0-.54-1.742zm-18.057.617a1.549 1.549 0 0 0-1.969.957 1.549 1.549 0 0 0 .957 1.969 1.549 1.549 0 0 0 1.97-.957 1.549 1.549 0 0 0-.958-1.969zm-10.441.111a1.31 1.31 0 0 0-1.668.81 1.31 1.31 0 0 0 .81 1.669 1.31 1.31 0 0 0 1.668-.813 1.31 1.31 0 0 0-.81-1.666zm31.171.108a1.555 1.555 0 0 0-1.976.963 1.555 1.555 0 0 0 .963 1.976 1.555 1.555 0 0 0 1.976-.963 1.555 1.555 0 0 0-.963-1.976zm-41.62.021a1.055 1.055 0 0 0-1.342.653 1.055 1.055 0 0 0 .654 1.341 1.055 1.055 0 0 0 1.34-.652 1.055 1.055 0 0 0-.653-1.342zm-10.448.13a.799.799 0 0 0-1.016.493.799.799 0 0 0 .495 1.016.799.799 0 0 0 1.015-.494.799.799 0 0 0-.494-1.016zm39.781.638a1.555 1.555 0 0 0-.054.06 1.555 1.555 0 0 0 .963 1.977 1.555 1.555 0 0 0 .89-.055c-.782-.448-1.362-1.132-1.799-1.982zm-5.343.056a1.555 1.555 0 0 0-1.977.961 1.555 1.555 0 0 0 .96 1.977 1.555 1.555 0 0 0 1.98-.961 1.555 1.555 0 0 0-.963-1.977zm-10.422.053a1.378 1.378 0 0 0-1.752.854 1.378 1.378 0 0 0 .851 1.752 1.378 1.378 0 0 0 1.752-.852 1.378 1.378 0 0 0-.851-1.754zm-10.446.125a1.128 1.128 0 0 0-1.435.697 1.128 1.128 0 0 0 .697 1.434 1.128 1.128 0 0 0 1.436-.697 1.128 1.128 0 0 0-.698-1.434zm41.59.047a1.555 1.555 0 0 0-1.97.961 1.555 1.555 0 0 0 .962 1.979 1.555 1.555 0 0 0 .55-.034c.165-.95.321-1.914.458-2.906zm-52.039.082a.872.872 0 0 0-1.11.54.872.872 0 0 0 .542 1.109.872.872 0 0 0 1.107-.541.872.872 0 0 0-.539-1.108zm24.018.748a1.451 1.451 0 0 0-1.846.899 1.451 1.451 0 0 0 .897 1.843 1.451 1.451 0 0 0 1.845-.896 1.451 1.451 0 0 0-.896-1.846zm10.398.016a1.555 1.555 0 0 0-1.978.96 1.555 1.555 0 0 0 .963 1.977 1.555 1.555 0 0 0 1.976-.96 1.555 1.555 0 0 0-.96-1.977zm10.387.123c-.501.467-1.159.824-1.994 1.049a1.555 1.555 0 0 0 .955 1.879 1.555 1.555 0 0 0 1.978-.961 1.555 1.555 0 0 0-.94-1.967zm-31.238.002a1.183 1.183 0 0 0-1.504.732 1.183 1.183 0 0 0 .732 1.504 1.183 1.183 0 0 0 1.504-.732 1.183 1.183 0 0 0-.732-1.504zm-10.448.129a.927.927 0 0 0-1.18.574.927.927 0 0 0 .575 1.178.927.927 0 0 0 1.178-.573.927.927 0 0 0-.573-1.18zm-10.447.123a.677.677 0 0 0-.861.42.677.677 0 0 0 .42.86.677.677 0 0 0 .86-.419.677.677 0 0 0-.419-.861zm34.463.625a1.506 1.506 0 0 0-1.916.931 1.506 1.506 0 0 0 .932 1.916 1.506 1.506 0 0 0 1.916-.931 1.506 1.506 0 0 0-.932-1.916zm10.38.068a1.555 1.555 0 0 0-1.976.961 1.555 1.555 0 0 0 .961 1.977 1.555 1.555 0 0 0 1.977-.961 1.555 1.555 0 0 0-.961-1.977zm-20.831.069a1.244 1.244 0 0 0-1.58.769 1.244 1.244 0 0 0 .77 1.58 1.244 1.244 0 0 0 1.58-.77 1.244 1.244 0 0 0-.77-1.58zm31.195.042a1.555 1.555 0 0 0-1.976.963 1.555 1.555 0 0 0 .962 1.977 1.555 1.555 0 0 0 1.977-.961 1.555 1.555 0 0 0-.963-1.979zm-41.639.075a1 1 0 0 0-1.271.619 1 1 0 0 0 .62 1.271 1 1 0 0 0 1.27-.619 1 1 0 0 0-.619-1.271zm36.184.011c-.078.016-.143.043-.225.057-.851.142-1.58.14-2.224.043a1.555 1.555 0 0 0 .693.613 1.555 1.555 0 0 0 1.756-.713zm-46.63.118a.744.744 0 0 0-.948.46.744.744 0 0 0 .46.946.744.744 0 0 0 .946-.461.744.744 0 0 0-.459-.945zm34.452.648a1.549 1.549 0 0 0-1.968.957 1.549 1.549 0 0 0 .959 1.97 1.549 1.549 0 0 0 1.968-.958 1.549 1.549 0 0 0-.959-1.969zm10.368.107a1.555 1.555 0 0 0-1.977.961 1.555 1.555 0 0 0 .96 1.977 1.555 1.555 0 0 0 1.977-.961 1.555 1.555 0 0 0-.96-1.977zm-20.81.004a1.31 1.31 0 0 0-1.667.81 1.31 1.31 0 0 0 .812 1.669 1.31 1.31 0 0 0 1.666-.81 1.31 1.31 0 0 0-.81-1.669zm31.175.108a1.555 1.555 0 0 0-1.979.963 1.555 1.555 0 0 0 .963 1.976 1.555 1.555 0 0 0 1.018-.062 74.42 74.42 0 0 0 .515-2.559 1.555 1.555 0 0 0-.517-.318zm-41.62.01a1.067 1.067 0 0 0-1.355.66 1.067 1.067 0 0 0 .66 1.357 1.067 1.067 0 0 0 1.356-.66 1.067 1.067 0 0 0-.66-1.357zm-10.447.13a.81.81 0 0 0-1.03.5.81.81 0 0 0 .501 1.032.81.81 0 0 0 1.031-.5.81.81 0 0 0-.502-1.032zm34.436.706a1.555 1.555 0 0 0-1.979.96 1.555 1.555 0 0 0 .963 1.977 1.555 1.555 0 0 0 1.977-.96 1.555 1.555 0 0 0-.961-1.977zm-10.422.048a1.384 1.384 0 0 0-1.76.856 1.384 1.384 0 0 0 .858 1.76 1.384 1.384 0 0 0 1.76-.856 1.384 1.384 0 0 0-.858-1.76zm20.785.065a1.555 1.555 0 0 0-1.976.96 1.555 1.555 0 0 0 .96 1.977 1.555 1.555 0 0 0 1.98-.96 1.555 1.555 0 0 0-.964-1.977zm-31.232.064a1.128 1.128 0 0 0-1.436.698 1.128 1.128 0 0 0 .7 1.433 1.128 1.128 0 0 0 1.433-.697 1.128 1.128 0 0 0-.697-1.434zm-10.45.13a.872.872 0 0 0-1.107.538.872.872 0 0 0 .54 1.11.872.872 0 0 0 1.109-.54.872.872 0 0 0-.541-1.109zm-10.449.134a.61.61 0 0 0-.775.377.61.61 0 0 0 .377.775.61.61 0 0 0 .775-.377.61.61 0 0 0-.377-.775zm34.465.62a1.445 1.445 0 0 0-1.838.894 1.445 1.445 0 0 0 .895 1.837 1.445 1.445 0 0 0 1.836-.894 1.445 1.445 0 0 0-.893-1.838zm10.4.009a1.555 1.555 0 0 0-1.976.96 1.555 1.555 0 0 0 .96 1.977 1.555 1.555 0 0 0 1.977-.96 1.555 1.555 0 0 0-.96-1.977zm10.364.113a1.555 1.555 0 0 0-1.977.961 1.555 1.555 0 0 0 .963 1.977 1.555 1.555 0 0 0 1.977-.961 1.555 1.555 0 0 0-.963-1.977zm-31.213.006a1.189 1.189 0 0 0-1.512.736 1.189 1.189 0 0 0 .737 1.512 1.189 1.189 0 0 0 1.511-.736 1.189 1.189 0 0 0-.736-1.512zm-10.445.125a.939.939 0 0 0-1.194.58.939.939 0 0 0 .58 1.193.939.939 0 0 0 1.194-.58.939.939 0 0 0-.58-1.193zm-10.452.135a.677.677 0 0 0-.859.418.677.677 0 0 0 .418.861.677.677 0 0 0 .861-.42.677.677 0 0 0-.42-.86zm34.461.63a1.5 1.5 0 0 0-1.906.928 1.5 1.5 0 0 0 .928 1.907 1.5 1.5 0 0 0 1.906-.928 1.5 1.5 0 0 0-.928-1.906zm10.383.061a1.555 1.555 0 0 0-1.976.961 1.555 1.555 0 0 0 .96 1.977 1.555 1.555 0 0 0 1.977-.961 1.555 1.555 0 0 0-.96-1.977zm-20.826.057a1.256 1.256 0 0 0-1.598.777 1.256 1.256 0 0 0 .778 1.596 1.256 1.256 0 0 0 1.597-.775 1.256 1.256 0 0 0-.777-1.598zm31.191.056a1.555 1.555 0 0 0-1.978.961 1.555 1.555 0 0 0 .963 1.977 1.555 1.555 0 0 0 1.406-.316c.162-.618.317-1.247.465-1.885a1.555 1.555 0 0 0-.856-.737zm-41.636.061a1.012 1.012 0 0 0-1.287.627 1.012 1.012 0 0 0 .627 1.287 1.012 1.012 0 0 0 1.287-.627 1.012 1.012 0 0 0-.627-1.287zm-10.451.14a.744.744 0 0 0-.948.462.744.744 0 0 0 .461.945.744.744 0 0 0 .946-.46.744.744 0 0 0-.46-.946zm34.455.65a1.549 1.549 0 0 0-1.971.956 1.549 1.549 0 0 0 .959 1.97 1.549 1.549 0 0 0 1.969-.958 1.549 1.549 0 0 0-.957-1.969zm-10.44.099a1.323 1.323 0 0 0-1.681.818 1.323 1.323 0 0 0 .818 1.684 1.323 1.323 0 0 0 1.682-.819 1.323 1.323 0 0 0-.819-1.683zm20.805.008a1.555 1.555 0 0 0-1.977.96 1.555 1.555 0 0 0 .961 1.977 1.555 1.555 0 0 0 1.979-.96 1.555 1.555 0 0 0-.963-1.977zm-31.25.117a1.073 1.073 0 0 0-1.365.664 1.073 1.073 0 0 0 .664 1.363 1.073 1.073 0 0 0 1.365-.664 1.073 1.073 0 0 0-.664-1.363zm-10.453.14a.805.805 0 0 0-1.024.498.805.805 0 0 0 .498 1.024.805.805 0 0 0 1.024-.498.805.805 0 0 0-.498-1.024zm-10.45.135a.543.543 0 0 0-.69.336.543.543 0 0 0 .335.69.543.543 0 0 0 .691-.336.543.543 0 0 0-.336-.69zm44.887.565a1.555 1.555 0 0 0-1.976.96 1.555 1.555 0 0 0 .96 1.979 1.555 1.555 0 0 0 1.977-.963 1.555 1.555 0 0 0-.96-1.976zm-10.42.048a1.384 1.384 0 0 0-1.761.856 1.384 1.384 0 0 0 .857 1.76 1.384 1.384 0 0 0 1.76-.856 1.384 1.384 0 0 0-.856-1.76zm20.783.065a1.555 1.555 0 0 0-1.976.96 1.555 1.555 0 0 0 .963 1.977 1.555 1.555 0 0 0 1.976-.96 1.555 1.555 0 0 0-.962-1.977zm-31.232.064a1.128 1.128 0 0 0-1.434.698 1.128 1.128 0 0 0 .698 1.435 1.128 1.128 0 0 0 1.433-.7 1.128 1.128 0 0 0-.697-1.433zm-10.447.13a.872.872 0 0 0-1.11.538.872.872 0 0 0 .54 1.11.872.872 0 0 0 1.109-.54.872.872 0 0 0-.54-1.109zm-10.451.134a.61.61 0 0 0-.776.377.61.61 0 0 0 .377.775.61.61 0 0 0 .776-.377.61.61 0 0 0-.377-.775zm34.464.62a1.445 1.445 0 0 0-1.837.894 1.445 1.445 0 0 0 .894 1.838 1.445 1.445 0 0 0 1.838-.895 1.445 1.445 0 0 0-.895-1.838zm10.4.009a1.555 1.555 0 0 0-1.976.96 1.555 1.555 0 0 0 .961 1.98 1.555 1.555 0 0 0 1.977-.964 1.555 1.555 0 0 0-.961-1.976zm-20.843.11a1.201 1.201 0 0 0-1.527.741 1.201 1.201 0 0 0 .742 1.528 1.201 1.201 0 0 0 1.527-.743 1.201 1.201 0 0 0-.742-1.527zm31.21.003a1.555 1.555 0 0 0-1.98.961 1.555 1.555 0 0 0 .963 1.977 1.555 1.555 0 0 0 1.672-.616c.122-.386.235-.785.35-1.181a1.555 1.555 0 0 0-1.006-1.141zm-41.66.125a.945.945 0 0 0-1.2.584.945.945 0 0 0 .584 1.201.945.945 0 0 0 1.2-.584.945.945 0 0 0-.583-1.201zm-10.45.14a.677.677 0 0 0-.862.419.677.677 0 0 0 .418.86.677.677 0 0 0 .862-.417.677.677 0 0 0-.418-.861zm34.463.62a1.512 1.512 0 0 0-1.922.935 1.512 1.512 0 0 0 .935 1.922 1.512 1.512 0 0 0 1.922-.935 1.512 1.512 0 0 0-.935-1.922zm10.379.072a1.555 1.555 0 0 0-1.977.961 1.555 1.555 0 0 0 .96 1.979 1.555 1.555 0 0 0 1.98-.963 1.555 1.555 0 0 0-.963-1.977zm-20.823.045a1.268 1.268 0 0 0-1.613.785 1.268 1.268 0 0 0 .785 1.613 1.268 1.268 0 0 0 1.613-.785 1.268 1.268 0 0 0-.785-1.613zm-10.45.135a1.006 1.006 0 0 0-1.278.623 1.006 1.006 0 0 0 .62 1.28 1.006 1.006 0 0 0 1.28-.624 1.006 1.006 0 0 0-.623-1.28zm-10.452.14a.738.738 0 0 0-.938.457.738.738 0 0 0 .456.938.738.738 0 0 0 .939-.455.738.738 0 0 0-.457-.94zm-10.447.131a.482.482 0 0 0-.614.297.482.482 0 0 0 .297.613.482.482 0 0 0 .614-.298.482.482 0 0 0-.297-.612zm44.904.512a1.549 1.549 0 0 0-1.97.959 1.549 1.549 0 0 0 .958 1.969 1.549 1.549 0 0 0 1.969-.96 1.549 1.549 0 0 0-.957-1.968zm-10.438.096a1.329 1.329 0 0 0-1.689.822 1.329 1.329 0 0 0 .822 1.69 1.329 1.329 0 0 0 1.69-.823 1.329 1.329 0 0 0-.823-1.69zm20.803.011a1.555 1.555 0 0 0-1.976.961 1.555 1.555 0 0 0 .963 1.979 1.555 1.555 0 0 0 1.976-.963 1.555 1.555 0 0 0-.963-1.977zm-31.254.13a1.06 1.06 0 0 0-1.35.656 1.06 1.06 0 0 0 .657 1.347 1.06 1.06 0 0 0 1.35-.656 1.06 1.06 0 0 0-.657-1.348zm-10.447.122a.81.81 0 0 0-1.031.502.81.81 0 0 0 .502 1.032.81.81 0 0 0 1.031-.502.81.81 0 0 0-.502-1.032zm-10.447.13a.555.555 0 0 0-.705.343.555.555 0 0 0 .341.705.555.555 0 0 0 .707-.344.555.555 0 0 0-.343-.705zm44.883.575a1.555 1.555 0 0 0-1.977.963 1.555 1.555 0 0 0 .96 1.977 1.555 1.555 0 0 0 1.978-.963 1.555 1.555 0 0 0-.961-1.977zm-10.418.043a1.39 1.39 0 0 0-1.768.86 1.39 1.39 0 0 0 .86 1.77 1.39 1.39 0 0 0 1.767-.862 1.39 1.39 0 0 0-.86-1.768zm20.783.07a1.555 1.555 0 0 0-1.979.962 1.555 1.555 0 0 0 .963 1.978 1.555 1.555 0 0 0 1.686-.635c.124-.327.236-.674.355-1.01a1.555 1.555 0 0 0-1.025-1.294zm-31.233.06a1.134 1.134 0 0 0-1.441.702 1.134 1.134 0 0 0 .701 1.442 1.134 1.134 0 0 0 1.443-.701 1.134 1.134 0 0 0-.703-1.444zm-10.447.13a.878.878 0 0 0-1.117.543.878.878 0 0 0 .543 1.115.878.878 0 0 0 1.117-.543.878.878 0 0 0-.543-1.115zm-10.45.129a.622.622 0 0 0-.788.385.622.622 0 0 0 .383.79.622.622 0 0 0 .79-.384.622.622 0 0 0-.384-.791zm-10.257.29c-.207.121-.42.235-.639.333a.366.366 0 0 0 .211.197.366.366 0 0 0 .465-.226.366.366 0 0 0-.037-.305zm44.723.33a1.457 1.457 0 0 0-1.852.9 1.457 1.457 0 0 0 .9 1.853 1.457 1.457 0 0 0 1.854-.902 1.457 1.457 0 0 0-.902-1.852zm10.396.019a1.555 1.555 0 0 0-1.976.963 1.555 1.555 0 0 0 .96 1.976 1.555 1.555 0 0 0 1.98-.963 1.555 1.555 0 0 0-.964-1.976zm-20.844.11a1.201 1.201 0 0 0-1.527.741 1.201 1.201 0 0 0 .742 1.528 1.201 1.201 0 0 0 1.528-.743 1.201 1.201 0 0 0-.743-1.527zm-10.45.134a.939.939 0 0 0-1.194.58.939.939 0 0 0 .023.392c.628.029 1.229.069 1.768.135a.939.939 0 0 0-.598-1.107zm-10.448.129a.683.683 0 0 0-.87.422.683.683 0 0 0 .425.869.683.683 0 0 0 .867-.422.683.683 0 0 0-.422-.87zm-10.45.129a.427.427 0 0 0-.542.265.427.427 0 0 0 .265.541.427.427 0 0 0 .543-.263.427.427 0 0 0-.265-.543zm44.917.484a1.524 1.524 0 0 0-1.94.943 1.524 1.524 0 0 0 .944 1.938 1.524 1.524 0 0 0 1.937-.942 1.524 1.524 0 0 0-.941-1.939zm10.373.084a1.555 1.555 0 0 0-1.977.963 1.555 1.555 0 0 0 .963 1.976 1.555 1.555 0 0 0 1.977-.962 1.555 1.555 0 0 0-.963-1.977zm-20.824.05a1.262 1.262 0 0 0-1.604.782 1.262 1.262 0 0 0 .78 1.606 1.262 1.262 0 0 0 1.605-.782 1.262 1.262 0 0 0-.781-1.605zm-10.452.141a.994.994 0 0 0-1.027.348 8.44 8.44 0 0 1 1.69.574.994.994 0 0 0-.663-.922zm-10.445.12a.75.75 0 0 0-.953.462.75.75 0 0 0 .117.647c.449-.148.89-.273 1.334-.404a.75.75 0 0 0-.498-.705zm-10.447.128a.494.494 0 0 0-.629.305.494.494 0 0 0 .307.63.494.494 0 0 0 .627-.308.494.494 0 0 0-.305-.627zm44.9.524a1.549 1.549 0 0 0-1.968.959 1.549 1.549 0 0 0 .957 1.969 1.549 1.549 0 0 0 1.97-.957 1.549 1.549 0 0 0-.959-1.971zm-10.437.101a1.323 1.323 0 0 0-1.684.819 1.323 1.323 0 0 0 .819 1.681 1.323 1.323 0 0 0 1.683-.818 1.323 1.323 0 0 0-.818-1.682zm20.804.006a1.555 1.555 0 0 0-1.978.963 1.555 1.555 0 0 0 .963 1.977 1.555 1.555 0 0 0 1.178-.072c.28-.589.555-1.188.818-1.805a1.555 1.555 0 0 0-.98-1.063zm-31.253.123a1.067 1.067 0 0 0-1.325.623c.472.383.853.836 1.157 1.364a1.067 1.067 0 0 0 .828-.63 1.067 1.067 0 0 0-.66-1.357zm-20.893.247a.567.567 0 0 0-.72.351.567.567 0 0 0 .35.72.567.567 0 0 0 .722-.349.567.567 0 0 0-.352-.722zm-10.451.142a.299.299 0 0 0-.381.184.299.299 0 0 0 .186.38.299.299 0 0 0 .378-.185.299.299 0 0 0-.183-.379zm55.33.445a1.555 1.555 0 0 0-1.977.963 1.555 1.555 0 0 0 .961 1.977 1.555 1.555 0 0 0 1.979-.961 1.555 1.555 0 0 0-.963-1.979zm-10.418.043a1.39 1.39 0 0 0-1.768.862 1.39 1.39 0 0 0 .86 1.767 1.39 1.39 0 0 0 1.767-.861 1.39 1.39 0 0 0-.86-1.768zm-10.447.131a1.134 1.134 0 0 0-1.444.701 1.134 1.134 0 0 0 .701 1.442 1.134 1.134 0 0 0 1.444-.701 1.134 1.134 0 0 0-.701-1.442zm-20.897.258a.622.622 0 0 0-.771.363c.295-.097.59-.196.884-.297a.622.622 0 0 0-.113-.066zm-10.451.135a.36.36 0 0 0-.457.222.36.36 0 0 0 .223.457.36.36 0 0 0 .457-.222.36.36 0 0 0-.223-.457zm44.916.484a1.457 1.457 0 0 0-1.853.9 1.457 1.457 0 0 0 .9 1.854 1.457 1.457 0 0 0 1.853-.9 1.457 1.457 0 0 0-.9-1.854zm10.395.02a1.555 1.555 0 0 0-1.977.963 1.555 1.555 0 0 0 .963 1.976 1.555 1.555 0 0 0 1.976-.96 1.555 1.555 0 0 0-.962-1.98zm-20.846.115a1.195 1.195 0 0 0-1.52.74 1.195 1.195 0 0 0 .739 1.52 1.195 1.195 0 0 0 1.521-.74 1.195 1.195 0 0 0-.74-1.52zm-31.344.389a.427.427 0 0 0-.543.263.427.427 0 0 0 .067.367 13 13 0 0 0 .673-.013.427.427 0 0 0 .067-.076.427.427 0 0 0-.264-.541zm44.912.488a1.518 1.518 0 0 0-1.93.94 1.518 1.518 0 0 0 .938 1.931 1.518 1.518 0 0 0 1.932-.94 1.518 1.518 0 0 0-.94-1.931zM369 87.61a1.555 1.555 0 0 0-1.978.963 1.555 1.555 0 0 0 .963 1.976 1.555 1.555 0 0 0 .603-.035c.422-.72.826-1.469 1.217-2.242a1.555 1.555 0 0 0-.805-.662zm-20.828.059a1.256 1.256 0 0 0-1.596.775 1.256 1.256 0 0 0 .778 1.598 1.256 1.256 0 0 0 1.595-.778 1.256 1.256 0 0 0-.777-1.595zm13.559.906a1.549 1.549 0 0 0-1.97.957 1.549 1.549 0 0 0 .958 1.969 1.549 1.549 0 0 0 1.97-.957 1.549 1.549 0 0 0-.958-1.97zm-10.438.1a1.323 1.323 0 0 0-1.683.818 1.323 1.323 0 0 0 .82 1.681 1.323 1.323 0 0 0 1.682-.818 1.323 1.323 0 0 0-.819-1.682zm-10.445.117a1.08 1.08 0 0 0-1.305.593c.046.302.053.62.041.95a1.08 1.08 0 0 0 .56.498 1.08 1.08 0 0 0 1.372-.668 1.08 1.08 0 0 0-.668-1.373zm23.982.847a1.555 1.555 0 0 0-1.976.961 1.555 1.555 0 0 0 .963 1.977 1.555 1.555 0 0 0 1.976-.961 1.555 1.555 0 0 0-.963-1.977zm-10.416.037a1.396 1.396 0 0 0-1.775.864 1.396 1.396 0 0 0 .865 1.775 1.396 1.396 0 0 0 1.775-.863 1.396 1.396 0 0 0-.865-1.776zm-10.447.13a1.14 1.14 0 0 0-1.45.704 1.14 1.14 0 0 0 .706 1.45 1.14 1.14 0 0 0 1.449-.705 1.14 1.14 0 0 0-.705-1.45zm13.564.888a1.451 1.451 0 0 0-1.845.898 1.451 1.451 0 0 0 .898 1.844 1.451 1.451 0 0 0 1.844-.896 1.451 1.451 0 0 0-.897-1.846zm10.399.016a1.555 1.555 0 0 0-1.979.96 1.555 1.555 0 0 0 .725 1.766 36.143 36.143 0 0 0 1.666-2.502 1.555 1.555 0 0 0-.412-.224zm-20.848.113a1.195 1.195 0 0 0-1.52.74 1.195 1.195 0 0 0 .74 1.52 1.195 1.195 0 0 0 1.52-.74 1.195 1.195 0 0 0-.74-1.52zm13.569.879a1.518 1.518 0 0 0-1.93.937 1.518 1.518 0 0 0 .94 1.932 1.518 1.518 0 0 0 1.929-.94 1.518 1.518 0 0 0-.94-1.93zm-10.446.123a1.268 1.268 0 0 0-1.613.785 1.268 1.268 0 0 0 .785 1.611 1.268 1.268 0 0 0 1.611-.783 1.268 1.268 0 0 0-.783-1.613zm-10.447.123a1.018 1.018 0 0 0-.459.027c-.153.501-.357 1.01-.637 1.516a1.018 1.018 0 0 0 .432.38 1.018 1.018 0 0 0 1.295-.628 1.018 1.018 0 0 0-.631-1.295zm24.004.789a1.555 1.555 0 0 0-1.979.96 1.555 1.555 0 0 0 .963 1.98 1.555 1.555 0 0 0 1.977-.963 1.555 1.555 0 0 0-.961-1.977zm-10.438.094a1.335 1.335 0 0 0-1.697.826 1.335 1.335 0 0 0 .826 1.7 1.335 1.335 0 0 0 1.698-.827 1.335 1.335 0 0 0-.827-1.7zm-10.447.13a1.08 1.08 0 0 0-1.373.667 1.08 1.08 0 0 0 .668 1.373 1.08 1.08 0 0 0 1.371-.668 1.08 1.08 0 0 0-.666-1.371zm23.504.874a1.555 1.555 0 0 0-1.5.933 1.555 1.555 0 0 0 .053.877c.496-.577.978-1.18 1.447-1.81zm-9.937.01a1.396 1.396 0 0 0-1.776.863 1.396 1.396 0 0 0 .863 1.775 1.396 1.396 0 0 0 1.776-.863 1.396 1.396 0 0 0-.863-1.776zm-10.45.128a1.14 1.14 0 0 0-1.449.705 1.14 1.14 0 0 0 .705 1.45 1.14 1.14 0 0 0 1.45-.705 1.14 1.14 0 0 0-.706-1.45zm13.569.877a1.463 1.463 0 0 0-1.862.907 1.463 1.463 0 0 0 .907 1.86 1.463 1.463 0 0 0 1.859-.905 1.463 1.463 0 0 0-.904-1.862zm-10.448.131a1.207 1.207 0 0 0-1.535.746 1.207 1.207 0 0 0 .746 1.535 1.207 1.207 0 0 0 1.535-.746 1.207 1.207 0 0 0-.746-1.535zm-10.447.123a.957.957 0 0 0-1.217.592.957.957 0 0 0 .592 1.217.957.957 0 0 0 1.217-.592.957.957 0 0 0-.592-1.217zm24.014.754a1.53 1.53 0 0 0-1.946.947 1.53 1.53 0 0 0 .948 1.946 1.53 1.53 0 0 0 .162-.01 28.487 28.487 0 0 0 1.838-1.73 1.53 1.53 0 0 0-1.002-1.153zm-10.446.123a1.28 1.28 0 0 0-1.628.793 1.28 1.28 0 0 0 .793 1.627 1.28 1.28 0 0 0 1.628-.79 1.28 1.28 0 0 0-.793-1.63zm-10.453.14a1.012 1.012 0 0 0-1.285.628 1.012 1.012 0 0 0 .625 1.287 1.012 1.012 0 0 0 1.287-.627 1.012 1.012 0 0 0-.627-1.287zm13.57.874a1.341 1.341 0 0 0-1.704.828 1.341 1.341 0 0 0 .83 1.707 1.341 1.341 0 0 0 1.705-.83 1.341 1.341 0 0 0-.83-1.705zm-10.45.14a1.073 1.073 0 0 0-1.366.665 1.073 1.073 0 0 0 .664 1.363 1.073 1.073 0 0 0 1.366-.664 1.073 1.073 0 0 0-.664-1.364zm-10.227.258c-.39.225-.805.436-1.246.631a.817.817 0 0 0 .49.785.817.817 0 0 0 1.04-.506.817.817 0 0 0-.284-.91zm23.799.608a1.408 1.408 0 0 0-1.791.87 1.408 1.408 0 0 0 .87 1.792 1.408 1.408 0 0 0 1.792-.871 1.408 1.408 0 0 0-.871-1.791zm-10.453.14a1.14 1.14 0 0 0-1.45.705 1.14 1.14 0 0 0 .706 1.452 1.14 1.14 0 0 0 1.449-.706 1.14 1.14 0 0 0-.705-1.45zm-10.446.123a.89.89 0 0 0-1.132.551.89.89 0 0 0 .55 1.133.89.89 0 0 0 1.133-.55.89.89 0 0 0-.55-1.134zm23.957.748a1.475 1.475 0 0 0-1.814.909 1.475 1.475 0 0 0 .027.464c.61-.427 1.205-.887 1.787-1.373zm-10.388.131a1.213 1.213 0 0 0-1.543.75 1.213 1.213 0 0 0 .75 1.543 1.213 1.213 0 0 0 1.543-.75 1.213 1.213 0 0 0-.75-1.543zm-10.453.14a.945.945 0 0 0-1.202.585.945.945 0 0 0 .584 1.203.945.945 0 0 0 1.204-.586.945.945 0 0 0-.586-1.201zm-13.358.128c-.257.016-.515.03-.781.039a.634.634 0 0 0 .16.142.634.634 0 0 0 .621-.181zm2.91.002a.689.689 0 0 0-.877.426.689.689 0 0 0 .426.877.689.689 0 0 0 .877-.426.689.689 0 0 0-.426-.877zm24.018.742a1.274 1.274 0 0 0-1.62.79 1.274 1.274 0 0 0 .788 1.62 1.274 1.274 0 0 0 1.62-.789 1.274 1.274 0 0 0-.788-1.621zm-10.451.14a1.006 1.006 0 0 0-1.28.624 1.006 1.006 0 0 0 .622 1.279 1.006 1.006 0 0 0 1.279-.623 1.006 1.006 0 0 0-.621-1.28zm-10.446.12a.762.762 0 0 0-.968.47.762.762 0 0 0 .47.97.762.762 0 0 0 .971-.471.762.762 0 0 0-.473-.97zm24.018.748a1.341 1.341 0 0 0-1.707.83 1.341 1.341 0 0 0 .043.703 25.132 25.132 0 0 0 2.213-1.148 1.341 1.341 0 0 0-.549-.385zm-10.453.14a1.073 1.073 0 0 0-1.365.665 1.073 1.073 0 0 0 .664 1.363 1.073 1.073 0 0 0 1.365-.662 1.073 1.073 0 0 0-.664-1.366zm-10.444.118a.83.83 0 0 0-1.054.513.83.83 0 0 0 .512 1.055.83.83 0 0 0 1.054-.514.83.83 0 0 0-.512-1.054zm13.567.884a1.146 1.146 0 0 0-1.46.71 1.146 1.146 0 0 0 .71 1.456 1.146 1.146 0 0 0 1.459-.709 1.146 1.146 0 0 0-.71-1.457zm-10.45.13a.89.89 0 0 0-1.13.55.89.89 0 0 0 .55 1.131.89.89 0 0 0 1.131-.55.89.89 0 0 0-.55-1.132zm13.567.882a1.207 1.207 0 0 0-1.535.746 1.207 1.207 0 0 0 .004.074c.65-.17 1.29-.364 1.922-.584a1.207 1.207 0 0 0-.39-.236zm-10.447.129a.951.951 0 0 0-1.211.588.951.951 0 0 0 .178.844c.451.042.897.066 1.343.09a.951.951 0 0 0 .278-.313.951.951 0 0 0-.588-1.209zm3.119 1.008a1.018 1.018 0 0 0-1.229.553c.603 0 1.2-.014 1.791-.05a1.018 1.018 0 0 0-.562-.503z" transform="translate(-273.161 -14.496)"/><path style="opacity:1;fill:#8f1924;stroke:#8f1924" d="M329.779 180.67c-.552-.212-1.038-.165-1.353.343-1.467 2.372-1.985 9.35-7.709 8.333a8.685 8.685 0 0 1-.822-.194v16.808c5.095-5.148 9.783-12.326 13.79-21.66 0 0-2.25-2.991-3.906-3.63z" transform="rotate(-19.537 -178.68 786.077)"/><path d="M145.835-45.713c6.608 1.912 12.002 1.23 15.24-3.446 3.237-4.675.498-8.435.133-10.867-.364-2.431-.586-6.365 4.74-6.556 5.326-.191 10.649 6.539 18.902 9.602 8.254 3.064 15.61-5.893 12.652-12.374-2.96-6.482-9.01-10.392-19.48-6.075 2.445-11.362 8.554-13.77 21.295-8.458 3.537 1.475 12.743 5.445 15.72 1.665 1.984-3.307-6.413-9.2-13.736-9.342 35.56-9.533 43.924 26.057 44.412 42.002-6.048-3.165-8.373-2.382-8.67-.543-.296 1.839 1.825 9.776-1.984 10.087-4.3.352-4.505-5.455-4.583-10.607-1.707-4.126-4.45.734-6.331.355-1.882-.38-7.607-3.638-9.308-1.725-2.08 2.457-2.315 6.78-7.016 6.78-5.15.33-9.827-5.055-15.568-4.37-5.74.685-7.2 1.426-11.192 5.939-1.352-1.05-5.23-6.147-11.15-5.513-5.92.635-5.39 6.707-9.63 8.28-4.24 1.573-6.808 1.305-14.446-4.834z" fill="url(#b)" stroke="url(#b)" stroke-linejoin="round" style="fill:#3d50a1;fill-opacity:1;stroke:#3d50a1;stroke-opacity:1" transform="translate(-142.9 93.65)"/><path style="fill:#192751;stroke-width:.000639388" d="M213.546-93.14a.777.777 0 0 0 .791.274.777.777 0 0 0 .305-.202c-.366-.023-.722-.06-1.096-.072zm-2.322.022c-.249.009-.49.007-.742.021a.717.717 0 0 0-.315.783.717.717 0 0 0 .905.457.717.717 0 0 0 .457-.906.717.717 0 0 0-.305-.355zm6.89.808a.931.931 0 0 0-.593 1.176.931.931 0 0 0 1.176.594.931.931 0 0 0 .593-1.176.931.931 0 0 0-1.175-.594zm-10.712.227a.643.643 0 0 0-.41.812.643.643 0 0 0 .81.41.643.643 0 0 0 .41-.812.643.643 0 0 0-.81-.41zm13.402.031a1.005 1.005 0 0 0 1.162.516 1.005 1.005 0 0 0 .158-.082c-.436-.15-.868-.306-1.32-.434zm-5.914.873a.864.864 0 0 0-.55 1.09.864.864 0 0 0 1.089.55.864.864 0 0 0 .553-1.09.864.864 0 0 0-1.092-.55zm10.021.676a1.152 1.152 0 0 0-.04.55 1.152 1.152 0 0 0 1.453.737 1.152 1.152 0 0 0 .459-.305 26.248 26.248 0 0 0-1.872-.982zm-2.529.232a1.079 1.079 0 0 0-.69 1.362 1.079 1.079 0 0 0 1.362.689 1.079 1.079 0 0 0 .69-1.361 1.079 1.079 0 0 0-1.362-.69zm-10.717.22a.797.797 0 0 0-.507 1.007.797.797 0 0 0 1.005.51.797.797 0 0 0 .508-1.006.797.797 0 0 0-1.006-.51zm7.494.917a1.005 1.005 0 0 0-.642 1.27 1.005 1.005 0 0 0 1.27.64 1.005 1.005 0 0 0 .64-1.267 1.005 1.005 0 0 0-1.268-.643zm7.485.89a1.24 1.24 0 0 0-.791 1.565 1.24 1.24 0 0 0 1.564.791 1.24 1.24 0 0 0 .791-1.564 1.24 1.24 0 0 0-1.564-.791zm2.418.178a1.306 1.306 0 0 0-.026.342 1.306 1.306 0 0 0 1.52.824 27.82 27.82 0 0 0-1.494-1.166zm-13.127.069a.931.931 0 0 0-.594 1.175.931.931 0 0 0 1.176.594.931.931 0 0 0 .594-1.176.931.931 0 0 0-1.176-.593zm7.486.89a1.166 1.166 0 0 0-.744 1.471 1.166 1.166 0 0 0 1.47.744 1.166 1.166 0 0 0 .745-1.47 1.166 1.166 0 0 0-1.47-.745zm-10.201.272c.215.196.412.393.598.592a.87.87 0 0 0-.01-.075.87.87 0 0 0-.588-.517zm-21.998.48a.281.281 0 0 0-.117.301.281.281 0 0 0 .355.18.281.281 0 0 0 .18-.354.281.281 0 0 0-.049-.056c-.121-.022-.25-.052-.369-.07zm39.686.145a1.393 1.393 0 0 0-.89 1.76 1.393 1.393 0 0 0 1.76.888 1.393 1.393 0 0 0 .956-1.342 29.979 29.979 0 0 0-1.346-1.27 1.393 1.393 0 0 0-.48-.036zm-10.71.24a1.092 1.092 0 0 0-.697 1.379 1.092 1.092 0 0 0 1.38.695 1.092 1.092 0 0 0 .695-1.377 1.092 1.092 0 0 0-1.377-.697zm-32.142.686a.221.221 0 0 0-.14.279.221.221 0 0 0 .279.14.221.221 0 0 0 .14-.279.221.221 0 0 0-.279-.14zm39.629.21a1.32 1.32 0 0 0-.842 1.667 1.32 1.32 0 0 0 1.666.841 1.32 1.32 0 0 0 .842-1.666 1.32 1.32 0 0 0-1.666-.842zm-10.711.24a1.018 1.018 0 0 0-.648 1.286 1.018 1.018 0 0 0 1.285.648 1.018 1.018 0 0 0 .648-1.285 1.018 1.018 0 0 0-1.285-.648zm-21.428.452a.442.442 0 0 0-.283.558.442.442 0 0 0 .559.284.442.442 0 0 0 .283-.559.442.442 0 0 0-.559-.283zm-10.715.226a.154.154 0 0 0-.097.196.154.154 0 0 0 .193.097.154.154 0 0 0 .1-.193.154.154 0 0 0-.196-.1zm39.631.22a1.246 1.246 0 0 0-.795 1.571 1.246 1.246 0 0 0 1.573.795 1.246 1.246 0 0 0 .794-1.572 1.246 1.246 0 0 0-1.572-.795zm-32.138.69a.368.368 0 0 0-.237.465.368.368 0 0 0 .465.237.368.368 0 0 0 .236-.465.368.368 0 0 0-.464-.236zm41.943.012a1.54 1.54 0 0 0-.076 1.008 1.54 1.54 0 0 0 1.636.961 34.6 34.6 0 0 0-1.56-1.969zm-2.32.188a1.48 1.48 0 0 0-.944 1.869 1.48 1.48 0 0 0 1.867.943 1.48 1.48 0 0 0 .946-1.867 1.48 1.48 0 0 0-1.87-.945zm-50.338.027a.08.08 0 0 0-.051.102.08.08 0 0 0 .101.05.08.08 0 0 0 .051-.101.08.08 0 0 0-.101-.05zm39.629.211a1.18 1.18 0 0 0-.754 1.488 1.18 1.18 0 0 0 1.488.754 1.18 1.18 0 0 0 .754-1.488 1.18 1.18 0 0 0-1.488-.754zm-18.518.285a.657.657 0 0 0 .727.3.657.657 0 0 0 .048-.028c-.26-.093-.525-.179-.775-.272zm-2.906.188a.583.583 0 0 0-.371.736.583.583 0 0 0 .736.371.583.583 0 0 0 .371-.736.583.583 0 0 0-.736-.371zm-10.719.215a.308.308 0 0 0-.195.388.308.308 0 0 0 .388.196.308.308 0 0 0 .198-.39.308.308 0 0 0-.391-.194zm39.629.21a1.407 1.407 0 0 0-.897 1.776 1.407 1.407 0 0 0 1.776.896 1.407 1.407 0 0 0 .896-1.775 1.407 1.407 0 0 0-1.775-.896zm-10.711.239a1.105 1.105 0 0 0-.705 1.396 1.105 1.105 0 0 0 1.396.705 1.105 1.105 0 0 0 .705-1.396 1.105 1.105 0 0 0-1.396-.705zm-21.424.467a.516.516 0 0 0-.328.65.516.516 0 0 0 .65.328.516.516 0 0 0 .329-.65.516.516 0 0 0-.65-.328zm10.412.015a.817.817 0 0 0-.222.776.817.817 0 0 0 1.03.521.817.817 0 0 0 .526-1.004 23.07 23.07 0 0 1-1.334-.293zm-21.129.203a.234.234 0 0 0-.148.297.234.234 0 0 0 .295.149.234.234 0 0 0 .15-.295.234.234 0 0 0-.297-.15zm50.223.09a1.621 1.621 0 0 0-.914 1.942 1.621 1.621 0 0 0 2.047 1.035 1.621 1.621 0 0 0 .6-.371 38.904 38.904 0 0 0-1.733-2.606zm-10.594.123a1.333 1.333 0 0 0-.851 1.682 1.333 1.333 0 0 0 1.683.85 1.333 1.333 0 0 0 .85-1.682 1.333 1.333 0 0 0-1.682-.85zm-10.715.225a1.045 1.045 0 0 0-.666 1.32 1.045 1.045 0 0 0 1.319.666 1.045 1.045 0 0 0 .666-1.318 1.045 1.045 0 0 0-1.319-.668zm-10.709.24a.744.744 0 0 0-.474.938.744.744 0 0 0 .937.474.744.744 0 0 0 .475-.937.744.744 0 0 0-.938-.475zm-10.71.238a.442.442 0 0 0-.284.559.442.442 0 0 0 .559.283.442.442 0 0 0 .283-.558.442.442 0 0 0-.558-.284zm39.62.194a1.56 1.56 0 0 0-.995 1.97 1.56 1.56 0 0 0 1.97.995 1.56 1.56 0 0 0 .996-1.97 1.56 1.56 0 0 0-1.97-.995zm-50.337.027a.16.16 0 0 0-.102.203.16.16 0 0 0 .201.102.16.16 0 0 0 .104-.201.16.16 0 0 0-.203-.104zm39.629.211a1.26 1.26 0 0 0-.805 1.59 1.26 1.26 0 0 0 1.59.805 1.26 1.26 0 0 0 .804-1.59 1.26 1.26 0 0 0-1.59-.805zm-10.715.227a.971.971 0 0 0-.62 1.226.971.971 0 0 0 1.225.62.971.971 0 0 0 .621-1.225.971.971 0 0 0-1.226-.621zm-10.711.24a.67.67 0 0 0-.428.846.67.67 0 0 0 .846.425.67.67 0 0 0 .428-.843.67.67 0 0 0-.846-.428zm-10.713.226a.382.382 0 0 0-.244.48.382.382 0 0 0 .482.245.382.382 0 0 0 .242-.482.382.382 0 0 0-.48-.243zm39.623.198a1.494 1.494 0 0 0-.953 1.886 1.494 1.494 0 0 0 1.885.953 1.494 1.494 0 0 0 .953-1.886 1.494 1.494 0 0 0-1.885-.953zm-50.338.029a.094.094 0 0 0-.06.117.094.094 0 0 0 .119.06.094.094 0 0 0 .058-.118.094.094 0 0 0-.117-.059zm39.627.21a1.192 1.192 0 0 0-.76 1.505 1.192 1.192 0 0 0 1.506.762 1.192 1.192 0 0 0 .76-1.506 1.192 1.192 0 0 0-1.506-.76zm-10.71.233a.898.898 0 0 0-.573 1.133.898.898 0 0 0 1.133.572.898.898 0 0 0 .572-1.132.898.898 0 0 0-1.133-.573zm-10.712.239a.596.596 0 0 0-.38.753.596.596 0 0 0 .753.381.596.596 0 0 0 .38-.754.596.596 0 0 0-.753-.38zm39.63.212a1.695 1.695 0 0 0-1.083 2.14 1.695 1.695 0 0 0 2.139 1.081 1.695 1.695 0 0 0 1.02-.943c-.382-.748-.781-1.486-1.204-2.211a1.695 1.695 0 0 0-.873-.067zm-50.345.014a.308.308 0 0 0-.195.39.308.308 0 0 0 .389.196.308.308 0 0 0 .197-.389.308.308 0 0 0-.39-.197zm39.625.2a1.42 1.42 0 0 0-.906 1.792 1.42 1.42 0 0 0 1.793.907 1.42 1.42 0 0 0 .906-1.793 1.42 1.42 0 0 0-1.793-.907zm-10.713.232a1.125 1.125 0 0 0-.716 1.422 1.125 1.125 0 0 0 1.42.716 1.125 1.125 0 0 0 .716-1.42 1.125 1.125 0 0 0-1.42-.718zm-10.71.234a.83.83 0 0 0-.532 1.047.83.83 0 0 0 1.05.531.83.83 0 0 0 .528-1.049.83.83 0 0 0-1.046-.529zm-10.711.238a.53.53 0 0 0-.338.668.53.53 0 0 0 .668.338.53.53 0 0 0 .338-.668.53.53 0 0 0-.668-.338zm39.62.192a1.648 1.648 0 0 0-1.05 2.08 1.648 1.648 0 0 0 2.08 1.053 1.648 1.648 0 0 0 1.05-2.08 1.648 1.648 0 0 0-2.08-1.053zm-10.708.24a1.347 1.347 0 0 0-.86 1.7 1.347 1.347 0 0 0 1.7.859 1.347 1.347 0 0 0 .859-1.7 1.347 1.347 0 0 0-1.7-.859zm-10.715.227a1.058 1.058 0 0 0-.676 1.336 1.058 1.058 0 0 0 1.336.675 1.058 1.058 0 0 0 .676-1.336 1.058 1.058 0 0 0-1.336-.675zm-10.711.238a.757.757 0 0 0-.483.955.757.757 0 0 0 .956.484.757.757 0 0 0 .484-.955.757.757 0 0 0-.957-.484zm28.912.432a1.574 1.574 0 0 0-1.004 1.988 1.574 1.574 0 0 0 1.986 1.004 1.574 1.574 0 0 0 1.004-1.989 1.574 1.574 0 0 0-1.986-1.003zm-10.709.24a1.273 1.273 0 0 0-.812 1.605 1.273 1.273 0 0 0 1.605.813 1.273 1.273 0 0 0 .813-1.608 1.273 1.273 0 0 0-1.606-.81zm-10.715.226a.985.985 0 0 0-.629 1.243.985.985 0 0 0 1.242.628.985.985 0 0 0 .63-1.244.985.985 0 0 0-1.243-.627zm-10.71.239a.683.683 0 0 0-.436.863.683.683 0 0 0 .863.435.683.683 0 0 0 .436-.863.683.683 0 0 0-.864-.435zm39.652.28a1.708 1.708 0 0 0-1.09 2.157 1.708 1.708 0 0 0 2.154 1.09 1.708 1.708 0 0 0 1.168-1.627 50.133 50.133 0 0 0-.412-.918 1.708 1.708 0 0 0-1.82-.701zm1.064 3.247a1.708 1.708 0 0 0-1.09 2.156 1.708 1.708 0 0 0 2.156 1.09 1.708 1.708 0 0 0 1.09-2.156 1.708 1.708 0 0 0-2.156-1.09zm1.066 3.246a1.708 1.708 0 0 0-1.09 2.156 1.708 1.708 0 0 0 2.157 1.09 1.708 1.708 0 0 0 1.09-2.156 1.708 1.708 0 0 0-2.157-1.09zm1.067 3.246a1.708 1.708 0 0 0-1.09 2.156 1.708 1.708 0 0 0 2.156 1.09 1.708 1.708 0 0 0 1.102-2.097l-.016-.063a1.708 1.708 0 0 0-2.152-1.086zm1.066 3.246a1.708 1.708 0 0 0-1.09 2.157 1.708 1.708 0 0 0 2.157 1.09 1.708 1.708 0 0 0 .99-.848c-.11-.607-.212-1.205-.342-1.824a1.708 1.708 0 0 0-1.715-.575zm1.067 3.246a1.708 1.708 0 0 0-1.09 2.157 1.708 1.708 0 0 0 2.156 1.09 1.708 1.708 0 0 0 .51-.286 70.515 70.515 0 0 0-.43-2.875 1.708 1.708 0 0 0-1.146-.086zm1.066 3.246a1.708 1.708 0 0 0-1.09 2.157 1.708 1.708 0 0 0 1.948 1.074 65.864 65.864 0 0 0-.311-3.19 1.708 1.708 0 0 0-.547-.04zm-1.09 2.157a1.708 1.708 0 0 0-2.156-1.09 1.708 1.708 0 0 0-1.09 2.156 1.708 1.708 0 0 0 .309.36c.594.123 1.287.339 2.054.63a1.708 1.708 0 0 0 .883-2.056zm-3.246 1.066a1.708 1.708 0 0 0-2.156-1.09 1.708 1.708 0 0 0-1.09 2.157 1.708 1.708 0 0 0 .106.12c.408-.791 1.397-1.216 3.195-.892a1.708 1.708 0 0 0-.055-.295zm-3.246 1.067a1.708 1.708 0 0 0-2.156-1.09 1.708 1.708 0 0 0-1.09 2.156 1.708 1.708 0 0 0 2.156 1.09 1.708 1.708 0 0 0 .988-.848c-.002-.209-.015-.445.008-.588.026-.16.09-.3.147-.443a1.708 1.708 0 0 0-.053-.277zm-3.246 1.066a1.708 1.708 0 0 0-2.156-1.09 1.708 1.708 0 0 0-1.09 2.154 1.708 1.708 0 0 0 2.156 1.092 1.708 1.708 0 0 0 1.09-2.156zm-3.246 1.064a1.708 1.708 0 0 0-.129-.15c.014.457.04.905.066 1.355a1.708 1.708 0 0 0 .063-1.205zm1.09-2.154a1.708 1.708 0 0 0 1.09-2.156 1.708 1.708 0 0 0-2.157-1.09 1.708 1.708 0 0 0-1.088 2.139c.202.162.398.378.582.693a1.708 1.708 0 0 0 1.573.414zm-1.067-3.246a1.708 1.708 0 0 0 1.09-2.156 1.708 1.708 0 0 0-2.156-1.09 1.708 1.708 0 0 0-1.09 2.156 1.708 1.708 0 0 0 2.156 1.09zm-2.156-1.09a1.708 1.708 0 0 0-2.156-1.09 1.708 1.708 0 0 0-1.09 2.155 1.708 1.708 0 0 0 2.156 1.091 1.708 1.708 0 0 0 1.09-2.156zm-1.09 2.156a1.708 1.708 0 0 0-1.066 1.846c1.082-.742 2.2-1.532 3.164-.824a1.708 1.708 0 0 0-2.098-1.022zm2.18-4.312a1.708 1.708 0 0 0 1.09-2.156 1.708 1.708 0 0 0-2.155-1.09 1.708 1.708 0 0 0-1.091 2.156 1.708 1.708 0 0 0 2.156 1.09zm1.09-2.156a1.708 1.708 0 0 0 2.156 1.09 1.708 1.708 0 0 0 1.09-2.157 1.708 1.708 0 0 0-2.156-1.09 1.708 1.708 0 0 0-1.09 2.157zm3.246-1.067a1.708 1.708 0 0 0 2.156 1.09 1.708 1.708 0 0 0 1.09-2.156 1.708 1.708 0 0 0-2.156-1.09 1.708 1.708 0 0 0-1.09 2.156zm1.09-2.156a1.708 1.708 0 0 0 1.09-2.156 1.708 1.708 0 0 0-2.157-1.09 1.708 1.708 0 0 0-1.09 2.156 1.708 1.708 0 0 0 2.157 1.09zm1.09-2.156a1.708 1.708 0 0 0 2.156 1.09 1.708 1.708 0 0 0 1.09-2.157 1.708 1.708 0 0 0-2.157-1.09 1.708 1.708 0 0 0-1.09 2.157zm1.09-2.156a1.708 1.708 0 0 0 1.09-2.157 1.708 1.708 0 0 0-2.155-1.09 1.708 1.708 0 0 0-1.09 2.157 1.708 1.708 0 0 0 2.154 1.09zm1.066 3.246a1.708 1.708 0 0 0-1.09 2.156 1.708 1.708 0 0 0 2.156 1.09 1.708 1.708 0 0 0 1.09-2.157 1.708 1.708 0 0 0-2.156-1.09zm1.066 3.246a1.708 1.708 0 0 0-1.09 2.156 1.708 1.708 0 0 0 2.157 1.09 1.708 1.708 0 0 0 1.09-2.156 1.708 1.708 0 0 0-2.157-1.09zm1.067 3.246a1.708 1.708 0 0 0-1.09 2.156 1.708 1.708 0 0 0 2.156 1.09 1.708 1.708 0 0 0 1.09-2.156 1.708 1.708 0 0 0-2.156-1.09zm-1.09 2.156a1.708 1.708 0 0 0-2.157-1.09 1.708 1.708 0 0 0-1.09 2.156 1.708 1.708 0 0 0 2.157 1.09 1.708 1.708 0 0 0 1.09-2.156zm-3.246 1.066a1.708 1.708 0 0 0-2.157-1.09 1.708 1.708 0 0 0-1.09 2.157 1.708 1.708 0 0 0 2.157 1.09 1.708 1.708 0 0 0 1.09-2.157zm-2.157-1.09a1.708 1.708 0 0 0 1.09-2.156 1.708 1.708 0 0 0-2.156-1.09 1.708 1.708 0 0 0-1.09 2.157 1.708 1.708 0 0 0 2.156 1.09zm1.09-2.156a1.708 1.708 0 0 0 2.156 1.09 1.708 1.708 0 0 0 1.09-2.156 1.708 1.708 0 0 0-2.156-1.09 1.708 1.708 0 0 0-1.09 2.156zm-7.424-17.129a1.507 1.507 0 0 0-.96 1.903 1.507 1.507 0 0 0 1.902.96 1.507 1.507 0 0 0 .96-1.902 1.507 1.507 0 0 0-1.902-.96zm-10.712.233a1.213 1.213 0 0 0-.774 1.53 1.213 1.213 0 0 0 1.531.775 1.213 1.213 0 0 0 .774-1.532 1.213 1.213 0 0 0-1.531-.773zm-10.71.238a.911.911 0 0 0-.581 1.15.911.911 0 0 0 1.15.583.911.911 0 0 0 .58-1.15.911.911 0 0 0-1.148-.583zm-10.71.24a.61.61 0 0 0-.371.547c.167.194.336.387.494.592a.61.61 0 0 0 .257.02.61.61 0 0 0 .39-.77.61.61 0 0 0-.77-.389zm39.63.217a1.702 1.702 0 0 0-1.085 2.149 1.702 1.702 0 0 0 2.146 1.086 1.702 1.702 0 0 0 1.086-2.149 1.702 1.702 0 0 0-2.147-1.086zm-10.72.207a1.434 1.434 0 0 0-.916 1.81 1.434 1.434 0 0 0 1.81.915 1.434 1.434 0 0 0 .914-1.809 1.434 1.434 0 0 0-1.808-.916zm-10.715.227a1.146 1.146 0 0 0-.73 1.447 1.146 1.146 0 0 0 1.445.73 1.146 1.146 0 0 0 .73-1.445 1.146 1.146 0 0 0-1.445-.732zm-10.71.246a.837.837 0 0 0-.532 1.057.837.837 0 0 0 1.056.535.837.837 0 0 0 .536-1.057.837.837 0 0 0-1.06-.535zm28.911.426a1.661 1.661 0 0 0-1.06 2.095 1.661 1.661 0 0 0 2.097 1.06 1.661 1.661 0 0 0 1.06-2.097 1.661 1.661 0 0 0-2.097-1.058zm-10.709.238a1.36 1.36 0 0 0-.869 1.717 1.36 1.36 0 0 0 1.717.867 1.36 1.36 0 0 0 .867-1.717 1.36 1.36 0 0 0-1.715-.867zm-10.715.226a1.072 1.072 0 0 0-.683 1.354 1.072 1.072 0 0 0 1.351.684 1.072 1.072 0 0 0 .684-1.354 1.072 1.072 0 0 0-1.352-.684zm-10.71.24a.77.77 0 0 0-.49.971.77.77 0 0 0 .97.493.77.77 0 0 0 .492-.973.77.77 0 0 0-.973-.49zm28.911.432a1.588 1.588 0 0 0-1.013 2.004 1.588 1.588 0 0 0 2.004 1.012 1.588 1.588 0 0 0 1.013-2.004 1.588 1.588 0 0 0-2.004-1.012zm-10.714.225a1.3 1.3 0 0 0-.829 1.64 1.3 1.3 0 0 0 1.641.83 1.3 1.3 0 0 0 .828-1.64 1.3 1.3 0 0 0-1.64-.83zm-10.71.24a.998.998 0 0 0-.636 1.26.998.998 0 0 0 1.26.637.998.998 0 0 0 .636-1.26.998.998 0 0 0-1.26-.637zm-10.287.272c.155.283.295.578.436.873a.697.697 0 0 0 .02-.461.697.697 0 0 0-.456-.412zm28.487.392a1.52 1.52 0 0 0-.97 1.92 1.52 1.52 0 0 0 1.919.97 1.52 1.52 0 0 0 .969-1.919 1.52 1.52 0 0 0-1.918-.97zm-10.713.233a1.226 1.226 0 0 0-.781 1.547 1.226 1.226 0 0 0 1.547.783 1.226 1.226 0 0 0 .78-1.547 1.226 1.226 0 0 0-1.546-.783zm-10.711.24a.925.925 0 0 0-.59 1.166.925.925 0 0 0 1.168.59.925.925 0 0 0 .59-1.166.925.925 0 0 0-1.168-.59zm28.926.469a1.702 1.702 0 0 0-1.086 2.148 1.702 1.702 0 0 0 2.146 1.086 1.702 1.702 0 0 0 1.086-2.148 1.702 1.702 0 0 0-2.146-1.086zm-10.725.195a1.447 1.447 0 0 0-.924 1.826 1.447 1.447 0 0 0 1.827.924 1.447 1.447 0 0 0 .923-1.828 1.447 1.447 0 0 0-1.826-.922zm-10.713.232a1.152 1.152 0 0 0-.736 1.455 1.152 1.152 0 0 0 1.455.735 1.152 1.152 0 0 0 .734-1.455 1.152 1.152 0 0 0-1.453-.735zm-10.713.233a.858.858 0 0 0-.546 1.082.858.858 0 0 0 1.082.547.858.858 0 0 0 .546-1.082.858.858 0 0 0-1.082-.547zm28.916.445a1.661 1.661 0 0 0-1.06 2.096 1.661 1.661 0 0 0 2.098 1.06 1.661 1.661 0 0 0 1.06-2.097 1.661 1.661 0 0 0-2.098-1.059zm-10.716.219a1.38 1.38 0 0 0-.881 1.742 1.38 1.38 0 0 0 1.742.88 1.38 1.38 0 0 0 .88-1.741 1.38 1.38 0 0 0-1.741-.881zm-10.711.234a1.085 1.085 0 0 0-.694 1.37 1.085 1.085 0 0 0 1.37.69 1.085 1.085 0 0 0 .693-1.368 1.085 1.085 0 0 0-1.37-.692zm-10.176.28c.067.456.095.915.082 1.377a.784.784 0 0 0 .371-.918.784.784 0 0 0-.453-.46zm28.38.402a1.588 1.588 0 0 0-1.013 2.004 1.588 1.588 0 0 0 2.004 1.013 1.588 1.588 0 0 0 1.014-2.003 1.588 1.588 0 0 0-2.004-1.014zm-10.718.215a1.313 1.313 0 0 0-.838 1.656 1.313 1.313 0 0 0 1.658.838 1.313 1.313 0 0 0 .838-1.656 1.313 1.313 0 0 0-1.658-.838zm-10.711.238a1.012 1.012 0 0 0-.644 1.277 1.012 1.012 0 0 0 1.277.645 1.012 1.012 0 0 0 .644-1.275 1.012 1.012 0 0 0-1.277-.647zm18.205.678a1.52 1.52 0 0 0-.97 1.92 1.52 1.52 0 0 0 1.92.968 1.52 1.52 0 0 0 .968-1.918 1.52 1.52 0 0 0-1.918-.97zm-10.717.22a1.24 1.24 0 0 0-.79 1.565 1.24 1.24 0 0 0 1.564.789 1.24 1.24 0 0 0 .79-1.564 1.24 1.24 0 0 0-1.564-.79zm-10.71.239a.938.938 0 0 0-.598 1.183.938.938 0 0 0 1.183.6.938.938 0 0 0 .598-1.186.938.938 0 0 0-1.184-.597zm28.93.482a1.702 1.702 0 0 0-1.087 2.149 1.702 1.702 0 0 0 2.147 1.084 1.702 1.702 0 0 0 1.086-2.147 1.702 1.702 0 0 0-2.147-1.086zm-10.73.188a1.454 1.454 0 0 0-.925 1.836 1.454 1.454 0 0 0 1.834.927 1.454 1.454 0 0 0 .928-1.836 1.454 1.454 0 0 0-1.836-.927zm-50.34.021a.06.06 0 0 0-.038.076.06.06 0 0 0 .076.04.06.06 0 0 0 .039-.077.06.06 0 0 0-.076-.039zm39.626.2a1.172 1.172 0 0 0-.748 1.48 1.172 1.172 0 0 0 1.478.748 1.172 1.172 0 0 0 .748-1.48 1.172 1.172 0 0 0-1.478-.749zm-10.711.24a.87.87 0 0 0-.555 1.097.87.87 0 0 0 1.098.557.87.87 0 0 0 .556-1.1.87.87 0 0 0-1.1-.554zm28.918.449a1.668 1.668 0 0 0-1.065 2.105 1.668 1.668 0 0 0 2.106 1.065 1.668 1.668 0 0 0 1.064-2.106 1.668 1.668 0 0 0-2.105-1.064zm-10.717.22a1.387 1.387 0 0 0-.885 1.75 1.387 1.387 0 0 0 1.75.885 1.387 1.387 0 0 0 .885-1.75 1.387 1.387 0 0 0-1.75-.884zm-50.346.003a.013.013 0 0 0-.01.017.013.013 0 0 0 .018.008.013.013 0 0 0 .01-.018.013.013 0 0 0-.018-.007zm39.631.224a1.099 1.099 0 0 0-.7 1.387 1.099 1.099 0 0 0 1.388.701 1.099 1.099 0 0 0 .699-1.387 1.099 1.099 0 0 0-1.387-.7zm18.207.684a1.601 1.601 0 0 0-1.021 2.02 1.601 1.601 0 0 0 2.02 1.02 1.601 1.601 0 0 0 1.02-2.019 1.601 1.601 0 0 0-2.019-1.021zm-50.344.013a.214.214 0 0 0-.136.272.214.214 0 0 0 .271.137.214.214 0 0 0 .137-.27.214.214 0 0 0-.272-.139zm39.63.213a1.313 1.313 0 0 0-.839 1.657 1.313 1.313 0 0 0 1.659.837 1.313 1.313 0 0 0 .838-1.656 1.313 1.313 0 0 0-1.659-.838zm-10.716.227a1.025 1.025 0 0 0-.654 1.293 1.025 1.025 0 0 0 1.295.654 1.025 1.025 0 0 0 .654-1.295 1.025 1.025 0 0 0-1.295-.652zm18.202.67a1.54 1.54 0 0 0-.983 1.945 1.54 1.54 0 0 0 1.946.983 1.54 1.54 0 0 0 .982-1.946 1.54 1.54 0 0 0-1.945-.982zm-50.338.027a.14.14 0 0 0-.09.178.14.14 0 0 0 .178.09.14.14 0 0 0 .09-.178.14.14 0 0 0-.178-.09zm39.629.211a1.24 1.24 0 0 0-.791 1.565 1.24 1.24 0 0 0 1.564.79 1.24 1.24 0 0 0 .791-1.564 1.24 1.24 0 0 0-1.564-.79zm-10.715.227a.951.951 0 0 0-.608 1.2.951.951 0 0 0 1.202.608.951.951 0 0 0 .607-1.201.951.951 0 0 0-1.201-.607zm-21.496.6a.368.368 0 0 0-.166.325.368.368 0 0 0 .465.235.368.368 0 0 0 .226-.223c-.179-.112-.35-.225-.525-.338zm39.695.066a1.474 1.474 0 0 0-.94 1.859 1.474 1.474 0 0 0 1.86.94 1.474 1.474 0 0 0 .941-1.86 1.474 1.474 0 0 0-1.861-.94zm-50.338.027a.074.074 0 0 0-.047.092.074.074 0 0 0 .092.047.074.074 0 0 0 .049-.092.074.074 0 0 0-.094-.047zm39.631.217a1.166 1.166 0 0 0-.744 1.472 1.166 1.166 0 0 0 1.47.743 1.166 1.166 0 0 0 .745-1.471 1.166 1.166 0 0 0-1.471-.744zm-10.719.215a.891.891 0 0 0-.568 1.123.891.891 0 0 0 1.123.57.891.891 0 0 0 .57-1.125.891.891 0 0 0-1.125-.568zm28.92.457a1.682 1.682 0 0 0-1.072 2.12 1.682 1.682 0 0 0 2.121 1.075 1.682 1.682 0 0 0 1.072-2.123 1.682 1.682 0 0 0-2.12-1.072zm-50.346.007a.301.301 0 0 0-.191.381.301.301 0 0 0 .38.192.301.301 0 0 0 .192-.38.301.301 0 0 0-.38-.193zm39.63.211a1.4 1.4 0 0 0-.893 1.768 1.4 1.4 0 0 0 1.765.893 1.4 1.4 0 0 0 .895-1.766 1.4 1.4 0 0 0-1.768-.895zm-50.342.016a.013.013 0 0 0-.01.018.013.013 0 0 0 .017.007.013.013 0 0 0 .01-.017.013.013 0 0 0-.017-.008zm39.63.225a1.099 1.099 0 0 0-.699 1.386 1.099 1.099 0 0 0 1.385.702 1.099 1.099 0 0 0 .701-1.387 1.099 1.099 0 0 0-1.387-.701zm-9.796.609c-.403.31-.83.586-1.276.834a.817.817 0 0 0 .867.33.817.817 0 0 0 .522-1.033.817.817 0 0 0-.113-.131zm27.994.049a1.628 1.628 0 0 0-1.037 2.055 1.628 1.628 0 0 0 2.054 1.037 1.628 1.628 0 0 0 1.037-2.055 1.628 1.628 0 0 0-2.054-1.037zm-50.338.027a.228.228 0 0 0-.145.287.228.228 0 0 0 .287.145.228.228 0 0 0 .145-.287.228.228 0 0 0-.287-.145zm39.629.211a1.326 1.326 0 0 0-.846 1.674 1.326 1.326 0 0 0 1.674.848 1.326 1.326 0 0 0 .846-1.676 1.326 1.326 0 0 0-1.674-.846zm-29.145.016a.516.516 0 0 0-.1.197.516.516 0 0 0 .653.33.516.516 0 0 0 .228-.158c-.263-.12-.523-.243-.78-.37zm18.434.224a1.025 1.025 0 0 0-.655 1.293 1.025 1.025 0 0 0 1.295.655 1.025 1.025 0 0 0 .655-1.295 1.025 1.025 0 0 0-1.295-.653zm-21.43.446a.456.456 0 0 0-.29.576.456.456 0 0 0 .573.289.456.456 0 0 0 .291-.574.456.456 0 0 0-.574-.291zm39.627.21a1.554 1.554 0 0 0-.99 1.963 1.554 1.554 0 0 0 1.96.99 1.554 1.554 0 0 0 .993-1.96 1.554 1.554 0 0 0-1.963-.992zm-50.338.03a.154.154 0 0 0-.098.193.154.154 0 0 0 .194.1.154.154 0 0 0 .1-.195.154.154 0 0 0-.196-.098zm39.629.21a1.253 1.253 0 0 0-.8 1.58 1.253 1.253 0 0 0 1.581.802 1.253 1.253 0 0 0 .8-1.582 1.253 1.253 0 0 0-1.581-.8zm-10.715.227a.965.965 0 0 0-.615 1.217.965.965 0 0 0 1.217.615.965.965 0 0 0 .615-1.216.965.965 0 0 0-1.217-.616zm-6.56.018a9.34 9.34 0 0 1-1.194.264.744.744 0 0 0 .729.228.744.744 0 0 0 .465-.492zm-4.211.258a.677.677 0 0 0-.375.804.677.677 0 0 0 .853.432.677.677 0 0 0 .432-.853.677.677 0 0 0-.25-.291 9.464 9.464 0 0 1-.66-.092zm-10.658.178a.389.389 0 0 0-.249.49.389.389 0 0 0 .493.248.389.389 0 0 0 .246-.49.389.389 0 0 0-.49-.248zm39.63.216a1.48 1.48 0 0 0-.945 1.87 1.48 1.48 0 0 0 1.87.945 1.48 1.48 0 0 0 .945-1.87 1.48 1.48 0 0 0-1.87-.945zm-50.338.028a.08.08 0 0 0-.05.101.08.08 0 0 0 .101.053.08.08 0 0 0 .051-.102.08.08 0 0 0-.102-.052zm39.625.205a1.186 1.186 0 0 0-.755 1.498 1.186 1.186 0 0 0 1.496.756 1.186 1.186 0 0 0 .758-1.496 1.186 1.186 0 0 0-1.499-.758zm-10.71.234a.891.891 0 0 0-.569 1.123.891.891 0 0 0 1.123.569.891.891 0 0 0 .569-1.124.891.891 0 0 0-1.123-.568zm-10.715.227a.603.603 0 0 0-.385.76.603.603 0 0 0 .762.384.603.603 0 0 0 .384-.762.603.603 0 0 0-.761-.382zm39.63.216a1.695 1.695 0 0 0-1.081 2.14 1.695 1.695 0 0 0 2.138 1.081 1.695 1.695 0 0 0 1.082-2.138 1.695 1.695 0 0 0-2.138-1.083zm-50.345.008a.315.315 0 0 0-.201.399.315.315 0 0 0 .398.2.315.315 0 0 0 .201-.398.315.315 0 0 0-.398-.2zm39.629.213a1.414 1.414 0 0 0-.903 1.783 1.414 1.414 0 0 0 1.786.903 1.414 1.414 0 0 0 .9-1.785 1.414 1.414 0 0 0-1.783-.9zm-10.711.238a1.112 1.112 0 0 0-.71 1.405 1.112 1.112 0 0 0 1.405.709 1.112 1.112 0 0 0 .71-1.405 1.112 1.112 0 0 0-1.405-.709zm-10.711.233a.817.817 0 0 0-.522 1.031.817.817 0 0 0 1.032.522.817.817 0 0 0 .521-1.032.817.817 0 0 0-1.031-.521zm-10.719.215a.543.543 0 0 0-.348.683.543.543 0 0 0 .686.348.543.543 0 0 0 .346-.686.543.543 0 0 0-.684-.345zm39.627.21a1.641 1.641 0 0 0-1.035 1.924c.87.258 1.744.579 2.568.905a1.641 1.641 0 0 0 .54-1.781 1.641 1.641 0 0 0-2.073-1.047zm-50.338.028a.241.241 0 0 0-.154.305.241.241 0 0 0 .305.154.241.241 0 0 0 .154-.305.241.241 0 0 0-.305-.154zm39.63.21a1.34 1.34 0 0 0-.856 1.692 1.34 1.34 0 0 0 1.691.856 1.34 1.34 0 0 0 .854-1.692 1.34 1.34 0 0 0-1.69-.855zm-10.716.227a1.052 1.052 0 0 0-.672 1.329 1.052 1.052 0 0 0 1.329.671 1.052 1.052 0 0 0 .671-1.328 1.052 1.052 0 0 0-1.328-.672zm-10.71.24a.75.75 0 0 0-.48.948.75.75 0 0 0 .948.479.75.75 0 0 0 .479-.948.75.75 0 0 0-.948-.478zm-10.717.221a.469.469 0 0 0-.3.592.469.469 0 0 0 .593.3.469.469 0 0 0 .298-.593.469.469 0 0 0-.591-.299zm39.628.211a1.568 1.568 0 0 0-.421.364c.613-.041 1.334.079 2.09.273a1.568 1.568 0 0 0-1.669-.637zm-50.337.028a.167.167 0 0 0-.108.21.167.167 0 0 0 .211.108.167.167 0 0 0 .107-.21.167.167 0 0 0-.21-.108zm39.627.21a1.266 1.266 0 0 0-.807 1.598 1.266 1.266 0 0 0 1.598.809 1.266 1.266 0 0 0 .808-1.598 1.266 1.266 0 0 0-1.6-.808zm-10.713.227a.978.978 0 0 0-.625 1.235.978.978 0 0 0 1.234.625.978.978 0 0 0 .625-1.235.978.978 0 0 0-1.234-.625zm-10.711.24a.677.677 0 0 0-.432.854.677.677 0 0 0 .854.432.677.677 0 0 0 .431-.854.677.677 0 0 0-.853-.432zm-10.717.22a.395.395 0 0 0-.252.5.395.395 0 0 0 .5.251.395.395 0 0 0 .252-.5.395.395 0 0 0-.5-.252zm50.365.054a1.708 1.708 0 0 0-1.031 1.38c.39.144.74.26 1.002.313.604.122 1.304-.303 2.023-.79a1.708 1.708 0 0 0-1.994-.903zm-10.736.158a1.494 1.494 0 0 0-.953 1.885 1.494 1.494 0 0 0 .656.764c.454-.882.904-1.763 1.473-2.522a1.494 1.494 0 0 0-1.176-.127zm-50.34.02a.1.1 0 0 0-.065.127.1.1 0 0 0 .127.064.1.1 0 0 0 .065-.127.1.1 0 0 0-.127-.064zm82.488.088a1.708 1.708 0 0 0-.867 1.658c.332.16.634.29.992.478-.02-.664-.076-1.409-.125-2.136zm-42.86.13a1.192 1.192 0 0 0-.759 1.506 1.192 1.192 0 0 0 1.504.76 1.192 1.192 0 0 0 .762-1.506 1.192 1.192 0 0 0-1.506-.76zm-10.712.227a.904.904 0 0 0-.578 1.14.904.904 0 0 0 1.142.579.904.904 0 0 0 .577-1.143.904.904 0 0 0-1.141-.576zm-10.715.226a.616.616 0 0 0-.394.778.616.616 0 0 0 .779.392.616.616 0 0 0 .392-.777.616.616 0 0 0-.777-.393zm-10.715.227a.328.328 0 0 0-.209.414.328.328 0 0 0 .414.21.328.328 0 0 0 .21-.415.328.328 0 0 0-.415-.209zm39.63.211a1.427 1.427 0 0 0-.911 1.8 1.427 1.427 0 0 0 1.8.91 1.427 1.427 0 0 0 .911-1.8 1.427 1.427 0 0 0-1.8-.91zm33.189.027c.192.08.397.175.6.266a1.615 1.615 0 0 0-.6-.266zm-43.903.205a1.132 1.132 0 0 0-.722 1.43 1.132 1.132 0 0 0 1.43.723 1.132 1.132 0 0 0 .722-1.43 1.132 1.132 0 0 0-1.43-.723zm-10.71.24a.83.83 0 0 0-.53 1.05.83.83 0 0 0 .182.21c.43-.107.905-.202 1.402-.289a.83.83 0 0 0-.006-.441.83.83 0 0 0-1.049-.53zm-10.714.227a.543.543 0 0 0-.347.684.543.543 0 0 0 .685.347.543.543 0 0 0 .346-.685.543.543 0 0 0-.684-.346zm-10.714.227a.255.255 0 0 0-.162.32.255.255 0 0 0 .32.162.255.255 0 0 0 .162-.32.255.255 0 0 0-.32-.162zm39.627.21a1.353 1.353 0 0 0-.864 1.708 1.353 1.353 0 0 0 1.71.863 1.353 1.353 0 0 0 .863-1.707 1.353 1.353 0 0 0-1.71-.863zm-10.713.227a1.065 1.065 0 0 0-.127.11c.463.132.921.284 1.375.459a1.065 1.065 0 0 0-1.248-.569zm-10.711.239a.764.764 0 0 0-.487.964.764.764 0 0 0 .356.414 9.357 9.357 0 0 1 1.13-.601.764.764 0 0 0-.034-.29.764.764 0 0 0-.965-.487zm-10.713.232a.469.469 0 0 0-.2.396c.246.101.484.21.717.325a.469.469 0 0 0 .075-.42.469.469 0 0 0-.592-.301zm-10.713.227a.18.18 0 0 0-.115.228.18.18 0 0 0 .226.115.18.18 0 0 0 .117-.228.18.18 0 0 0-.228-.115zm71.936.035a1.615 1.615 0 0 0-1.03 2.039 1.615 1.615 0 0 0 2.037 1.03 1.615 1.615 0 0 0 .233-.112c-.063-1.051-.16-2.042-.233-2.881a1.615 1.615 0 0 0-1.007-.076zm-32.31.177a1.28 1.28 0 0 0-.815 1.614 1.28 1.28 0 0 0 1.615.816 1.28 1.28 0 0 0 .816-1.613 1.28 1.28 0 0 0-1.615-.817zm-21.427.452a.703.703 0 0 0-.449.888.703.703 0 0 0 .889.45.703.703 0 0 0 .447-.89.703.703 0 0 0-.887-.448zm50.49.437a1.615 1.615 0 0 0-1.029 2.037 1.615 1.615 0 0 0 2.037 1.031 1.615 1.615 0 0 0 1.031-2.037 1.615 1.615 0 0 0-2.039-1.03zm-21.574.008a1.507 1.507 0 0 0-.951 1.736c.775-.4 1.356-.987 1.836-1.67a1.507 1.507 0 0 0-.885-.066zm-50.338.027a.107.107 0 0 0-.07.135.107.107 0 0 0 .137.068.107.107 0 0 0 .068-.134.107.107 0 0 0-.135-.069zm39.918.22c.336.163.672.325 1.006.481a1.22 1.22 0 0 0-1.006-.48zm-21.718.444a.63.63 0 0 0-.403.795.63.63 0 0 0 .795.403.63.63 0 0 0 .402-.795.63.63 0 0 0-.794-.403zm28.912.438a1.44 1.44 0 0 0-.87 1.162c.22.006.44.016.663.002.764 0 1.4-.124 1.955-.326a1.44 1.44 0 0 0-1.748-.838zm22.634.012c.087.964.226 1.873.432 2.697a1.615 1.615 0 0 0 .527-1.75 1.615 1.615 0 0 0-.959-.947zm-68.703 2.062a.18.18 0 0 0-.115.229.18.18 0 0 0 .227.115.18.18 0 0 0 .117-.229.18.18 0 0 0-.229-.115zm-3.228 1.123a.12.12 0 0 0-.076.152.12.12 0 0 0 .152.079.12.12 0 0 0 .076-.153.12.12 0 0 0-.152-.078zm-3.225 1.13a.054.054 0 0 0-.033.07.054.054 0 0 0 .066.032.054.054 0 0 0 .036-.068.054.054 0 0 0-.069-.033z" transform="translate(-142.9 93.65)"/><path style="opacity:1;fill:#192751;stroke:#192751;stroke-width:1.2542" d="m208.062-138.842.002 31.235c1.228 2.16 2.785 3.488 4.998 2.629 3.551-1.378-.8-8.39-1.056-10.237-.254-1.848 1.74-3.258 8.45-1.936-2.04-6.023-6.187-14.664-12.394-21.69z" transform="matrix(.95903 .28331 -.2927 .9562 -142.9 93.65)"/><path d="M121.786 51.117v2.174h-4.458v-1.788q-1.513 2.146-4.457 2.146-4.265 0-4.265-4.76v-6.357q0-.743-.688-.77l-.88-.055V39.45h4.842v8.723q0 1.459.413 2.201.413.743 1.706.743t2.064-.798q.798-.798.798-1.926v-5.806q0-.44-.166-.605-.137-.193-.522-.22l-.88-.055V39.45h4.842v10.787q0 .44.138.605.137.138.55.193zm3.407-.907V36.808q0-.44-.166-.606-.137-.165-.522-.192l-.963-.055v-2.284h4.898v11.915q1.513-.138 2.641-.936 1.128-.798 1.541-2.091.083-.275.083-.44 0-.468-.523-.468l-1.046-.055V39.45h5.696v2.23l-1.32.054q-.358 2.807-2.422 4.43l2.696 4.843 1.679.083v2.201h-4.017l-3.137-5.723q-.908.247-1.871.385v3.054h.027l1.568.083v2.201h-6.548V51.2l.908-.083q.412-.055.605-.22.193-.192.193-.688zm25.855 3.054q-.247 3.054-1.76 4.485-1.514 1.43-4.734 1.43-3.22 0-5.035-.907v-3.825l2.614-.22v1.32q0 .744.688.991.688.275 1.898.275 1.762 0 2.477-1.073.715-1.045.715-2.972v-1.513q-1.32 1.54-3.66 1.54-1.43 0-2.53-.55-1.074-.55-1.68-1.485-1.183-1.871-1.183-4.403 0-3.605 1.954-5.448 1.954-1.871 5.2-1.871 2.697 0 5.091 1.018v10.208q0 2.34-.055 3zm-3.137-5.586v-5.916q-.963-.33-2.2-.33-1.68 0-2.587 1.238-.881 1.238-.881 3.357 0 4.347 2.862 4.347 1.183 0 1.98-.715.826-.743.826-1.981zm11.947 3.605q3 0 3-4.843 0-2.45-.689-3.715-.66-1.266-2.256-1.266-1.568 0-2.311 1.21-.743 1.212-.743 3.303 0 3.88 1.43 4.87.633.44 1.569.44zm-6.329-4.926q0-2.036.605-3.522.606-1.514 1.624-2.312 1.954-1.485 4.32-1.485 1.651 0 2.78.55 1.155.523 1.788 1.238.66.688 1.1 2.036.468 1.321.468 3.137 0 3.798-1.843 5.751-1.844 1.954-4.733 1.954-2.862 0-4.485-1.844-1.624-1.87-1.624-5.503zm22.446-6.907h5.806v2.147l-.853.055q-.55.055-.743.66l-3.55 10.98h-4.21l-3.852-10.952q-.138-.386-.303-.523-.137-.138-.495-.165l-.798-.055V39.45h6.466v2.202l-1.678.082 2.834 9.053h.055l2.752-9.053-1.431-.082zm10.335 6.77q0 2.338.88 3.632.881 1.293 2.532 1.293 1.679 0 3.302-1.183l1.183 2.118q-1.953 1.596-4.898 1.596-2.944 0-4.65-1.843-1.678-1.871-1.678-5.503 0-3.633 1.926-5.449 1.953-1.843 4.375-1.843 2.449 0 4.54 1.128v3.577l-2.531.193v-1.321q0-.743-.55-.908-.524-.193-1.101-.193-3.33 0-3.33 4.705zM208.288 40v10.237q0 .44.137.605.165.165.55.193l.881.055v2.201h-4.375v-1.596l-.083-.027q-1.375 1.98-3.77 1.98-2.806 0-4.154-1.788-1.349-1.788-1.349-4.898 0-3.742 1.816-5.833 1.817-2.091 5.449-2.091 2.339 0 4.898.963zm-3.192 8.916V41.79q-.77-.357-2.119-.357-1.844 0-2.67 1.485-.825 1.486-.825 3.935 0 4.458 2.862 4.458 1.21 0 1.981-.715.77-.743.77-1.679zm6.257-7.236v-2.23h4.65v1.789q1.541-2.201 4.21-2.201 2.697 0 3.633 2.2 1.54-2.2 4.182-2.2 1.982 0 3.055 1.21 1.073 1.184 1.073 3.577v7.182l1.568.083v2.201h-6.549V51.2l.908-.083q.413-.055.578-.22.193-.192.22-.66V44.54q0-1.513-.357-2.229-.33-.743-1.596-.743t-1.954.77q-.66.771-.66 2.064v6.604l1.513.083v2.201h-6.494V51.2l.908-.083q.413-.055.605-.22.193-.192.193-.688v-5.668q0-1.513-.358-2.229-.33-.743-1.623-.743-1.266 0-1.926.798-.66.798-.66 1.981v6.66l1.485.082v2.201h-6.494V51.2l.908-.083q.413-.055.606-.22.192-.192.192-.688h.028v-7.594q0-.468-.165-.633-.138-.193-.523-.22zm25.515 14.225V42.587q0-.468-.165-.633-.138-.192-.523-.192l-1.156-.083V39.45h4.65v1.789q.44-.826 1.596-1.513 1.156-.688 2.752-.688 4.98 0 4.98 6.989 0 3.715-1.623 5.696-1.623 1.981-4.403 1.981-1.65 0-2.944-.798v3.797l2.229.11v2.174h-7.1v-2.091l.909-.083q.412-.055.605-.247.193-.165.193-.66zm8.722-9.603q0-4.595-2.779-4.595-1.155 0-1.98.715-.799.688-.799 1.651v6.329q1.046.688 2.532.688 1.513 0 2.256-1.376.77-1.376.77-3.412z" fill="#1a2751"/><path d="M26.272 64.812s3.909 6.849 10.056 8.352c6.214 1.57 14.098-3.441 19.845-3.24 5.746.2 7.296 1.68 7.65 5.378.355 3.698-4.042 8.452-15.268 8.052 29.685 17.1 51.885 3.031 54.39-35.748 0 0-5.547-3.677-6.054-1.339-.592 2.726 1.253 9.474-4.48 10.43-5.734.956-6.408-3.951-7.05-8.917-.573-4.421-3.265-.83-5.537-.897-2.272-.067-4.946-2.72-6.68-1.28-1.49 1.236-1.7 3.42-4.467 5.007-5.767 2.745-12.413-1.853-17.535-3.365-3.943-1.136-8.478 1.922-12.857 7.043 1.33 8.955-4.013 14.013-12.013 10.524z" fill="none" stroke="#8f1924" stroke-linecap="round" stroke-linejoin="round"/><path d="M.5 46.286c3.669.609 10.461 2.046 14.434-3.331 3.973-5.377-1.09-8.767.067-12.772.775-2.683 3.441-5.206 6.878-5.253 6.874-.094 11.76 7.166 18.568 10.37 6.808 3.206 15.611-4.193 12.285-12.307-3.327-8.115-14.883-6.355-17.576-.095 2.776-11.61 8.523-18.448 21.26-13.134 3.538 1.475 10.773 4.842 13.75 1.063 1.984-3.308-4.441-8.6-11.765-8.741 35.561-9.533 43.924 26.057 44.412 42.003-6.047-3.166-8.373-2.383-8.67-.544-.296 1.839 1.826 9.776-1.984 10.087-4.3.352-4.505-5.454-4.583-10.607-1.706-4.126-4.449.734-6.33.355-1.883-.38-7.608-3.638-9.308-1.725-2.08 2.457-2.316 6.78-7.017 6.78-5.15.331-9.827-5.055-15.568-4.37-5.74.685-9.662 2.906-12.662 7.843-1.352-1.05-6.878-5.933-11.717-6.615-4.839-.68-6.008 4.01-10.016 6.426-4.01 2.416-10.021.67-14.458-5.433z" fill="none" stroke="#192751" stroke-linejoin="round"/></svg>