<svg width="818.538" height="433.699" viewBox="0 0 818.538 433.699" xml:space="preserve" xmlns:xlink="http://www.w3.org/1999/xlink" xmlns="http://www.w3.org/2000/svg"><title>College of Healthcare Information Management Executives - International</title><defs><linearGradient id="b"><stop style="stop-color:#81bc44;stop-opacity:1" offset="0"/><stop style="stop-color:#afc047;stop-opacity:1" offset="1"/></linearGradient><linearGradient id="a"><stop style="stop-color:#07b4ce;stop-opacity:1" offset="0"/><stop style="stop-color:#2a85c7;stop-opacity:1" offset="1"/></linearGradient><linearGradient xlink:href="#b" id="c" x1="258.912" y1="118.43" x2="491.398" y2="118.43" gradientUnits="userSpaceOnUse" gradientTransform="translate(0 .001)"/><radialGradient xlink:href="#a" id="d" cx="399.86" cy="244.426" fx="399.86" fy="244.426" r="409.269" gradientTransform="matrix(.99428 0 0 .93825 2.34 13.479)" gradientUnits="userSpaceOnUse"/></defs><path style="fill:#000" d="M764.758 375.868q.323 0 .647.139.369.138.6.461l12.74 19.11-1.246-.045 12.786-19.065q.508-.692 1.247-.6.554 0 .923.416.415.369.415.969v29.543q0 .554-.415.97-.416.415-1.016.415-.646 0-1.061-.416-.416-.415-.416-.97V380.07l.831.092-11.679 17.68q-.138.277-.415.461-.277.139-.646.093-.324.046-.647-.093-.277-.184-.461-.461l-11.725-17.865.877-.6v27.42q0 .554-.416.97-.369.415-.969.415t-.97-.416q-.369-.415-.369-.97v-29.542q0-.554.37-.97.415-.415 1.015-.415zm-23.597 32.313q-.647 0-1.062-.416-.37-.415-.37-.97v-29.404h2.863v29.405q0 .554-.416.97-.415.415-1.015.415zm-10.987-29.682q-.554 0-.97-.369-.415-.37-.415-.97 0-.553.416-.923.415-.369.97-.369h21.972q.554 0 .97.37.415.369.415.969t-.416.97q-.415.322-.97.322zm-16.3 49.887q.924 0 1.617.693.693.616.693 1.54 0 1.001-.693 1.694-.693.616-1.617.616h-27.49q-1 0-1.693-.693-.616-.693-.616-1.617v-49.28q0-.924.693-1.617t1.77-.693q.925 0 1.618.693.77.693.77 1.617v48.356l-1.463-1.309zm-71.08-43.428-18.711 46.508q-.308.77-.847 1.155-.539.385-1.232.385-1.078 0-1.617-.539-.539-.616-.616-1.463-.077-.385.077-.924l20.328-49.742q.385-.847.924-1.155.616-.385 1.386-.385.77 0 1.309.462.616.385.924 1.078l20.251 49.511q.154.462.154.924 0 1.078-.693 1.694-.693.54-1.617.54-.77 0-1.386-.386-.539-.462-.847-1.155l-19.173-46.816zm-14.245 32.417 1.925-4.543h23.87l.924 4.543zm-29.885-38.346q1 0 1.54.616.616.616.616 1.54v49.28q0 1.155-.77 1.848-.693.616-1.617.616-.462 0-1.001-.154-.54-.23-.847-.616l-34.342-46.277 1.309-.693v45.661q0 .847-.616 1.463-.616.616-1.54.616-1.001 0-1.617-.616-.539-.616-.539-1.463v-49.51q0-1.156.693-1.695.693-.616 1.54-.616.462 0 1.001.231.539.154.847.616l33.957 45.738-.77 1.386v-45.815q0-.924.616-1.54.693-.616 1.54-.616zm-59.838 26.95q0 6.083-1.925 11.165-1.848 5.005-5.313 8.778-3.465 3.696-8.24 5.775-4.696 2.002-10.317 2.002t-10.395-2.002q-4.697-2.079-8.162-5.775-3.465-3.773-5.39-8.778-1.848-5.082-1.848-11.165 0-6.083 1.848-11.088 1.925-5.082 5.39-8.778 3.465-3.773 8.162-5.775 4.774-2.079 10.395-2.079 5.62 0 10.318 2.08 4.774 2.001 8.239 5.774 3.465 3.696 5.313 8.778 1.925 5.005 1.925 11.088zm-4.928 0q0-6.853-2.695-12.012-2.618-5.236-7.315-8.162-4.697-2.926-10.857-2.926-6.083 0-10.857 2.926-4.697 2.926-7.392 8.162-2.618 5.16-2.618 12.012 0 6.853 2.618 12.09 2.695 5.158 7.392 8.084 4.774 2.926 10.857 2.926 6.16 0 10.857-2.926 4.697-2.926 7.315-8.085 2.695-5.236 2.695-12.089zm-67 24.563q-.076 1.001-.846 1.694-.693.693-1.617.693-1.078 0-1.771-.693-.616-.693-.616-1.694v-49.126q0-1 .693-1.694.693-.693 1.77-.693.925 0 1.618.693.77.693.77 1.694zm-44.822 2.387q-1.078 0-1.771-.693-.616-.693-.616-1.617V381.57h4.774v49.05q0 .923-.693 1.616-.693.693-1.694.693zm-18.326-49.51q-.924 0-1.617-.617-.693-.616-.693-1.617 0-.924.693-1.54t1.617-.616h36.652q.924 0 1.617.616t.693 1.617q0 1.001-.693 1.617-.693.54-1.617.54zm-35.121 1.54-18.711 46.507q-.308.77-.847 1.155-.539.385-1.232.385-1.078 0-1.617-.539-.539-.616-.616-1.463-.077-.385.077-.924l20.328-49.742q.385-.847.924-1.155.616-.385 1.386-.385.77 0 1.309.462.616.385.924 1.078l20.25 49.511q.155.462.155.924 0 1.078-.693 1.694-.693.54-1.617.54-.77 0-1.386-.386-.54-.462-.847-1.155l-19.173-46.816zm-14.245 32.416 1.925-4.543h23.87l.924 4.543zm-29.885-38.346q1 0 1.54.616.616.616.616 1.54v49.28q0 1.155-.77 1.848-.693.616-1.617.616-.462 0-1.001-.154-.54-.23-.847-.616l-34.342-46.277 1.309-.693v45.661q0 .847-.616 1.463-.616.616-1.54.616-1.001 0-1.617-.616-.539-.616-.539-1.463v-49.51q0-1.156.693-1.695.693-.616 1.54-.616.462 0 1.001.231.539.154.847.616l33.957 45.738-.77 1.386v-45.815q0-.924.616-1.54.693-.616 1.54-.616zm-97.876 53.9q-1.155 0-1.925-.693-.693-.693-.693-1.617v-49.28q0-.924.693-1.617t1.617-.693h20.79q4.389 0 7.854 1.925 3.465 1.848 5.39 5.16 2.002 3.31 2.002 7.468 0 3.388-1.232 6.237-1.232 2.85-3.465 4.851-2.233 1.925-5.005 2.85l-2.695-.848q2.849.231 5.313 1.848 2.464 1.54 3.927 4.312 1.54 2.695 1.617 6.545.077 3.311.308 5.16.308 1.847.847 2.771.539.924 1.386 1.463.77.462 1 1.31.309.846-.153 1.616-.308.616-.924.924-.54.231-1.155.231-.616 0-1.232-.308-1.078-.616-2.233-1.925-1.078-1.309-1.848-3.85-.693-2.54-.693-7.084 0-3.003-1.001-4.928-.924-1.925-2.464-2.926-1.463-1.078-3.311-1.463-1.771-.462-3.388-.462h-17.941l.847-1.078v21.791q0 .924-.616 1.617t-1.617.693zm1.386-27.258h19.327q2.618-.23 4.928-1.694 2.31-1.54 3.696-4.158 1.463-2.618 1.463-6.083 0-4.389-3.003-7.238-2.926-2.926-7.7-2.926h-18.403l.539-1.078v24.255zm-54.91-26.642h28.259q.924 0 1.617.693.693.616.693 1.617t-.693 1.617q-.693.616-1.617.616H174.87l.77-1.309V403.9l-.847-1h23.1q.924 0 1.617.692.693.693.693 1.617 0 1.001-.693 1.617-.693.616-1.617.616h-22.946l.693-.77v22.176l-.385-.462h26.103q.924 0 1.617.693t.693 1.617q0 1.001-.693 1.617-.693.616-1.617.616h-28.26q-.923 0-1.616-.693-.693-.693-.693-1.617v-49.28q0-.924.693-1.617t1.617-.693zm-42.282 53.9q-1.078 0-1.771-.693-.616-.693-.616-1.617V381.57h4.774v49.05q0 .923-.693 1.616-.693.693-1.694.693zm-18.326-49.51q-.924 0-1.617-.617-.693-.616-.693-1.617 0-.924.693-1.54t1.617-.616h36.652q.924 0 1.617.616t.693 1.617q0 1.001-.693 1.617-.693.54-1.617.54zm-22.975-4.39q1 0 1.54.616.616.616.616 1.54v49.28q0 1.155-.77 1.848-.693.616-1.617.616-.462 0-1.001-.154-.54-.23-.847-.616l-34.342-46.277 1.309-.693v45.661q0 .847-.616 1.463-.616.616-1.54.616-1.001 0-1.617-.616-.54-.616-.54-1.463v-49.51q0-1.156.694-1.695.693-.616 1.54-.616.462 0 1 .231.54.154.848.616l33.957 45.738-.77 1.386v-45.815q0-.924.616-1.54.693-.616 1.54-.616zm-64.13 51.513q-.077 1.001-.847 1.694-.693.693-1.617.693-1.078 0-1.771-.693-.616-.693-.616-1.694v-49.126q0-1 .693-1.694.693-.693 1.77-.693.925 0 1.618.693.77.693.77 1.694z"/><path fill="#a4c431" d="M385.361 33.204c-.518.022-.67.368-.843.67-3.48 6.118-8.041 11.392-13.208 16.191-.627.584-.756 1.038.045 1.557.216.13.432.324.648.497 6.83 4.928 13.23 10.376 19.412 16.083.843.778 1.297.648 2.01-.065 2.205-2.162 4.367-4.345 6.442-6.637 4.237-4.734 8.02-9.792 11.197-15.283.433-.734.325-1.145-.432-1.578-7.803-4.453-15.953-8.214-24.448-11.197-.303-.108-.606-.173-.822-.238m-74.102 71.184c.152.821.346 1.6.432 2.421.087 1.038.627 1.34 1.578 1.146 1.73-.324 3.48-.627 5.21-.951 9.057-1.773 17.812-4.475 26.35-7.912.822-.324 1.06-.757.67-1.6-3.523-8.041-6.722-16.212-9.446-24.556-.302-.951-.756-1.19-1.729-.843-7.198 2.55-14.548 4.431-22.179 5.253-.972.108-1.318.54-1.362 1.491-.497 8.539-.216 17.056.476 25.551m30.307-34.435c.064.15.129.345.216.518 3.437 8.063 7.241 15.975 11.09 23.865.367.778.8.887 1.577.52a146.004 146.004 0 0 0 10.29-5.427 157.19 157.19 0 0 0 20.298-13.964c.8-.649.843-1.081.086-1.838-6.01-6.095-12.256-11.932-18.677-17.617-.735-.67-1.275-.735-2.118-.087-3.675 2.854-7.566 5.405-11.608 7.718a117.735 117.735 0 0 1-10.268 5.252c-.432.195-1.016.325-.886 1.06m55.62 152.722c.67-.173 1.231-.303 1.794-.476a154.994 154.994 0 0 0 27.085-10.398c1.643-.821 1.643-.821.26-1.924-6.94-5.49-13.36-11.564-19.455-17.963-.714-.757-1.297-.865-2.227-.432a180.515 180.515 0 0 1-14.72 5.944c-8.215 2.94-16.58 5.296-25.12 7.134-.324.065-.8 0-.907.41-.108.411.367.52.627.735a95.65 95.65 0 0 0 6.355 4.648c7.782 5.231 16.104 9.382 25.14 12.04.41.13.822.217 1.168.282m63.704-35.063c-.065-.13-.13-.389-.238-.648a273.642 273.642 0 0 0-9.944-22.46c-.648-1.297-.691-1.297-1.837-.367-10.7 8.884-22.33 16.407-34.695 22.805-1.513.778-1.535.778-.454 2.032 5.577 6.507 11.392 12.776 17.64 18.677.734.692 1.297.735 2.14.238 4.431-2.53 8.754-5.21 12.926-8.128 4.82-3.372 9.468-6.96 13.857-10.873.346-.303.778-.584.605-1.276m14.202-71.832c-.13-.303-.303-.778-.518-1.254-4.021-8.992-8.95-17.488-14.7-25.508-.843-1.167-.95-1.145-1.707.13-2.746 4.777-5.902 9.295-9.36 13.597-4.15 5.188-8.734 10.009-13.64 14.505-.909.865-1.038 1.448-.325 2.55a241.534 241.534 0 0 1 14.721 25.552c.649 1.318.8 1.34 1.902.302 3.437-3.177 6.701-6.571 9.814-10.073 5.08-5.75 9.641-11.89 13.49-18.526.194-.346.388-.691.323-1.275m-50.842-62.256c-.519.065-.649.41-.8.713-5.037 9.295-11.824 17.229-19.412 24.514-.756.735-.756 1.145-.064 1.88a276.63 276.63 0 0 1 20.34 24.081c.865 1.168.974 1.168 2.054.13 2.486-2.378 4.95-4.799 7.285-7.307 5.815-6.182 10.96-12.84 15.348-20.06.475-.778.519-1.34-.151-2.075a162.919 162.919 0 0 0-23.865-21.444c-.26-.173-.54-.324-.735-.432m-98.377 100.907c2.637-.52 4.907-.952 7.176-1.405 11.89-2.378 23.368-6.096 34.565-10.68.908-.367 1.103-.756.562-1.642a370.708 370.708 0 0 1-15.283-27.496c-.821-1.622-.821-1.6-2.594-.93-11.219 4.41-22.762 7.61-34.738 9.122-1.297.152-1.47.39-1.145 1.686.605 2.421 1.189 4.843 1.837 7.242a152.347 152.347 0 0 0 8.236 22.849c.346.756.713 1.448 1.384 1.254m28.447 41.31.627-.087c14.267-3.005 27.972-7.718 41.245-13.705 1.167-.52 1.167-.649.28-1.665-6.722-7.933-12.926-16.277-18.784-24.859-.649-.951-1.21-1.06-2.227-.649-10.484 4.259-21.249 7.696-32.36 9.987-3.415.714-6.852 1.276-10.311 1.881-1.146.216-1.21.324-.648 1.34l.778 1.297c5.577 9.317 12.105 17.92 19.693 25.724.518.54 1.08.908 1.707.735m41.894-109.92c-.454.129-.779.453-1.146.756-5.123 4.15-10.528 7.89-16.126 11.37a165.703 165.703 0 0 1-17.77 9.641c-.885.433-1.015.951-.561 1.773 1.037 1.837 2.032 3.696 3.026 5.534.562 1.037 1.946 2.896 3.87 6.463 3.09 5.296 5.469 9.77 4.301 7.76-2.118-3.545 2.356 3.978 4.475 7.523.865 1.405.951 1.427 2.42.692 4.454-2.227 8.864-4.54 13.144-7.069 8.884-5.188 17.358-10.96 25.335-17.445.778-.626.886-1.102.238-1.923-2.94-3.675-5.815-7.437-8.777-11.133-3.675-4.518-7.5-8.906-11.37-13.273-.281-.302-.519-.691-1.06-.67m30.545 38.845c-.238.195-.562.411-.865.67-5.966 4.886-12.3 9.296-18.85 13.403a206.907 206.907 0 0 1-20.622 11.262c-.972.454-1.08.908-.453 1.751 1.145 1.621 2.226 3.307 3.35 4.95a424.04 424.04 0 0 0 14.483 20.017c.562.735 1.016 1.124 2.032.606 13.251-6.853 25.703-14.851 37.267-24.254.865-.692.995-1.297.433-2.248-2.248-3.762-4.367-7.566-6.637-11.306a273.52 273.52 0 0 0-9.1-14.05c-.238-.347-.39-.8-1.038-.8M352.03 4.777c-1.536.238-3.416.476-5.254.843-8.538 1.708-16.58 4.778-24.21 8.928-10.722 5.815-20.342 12.992-27.627 22.87-3.264 4.432-5.706 9.23-6.096 14.851-.389 5.815 2.422 10.528 7.76 12.97 2.811 1.276 5.773 1.751 8.82 1.88 1.687.087 1.687.066 2.076-1.599 1.988-8.3 4.907-16.256 8.927-23.8.282-.54.433-1.535 1.297-1.189.887.368.152 1.103-.022 1.6a134.375 134.375 0 0 0-3.87 13.856 127.987 127.987 0 0 0-1.707 9.555c-.173 1.297-.044 1.405 1.297 1.254.217-.022.41-.044.584-.065 5.858-.908 11.565-2.313 17.077-4.432 1.6-.605 1.578-.583 1.167-2.27-1.621-6.355-3.004-12.732-3.74-19.26-.064-.648-.432-1.578.584-1.75.951-.152.865.864 1.038 1.404a381.78 381.78 0 0 0 6.615 18.007c.345.865.691 1.297 1.707.8 6.14-2.94 11.976-6.399 17.402-10.463.692-.519.864-.95.086-1.535-.886-.626-1.75-1.318-2.616-1.988-4.863-3.826-9.878-7.436-15.023-10.917-.238-.151-.605-.302-.39-.713.173-.324.498-.519.887-.39.713.239 1.405.498 2.097.78 6.68 2.701 12.992 6.095 19.087 9.9.606.367 1.103.605 1.773 0 4.215-3.87 8.063-8.064 11.046-12.992.649-1.081.562-1.276-.67-1.578-6.939-1.643-13.943-2.789-21.033-3.33-2.27-.172-4.561-.237-6.83-.388-.39-.022-1.017.108-.995-.54.022-.563.605-.476 1.016-.563.108-.021.216-.021.346-.043 5.555-.583 11.132-.583 16.71-.324 4.28.195 8.516.67 12.753 1.319.584.086 1.232.28 1.513-.498 1.103-3.22 1.795-6.506.822-9.857-1.254-4.345-4.324-7.047-8.41-8.711-5.057-2.054-10.332-2.01-15.996-1.622m-91.373 133.548-.432-4.172c.713-.151.973.303 1.189.843.518 1.276 1.08 2.508 1.816 3.675 3.372 5.21 8.106 8.863 13.64 11.543 12.365 5.945 25.508 6.594 38.91 5.426.93-.065.994-.54.692-1.275-.757-1.88-1.514-3.761-2.184-5.685-2.875-7.998-5.166-16.17-6.787-24.535-.368-1.903-.54-1.989-2.486-1.946-5.685.13-11.306-.41-16.818-1.794-6.29-1.578-12.105-4.15-16.99-8.452-5.254-4.604-8.496-10.29-9.058-17.293-.497-6.334.908-12.387 3.2-18.245.043-.086.064-.151.107-.216.173-.303.346-.67.8-.519.389.13.346.476.303.778-.023.281-.087.54-.108.822-.519 3.956-.519 7.933.518 11.824 2.205 8.322 7.717 13.727 15.543 16.99 6.874 2.854 14.072 3.33 21.4 2.984.886-.043 1.146-.497 1.06-1.319-.195-1.859-.282-3.718-.411-5.577-.562-7.609-.325-15.175.497-22.74.15-1.449.086-1.492-1.405-1.514-4.432-.086-8.798-.648-12.884-2.42-4.885-2.076-8.603-5.319-10.117-10.528-.972-3.372-.843-6.788-.13-10.182 1.45-6.83 4.973-12.602 9.274-17.92 5.534-6.83 12.17-12.494 19.434-17.423 12.278-8.344 25.616-14.353 40.185-17.531 2.249-.497 4.54-.908 6.81-1.34 1.945-.195 3.89-.39 5.858-.584.54.173 1.08.065 1.643.065 4.907-.108 9.727.389 14.31 2.27 5.858 2.4 9.749 6.463 10.851 12.797.692 4.02.045 7.933-1.275 11.738-.346 1.016-.173 1.426.908 1.729a131.255 131.255 0 0 1 24.989 9.641c.821.432 1.254.324 1.556-.584.67-1.967 1.297-3.934 1.708-5.944 1.189-5.88.951-11.652-1.73-17.12-3.177-6.572-8.646-10.528-15.477-12.798-.367-.13-.756-.238-1.124-.367-.216-.087-.41-.26-.324-.54.065-.217.26-.303.454-.303.28-.022.562 0 .821.021 7.998.973 15.218 3.805 21.336 9.08 5.771 4.971 8.906 11.305 9.316 18.892.303 5.62-.626 11.09-2.485 16.407-.303.865-.13 1.34.648 1.838 3.264 2.075 6.399 4.366 9.447 6.744 5.339 4.15 10.31 8.668 15.023 13.489.994 1.038 1.167.994 1.686-.368.649-1.75 1.34-3.501 1.902-5.296 2.486-7.782 3.113-15.715 1.276-23.735-.692-3.026-1.773-5.901-3.459-8.517-.216-.367-.562-.756-.108-1.167.432-.368.8 0 1.146.216.173.108.324.238.475.368 8.474 6.485 12.279 15.24 12.581 25.659.217 8.17-1.47 16.018-4.474 23.605-.411 1.016-.26 1.708.389 2.55 6.03 7.87 11.11 16.321 15.11 25.4.13.303.15.692.54.822.303-.065.368-.324.433-.519 2.745-6.636 4.517-13.532 5.166-20.687.346-3.805.151-7.61 0-11.435 0-.368-.086-.843.432-.951.54-.109.627.389.778.734.714 1.643 1.233 3.351 1.751 5.08.584 1.99.714 4.043 1.276 6.053l.302 3.005c-.238 1.167.065 2.334.065 3.502.065 9.403-1.859 18.417-5.469 27.085-.281.692-.324 1.32-.13 2.032.887 3.48 1.708 6.961 2.097 10.528.454 4.237.908 8.452.995 12.71.086 3.783.044 7.545-.562 11.306-.108.648.172 1.837-.973 1.794-1.124-.043-.821-1.189-.865-1.88-.648-8.582-2.27-16.991-4.777-25.206-.108-.367-.086-.93-.518-.972-.433-.044-.519.518-.714.843-3.026 5.253-6.528 10.181-10.376 14.872a133.053 133.053 0 0 1-11.975 12.71c-.865.8-1.017 1.449-.541 2.53a204.29 204.29 0 0 1 8.344 23.454c.367 1.34.518 1.383 1.513.41 5.383-5.317 10.333-11.002 14.656-17.206.324-.476.562-1.297 1.405-.865.865.476.151 1.08 0 1.621-.044.152-.13.281-.194.433-4.583 9.338-10.463 17.812-17.467 25.529-10.31 11.327-22.308 20.45-36.121 27.172-10.03 4.886-20.58 8.236-31.626 10.138-2.226.39-4.517.411-6.722 1.06-1.254.13-2.508.237-3.762.367-2.313-.194-4.604.238-6.917.303-10.44.28-20.709-.8-30.825-3.33-.843-.215-1.665-.453-2.508-.67-.389-.107-.778-.259-.67-.8.108-.518.54-.475.951-.453l.584.065c6.463.583 12.927.756 19.412.497a135.644 135.644 0 0 0 15.931-1.578c2.14-.346 4.28-.757 6.42-1.146-.195-.324-.389-.432-.583-.497a87.65 87.65 0 0 1-10.657-3.74c-8.128-3.415-15.543-7.976-22.46-13.359-.519-.41-1.016-.67-1.73-.562-8.69 1.297-17.423 1.708-26.177.843-11.522-1.145-22.439-4.237-32.339-10.354-3.524-2.183-6.81-4.648-9.425-7.869-.26-.302-.67-.691-.216-1.102.367-.368.735-.043 1.037.173 6.161 4.02 13.014 6.377 20.169 7.933 12.127 2.637 24.362 2.897 36.662 1.405.302-.043.713.044.821-.302.151-.454-.303-.67-.562-.951-7.782-8.236-14.289-17.359-19.65-27.302-.518-.973-1.124-1.319-2.226-1.21-4.907.453-9.814.388-14.721.02-9.9-.734-19.412-2.896-28.145-7.781-6.377-3.589-11.587-8.366-15.067-14.873-1.189-2.183-1.859-4.54-2.615-6.874" style="fill:url(#c);fill-opacity:1"/><path style="fill:url(#d);fill-opacity:1" d="M806.606 149.199h1.362c1.448 0 2.356-.778 2.356-1.967 0-1.318-.973-1.902-2.4-1.924-.648 0-1.102.065-1.318.13zm-1.34-4.69c.67-.152 1.642-.217 2.572-.217 1.427 0 2.356.26 3.005.843.518.454.821 1.146.821 1.946 0 1.362-.865 2.27-1.967 2.637v.043c.8.281 1.297 1.016 1.535 2.097.344 1.427.583 2.421.8 2.832h-1.384c-.174-.302-.41-1.189-.691-2.464-.324-1.427-.865-1.967-2.097-2.01h-1.254v4.474h-1.34zm3.026-3.33c-4.605 0-8.366 3.719-8.366 8.302 0 4.582 3.761 8.3 8.366 8.3 4.626 0 8.387-3.718 8.387-8.3 0-4.583-3.761-8.301-8.387-8.301m0 18.46c-5.642 0-10.225-4.56-10.225-10.16 0-5.598 4.583-10.138 10.225-10.138 5.642 0 10.246 4.54 10.246 10.139 0 5.598-4.604 10.16-10.246 10.16M237.784 234.24c-10.29 0-10.55.302-10.55 8.041v39.796c0 25.681 1.514 27.627 12.82 29.853l8.02 1.08c1.988 1.665 1.988 8.02 0 9.685-14.311-.562-26.849-.843-38.132-.843-12.02 0-24.579.281-37.376.843-2.01-1.664-2.01-8.02 0-9.684l6.01-.822c11.305-2.485 12.818-4.43 12.818-30.112V179.268c0-25.702-1.513-27.647-12.818-30.133l-6.01-.843c-2.01-1.643-2.01-7.999 0-9.663 12.3.562 25.357.843 37.376.843 11.283 0 23.821-.281 34.867-.843 2.01 1.664 2.01 8.02 0 9.663l-5.274.843c-10.787 2.486-12.3 4.431-12.3 30.133v32.058c0 8.02.261 8.28 10.549 8.28h52.161c10.55 0 10.55-.26 10.55-8.28v-32.058c0-25.702-1.276-27.647-12.798-29.852l-6.766-1.124c-2.01-1.643-2.01-7.999 0-9.663 13.791.562 26.091.843 38.11.843 12.3 0 23.822-.281 35.365-.843 2.01 1.664 2.01 8.02 0 9.663l-5.015.843c-11.522 2.486-13.035 4.431-13.035 30.133v102.81c0 25.68 1.513 27.626 13.035 29.852l6.03 1.08c1.99 1.665 1.99 8.02 0 9.685-12.558-.562-24.836-.843-36.38-.843-12.516 0-24.816.281-36.878.843-1.989-1.664-1.989-8.02 0-9.684l5.534-.822c11.522-2.485 12.797-4.43 12.797-30.112v-39.796c0-7.739 0-8.041-10.549-8.041zm-86.273-92.023c0 4.994.735 27.108 3.005 43.126-1.016 3.307-7.782 4.41-9.533 1.945-6.766-25.702-22.827-39.515-47.167-39.515-27.821 0-57.674 26.242-57.674 81.235 0 54.993 28.837 84.565 58.927 84.565 30.372 0 44.423-24.06 51.189-42.844 1.988-2.205 8.041-1.384 9.511 1.945-1.751 20.45-6.01 37.03-9.511 43.385-13.554 4.15-31.366 10.225-50.93 10.225-24.578 0-49.631-6.377-67.465-21.012C13.791 290.076 0 267.141 0 232.878c0-33.722 13.035-57.5 30.371-73.238 17.813-16.32 43.385-24.6 69.477-24.6 25.572 0 44.12 6.637 51.663 7.177m574.378 69.109c0 7.739.237 8.28 7.004 8.28h17.315c13.056 0 15.801-1.946 18.547-15.197l1.275-6.896c1.751-2.227 8.02-2.227 9.274.26-.497 8.84-.757 18.784-.757 29.29s.258 20.47.757 29.29c-1.254 2.486-7.523 2.767-9.274.303l-1.275-6.917c-2.746-13.273-5.49-15.5-18.547-15.5h-17.315c-6.766 0-7.004.303-7.004 8.582v32.88c0 12.71.994 21.573 4 26.242 3.263 4.994 8.04 7.198 26.328 7.198 21.833 0 30.372-.821 44.163-32.057 1.989-3.026 8.258-1.924 9.274 1.383-1.016 14.375-7.026 36.77-10.528 44.228-13.315-.562-37.375-.843-57.954-.843h-32.598c-12.04 0-24.319.281-43.147.843-2.01-1.664-2.01-8.3 0-9.684l11.781-1.924c11.306-1.643 12.797-3.588 12.797-29.01v-103.09c0-25.14-1.491-27.085-12.797-29.29l-6.269-1.384c-2.226-1.664-1.988-8.02.519-9.684 11.78.562 24.08.843 36.121.843h53.177c16.04 0 30.35-.281 33.614-.843.237 4.431 1.99 24.34 3.243 42.844-.994 3.027-6.788 3.589-9.295 1.103-2.746-9.685-6.27-17.964-9.512-21.833-4.755-5.253-12.3-8.56-24.578-8.56h-20.082c-8.257 0-8.257.54-8.257 10.786zM417.397 129.68c0 13.207-9.165 19.952-18.59 19.952-10.83 0-17.402-8.28-17.402-19.434 0-11.91 8.712-19.973 18.59-19.973 10.333 0 17.402 8.581 17.402 19.455m-1.772 121.29c0 19.348.994 60.398 9.273 61.479l4.777.562c2.01 1.664 2.01 8.02-.261 9.684-8.776-.562-18.568-.843-30.09-.843-11.284 0-21.812.281-30.09.843-2.27-1.664-2.27-8.02-.258-9.684l4.755-.562c8.28-1.081 9.274-42.131 9.274-61.478v-41.742c0-11.024 0-14.072-4.756-17.682l-3.502-2.465c-1.75-1.664-1.75-6.636 0-8.279 11.782-3.61 29.594-11.068 37.116-16.061 2.01 0 3.502.843 4.497 2.507-.497 8.28-.735 20.45-.735 32.901zm26.588-102.657c-2.01-2.226-2.01-8.841.757-9.684 8.538.562 19.303.843 31.582.843 8.279 0 15.564 0 24.578-.843 0 17.142 8.798 34.003 19.822 59.986l16.559 38.954c2.507 5.533 10.051 21.27 13.553 28.188 3.243-6.637 7.285-15.197 14.051-31.496l12.776-30.414c12.278-28.47 17.574-41.44 23.086-65.218 11.544 1.124 19.304.843 26.827.843 8.279 0 19.822-.281 28.836-.843 2.767 1.664 2.767 6.917.757 9.684l-7.263 1.384c-10.268 2.205-15.305 5.23-15.305 19.887 0 56.938.497 86.77 2.01 121.594.497 12.71 1.492 19.088 11.284 20.752l8.02 1.08c2.01 2.227 2.01 8.583-.497 9.685a688.635 688.635 0 0 0-34.63-.843c-11.262 0-25.054.281-37.116.843-3.005-1.383-3.242-7.739-.735-9.684l7.523-1.081c11.543-2.486 11.543-4.993 11.543-21.854l-.518-71.854v-31.496h-.498c-18.568 44.228-38.629 90.358-55.165 137.072-1.254 1.102-3.027 1.924-5.037 1.924-2.248 0-5.015-.54-6.528-1.643-9.75-34.263-39.602-101.448-53.653-137.353h-.497c-.994 17.964-1.513 28.75-1.75 43.104-.283 17.985-.52 45.59-.52 62.191 0 13.813 1.514 17.423 11.544 19.347l9.792 1.643c1.99 1.945 1.514 8.3-.518 9.684-9.274-.562-20.06-.843-29.593-.843-8.02 0-18.31.281-28.34.843-3.264-1.102-3.264-8.3-1.016-9.684l4.518-.822c12.797-2.745 13.554-4.15 15.067-21.27 1.254-13.554 2.508-37.592 4.02-63.856.995-18.504 1.73-40.899 1.73-55.814 0-15.759-5.49-19.347-15.543-21.833zm0 0"/><path style="fill:url(#c);fill-opacity:1" d="m485.23 124.405-4.67 6.55c2.314 7.846 3.827 15.824 4.432 23.995.067.692-.257 1.838.887 1.881 1.146.043.865-1.146.973-1.795.605-3.761.649-7.524.562-11.306-.108-4.259-.54-8.473-.994-12.688-.257-2.248-.692-4.453-1.19-6.637zm-3.76 41c-.434.071-.641.624-.884.98l.018-.001c-4.302 6.204-9.251 11.89-14.633 17.207-.995.973-1.147.93-1.535-.41a38.83 38.83 0 0 0-1.457-4.127l-.823.806.05 15.5c.715-.75 1.443-1.486 2.144-2.257 7.025-7.718 12.905-16.191 17.488-25.53.066-.151.15-.28.195-.431.15-.54.844-1.146-.04-1.621-.206-.109-.377-.14-.522-.116zm-64.97 50.684c-5.717 2.37-11.55 4.435-17.54 6.11-.561.172-1.146.303-1.815.476a11.284 11.284 0 0 1-1.168-.281c-4.97-1.463-9.71-3.39-14.27-5.686v5.506a86.798 86.798 0 0 0 6.207 2.017c.216.065.411.173.606.497-2.14.388-4.28.8-6.42 1.146-.131.021-.262.036-.393.057v6.035c1.476-.129 2.951-.25 4.434-.125 1.253-.13 2.508-.238 3.761-.367 2.183-.649 4.475-.672 6.723-1.06a119.327 119.327 0 0 0 19.904-5.216z"/></svg>