<svg xmlns="http://www.w3.org/2000/svg" viewBox="0 0 701.3 233.4"><title>Ethical Healthcare Consulting</title><style>.st0{fill:#475369}</style><path class="st0" d="m124.6 3.6 3 .3c53.4 5.4 95.6 47.7 101 101.1.8 7.7.8 15.5 0 23.2-5.4 53.4-47.6 95.6-101 101.1l-3 .3v-17.8c52.5-4.7 91.3-51 86.6-103.5-4.1-46-40.6-82.6-86.6-86.6V3.6z"/><path d="m109.3 229.4-3-.3C52.9 223.7 10.6 181.5 5.2 128c-.8-7.7-.8-15.5 0-23.2 5.4-53.3 47.6-95.5 101-100.9l3-.3v17.8c-35.1 3.2-65.7 25.4-79.5 57.9-3.9 9.1-6.3 18.7-7.1 28.6h86V125h-86c4.1 46 40.6 82.4 86.6 86.5v17.9z" style="fill:#71ad47"/><path class="st0" d="M159.1 168.7v-43.5h-21.7v43.5h-17.8v-104h17.8v42.8h21.7V64.7h17.8v104h-17.8z"/><path style="fill:#71ad47" d="M694.1 170.9h-7.9v-38.2h-40.5v38.2h-8V92.8c0-1 0-1 1-1h6c.7 0 1 .2 1 .9V125h40.5V91.7h7.9v79.2zM813.6 106.4l-6.3 4.7c-.7-.8-1.3-1.5-1.9-2.3-6.6-7.6-16.3-11.7-26.3-11.4-7.5-.1-14.9 2.4-21 6.9-6.9 5-11.5 12.6-12.8 21-1.1 6.2-.6 12.6 1.6 18.5 3.1 8.7 9.8 15.5 18.4 18.9 8.2 3.4 17.4 3.8 25.8 1 6-2 11.3-5.5 15.5-10.2.3-.3.6-.7.9-1 .1 0 .1-.1.2-.1l6.2 4.7c-.2.2-.3.5-.5.7-5.2 6.3-12.1 10.8-20 13-8.7 2.6-18 2.8-26.8.4-15.2-3.4-26.8-15.7-29.4-31-2.2-9.7-.9-19.9 3.7-28.8 3.5-6.8 9-12.4 15.7-16.1 9-5 19.3-6.8 29.4-5.2 6.6.8 13 3.3 18.4 7.1 3.7 2.6 6.7 5.7 9.2 9.2M538.4 131.9v31.3h37.3v7.7h-45.3V92.7c0-1 0-1 1-1h44.3v7.6h-37.3v25h37.3v6.6c0 .7-.2.9-.9.9h-16.7c.1.1-19.7.1-19.7.1zM824.4 170.9c.9-1.9 1.7-3.7 2.5-5.5l29.5-62.9c1.6-3.4 3.2-6.8 4.7-10.2.3-.7.8-.7 1.4-.7.5-.1 1 .2 1.1.7 7.8 16.8 15.7 33.7 23.5 50.5 4.2 9 8.4 17.9 12.5 26.9l.5 1.1c-.3 0-.5.1-.7.1h-6.9c-.4 0-.9-.2-1-.6-3.8-8.2-7.7-16.5-11.5-24.7-.2-.5-.6-.8-1.1-.7h-33.3c-.5-.1-1 .2-1.2.7-3.8 8.2-7.7 16.4-11.5 24.6-.2.5-.6.8-1.2.7h-7.3zm38-63.2-13.9 29.6h27.7l-13.8-29.6M610 99.4v71.5h-8V99.4h-17.9c0-.3-.1-.6-.1-.8v-6.1c0-.7.2-.8.8-.8h42c.6 0 .8.2.8.8v6.1c0 .7-.2.9-.9.9h-15.9l-.8-.1zM921.5 163.2h29.6c.8 0 1 .2 1 1v6.7h-38.5V91.7h7.1c.6 0 .8.2.8.8v70.7zM720.7 170.9h-8V92.8c0-1 0-1 1-1h6.3c.5 0 .7.2.7.7v78.4z" transform="translate(-260 -36.711)"/><g><path class="st0" d="M690.219 167.743h-6.4c-.7 0-.7 0-.7-.8v-2.1c0-.5 0-.6.6-.6h10.1c.5 0 .6.1.6.6 0 2.7-.9 5.4-2.5 7.6-1.5 1.9-3.5 3.2-5.9 3.8-2 .5-4.1.6-6.1.2-3.5-.5-6.5-2.4-8.5-5.2-1.3-1.8-2-4-2.1-6.2-.1-1 0-2.1.1-3.1.5-3.1 2.3-5.9 4.9-7.8 2.1-1.5 4.6-2.4 7.2-2.4 1.1 0 2.2 0 3.3.2 2.3.3 4.4 1.2 6.2 2.7.5.4 1 .9 1.6 1.4.2.1.2.3.1.5l-.1.1c-.7.6-1.4 1.3-2 2-.2.2-.4.2-.6 0-.7-.6-1.4-1.1-2.1-1.6-2.1-1.4-4.6-2-7.1-1.5-3.6.4-6.6 3.1-7.4 6.6-1.1 4.2 1.1 8.6 5 10.3 2.1 1 4.4 1.2 6.7.7 2.5-.5 4.6-2.4 5.3-4.8v-.2c-.2-.3-.2-.3-.2-.4M524.319 176.743c-6.8.1-12.4-5.4-12.5-12.2v-.3c0-6.9 5.5-12.5 12.4-12.6s12.5 5.5 12.6 12.4v.3c0 6.8-5.4 12.3-12.2 12.3-.1.1-.2.1-.3.1m.6-3.5c2.3-.1 4.5-1.2 6-3 1.2-1.4 1.9-3.1 2.1-5 .3-2.1-.3-4.3-1.5-6-1.7-2.7-4.8-4.2-7.9-3.9-1.9.1-3.8.9-5.2 2.2-2.4 2.2-3.5 5.5-2.7 8.6.8 4.3 4.8 7.4 9.2 7.1M557.119 168.843v-16c0-.3.1-.4.4-.4h2.8c.2 0 .4.1.4.3v22.6c0 .9 0 .9-.9.9h-1.2c-.3 0-.6-.1-.8-.4l-4.8-6.3-7.3-9.5c-.1-.1-.1-.2-.2-.3l-.1.1v16c0 .3-.1.4-.4.4h-2.8c-.3 0-.4-.1-.4-.4v-22.5c0-.9 0-.9.9-.9h1c.4 0 .8.2 1.1.5 1.7 2.2 3.4 4.5 5.1 6.7 2.3 3 4.6 6 6.8 9l.3.3.1-.1M660.519 168.743v-16c0-.3.1-.4.4-.4h2.8c.2 0 .4.1.4.3v22.6c0 .9 0 .9-.9.9h-1.2c-.4 0-.7-.1-.9-.4-1.2-1.6-2.5-3.3-3.8-4.9l-8.2-10.7c-.1-.2-.3-.3-.4-.3v16.1c0 .2-.1.3-.3.3h-3.1c-.2 0-.3-.1-.4-.3v-23c0-.3.1-.5.5-.5h1.8c.3 0 .6.2.7.4 1.2 1.5 2.4 3.1 3.6 4.6 2.8 3.7 5.7 7.4 8.5 11.2.1.1.1.2.2.3l.3-.2M455.619 176.043c-.3 0-.5.1-.6.1h-3c-.3 0-.6-.2-.8-.5-1.9-3-3.8-6-5.8-8.9-.2-.3-.3-.5-.5-.8l-.3-.3c-.5-.1-.7 0-.7.6v9.3c0 .5 0 .6-.6.6h-2.5c-.6 0-.6 0-.6-.6v-22.6c0-.5.1-.6.6-.6 2.5 0 4.9 0 7.4.1 1.5 0 3 .5 4.3 1.4 1.3 1 2.2 2.4 2.3 4.1.2 1.1.1 2.2-.3 3.3-.6 1.7-2 3.1-3.7 3.6-.7.3-1.4.4-2.2.6l7 10.6m-11.7-17.1v2.7c0 .3.1.5.4.5 1.3 0 2.6 0 3.9-.1 1.6.1 3-1.2 3.1-2.8v-.1c.1-1.3-.6-2.4-1.8-2.8-.6-.2-1.1-.3-1.7-.4-1.1-.1-2.2 0-3.3 0-.5 0-.5 0-.5.5-.1.8-.1 1.7-.1 2.5M269.419 164.243v-11.2c0-.7 0-.7.7-.7h2.4c.5 0 .6 0 .6.6v8.4c0 .5 0 .5.5.5h8.8c.5 0 .5 0 .5-.6v-8.1c0-.6 0-.7.7-.7h2.4c.5 0 .5 0 .5.5v22.5c0 .7 0 .7-.7.7h-2.3c-.7 0-.7 0-.7-.7v-9.3c0-.9.1-.9-.9-.9h-8.6c-.3 0-.4.1-.4.4v10.2c0 .2-.1.4-.3.4h-3c-.2.1-.3-.1-.3-.3v-.5c.1-3.9.1-7.5.1-11.2M381.619 164.243v11.5c0 .2-.1.4-.3.4h-3c-.2 0-.3-.1-.4-.3v-10.2c0-.2-.1-.4-.3-.4h-9.2c-.2 0-.4.1-.4.4v9.8c0 .7 0 .7-.8.7h-2.3c-.5 0-.5-.1-.5-.5v-22.7c0-.6.1-.6.6-.6h2.4c.6 0 .6 0 .6.6v8c0 .7 0 .7.7.7h8.4c.7 0 .7 0 .7-.7v-7.9c0-.7 0-.8.8-.8h2.3c.6 0 .6 0 .6.6v5.7l.1 5.7M399.319 176.743c-2.5 0-5-.7-7.2-2-2.2-1.4-3.9-3.5-4.8-5.9-.6-1.7-.9-3.6-.8-5.4.1-4 2.3-7.7 5.7-9.7 1.8-1.1 3.8-1.8 5.9-1.9 2.3-.2 4.6.2 6.7 1.1 1.7.8 3.3 1.9 4.5 3.4.3.4.3.4-.1.7-.6.6-1.3 1.1-1.9 1.7-.3.3-.4.3-.7 0-.7-.8-1.5-1.5-2.4-2-1.7-1-3.7-1.5-5.6-1.3-2 .1-3.9.9-5.4 2.2-1.6 1.4-2.7 3.3-2.9 5.4-.4 2.3.1 4.7 1.5 6.7s3.6 3.4 6 3.7c3.2.6 6.4-.5 8.7-2.9.7-.7.6-.8 1.5 0 .5.5 1 1 1.5 1.4.3.2.3.4 0 .7-1.7 1.9-3.9 3.2-6.4 3.9-.3.1-.5.1-.8.2-1.1-.1-2.1-.1-3 0M498.419 176.843c-2.9 0-5.8-.9-8.1-2.6-1.8-1.4-3.1-3.2-3.9-5.3-.6-1.7-.9-3.6-.8-5.4.1-4 2.3-7.6 5.7-9.7 1.8-1.1 3.8-1.8 5.9-1.9 2.3-.2 4.5.2 6.6 1.1 1.7.8 3.3 1.9 4.5 3.4.3.4.3.4-.1.8-.6.6-1.2 1.1-1.9 1.7-.4.3-.4.3-.7-.1-.7-.8-1.5-1.5-2.4-2-1.7-1-3.6-1.5-5.6-1.3-2.4.1-4.6 1.1-6.2 2.9-1.2 1.3-1.9 2.9-2.2 4.6-.4 2.4.1 4.8 1.5 6.8s3.6 3.3 6 3.6c3.2.5 6.4-.5 8.6-2.9.7-.7.6-.8 1.4 0 .5.5 1 1 1.5 1.4.3.3.3.4 0 .7-1.8 2-4.3 3.5-6.9 4-.7 0-1.8 0-2.9.2M412.419 176.043c.2-.6.4-1.1.6-1.5l7-16.4c.7-1.7 1.5-3.5 2.2-5.2.1-.4.5-.6.9-.6h1.6c.4-.1.7.2.8.5l3.3 7.8c1.2 2.7 2.3 5.4 3.4 8.1 1 2.3 1.9 4.6 2.9 6.9.2.5.2.5-.4.5h-2.7c-.3 0-.6-.1-.7-.4l-2.1-5.1c-.3-.7-.3-.7-1-.7h-8.8c-.4-.1-.8.2-.9.5l-2.1 5.1c-.3.6-.3.6-.9.6h-2.4c-.2 0-.4 0-.7-.1m11.5-18.1h-.2c-1.2 2.8-2.3 5.5-3.5 8.4 2.4.1 4.7.1 7.1-.1l-3.4-8.3M308.419 176.043c.2-.5.3-.9.5-1.3 2.1-5 4.2-9.9 6.3-14.9 1-2.3 2-4.7 3-7 .1-.4.5-.7.9-.6h1.6c.3 0 .7.2.7.5l6.6 15.6c1 2.4 2 4.7 3 7.1.2.6.2.6-.4.6h-2.7c-.3 0-.6-.2-.7-.5-.7-1.7-1.4-3.4-2.1-5.2-.3-.6-.3-.6-.9-.6h-8.9c-.4-.1-.7.2-.8.5-.7 1.7-1.5 3.5-2.2 5.2-.1.3-.4.6-.8.5h-2.6c-.1.2-.3.1-.5.1m11.5-18.1h-.2l-3.5 8.3c2.4.2 4.7.2 7.1 0l-3.4-8.3M459.419 164.243v-11.5c0-.2.1-.4.3-.4h12.6c.5 0 .6.1.6.6v2.3c0 .6 0 .6-.6.6h-8.2c-1 0-.9-.1-.9.9v4.2c0 .7 0 .7.7.7h8.7c.2 0 .4.1.4.3v2.8c0 .3-.2.4-.4.4h-8.7c-.6 0-.6 0-.6.6v6.4c0 .6 0 .6.6.6h8.4c.7 0 .7 0 .7.7v2.3c0 .5 0 .5-.5.5h-12.3c-.5 0-.6-.1-.6-.6v-6.4l-.2-5M600.719 160.943v7.8c0 1.8-.6 3.6-1.7 5.1-1.1 1.4-2.6 2.4-4.3 2.7-1.7.4-3.5.3-5.1-.3-1.9-.7-3.4-2.2-4.1-4.1-.5-1.2-.7-2.6-.7-3.9v-15.3c0-.6 0-.6.6-.6h2.4c.6 0 .6 0 .6.7v15.2c0 .9.2 1.8.5 2.7.4 1 1.3 1.8 2.3 2.1 1.2.4 2.5.3 3.6-.2 1.1-.6 1.9-1.6 2.1-2.8.2-.8.2-1.6.2-2.4v-14.7c0-.5.1-.6.6-.6h2.5c.5 0 .6 0 .6.6 0 2.6 0 5.3-.1 8M292.819 164.243v-11.5c0-.2.1-.4.3-.4h12.7c.3 0 .4.1.4.4v2.7c0 .2-.1.4-.3.4h-8.7c-.9 0-.8 0-.8.8v4.3c0 .6 0 .6.6.6h8.5c.7 0 .7 0 .7.7v1.9c0 .9 0 .9-.8.9h-8.1c-.9 0-.8 0-.8.8v6.2c0 .7 0 .7.7.7h8.4c.7 0 .7 0 .7.7v2.3c0 .5 0 .5-.5.5h-12.3c-.6 0-.6 0-.6-.7-.1-3.8-.1-7.6-.1-11.3M571.619 176.743c-2.8-.1-5.2-1.7-6.5-4.2-.1-.1-.1-.2-.2-.3-.4-.7-.4-.7.3-1.1.7-.4 1.3-.8 2-1.2.4-.2.4-.2.7.2.5.8 1.1 1.6 1.8 2.2 1.4 1.2 3.6 1.2 5-.1 1-1 1.1-2.6.3-3.7-.5-.6-1.1-1.2-1.7-1.8-1.1-1-2.3-2-3.5-2.9-1-.8-1.9-1.7-2.6-2.7-1.9-2.6-1.4-6.2 1.2-8.1.7-.5 1.6-.9 2.5-1.1 2-.4 4 0 5.6 1.2.8.6 1.6 1.3 2.2 2.1.3.4.3.4-.1.7-.6.5-1.3 1-1.9 1.5-.4.3-.5.3-.8-.1-.4-.5-.9-.9-1.4-1.3-.9-.8-2.2-1-3.3-.6-1.1.4-1.7 1.6-1.3 2.7.1.2.1.3.2.5.3.5.6.9 1 1.2 1.3 1.1 2.6 2.2 3.9 3.2 1.2.9 2.2 2 3.1 3.2 2.1 2.9 1.4 7-1.5 9.1-.4.3-.8.5-1.3.7-1.3.6-2.5.8-3.7.7M352.619 166.043v-9.7c0-.3-.1-.4-.4-.4h-3.8c-.5 0-.6-.1-.6-.6v-2.4c0-.5.1-.5.6-.6h12.1c.5 0 .6.1.6.6v2.4c0 .5-.1.5-.5.5h-3.6c-.6 0-.6 0-.6.7v18.7c0 .9 0 .9-.9.9h-2.1c-.6 0-.6 0-.6-.6-.2-3.2-.2-6.4-.2-9.5M627.019 165.943v9.5c0 .7 0 .7-.7.7h-2.4c-.5 0-.5 0-.5-.5v-19.4c0-.4-.1-.5-.5-.5h-3.1c-1.4 0-1.2.1-1.2-1.3v-1.7c0-.6.1-.6.6-.6h12c.6 0 .6.1.6.6v2.4c0 .5-.1.6-.6.6h-3.4c-.8 0-.8 0-.8.8v9.4M335.619 164.243v-11.5c0-.2.1-.4.3-.4h3c.2 0 .4.1.4.3v19.5c0 .5 0 .5.5.5h6.7c.6 0 .7.1.7.6v2.3c0 .5-.1.5-.5.5h-10.2c-.8 0-.8 0-.8-.8-.1-3.6-.1-7.3-.1-11M606.119 164.243v-11.5c0-.2.1-.3.3-.4h3.1c.2 0 .3.1.3.3v19.3c0 .8-.1.8.8.8h6.4c.7 0 .7.1.7.7v2c0 .8 0 .8-.8.8h-10.2c-.5 0-.5-.1-.5-.5v-3.9l-.1-7.6M639.219 164.243v11c0 .8 0 .8-.8.8h-2.3c-.5 0-.5-.1-.5-.5v-22.3c0-.9 0-.9.9-.9h2c.7 0 .7 0 .7.7v11.2"/></g></svg>