<svg width="350.001" height="83.217" viewBox="0 0 144.562 34.371" fill="none" xmlns="http://www.w3.org/2000/svg"><title>Accurx</title><path d="m134.506 19.792-3.457 4.468a1.33 1.33 0 0 1-1.051.515h-3.587a.4.4 0 0 1-.316-.643l5.885-7.605-5.885-7.605a.4.4 0 0 1 .316-.643h3.587c.411 0 .799.19 1.051.516l3.457 4.467 3.457-4.467c.251-.325.64-.516 1.051-.516h3.587c.332 0 .518.381.315.643l-5.884 7.605 5.884 7.605a.399.399 0 0 1-.315.643h-3.587c-.411 0-.8-.19-1.051-.516l-3.457-4.467ZM117.886 17.124a4.87 4.87 0 0 1 4.869-4.854h.449a.532.532 0 0 0 .532-.532V8.81a.532.532 0 0 0-.532-.532h-.449a8.813 8.813 0 0 0-4.869 1.458v-.926a.532.532 0 0 0-.532-.532h-2.925a.532.532 0 0 0-.532.532v15.432c0 .294.238.532.532.532h2.925a.532.532 0 0 0 .532-.532v-7.119Z" fill="#0B8888"/><path fill-rule="evenodd" clip-rule="evenodd" d="M99.225 17.774c0 2.012 1.591 3.561 3.454 3.561 1.862 0 3.454-1.549 3.454-3.56V8.81c0-.294.238-.532.531-.532h2.922c.294 0 .532.238.532.532v8.963c0 4.107-3.286 7.517-7.439 7.517-4.154 0-7.439-3.41-7.439-7.517V8.811c0-.294.238-.532.531-.532h2.923c.293 0 .531.238.531.532v8.963Z" fill="#0B8888"/><path d="M90.223 12.764c-.207.208-.542.205-.771.021a4.78 4.78 0 0 0-6.365.355 4.785 4.785 0 0 0 0 6.764 4.78 4.78 0 0 0 6.365.355c.229-.183.564-.186.771.021l2.066 2.067a.508.508 0 0 1-.011.74 8.762 8.762 0 0 1-12.009-.364 8.773 8.773 0 0 1 0-12.402 8.762 8.762 0 0 1 12.009-.364c.219.194.218.532.01.74l-2.065 2.067ZM73.59 12.764c-.207.208-.542.205-.771.021a4.78 4.78 0 0 0-6.365.355 4.785 4.785 0 0 0 0 6.764 4.78 4.78 0 0 0 6.365.355c.229-.183.564-.186.771.021l2.066 2.067a.508.508 0 0 1-.011.74 8.762 8.762 0 0 1-12.008-.364 8.773 8.773 0 0 1 0-12.402 8.762 8.762 0 0 1 12.008-.364c.22.194.219.532.011.74l-2.066 2.067Z" fill="#0B8888"/><path fill-rule="evenodd" clip-rule="evenodd" d="M54.092 24.228c0 .294.237.532.53.532h2.923a.531.531 0 0 0 .532-.532V8.816a.531.531 0 0 0-.532-.532h-2.922a.531.531 0 0 0-.531.532v.699c-.998-1.074-3.018-1.762-4.783-1.762a8.768 8.768 0 0 0-8.767 8.77 8.768 8.768 0 0 0 8.767 8.768c1.765 0 3.871-.773 4.783-1.762v.7Zm0-7.706a4.783 4.783 0 1 0-9.566-.001 4.783 4.783 0 0 0 9.566.001ZM0 16.522A9.532 9.532 0 0 1 9.532 6.99h2.431a.82.82 0 0 1 .82.82v4.716a.82.82 0 0 1-.82.819H8.361a2.007 2.007 0 0 0-2.006 2.006v2.342c0 1.108.898 2.006 2.006 2.006h3.602a.82.82 0 0 1 .82.82v4.716a.82.82 0 0 1-.82.819H9.532A9.532 9.532 0 0 1 0 16.522Z" fill="#0B8888"/><path fill-rule="evenodd" clip-rule="evenodd" d="M31.846 16.522a9.532 9.532 0 0 1-9.531 9.532h-2.432a.82.82 0 0 1-.819-.82V20.52a.82.82 0 0 1 .82-.82h3.601a2.007 2.007 0 0 0 2.007-2.006V15.35a2.007 2.007 0 0 0-2.007-2.006h-3.602a.82.82 0 0 1-.819-.82V7.81a.82.82 0 0 1 .82-.819h2.43a9.532 9.532 0 0 1 9.532 9.532Z" fill="#63DBC0"/></svg>