<svg width="350.001" height="186.239" fill="none" viewBox="0 0 109.375 58.2" xmlns="http://www.w3.org/2000/svg"><title>Public Digital</title><path d="M0 31.38V6.464h4.55v1.987c1.044-1.313 2.999-2.222 5.02-2.222 5.09 0 8.122 3.4 8.122 9.46 0 6.129-3.336 9.462-8.222 9.462-2.022 0-3.977-.775-4.92-2.088v8.317Zm4.448-15.69c0 4.714 1.955 5.69 4.348 5.69 2.392 0 4.246-1.65 4.246-5.69 0-4.04-1.854-5.69-4.246-5.69-2.393 0-4.348.976-4.348 5.69zm26.859 9.225v-1.75c-.674.707-2.325 1.986-5.29 1.986-4.112 0-6.269-2.896-6.269-6.296V6.465h4.55v11.514c0 2.357 1.213 3.468 3.168 3.468 2.56 0 3.74-1.818 3.74-4.107V6.464h4.55v18.451zm7.448 0V0h4.55v8.451c1.044-1.313 2.998-2.222 5.02-2.222 5.09 0 8.122 3.4 8.122 9.461 0 6.128-3.336 9.461-8.223 9.461-2.022 0-3.976-.774-4.92-2.088v1.852h-4.55zm4.448-9.225c0 4.714 1.955 5.69 4.347 5.69 2.393 0 4.247-1.65 4.247-5.69 0-4.04-1.854-5.69-4.246-5.69-2.393 0-4.348.976-4.348 5.69zm15.401 9.225V0h4.55v24.915Zm7.549-20.572V0h4.55v4.343zm0 20.572V6.465h4.55v18.45zm6.707-9.09c0-6.431 3.74-9.596 8.795-9.596 4.55 0 7.785 2.424 8.256 7.037h-4.65C85.025 11.246 83.744 10 81.722 10c-2.392 0-4.178 1.65-4.178 5.69 0 4.04 1.718 5.69 4.077 5.69 1.955 0 3.404-1.111 3.64-3.131h4.65c-.336 4.006-3.066 6.902-8.189 6.902-5.156 0-8.863-3.199-8.863-9.326zM31.278 51.3v-1.852c-.944 1.313-3 2.088-5.022 2.088-4.886 0-8.121-3.334-8.121-9.461 0-5.858 3.167-9.461 8.256-9.461 2.022 0 3.842.909 4.887 2.222v-8.451h4.549V51.3h-4.55zm-8.493-9.225c0 4.04 1.854 5.69 4.246 5.69 2.393 0 4.348-.977 4.348-5.69 0-4.714-1.955-5.69-4.348-5.69-2.392 0-4.246 1.65-4.246 5.69zm16.042-11.347v-4.344h4.549v4.344h-4.55zm0 20.572V32.85h4.549V51.3h-4.55zM53.55 32.613c2.358 0 4.11.842 5.054 2.189l.034-1.953h4.516v18.148c0 3.468-2.022 7.003-8.56 7.003-6.976 0-8.425-3.603-8.493-6.229h4.651c0 .64.303 2.593 3.707 2.593 2.73 0 4.145-.976 4.145-3.603v-2.357c-.876 1.212-2.763 2.121-5.324 2.121-2.46 0-7.549-1.549-7.549-8.788 0-6.396 4.111-9.124 7.818-9.124zm.943 14.478c2.055 0 4.144-1.28 4.144-5.353 0-4.075-2.09-5.354-4.145-5.354-2.055 0-4.178 1.28-4.178 5.354s2.123 5.353 4.178 5.353zm11.66-16.363v-4.344h4.55v4.344zm0 20.572V32.85h4.55V51.3Zm13.717.168c-3.573 0-4.888-1.279-4.888-4.31V36.655h-2.797V32.85h2.797v-5.117h4.55v5.117h4.145v3.805h-4.145v9.192c0 1.38.37 1.615 1.853 1.615.876 0 1.888-.067 1.888-.067v3.838s-1.483.236-3.404.236zm16.781-12.121v-.64c0-1.447-.606-2.39-3.336-2.39-3.437 0-3.505 1.92-3.505 2.526h-4.38c0-2.728 1.145-6.23 8.02-6.23 6.537 0 7.751 3.267 7.751 5.926v10.168c0 1.414.236 2.593.236 2.593h-4.65v-1.852c-1.282 1.313-3.135 2.088-5.73 2.088-3.64 0-6.403-2.088-6.403-5.791 0-4.209 4.01-5.185 5.628-5.421l6.37-.977zm0 3.468s-3.201.471-4.65.741c-.742.135-1.45.303-1.955.707-.438.337-.708.842-.708 1.515 0 .505.203 2.223 2.73 2.223 1.483 0 2.797-.54 3.505-1.247.876-.908 1.078-2.087 1.078-2.962zM104.2 51.3V26.385h4.55V51.3Z" fill="#000"/></svg>