<svg xmlns="http://www.w3.org/2000/svg" viewBox="0 0 299.67 86.67"><title>SH:24</title><defs><style>.cls-1{fill:#3d454f}</style></defs><path class="cls-1" d="M9.6 55.53q9.32 10.78 18.94 10.78a10.69 10.69 0 0 0 7-2.25 7.05 7.05 0 0 0 2.77-5.7 5.61 5.61 0 0 0-2.51-4.61 52.4 52.4 0 0 0-8.58-3.45q-6.53-2.2-9.22-3.45a37.86 37.86 0 0 1-7.42-5.34q-4.77-4.08-4.77-13.6a22.38 22.38 0 0 1 7.85-17.58q7.84-6.9 19.88-6.91a34.37 34.37 0 0 1 12 2 35.06 35.06 0 0 1 10.52 6.38l-7.64 13.91q-7.85-6.9-14.55-6.9a8.74 8.74 0 0 0-5.7 1.83 5.74 5.74 0 0 0-2.25 4.65 5.11 5.11 0 0 0 1.57 4.08 11.89 11.89 0 0 0 3.19 2c1.08.46 3.91 1.43 8.48 2.93a38.11 38.11 0 0 1 11.25 5.6q7 5.87 7 16.11 0 11.52-7.85 18.73T29.17 82A34.58 34.58 0 0 1 2.8 70.7ZM65 4.89h19.2v26.47h24.07V4.89h19.25v75.44h-19.25V48.52H84.2v31.81H65Z"/><path d="M151.69 15.88a10 10 0 0 1 7.32 3 10.08 10.08 0 0 1 3 7.43 10.29 10.29 0 0 1-3 7.38 9.88 9.88 0 0 1-7.38 3.08 10.26 10.26 0 0 1-7.43-2.93 9.75 9.75 0 0 1-3-7.32 10.49 10.49 0 0 1 3-7.54 9.93 9.93 0 0 1 7.49-3.1Zm0 35.26a10 10 0 0 1 7.32 3 10.08 10.08 0 0 1 3 7.43 10.29 10.29 0 0 1-3 7.38 9.88 9.88 0 0 1-7.38 3.08 10.51 10.51 0 0 1-7.43-17.89 10.11 10.11 0 0 1 7.49-3Z" style="fill:#3fbbcd"/><path class="cls-1" d="M216.62 51.66c9.26-8.48 12.54-15 12.54-24.89 0-11.38-8.13-23.64-26-23.64-4.81 0-16.73 1.14-23.49 11.66-4.06 6.2-4.32 12.34-4.52 17.28v.48h18.91v-.27c.1-5.43 1.05-11.67 7.49-11.67 5 0 7.78 2.91 7.78 8.2 0 7.89-5 12.42-13.06 19.18C190 53.28 183 59.29 176 65.12l-.1.09V80.6h53.8V63.84h-26.4ZM286.49 51.7V4.56h-18.37l-33.85 48.27-.05.07v14.44h33.26V80.6h19V67.34h8.37V51.7Zm-32.12 0 14.34-22.47V51.7Z"/></svg>