<svg xmlns:osb="http://www.openswatchbook.org/uri/2009/osb" xmlns="http://www.w3.org/2000/svg" xmlns:xlink="http://www.w3.org/1999/xlink" id="Layer_1" viewBox="0 0 500 500" enable-background="new 0 0 841.9 659.7"><defs id="defs3"><linearGradient id="linearGradient4176" osb:paint="solid"><stop offset="0" id="stop4178" stop-color="#fff"/></linearGradient><style id="bx-google-fonts">@import url(https://fonts.googleapis.com/css?family=Open+Sans:300,300italic,400,400italic,600,600italic,700,700italic,800,800italic);</style><filter id="filter4156" color-interpolation-filters="sRGB"><feColorMatrix values="1 0 0 0 0 0 1 0 0 0 0 0 1 0 0 -0.21 -0.72 -0.07 1.76 0" result="color2" id="feColorMatrix4158"/></filter></defs><circle id="path4156" cx="250" cy="250" r="250" fill="none"/><circle id="path4282" cx="-345.808" cy="-73.975" transform="rotate(-122.928)" r="236.864" fill="none" stroke-width="1.272"/><circle r=".526" cy="250" cx="250" id="circle4292" fill="none" stroke-width=".003"/><text style="line-height:125%" id="text4324" transform="rotate(145.864 250.012 249.973)" font-size="40" font-family="sans-serif" letter-spacing="0" word-spacing="0"><textPath xlink:href="#circle4297" id="textPath4328"/></text><text style="line-height:125%" x="168" y="305.5" id="text4331" font-size="40" font-family="sans-serif" letter-spacing="0" word-spacing="0"/><text style="line-height:125%;-inkscape-font-specification:'Source Sans Pro, Bold';text-align:start" id="text3343" transform="rotate(-111.287 249.057 248.89)" font-weight="bold" font-size="35" font-family="Source Sans Pro" letter-spacing="0" word-spacing="0" fill="#e53321"><textPath xlink:href="#path4282" id="textPath3347" style="line-height:125%;-inkscape-font-specification:'Source Sans Pro, Bold';text-align:start">ukhealthcamp.com</textPath></text><ellipse transform="rotate(-57.072)" cy="345.735" cx="-73.94" id="circle3376" rx="186.979" ry="186.979" fill="none" stroke-width="1.004"/><text style="line-height:125%;-inkscape-font-specification:'Source Sans Pro, Bold';text-align:start" id="text3378" transform="rotate(-98.908 250.405 250.806)" font-weight="bold" font-size="60" font-family="Source Sans Pro" letter-spacing="0" word-spacing="0" fill="#e53321"><textPath xlink:href="#circle3376" id="textPath3382" style="line-height:125%;-inkscape-font-specification:'Source Sans Pro, Bold';text-align:start">UK Health Camp</textPath></text><ellipse transform="matrix(-.5436 -.83935 -.83935 .5436 0 0)" cy="-73.94" cx="-345.735" id="circle3385" rx="186.979" ry="186.979" fill="none" stroke-width="1.004"/><text style="line-height:125%;-inkscape-font-specification:'Alegreya Sans, Light';text-align:start" id="text3387" transform="rotate(-62.39 248.72 246.995)" font-weight="300" font-size="40" font-family="Alegreya Sans" letter-spacing="0" word-spacing="0" fill="#e53321"><textPath xlink:href="#path4282" id="textPath3401" style="line-height:125%;-inkscape-font-specification:'Alegreya Sans, Light';text-align:start">#ukhc17</textPath></text><text style="line-height:125%;-inkscape-font-specification:'Alegreya Sans, Light';text-align:start" id="text4253" transform="rotate(157.535 250.343 249.764)" font-weight="300" font-size="40" font-family="Alegreya Sans" letter-spacing="0" word-spacing="0" fill="#e53321"><textPath xlink:href="#path4282" id="textPath4257" style="line-height:125%;-inkscape-font-specification:'Alegreya Sans, Light';text-align:start">#ukhc17</textPath></text><text style="line-height:125%" x="-313.559" y="6.886" id="text4154" font-size="40" font-family="sans-serif" letter-spacing="0" word-spacing="0"/><path id="path4206" d="M220.44 225.843c17.95-7.557 18.658-35.897 10.628-50.54-10.628-19.838-37.55-16.532-55.736-11.336 4.96-14.407 14.17-34.245 30.938-37.08 16.532-2.833 32.828 7.322 46.998 14.17 12.753 5.906 35.426 13.463 44.636-2.833 2.834-6.85-5.432-12.517-12.99-17.24-7.32-4.724-15.114-9.21-23.144-12.045 176.183-37.316 180.907 332.29-5.432 279.625-13.46-3.78-26.45-9.21-38.968-15.587 17.477 1.417 36.134-.473 50.068-11.81 12.045-9.682 18.186-29.756-1.417-34.48-17.71-4.25-36.84 6.613-54.318 8.03-21.964 1.89-40.62 2.362-53.138-14.88 9.683-1.18 17.24-3.778 21.02-6.612 6.612-4.723 12.988-11.336 13.46-19.838 1.182-16.296-11.335-31.41-25.27-38.26-6.376-3.07-14.17-4.25-21.02-2.36-8.973 2.597-11.57 10.39-17.948 16.295-6.14 5.904-11.808 10.155-20.31 11.808-9.92 1.654-19.366-3.07-27.16-8.973-4.25-3.307-7.793-7.085-11.336-10.864 15.823 2.362 37.08 6.376 46.29-11.573 7.557-14.406-1.418-30.702 6.612-45.108 10.155-18.658 35.898-4.015 48.65 3.306 14.644 8.502 29.05 26.45 48.888 18.185zm82.424-27.16c-3.78 0-6.85 3.07-6.85 6.85v26.923h-26.922c-3.78 0-6.85 3.07-6.85 6.85v20.31c0 3.78 3.07 6.85 6.85 6.85h26.923v26.922c0 3.78 3.07 6.85 6.85 6.85h20.31c3.778 0 6.85-3.07 6.85-6.85v-27.396h26.922c3.78 0 6.85-3.07 6.85-6.85v-20.31c0-3.778-3.07-6.848-6.85-6.848h-27.16v-26.687c0-3.78-3.07-6.85-6.85-6.85h-20.073z" fill="#e53321"/></svg>