<svg width="200" height="200" viewBox="0 0 132.292 132.292" xmlns="http://www.w3.org/2000/svg"><path d="M13.425 121.878q0-1.355.791-2.18.792-.834 2.071-.834 1.42 0 2.212 1.106v-3.448h.9v8.305h-.857v-1.095q-.77 1.149-2.255 1.149-1.29 0-2.082-.824-.78-.835-.78-2.18zm.9 0q0 .986.585 1.594.586.617 1.518.617t1.529-.617q.607-.618.607-1.594 0-.976-.607-1.594-.597-.618-1.53-.618-.931 0-1.517.618-.585.607-.585 1.594zM22.452 118.918v5.909h-.89v-5.909zm-.879-2.038q.174-.173.423-.173.26 0 .434.173.184.173.184.434 0 .26-.184.433-.174.174-.434.174-.25 0-.433-.174-.174-.173-.174-.433t.184-.434zM24.412 118.918l2.092 4.944 2.114-4.944h.933l-2.602 5.909h-.922l-2.602-5.909zM30.18 119.699q.813-.835 2.092-.835 1.269 0 2.071.846.813.834.813 2.168 0 .152-.01.282h-4.89q.076.878.661 1.41.586.52 1.496.52 1.15 0 1.822-.738l.52.564q-.813.965-2.363.965-1.388 0-2.212-.802-.813-.813-.813-2.201 0-1.334.813-2.18zm4.12 1.8q-.076-.825-.64-1.345-.564-.52-1.388-.52-.823 0-1.376.52-.553.51-.64 1.344zM37.225 118.929v1.236q.282-.618.835-.954.563-.347 1.344-.347v.867h-.217q-.954 0-1.442.542t-.488 1.605v2.949h-.889v-5.898ZM40.036 123.623l.672-.422q.477.91 1.648.91.553 0 .878-.238.336-.25.336-.64 0-.369-.238-.553-.239-.195-.878-.347l-.597-.152q-1.583-.379-1.583-1.658 0-.748.575-1.204.585-.455 1.54-.455 1.344 0 1.95 1.084l-.704.412q-.412-.715-1.3-.715-.554 0-.879.227-.314.228-.314.618 0 .662 1.008.9l.596.152q.954.238 1.323.607.38.358.38 1.052 0 .77-.575 1.225-.575.455-1.55.455-1.66 0-2.288-1.258zM46.615 118.918v5.909h-.89v-5.909zm-.879-2.038q.174-.173.423-.173.26 0 .434.173.184.173.184.434 0 .26-.184.433-.174.174-.434.174-.25 0-.433-.174-.174-.173-.174-.433t.184-.434zM47.912 119.059h1.005v-1.334l.879-.084v1.418h1.958v.73h-1.958v3.46q0 .466.243.678.244.212.762.212.424 0 .953-.138v.699q-.519.18-1.09.18-.847 0-1.302-.403-.445-.412-.445-1.174v-3.514h-1.005zM51.916 126.095q.467.195.987.195.91 0 1.41-.986l.216-.445-2.613-5.94h.965l2.114 5.116 2.136-5.117h.91l-2.829 6.418q-.4.91-.921 1.312-.52.401-1.258.401-.618 0-1.117-.195zM58.816 119.688q.835-.824 2.168-.824 1.68 0 2.407 1.203l-.65.488q-.597-.889-1.768-.889-.932 0-1.517.607-.575.597-.575 1.605t.575 1.615q.574.596 1.485.596 1.182 0 1.778-.878l.672.467q-.748 1.203-2.45 1.203-1.301 0-2.136-.824-.824-.835-.824-2.18 0-1.354.835-2.19zM64.884 116.522h.889v3.448q.672-1.106 2.103-1.106 1.117 0 1.745.705.64.694.64 1.919v3.339h-.889v-3.166q0-.965-.434-1.474-.433-.51-1.246-.51-.9 0-1.41.553-.51.542-.51 1.518v3.079h-.888zM71.527 123.19q0-1.182 1.258-1.529.304-.076 2.266-.358.347-.054.466-.151.13-.098.13-.337 0-.542-.38-.845-.379-.315-1.051-.315-1.073 0-1.659.857l-.64-.477q.792-1.171 2.32-1.171 1.085 0 1.692.585.618.586.618 1.637v3.74h-.857v-.975q-.552 1.03-2.016 1.03-1.03 0-1.594-.455-.553-.456-.553-1.236zm1.236.715q.358.271 1.009.271.9 0 1.387-.498.488-.5.488-1.442v-.412q-.51.119-1.42.238-.943.098-1.247.239-.574.238-.574.845 0 .499.357.76zM79.585 118.929v1.236q.282-.618.834-.954.564-.347 1.345-.347v.867h-.217q-.954 0-1.442.542t-.488 1.605v2.949h-.889v-5.898ZM82.085 118.918h1.03v-1.366l.9-.087v1.453h2.006v.748h-2.006v3.545q0 .477.25.694.249.217.78.217.434 0 .976-.14v.715q-.531.184-1.117.184-.867 0-1.333-.412-.456-.423-.456-1.203v-3.6h-1.03zM87.211 119.699q.813-.835 2.092-.835 1.269 0 2.071.846.813.834.813 2.168 0 .152-.01.282h-4.89q.076.878.661 1.41.586.52 1.496.52 1.15 0 1.822-.738l.52.564q-.813.965-2.363.965-1.388 0-2.212-.802-.813-.813-.813-2.201 0-1.334.813-2.18zm4.12 1.8q-.076-.825-.64-1.345-.564-.52-1.388-.52t-1.377.52q-.552.51-.64 1.344zM94.63 118.929v1.236q.282-.618.835-.954.563-.347 1.344-.347v.867h-.217q-.954 0-1.442.542t-.488 1.605v2.949h-.889v-5.898ZM97.37 123.7q.196-.196.488-.196.282 0 .467.206.195.195.195.488 0 .282-.195.488-.195.195-.467.195-.292 0-.487-.195-.196-.206-.196-.488 0-.293.196-.499zM99.58 121.878q0-1.312.857-2.158.856-.856 2.168-.856 1.312 0 2.168.856.857.846.857 2.158 0 1.3-.857 2.146-.856.857-2.168.857-1.312 0-2.168-.846-.857-.856-.857-2.157zm.9 0q0 .965.607 1.583.596.628 1.518.628.921 0 1.518-.617.596-.63.596-1.594 0-.965-.596-1.583-.597-.629-1.518-.629-.932 0-1.529.629-.596.618-.596 1.583zM107.742 118.929v1.236q.281-.618.834-.954.564-.347 1.345-.347v.867h-.217q-.954 0-1.442.542t-.488 1.605v2.949h-.889v-5.898ZM111.393 119.688q.791-.824 2.07-.824 1.475 0 2.256 1.16v-1.106h.856v5.16q0 2.971-3.035 2.971-.803 0-1.497-.238-.683-.239-1.105-.662l.444-.683q.792.792 2.125.792 1.106 0 1.637-.51.531-.498.531-1.56v-.391q-.77 1.084-2.211 1.084-1.29 0-2.082-.824-.78-.835-.78-2.18 0-1.354.791-2.19zm.108 2.19q0 1.008.575 1.604.575.607 1.529.607t1.54-.607q.595-.607.595-1.604 0-.998-.585-1.605-.586-.607-1.55-.607-.954 0-1.529.607-.575.597-.575 1.605z"/><g><path d="M17.63 95.54q-1.102 0-2.126-.478-1.024-.478-1.66-1.37l.262-.303q.607.82 1.575 1.267.967.446 1.984.446.82 0 1.504-.295.686-.302 1.095-.892.41-.598.41-1.45 0-.829-.452-1.33-.445-.503-1.074-.75-.621-.255-1.737-.565-1.06-.287-1.71-.566-.649-.287-1.094-.837-.445-.557-.445-1.474 0-.876.466-1.522.466-.645 1.243-.98.777-.342 1.695-.342.876 0 1.702.327.834.318 1.448.948l-.24.334q-.558-.573-1.328-.868-.762-.303-1.56-.303-.806 0-1.505.287-.692.287-1.109.837-.416.55-.416 1.29 0 .765.395 1.235.403.47.989.717.593.24 1.603.518 1.172.327 1.857.614.686.287 1.173.868.494.582.494 1.554 0 .988-.473 1.689-.466.693-1.25 1.044-.784.35-1.716.35zM28.353 95.604q-1.418 0-2.43-.613-1.004-.614-1.522-1.73-.517-1.123-.517-2.62v-6.439h.438v6.43q0 1.37.462 2.39t1.37 1.586q.909.558 2.2.558 1.282 0 2.182-.558.9-.558 1.355-1.577.462-1.02.462-2.399v-6.43h.446v6.438q0 1.498-.518 2.622-.517 1.115-1.521 1.729-.996.613-2.407.613zM36.324 95.413V84.218h4.154q1.269 0 2.21.43.94.423 1.442 1.212.511.788.511 1.84 0 1.06-.511 1.857-.502.788-1.443 1.219-.94.422-2.209.422h-3.642v4.215zm4.127-4.653q1.123 0 1.953-.367.831-.374 1.278-1.06.448-.693.448-1.625t-.457-1.617q-.447-.693-1.278-1.068-.83-.374-1.953-.374h-3.606v6.11zM46.98 95.413V84.218h4.022q1.229 0 2.14.43.91.423 1.396 1.212.495.788.495 1.84 0 1.06-.495 1.857-.487.788-1.397 1.219-.91.422-2.139.422h-3.527v4.215zm3.996-4.653q1.087 0 1.891-.367.804-.374 1.237-1.06.434-.693.434-1.625t-.442-1.617q-.433-.693-1.238-1.068-.804-.374-1.891-.374h-3.492v6.11zM61.867 95.58q-1.57 0-2.884-.757-1.315-.765-2.08-2.08-.765-1.322-.765-2.915 0-1.602.765-2.925.765-1.322 2.08-2.087 1.315-.765 2.884-.765 1.578 0 2.884.765 1.315.765 2.08 2.087.765 1.323.765 2.925 0 1.593-.765 2.916-.765 1.314-2.08 2.08-1.306.756-2.884.756zm0-.438q1.442 0 2.653-.701t1.913-1.92q.709-1.22.709-2.693 0-1.482-.71-2.701-.7-1.227-1.912-1.929-1.21-.709-2.653-.709-1.442 0-2.653.71-1.211.7-1.92 1.928-.701 1.219-.701 2.7 0 1.475.7 2.694.71 1.219 1.92 1.92 1.212.7 2.654.7zM78.391 87.7q0 1.235-.642 2.088-.634.852-1.774 1.195l2.168 4.43h-.54l-2.09-4.319q-.497.096-1.071.096h-3.873v4.223h-.48V84.218h4.404q1.182 0 2.065.43.882.423 1.353 1.212.48.78.48 1.84zm-7.822 3.06h3.89q1.045 0 1.825-.367.78-.374 1.199-1.06.42-.693.42-1.625t-.42-1.625q-.42-.693-1.2-1.06-.779-.374-1.833-.374h-3.88zM83.99 95.413h-.446V84.657h-3.952v-.439h8.366v.439H83.99zM90.38 95.413h-.446V84.218h.446zM94.546 95.413h-.447V84.218h.367l8.286 10.406V84.218h.446v11.195h-.39l-8.262-10.39zM114.688 90.449h.438v3.864q-.781.606-1.761.948-.98.335-1.944.335-1.57 0-2.884-.765-1.315-.773-2.08-2.103-.765-1.33-.765-2.924 0-1.594.765-2.916.765-1.331 2.08-2.096 1.314-.773 2.884-.773 1.044 0 2.016.383.98.374 1.72 1.043l-.286.327q-.71-.613-1.602-.964-.884-.35-1.848-.35-1.442 0-2.653.716-1.211.71-1.92 1.937-.71 1.219-.71 2.693t.71 2.7q.709 1.228 1.92 1.945 1.21.709 2.653.709.813 0 1.72-.287.917-.287 1.547-.757z"/></g><g><path d="M15.004 111.303v-11.194h3.871q1.672 0 3.07.749 1.407.748 2.225 2.04.819 1.282.819 2.828 0 1.53-.819 2.812-.81 1.275-2.208 2.024-1.39.741-3.053.741zm3.897-.43q1.535 0 2.822-.685 1.288-.694 2.038-1.873.75-1.179.75-2.59 0-1.426-.758-2.613-.75-1.187-2.055-1.872-1.296-.693-2.848-.693h-3.368v10.326zM28.08 111.303h-.446v-11.194h.447zM35.303 111.303h-.47l-4.597-11.194h.478l4.358 10.644.01-.016 4.341-10.629h.478zM49.273 111.303h-7.21v-11.194h7.106v.43h-6.69v4.733h5.542v.422h-5.542v5.179h6.794zM60.182 103.59q0 1.235-.626 2.088-.618.852-1.73 1.195l2.114 4.43h-.526l-2.039-4.318q-.484.095-1.044.095h-3.776v4.223h-.468v-11.194h4.294q1.153 0 2.014.43.86.422 1.32 1.21.467.782.467 1.841zm-7.627 3.06h3.793q1.02 0 1.78-.367.76-.374 1.169-1.06.41-.692.41-1.625 0-.932-.41-1.625t-1.17-1.06q-.76-.374-1.787-.374h-3.785zM66.209 111.43q-1.098 0-2.118-.478-1.02-.478-1.653-1.37l.26-.303q.606.82 1.57 1.267.963.446 1.976.446.816 0 1.498-.295.682-.302 1.09-.892.408-.597.408-1.45 0-.829-.45-1.33-.443-.503-1.07-.75-.618-.255-1.73-.565-1.055-.287-1.702-.566-.647-.287-1.09-.837-.443-.557-.443-1.474 0-.876.464-1.521.464-.646 1.238-.98.774-.343 1.688-.343.872 0 1.695.327.83.318 1.442.948l-.239.334q-.556-.573-1.322-.868-.76-.303-1.555-.303-.802 0-1.498.287-.69.287-1.104.837-.415.55-.415 1.29 0 .765.394 1.235.4.47.984.717.591.24 1.597.518 1.168.327 1.85.614.682.287 1.168.868.492.582.492 1.554 0 .988-.471 1.69-.464.692-1.245 1.043-.781.35-1.71.35zM73.316 111.303h-.446v-11.194h.446zM79.647 111.303h-.446v-10.756h-3.952v-.438h8.366v.438h-3.968zM88.593 111.303h-.438v-5.012l-3.825-6.182h.526l3.522 5.736 3.505-5.736h.526l-3.816 6.182z"/></g><g><path d="M84.639 2.95c-3.066.012-6.38 1.004-9.724 3.468-5.696 4.197-6.34 11.957-6.34 11.957V40.85s1.203-6 6.735-10.423c7.28-5.82 14.067-3.53 20.367-.205 6.418-6.34 5.554-15.212 2.295-20.01-2.531-3.726-7.48-7.283-13.333-7.262z" fill="#7f3f98"/><path d="M95.678 30.22c-2.437.788-5.351 1.912-7.043 2.862-5.873 3.254-12.206 3.94-20.04 20.918l.05 24.323c9.563-15.415 16.877-17.689 22.75-21.009 10.55-5.161 11.581-16.186 7.48-23.263-.816-1.409-1.905-2.708-3.197-3.83z" fill="#ed1c24"/><path d="M84.817 26.134c-3.347.025-6.856 1.137-10.117 3.748-5.525 4.422-6.1 10.952-6.1 10.952v13.151c9.565-15.108 16.909-17.337 22.781-20.59 1.693-.951 3.103-1.994 4.277-3.156-2.867-2.49-6.728-4.135-10.841-4.105z" fill="#853136" stroke="#853136" stroke-width=".053"/><path d="M53.574 9.064c-5.382.039-10.042 3.132-12.288 6.648-1.192 1.868-2.19 4.425-2.507 7.1 5.568-4.148 13.997-5.774 21.903-.176 7.338 5.194 7.934 13.873 7.94 14.043V23.516s-.25-7.522-6.24-11.621c-2.972-2.035-5.989-2.852-8.808-2.831z" fill="#00aeef" stroke="#00aeef" stroke-width=".053"/><path d="M50.344 18.823h-.333c-4.251.057-8.204 1.63-11.238 3.891-.591 5 1.212 10.768 8.64 14.894 1.64.92 3.504 1.84 5.517 3.034 4.484-1.528 6.54-2.534 10.863.599 3.733 2.705 4.822 5.3 4.822 5.3l.004-9.86c-.006-.17-.369-9.153-7.706-14.347-3.485-2.467-7.118-3.492-10.568-3.511z" fill="#00a65e" stroke="#00a65e" stroke-width=".053"/><path d="M59.424 37.971c-2.54-.006-4.87 1.138-6.494 2.671 3.166 4.805 8.139 8.69 15.687 16.495V46.543s-.247-4.092-3.98-6.797c-1.73-1.254-3.518-1.77-5.213-1.775z" fill="#006f45" stroke="#006f45" stroke-width=".053"/><path d="M52.93 40.642c-.969.422-1.517 1.083-1.896 1.712-2.107 3.493-3.316 10.208 3.327 13.98 6.6 3.095 10.41 7.222 14.256 11.668V57.137C63.174 47.742 57.64 43.436 52.93 40.642z" fill="#ec9122" stroke="#ec9122" stroke-width=".053"/><path d="M38.776 22.68c-1.803 1.342-3.282 2.927-4.304 4.584-4.18 6.771-5.465 19.535 7.717 26.848 13.097 5.999 21.237 14.776 26.455 24.211V67.97c-2.63-4.867-6.701-9.182-13.301-12.276-6.643-3.773-5.995-9.786-3.889-13.279.38-.63.88-1.243 1.476-1.805-2.013-1.194-3.876-2.113-5.515-3.033-7.43-4.127-9.232-9.896-8.64-14.897z" fill="#f5ee31"/></g></svg>