<svg width="200" height="200" viewBox="0 0 132.29 132.29" xmlns="http://www.w3.org/2000/svg"><title>Diversity Charter Logo</title><path d="M13.43 121.88q0-1.36.79-2.18.79-.84 2.07-.84 1.42 0 2.2 1.11v-3.45h.9v8.3h-.85v-1.09q-.77 1.15-2.25 1.15-1.3 0-2.08-.82-.78-.84-.78-2.18zm.9 0q0 .98.58 1.6.59.6 1.52.6t1.53-.6q.6-.63.6-1.6 0-.98-.6-1.6-.6-.61-1.53-.61t-1.52.61q-.58.61-.58 1.6zm8.12-2.96v5.9h-.89v-5.9zm-.88-2.04q.18-.17.43-.17.26 0 .43.17.18.17.18.43t-.18.44q-.17.17-.43.17-.25 0-.44-.17-.17-.18-.17-.44t.18-.43zm2.84 2.04 2.1 4.94 2.1-4.94h.94l-2.6 5.9h-.92l-2.6-5.9zm5.77.78q.81-.84 2.1-.84 1.26 0 2.06.85.82.83.82 2.17l-.01.28h-4.9q.08.88.67 1.41.58.52 1.5.52 1.14 0 1.82-.74l.52.57q-.82.96-2.37.96-1.39 0-2.21-.8-.81-.81-.81-2.2 0-1.34.81-2.18zm4.12 1.8q-.08-.83-.64-1.35-.56-.52-1.39-.52-.82 0-1.37.52-.56.51-.64 1.35zm2.93-2.57v1.23q.28-.61.83-.95.56-.35 1.34-.35v.87h-.21q-.96 0-1.44.54t-.5 1.6v2.96h-.88v-5.9Zm2.8 4.7.68-.43q.47.91 1.65.91.55 0 .87-.24.34-.25.34-.64 0-.37-.24-.55-.24-.2-.88-.35l-.6-.15q-1.58-.38-1.58-1.66 0-.74.58-1.2.58-.46 1.54-.46 1.34 0 1.95 1.09l-.7.41q-.42-.71-1.3-.71-.56 0-.88.22-.32.23-.32.62 0 .66 1.01.9l.6.15q.95.24 1.32.6.38.37.38 1.06 0 .77-.58 1.23-.57.45-1.55.45-1.66 0-2.28-1.26zm6.59-4.71v5.9h-.9v-5.9zm-.88-2.04q.17-.17.42-.17.26 0 .43.17.19.17.19.43t-.19.44q-.17.17-.43.17-.25 0-.43-.17-.18-.18-.18-.44t.19-.43zm2.17 2.18h1v-1.34l.89-.08v1.42h1.95v.73H49.8v3.46q0 .46.24.68.24.2.76.2.43 0 .95-.13v.7q-.51.18-1.09.18-.84 0-1.3-.4-.44-.42-.44-1.18v-3.51h-1zm4 7.03q.47.2 1 .2.9 0 1.4-.99l.22-.44-2.61-5.94h.96l2.11 5.11 2.14-5.11h.91l-2.83 6.42q-.4.9-.92 1.3t-1.26.4q-.62 0-1.11-.19zm6.9-6.4q.84-.83 2.17-.83 1.68 0 2.41 1.2l-.65.5q-.6-.9-1.77-.9-.93 0-1.51.61-.58.6-.58 1.6t.58 1.62q.57.6 1.48.6 1.18 0 1.78-.88l.67.47q-.75 1.2-2.45 1.2-1.3 0-2.14-.82-.82-.84-.82-2.18 0-1.36.84-2.2zm6.07-3.17h.9v3.45q.66-1.1 2.1-1.1 1.11 0 1.74.7.64.7.64 1.92v3.34h-.89v-3.17q0-.96-.43-1.47t-1.25-.51q-.9 0-1.4.55-.52.54-.52 1.52v3.08h-.89zm6.65 6.67q0-1.18 1.25-1.53.3-.07 2.27-.36.35-.05.47-.15.13-.1.13-.34 0-.54-.38-.84-.38-.32-1.05-.32-1.08 0-1.66.86l-.64-.48q.79-1.17 2.32-1.17 1.08 0 1.69.59.62.58.62 1.64v3.74h-.86v-.98q-.55 1.03-2.02 1.03-1.03 0-1.59-.45-.55-.46-.55-1.24zm1.23.71q.36.28 1.01.28.9 0 1.39-.5.49-.5.49-1.44v-.42q-.51.12-1.42.24-.95.1-1.25.24-.57.24-.57.85 0 .5.35.76zm6.82-4.97v1.23q.29-.61.84-.95.56-.35 1.34-.35v.87h-.21q-.96 0-1.45.54t-.48 1.6v2.96h-.9v-5.9Zm2.5-.01h1.03v-1.37l.9-.08v1.45h2.01v.75h-2v3.54q0 .48.25.7.24.21.78.21.43 0 .97-.14v.72q-.53.18-1.12.18-.86 0-1.33-.41-.45-.42-.45-1.2v-3.6h-1.04zm5.13.78q.81-.84 2.1-.84 1.26 0 2.06.85.82.83.82 2.17l-.01.28h-4.9q.08.88.67 1.41.58.52 1.5.52 1.14 0 1.82-.74l.52.57q-.82.96-2.37.96-1.39 0-2.2-.8-.82-.81-.82-2.2 0-1.34.81-2.18zm4.12 1.8q-.07-.83-.64-1.35-.56-.52-1.39-.52t-1.37.52q-.56.51-.64 1.35zm3.3-2.57v1.23q.28-.61.83-.95.57-.35 1.35-.35v.87h-.22q-.95 0-1.44.54t-.49 1.6v2.96h-.89v-5.9Zm2.74 4.77q.2-.2.49-.2.28 0 .47.21.19.2.19.49 0 .28-.2.49-.19.2-.46.2-.3 0-.49-.2-.2-.21-.2-.5 0-.28.2-.5zm2.21-1.82q0-1.31.86-2.16.85-.86 2.17-.86 1.3 0 2.16.86.86.85.86 2.16 0 1.3-.86 2.14-.85.86-2.16.86-1.32 0-2.17-.84-.86-.86-.86-2.16zm.9 0q0 .96.6 1.58.6.63 1.53.63.92 0 1.51-.62.6-.63.6-1.6 0-.96-.6-1.58-.6-.62-1.51-.62-.94 0-1.53.62-.6.62-.6 1.59zm7.26-2.95v1.23q.28-.61.84-.95.56-.35 1.34-.35v.87h-.22q-.95 0-1.44.54t-.49 1.6v2.96h-.88v-5.9Zm3.65.76q.8-.83 2.07-.83 1.48 0 2.26 1.16v-1.1h.85v5.16q0 2.97-3.03 2.97-.8 0-1.5-.24-.68-.24-1.1-.66l.44-.68q.8.79 2.13.79 1.1 0 1.63-.51.53-.5.53-1.56v-.4q-.77 1.1-2.2 1.1-1.3 0-2.09-.83-.78-.84-.78-2.18 0-1.36.8-2.2zm.11 2.19q0 1 .58 1.6.57.6 1.53.6t1.54-.6q.59-.6.59-1.6t-.58-1.6q-.6-.61-1.55-.61-.96 0-1.53.6-.58.6-.58 1.6zM17.63 95.54q-1.1 0-2.13-.48-1.02-.48-1.66-1.37l.27-.3q.6.82 1.57 1.27.97.44 1.98.44.82 0 1.5-.3.7-.3 1.1-.88.41-.6.41-1.45 0-.83-.45-1.33-.44-.5-1.07-.75-.62-.26-1.74-.57-1.06-.29-1.7-.57-.66-.28-1.1-.83-.45-.56-.45-1.48 0-.87.47-1.52.46-.64 1.24-.98.78-.34 1.7-.34.87 0 1.7.33.83.31 1.45.94l-.24.34q-.56-.58-1.33-.87-.76-.3-1.56-.3t-1.5.28q-.7.3-1.12.84-.41.55-.41 1.3 0 .76.4 1.23t.98.71q.6.24 1.6.52 1.18.33 1.86.62.69.28 1.17.86.5.59.5 1.56 0 .99-.47 1.69-.47.69-1.25 1.04-.79.35-1.72.35zm10.72.06q-1.41 0-2.43-.6-1-.62-1.52-1.74t-.52-2.62V84.2h.44v6.43q0 1.37.46 2.4t1.37 1.58q.91.56 2.2.56t2.19-.56q.9-.56 1.35-1.58.46-1.02.46-2.4V84.2h.45v6.44q0 1.5-.52 2.62T30.76 95q-1 .61-2.4.61zm7.97-.19v-11.2h4.16q1.27 0 2.2.44.95.42 1.45 1.21.51.79.51 1.84 0 1.06-.51 1.86-.5.79-1.44 1.22-.94.42-2.21.42h-3.64v4.21zm4.13-4.65q1.12 0 1.95-.37.84-.37 1.28-1.06.45-.69.45-1.62t-.46-1.62q-.44-.7-1.27-1.07-.83-.37-1.96-.37h-3.6v6.1zm6.53 4.65v-11.2H51q1.23 0 2.14.44.91.42 1.4 1.21.5.79.5 1.84 0 1.06-.5 1.86-.49.79-1.4 1.22-.9.42-2.14.42h-3.53v4.21zm4-4.65q1.08 0 1.89-.37.8-.37 1.23-1.06.44-.69.44-1.62t-.44-1.62q-.44-.7-1.24-1.07-.8-.37-1.9-.37h-3.49v6.1zm10.89 4.82q-1.57 0-2.89-.76-1.31-.76-2.08-2.08-.76-1.32-.76-2.91 0-1.6.76-2.93.77-1.32 2.08-2.08 1.32-.77 2.89-.77t2.88.77q1.32.76 2.08 2.08.77 1.33.77 2.93t-.77 2.91q-.76 1.32-2.08 2.08-1.3.76-2.88.76zm0-.44q1.44 0 2.65-.7t1.91-1.92q.71-1.22.71-2.7 0-1.47-.7-2.7-.7-1.22-1.92-1.92-1.21-.71-2.65-.71-1.45 0-2.66.7-1.2.7-1.92 1.94-.7 1.22-.7 2.7 0 1.47.7 2.7.71 1.21 1.92 1.91 1.22.7 2.66.7zm16.52-7.44q0 1.24-.64 2.09-.63.85-1.77 1.2l2.16 4.42h-.54l-2.09-4.32q-.5.1-1.07.1h-3.87v4.22h-.48v-11.2h4.4q1.19 0 2.07.44.88.42 1.35 1.21.48.78.48 1.84zm-7.82 3.06h3.89q1.04 0 1.82-.37t1.2-1.06q.42-.69.42-1.62t-.42-1.63q-.42-.69-1.2-1.06-.78-.37-1.83-.37h-3.88zm13.42 4.65h-.45V84.66H79.6v-.44h8.37v.44h-3.97zm6.39 0h-.45v-11.2h.45zm4.17 0h-.45v-11.2h.37l8.28 10.41v-10.4h.45v11.2h-.4l-8.25-10.4zm20.14-4.96h.44v3.86q-.78.6-1.76.95-.98.34-1.95.34-1.57 0-2.88-.77-1.32-.77-2.08-2.1-.77-1.33-.77-2.93 0-1.59.77-2.91.76-1.33 2.08-2.1 1.31-.77 2.88-.77 1.05 0 2.02.38.98.38 1.72 1.04l-.29.33q-.7-.61-1.6-.96-.88-.35-1.85-.35-1.44 0-2.65.71t-1.92 1.94q-.71 1.22-.71 2.7t.7 2.7q.72 1.22 1.93 1.94 1.2.7 2.65.7.81 0 1.72-.28.92-.29 1.55-.76zM15 111.3v-11.2h3.87q1.68 0 3.07.76 1.41.75 2.23 2.04.82 1.28.82 2.83 0 1.53-.82 2.8-.81 1.28-2.2 2.03-1.4.74-3.06.74zm3.9-.43q1.54 0 2.82-.68 1.3-.7 2.04-1.88.75-1.17.75-2.59t-.76-2.6q-.75-1.2-2.05-1.88-1.3-.7-2.85-.7h-3.37v10.33zm9.18.43h-.45v-11.2h.45zm7.22 0h-.47l-4.6-11.2h.48l4.36 10.65.01-.01 4.34-10.63h.48zm13.97 0h-7.2v-11.2h7.1v.44h-6.7v4.73h5.55v.42h-5.54v5.18h6.8zm10.91-7.71q0 1.24-.62 2.09-.62.85-1.73 1.2l2.11 4.42h-.53L57.38 107q-.49.09-1.05.09h-3.77v4.22h-.47v-11.2h4.3q1.14 0 2 .44.87.42 1.33 1.2.46.8.46 1.85zm-7.62 3.06h3.79q1.02 0 1.78-.37t1.17-1.06q.4-.69.4-1.62 0-.93-.4-1.63t-1.17-1.06q-.76-.37-1.79-.37h-3.79zm13.65 4.78q-1.1 0-2.12-.48t-1.65-1.37l.26-.3q.6.82 1.57 1.27.96.44 1.97.44.82 0 1.5-.3t1.1-.88q.4-.6.4-1.45 0-.83-.45-1.33-.44-.5-1.07-.75-.62-.26-1.73-.57-1.05-.29-1.7-.57-.65-.28-1.1-.83-.43-.56-.43-1.48 0-.87.46-1.52.46-.64 1.24-.98.77-.34 1.69-.34.87 0 1.69.33.83.31 1.44.94l-.24.34q-.55-.58-1.32-.87-.76-.3-1.55-.3-.8 0-1.5.28-.7.3-1.1.84-.42.55-.42 1.3 0 .76.4 1.23t.98.71q.59.24 1.6.52 1.16.33 1.84.62.69.28 1.17.86.5.59.5 1.56 0 .99-.48 1.69-.46.69-1.24 1.04-.78.35-1.71.35zm7.1-.13h-.44v-11.2h.45zm6.34 0h-.45v-10.75h-3.95v-.44h8.37v.44h-3.97zm8.94 0h-.43v-5l-3.83-6.2h.53l3.52 5.75 3.5-5.74h.53l-3.82 6.18z"/><path d="M84.64 2.95c-3.07.01-6.38 1-9.73 3.47-5.7 4.2-6.34 11.96-6.34 11.96v22.47s1.2-6 6.74-10.42c7.28-5.82 14.07-3.53 20.37-.2a15.99 15.99 0 0 0 2.3-20.02c-2.54-3.72-7.49-7.28-13.34-7.26z" fill="#7f3f98"/><path d="M95.68 30.22a44.65 44.65 0 0 0-7.05 2.86C82.76 36.34 76.43 37.02 68.6 54l.05 24.32c9.57-15.41 16.88-17.69 22.75-21 10.55-5.17 11.59-16.2 7.48-23.27a15.2 15.2 0 0 0-3.2-3.83z" fill="#ed1c24"/><path d="M84.82 26.13a16.22 16.22 0 0 0-10.12 3.75c-5.53 4.42-6.1 10.95-6.1 10.95V54c9.56-15.11 16.9-17.34 22.78-20.6 1.7-.95 3.1-1.99 4.28-3.15a16.53 16.53 0 0 0-10.84-4.1z" fill="#853136" stroke="#853136" stroke-width=".05"/><path d="M53.57 9.06a15.1 15.1 0 0 0-12.28 6.65 17.45 17.45 0 0 0-2.51 7.1c5.57-4.15 14-5.77 21.9-.17 7.34 5.19 7.94 13.87 7.94 14.04V23.52s-.25-7.53-6.24-11.63a15.24 15.24 0 0 0-8.8-2.83z" fill="#00aeef" stroke="#00aeef" stroke-width=".05"/><path d="M50.34 18.82h-.33c-4.25.06-8.2 1.63-11.24 3.9-.59 5 1.22 10.76 8.64 14.89 1.64.92 3.5 1.84 5.52 3.03 4.48-1.53 6.54-2.53 10.86.6 3.74 2.7 4.83 5.3 4.83 5.3v-9.86c0-.17-.37-9.15-7.7-14.35a18.26 18.26 0 0 0-10.57-3.5z" fill="#00a65e" stroke="#00a65e" stroke-width=".05"/><path d="M59.42 37.97a9.6 9.6 0 0 0-6.49 2.67c3.17 4.8 8.14 8.7 15.69 16.5v-10.6s-.25-4.09-3.98-6.8a8.82 8.82 0 0 0-5.22-1.77z" fill="#006f45" stroke="#006f45" stroke-width=".05"/><path d="M52.93 40.64a4.04 4.04 0 0 0-1.9 1.71c-2.1 3.5-3.31 10.21 3.33 13.98 6.6 3.1 10.41 7.23 14.26 11.67V57.14c-5.45-9.4-10.98-13.7-15.69-16.5z" fill="#ec9122" stroke="#ec9122" stroke-width=".05"/><path d="M38.78 22.68a16.91 16.91 0 0 0-4.3 4.58c-4.19 6.77-5.47 19.54 7.7 26.85 13.1 6 21.25 14.78 26.46 24.21V67.97c-2.63-4.87-6.7-9.18-13.3-12.28-6.64-3.77-6-9.78-3.89-13.27.38-.63.88-1.25 1.48-1.81-2.01-1.2-3.88-2.11-5.51-3.03-7.44-4.13-9.24-9.9-8.65-14.9z" fill="#f5ee31"/></svg>