<svg xmlns="http://www.w3.org/2000/svg" width="159.999" height="37.707" viewBox="0 0 42.333 9.977"><title>Notbinary</title><path d="M29.081 6.77l-2.407-3.207-.03 1.822-.03 1.822h-.305l-.016-2.089-.016-2.088-1.078-1.437C24.179.235 24.127.152 24.238.071c.064-.047.136-.078.16-.07.025.01 1.105 1.429 2.4 3.154a305.778 305.778 0 0 0 2.442 3.227c.073.077.085-.15.085-1.565V3.163l-.229-.02c-.181-.014-.228-.043-.228-.14 0-.114.04-.122.64-.122.599 0 .64.008.64.122 0 .097-.048.126-.23.14l-.228.02V6.99l.965 1.296C31.85 9.89 31.82 9.844 31.701 9.92a.365.365 0 0 1-.152.058c-.034 0-1.144-1.444-2.468-3.207zm-13.973.464c-.688-.115-1.246-.548-1.555-1.208-.14-.298-.16-.42-.16-.952 0-.548.017-.642.171-.944a2.92 2.92 0 0 1 .42-.59c.584-.6 1.567-.776 2.346-.42.788.359 1.246 1.088 1.246 1.985 0 1.085-.697 1.936-1.742 2.127a3.504 3.504 0 0 1-.396.059l-.33-.057zm1.148-.469c1.035-.538 1.295-1.924.546-2.906-.09-.119-.325-.294-.531-.397-.733-.366-1.572-.21-2.1.39-.34.386-.462.77-.433 1.364.037.762.46 1.382 1.106 1.62.359.133 1.092.096 1.412-.07zm-6.947.4c-.017-.045-.024-1-.015-2.121l.016-2.041.153-.017c.135-.016.305.187 1.492 1.78.738.988 1.361 1.797 1.386 1.799.026 0 .046-.807.046-1.795V2.972h.306l-.016 2.118-.016 2.117-.135.02c-.113.015-.353-.273-1.507-1.816L9.647 3.576l-.016 1.816-.016 1.815-.137.02c-.076.01-.152-.018-.169-.062zm9.823.034c-.023-.023-.043-.902-.043-1.952V3.338H17.688V2.97l1.6.017 1.598.016v.304l-.715.018-.715.017-.016 1.932c-.015 1.893-.018 1.933-.14 1.95-.069.01-.144-.002-.168-.025zm2.333-2.092v-2.15l.838.031c.928.035 1.171.096 1.461.369.476.449.382 1.251-.182 1.543l-.189.097.21.088c.716.3.867 1.192.294 1.738-.31.294-.52.347-1.564.394l-.868.04zm1.978 1.643a.773.773 0 0 0-.013-1.409c-.233-.113-.388-.135-.954-.14l-.676-.005-.017.843-.017.843.748-.02c.51-.014.806-.05.93-.112zm-.399-1.893c.794-.17.935-1.132.21-1.435-.127-.053-.435-.084-.842-.084h-.642v.751c0 .414.018.77.04.793.065.064.897.047 1.234-.025zm1.998 2.342C25.018 7.176 25 6.213 25 5.06V2.964l.168.02.167.019v2.102c0 2.07-.002 2.102-.124 2.12-.069.01-.144-.002-.168-.026zm5.38-.14c0-.08.052-.137.147-.161.108-.027.18-.12.268-.351l.752-1.99c.593-1.575.64-1.677.791-1.695.149-.017.174.017.34.457l.753 1.992c.52 1.38.586 1.521.74 1.575.105.036.169.103.169.175 0 .104-.05.115-.518.115-.48 0-.518-.009-.518-.123 0-.088.052-.134.179-.16l.178-.035-.17-.465-.172-.466-.943-.016c-.71-.013-.958.003-1.002.06-.064.084-.324.758-.324.838 0 .026.084.064.187.085.136.027.182.067.167.145-.017.09-.1.11-.523.125-.469.016-.502.01-.502-.106zm2.802-1.486c0-.09-.792-2.143-.831-2.157-.045-.015-.82 2.008-.815 2.13 0 .043 1.646.07 1.646.027zm1.645 1.483c0-.082.054-.133.168-.158.092-.02.202-.047.244-.06.06-.019.074-.417.061-1.838l-.016-1.814-.228-.02c-.2-.016-.229-.038-.229-.174v-.156l1.142.027c1.034.025 1.17.04 1.433.167.41.197.555.427.582.916.019.339 0 .429-.122.61-.08.116-.232.27-.34.343l-.197.133.213.125c.329.195.457.456.457.934 0 .498.072.704.273.78.095.036.154.106.154.182 0 .176-.31.165-.525-.019-.15-.129-.17-.195-.206-.685-.072-.975-.251-1.122-1.365-1.122h-.707v1.645h.147c.228 0 .34.063.34.19 0 .105-.052.115-.64.115-.596 0-.639-.008-.639-.121zm2.13-2.2c.594-.127.887-.678.633-1.193-.189-.385-.423-.475-1.239-.476l-.701-.001-.017.789c-.01.434-.003.824.013.868.038.1.867.108 1.311.013zm2.744 2.205c0-.126.113-.19.34-.19.147 0 .148-.001.144-.654l-.003-.655-.684-1.188c-.612-1.062-.704-1.191-.865-1.22-.129-.022-.18-.065-.18-.152 0-.11.047-.123.512-.139.604-.02.677-.002.633.167-.023.091-.082.125-.213.125-.1 0-.172.023-.16.05.01.028.266.493.566 1.035.347.625.568.963.605.926.032-.032.299-.49.593-1.02l.535-.96-.195-.03c-.145-.023-.196-.063-.196-.153 0-.113.041-.122.58-.122.537 0 .578.009.578.122 0 .087-.047.127-.163.14-.09.01-.19.052-.223.092s-.35.578-.705 1.195l-.645 1.122v1.32h.167c.223.002.346.087.3.207-.03.08-.147.097-.679.097-.589 0-.641-.009-.641-.115z" fill="#58585a"/><path d="M5.469 3.6V.862l1.366 1.367L5.47 3.601z" fill="#f2665a"/><path d="M4.635 7.543v-1.37l.685.684.685.686-.685.685-.685.685z" fill="#0e1d42"/><path d="M3.739 5.32l2.765-2.76-.043 5.442L3.74 5.32z" fill="#fcdf29"/><path d="M.548 2.43v-.7H.274C.001 1.73 0 1.727 0 1.515v-.213h1.584v.213c0 .212-.001.213-.274.213h-.274V3.13H.548zm1.158-.213v-.914h.614c.597 0 .619.005.792.178.424.424.034.977-.69.979-.163 0-.168.01-.168.335v.335h-.548zm1.087-.328c.027-.145-.087-.219-.34-.22-.181 0-.199.016-.199.185 0 .182.007.186.259.168.196-.014.263-.046.28-.133zm.413 1.165c.024-.042.163-.231.308-.422.145-.19.263-.377.263-.415 0-.04-.118-.226-.263-.416-.394-.517-.39-.498-.074-.498.26 0 .291.017.47.27l.19.271.207-.27c.191-.25.228-.271.482-.271.316 0 .32-.017-.106.524L4.39 2.2l.337.45.338.451-.263.02c-.272.02-.355-.037-.599-.408l-.092-.141-.201.28c-.188.26-.22.28-.475.28-.202 0-.262-.02-.23-.077z"/></svg>