<svg xmlns="http://www.w3.org/2000/svg" width="1659.916" height="701.848" viewBox="0 0 439.186 185.697"><title>Newport City Council</title><path d="M65.979 185.079c-.629-.96-.232-1.42 2.605-3.02 18.696-10.55 34.403-26.042 42.13-41.55 3.019-6.06 4.331-10.745 3.814-13.614-.588-3.261-2.784-6.17-5.628-7.455-.756-.342-2.91-.873-4.809-1.185-21.317-3.51-40.84-11.866-57.582-24.646-8.936-6.822-18.215-16.29-25.031-25.543-4.682-6.355-8.156-12.151-11.865-19.795-5.05-10.407-7.94-19.7-9.257-29.765C-.455 12.306.202 1.89 1.496.448c.505-.563 1.476-.603 1.911-.079.176.212.73 2.087 1.232 4.168 9.377 38.877 30.841 67.227 63.36 83.686 15.25 7.719 33.037 12.75 51.438 14.552 5.154.505 6.786.888 9.525 2.236a18.79 18.79 0 0 1 8.554 8.602c1.181 2.423 1.653 4.255 1.809 7.022.776 13.821-11.708 31.116-33.949 47.03-12.01 8.592-26.489 15.766-35.603 17.638-2.782.572-3.293.542-3.794-.224zm122.008-12.205c-9.293-1.846-14.085-11.23-9.934-19.453 1.064-2.106 3.55-4.6 5.727-5.745 4.808-2.527 12.917-2.68 17.524-.33l1.08.552v3.06c0 1.682-.09 3.014-.198 2.96-2.937-1.459-3.936-1.857-5.57-2.22-4.267-.95-8.351-.045-10.786 2.39-1.741 1.741-2.352 3.426-2.169 5.985.232 3.241 2.11 5.625 5.402 6.856 3.41 1.276 7.01.889 11.191-1.204 1.284-.643 2.412-1.17 2.506-1.17.093 0 .136 1.395.095 3.098l-.074 3.097-2.186.885c-3.967 1.606-8.512 2.052-12.608 1.239zm52.517.125c-1.648-.323-3.642-1-5.113-1.737l-1.257-.63v-5.855l.86.532c3.608 2.23 7.386 3.27 9.953 2.74 2.378-.492 3.338-2.057 2.17-3.541-.564-.718-1.295-1.069-5.178-2.485-5.957-2.173-8.051-4.38-8.064-8.496-.003-1.046.12-2.237.274-2.646 1.253-3.342 4.754-5.204 9.775-5.198 2.816.003 4.842.366 7.474 1.34l1.786.66v2.777c0 2.543-.039 2.759-.463 2.575-2.404-1.038-5.308-1.997-6.744-2.227-3.108-.496-5.493.417-5.493 2.103 0 1.088 1.184 1.904 4.661 3.213 5.492 2.068 7.064 3.125 8.288 5.573 1.536 3.074.925 6.833-1.45 8.917-2.507 2.202-7.319 3.202-11.48 2.385zm79.113-.294c-.131-.335-2.704-6.264-5.717-13.176-3.013-6.913-5.538-12.776-5.611-13.031-.122-.425.16-.463 3.407-.463h3.54l3.013 7.078c1.657 3.892 3.093 7.169 3.19 7.28.097.113 1.702-3.072 3.565-7.077l3.388-7.281H334.019l3.283 7.276c1.806 4.001 3.353 7.208 3.437 7.125.085-.082 1.524-3.327 3.197-7.21l3.043-7.059 6.747-.06 6.747-.062 2.758 3.977c1.517 2.187 2.842 4.028 2.943 4.09.102.064 1.472-1.728 3.046-3.981l2.861-4.096h8.139l-.522.727c-.287.4-2.676 3.639-5.31 7.196l-4.787 6.468v12.596h-6.615v-12.485l-4.689-6.32c-2.578-3.475-4.773-6.232-4.875-6.126-.103.106-2.622 5.789-5.598 12.628l-5.41 12.436h-3.066l-4.11-8.698-4.11-8.697-.409.87c-.225.479-2.08 4.393-4.121 8.698l-3.712 7.827-1.515.08c-1.372.071-1.538.02-1.754-.53zm-116.175.027c0-.168 2.336-6.095 5.19-13.17 2.855-7.076 5.25-13.018 5.323-13.203.101-.257 1.078-.32 4.115-.265l3.983.073 5.895 13.23c3.241 7.275 5.9 13.321 5.908 13.434.008.114-1.615.173-3.606.133l-3.62-.074-1.102-2.646-1.102-2.646-5.955-.07-5.955-.072-1.046 2.717-1.045 2.717-3.491.074c-2.507.053-3.492-.012-3.492-.232zm18.786-10.043c0-.336-4.02-10.079-4.116-9.978-.092.098-3.822 9.989-3.822 10.137 0 .066 1.786.12 3.969.12 2.612 0 3.969-.095 3.969-.28zm34.66-3.16v-13.494h6.218l7.144 7.871 7.143 7.87.07-7.87.07-7.871H284.14V173.022h-2.844l-2.844-.001-7.276-8.184c-4.002-4.502-7.366-8.192-7.475-8.202-.109-.009-.198 3.674-.198 8.185v8.202h-6.615zm31.221 0v-13.494h19.58V151.062h-12.7v5.292h12.17V161.38h-12.171v6.614h12.965V173.022h-19.844zm93.133.035v-13.53h7.158c5.65 0 7.559.091 9.062.431 4.853 1.096 8.515 4.212 9.93 8.448 2.146 6.426-.355 13.119-6.013 16.092-2.995 1.574-4.3 1.774-12.662 1.94l-7.475.149zm14.278 7.748c3.68-1.092 5.566-3.786 5.566-7.946 0-3.575-1.314-5.893-4.123-7.276-1.64-.807-1.942-.863-5.29-.977l-3.552-.12v16.738h2.995c1.96 0 3.482-.145 4.404-.419zm15.356-7.748v-13.53l7.21.006c5.246.003 7.698.108 9.005.385 7.584 1.607 12.004 8.44 10.389 16.06-.814 3.839-2.951 6.672-6.4 8.485-3.068 1.612-4.333 1.808-12.73 1.976l-7.474.148v-13.53zm15.213 7.515c3.445-1.523 5.243-5.136 4.595-9.233-.458-2.896-1.727-4.67-4.15-5.804-1.595-.746-2.009-.82-5.255-.93l-3.524-.12v16.799l3.638-.122c2.694-.09 3.913-.244 4.696-.59zm-287.386-18.136c-.758-.305-1.226-1.213-1.03-1.995.086-.344.994-1.91 2.016-3.481 7.222-11.094 8.891-21.146 5.164-31.098-2.584-6.897-8.24-12.602-14.876-15.003-2.63-.952-4.922-1.384-11.334-2.136-10.457-1.226-15.53-2.138-19.579-3.52-7.919-2.703-13.094-8.465-15.078-16.786-.366-1.535-.393-2-.132-2.315.502-.605.971-.481 2.454.65.752.573 1.402 1.007 1.446.963.043-.043-.4-.866-.984-1.828-2.62-4.311-3.978-9.302-3.978-14.618 0-3.067.366-6.152.836-7.057.286-.55 1.096-.608 1.51-.11.161.195.461.82.667 1.39.205.569.514 1.392.686 1.829l.314.793.601-1.852c.892-2.744 1.807-4.647 3.475-7.22 1.64-2.529 6.043-7.084 7.107-7.35 1.397-.352 1.531.431.563 3.28-.355 1.043-.564 1.896-.463 1.895.1-.002.767-.18 1.481-.397 1.64-.497 4.32-.499 6.374-.002 4.22 1.019 8.666-.285 10.882-3.19.543-.712.874-.914 1.397-.853.629.073.693.195.766 1.466.176 3.055-.962 6.375-2.823 8.236-2.335 2.335-5.923 3.48-10.97 3.504-6.385.03-8.855.744-10.638 3.079-3.93 5.148 1.141 12.215 7.362 10.258.795-.25 1.668-.411 1.94-.36.807.153.76 1.798-.135 4.836-1.011 3.427-1.434 6.034-1.225 7.557.424 3.106 3.007 6.346 6.302 7.906 2.013.953 4.418 1.681 4.418 1.338 0-.14-.243-1.346-.54-2.68-.67-3.007-.625-5.587.098-5.725.267-.05 1.114.326 1.884.837 3.464 2.3 9.164 4.69 15.853 6.644 4.994 1.46 6.047 1.868 9.974 3.87 12.932 6.593 20.17 16.312 20.803 27.93l.16 2.944-.7.46c-.63.412-.76.418-1.308.06-.472-.31-.762-1.023-1.299-3.19-.38-1.536-.97-3.407-1.31-4.158l-.62-1.366-.006 5.518c-.008 7.201-.77 11.12-3.203 16.458-2.196 4.82-7.376 11.04-11.44 13.738-1.77 1.176-1.936 1.225-2.862.852zm41.06-16.636c-2.377-1.095-3.668-3.155-3.668-5.851 0-4.04 2.976-6.561 7.433-6.297 2.699.16 3.775.7 3.775 1.892v.873l-1.786-.608c-2.01-.685-2.674-.74-4.108-.342-1.493.414-2.767 1.668-3.21 3.158-1.299 4.375 3.29 7.492 7.813 5.307.62-.299 1.163-.544 1.208-.544.046 0 .083.458.083 1.018 0 .992-.036 1.03-1.354 1.456-1.839.594-4.828.564-6.187-.062zm12.831-2.828v-3.326l-2.249-2.857c-1.236-1.571-2.249-2.932-2.249-3.024 0-.091.457-.166 1.016-.166.956 0 1.111.123 2.656 2.116.903 1.165 1.681 2.117 1.73 2.117.049 0 .825-.952 1.726-2.117 1.555-2.01 1.69-2.116 2.679-2.116.573 0 1.041.063 1.041.141 0 .078-1.01 1.417-2.246 2.977l-2.246 2.835-.003 3.373-.003 3.374h-1.852zm7.673-3.023v-6.35h.728c.613.002 1.372.746 4.829 4.735l4.1 4.732.073-4.734.072-4.733h1.84v12.7h-.767c-.666 0-1.327-.642-4.961-4.817l-4.194-4.817-.072 4.817-.072 4.817h-1.576zm17.644 5.966c-1.508-.537-2.46-1.418-3.362-3.111-.625-1.174-.714-4.005-.167-5.311 1.368-3.265 5.405-4.749 9.403-3.457 1.308.422 1.353.47 1.353 1.425v.99l-1.521-.627c-2.602-1.07-4.96-.76-6.466.851-1.282 1.371-1.648 3.452-.916 5.205.488 1.167 2.075 2.503 3.233 2.72 1.103.207 3.534-.028 3.88-.375.13-.13.2-.758.153-1.396l-.083-1.16-1.124-.082c-1.05-.076-1.125-.133-1.125-.86v-.778h4.234v5.476l-1.354.437c-1.63.526-4.737.553-6.138.053zm12.897-.246c-2.325-1.083-3.56-3.13-3.547-5.883.016-3.616 2.786-6.18 6.683-6.185 2.087-.003 3.394.466 4.645 1.665 1.415 1.356 1.99 2.71 1.99 4.683 0 2.08-.643 3.49-2.2 4.824-1.946 1.665-5.114 2.04-7.571.896zm5.54-1.62c1.752-.832 2.805-3.223 2.28-5.174-1.144-4.248-6.942-4.923-8.943-1.04-2.171 4.212 2.233 8.32 6.663 6.214zm6.253-4.1v-6.35l1.918.002c1.055 0 2.38.13 2.943.286 2.572.714 3.395 3.909 1.475 5.721l-.766.724.625.668c.513.55 1.526 2.025 3.409 4.969.157.244-.065.33-.853.33-1.044 0-1.096-.046-2.625-2.32-1.83-2.722-2.068-2.947-3.325-3.151l-.95-.154v5.625h-1.851zm5.076-1.583c1.14-1.409.246-2.914-1.852-3.115l-1.372-.132v4.103l1.372-.132c.998-.095 1.503-.293 1.852-.724zm10.799 1.548v-6.384l3.505.123c2.87.1 3.698.222 4.564.671 2.258 1.171 3.402 3.07 3.41 5.664.006 1.497-.111 1.95-.782 3.035-1.537 2.486-3.518 3.276-8.22 3.276h-2.477zm6.811 4.244c2.058-.78 3.244-3.182 2.68-5.425-.559-2.218-2.222-3.283-5.44-3.484l-2.2-.137v9.675l2.116-.176c1.164-.097 2.444-.3 2.844-.453zm6.682-4.21v-6.35H273.822v12.7H271.969zm4.498 0v-6.35h.75c.642 0 1.327.674 4.828 4.745 2.244 2.61 4.169 4.753 4.278 4.763.11.01.199-2.125.199-4.745v-4.762H288.109v12.7h-.754c-.647 0-1.331-.664-4.829-4.687l-4.074-4.687-.073 4.687-.072 4.687h-1.84zm12.775 6.152c.058-.109 1.284-2.966 2.724-6.35 3.476-8.17 3.056-8.17 6.665 0 1.494 3.384 2.714 6.249 2.712 6.367-.003.119-.389.178-.858.133-.766-.075-.94-.265-1.714-1.87l-.862-1.785H292.686l-.818 1.852c-.796 1.8-.845 1.852-1.775 1.852-.526 0-.91-.09-.85-.199zm7.863-5.234c0-.32-1.711-4.092-1.856-4.092-.242 0-1.82 3.91-1.647 4.082.192.191 3.503.2 3.503.01zm6.151 4.971c-.779-.388-.86-.54-.86-1.617v-1.188l.596.542c1.638 1.491 3.657 1.526 4.434.075.463-.865-.315-1.895-2.485-3.292-2.981-1.92-3.554-3.768-1.781-5.752.615-.69.974-.843 2.205-.945.809-.067 1.9.02 2.426.194.882.29.956.395.956 1.353v1.039l-.989-.53c-1.184-.635-2.384-.68-3.186-.118-1.27.89-.45 2.207 2.412 3.881.678.397 1.47 1.111 1.761 1.588 1.01 1.656.494 4.033-1.048 4.83-1.003.519-3.341.487-4.44-.06zM176.19 108.729v-.794h262.996V109.522H176.19zm4.496-11.343c-3.951-1.304-5.773-5.458-3.961-9.034 1.56-3.08 5.37-4.351 9.189-3.067 1.313.442 1.389.516 1.389 1.372 0 .498-.09.905-.199.905-.109 0-.824-.238-1.59-.53-2.397-.91-4.502-.648-5.973.745-1.453 1.377-1.902 2.943-1.36 4.745.484 1.608 1.541 2.648 3.174 3.123 1.481.43 3.42.217 4.876-.535 1.055-.546 1.072-.538 1.072.535 0 .835-.11.986-.988 1.352-1.13.472-4.641.715-5.629.39zm43.921 0c-2.972-.98-4.594-3.141-4.592-6.12.002-4.858 4.683-7.709 9.82-5.98 1.313.441 1.389.515 1.389 1.371 0 .498-.09.905-.199.905-.109 0-.825-.238-1.59-.53-2.398-.91-4.502-.648-5.973.745-1.454 1.377-1.902 2.943-1.36 4.745.484 1.608 1.54 2.648 3.174 3.123 1.48.43 3.42.217 4.876-.535 1.055-.546 1.072-.538 1.072.535 0 .835-.11.986-.988 1.352-1.13.472-4.641.715-5.629.39zm12.32-.165c-1.403-.5-2.242-1.156-3.19-2.497-.699-.988-.804-1.38-.877-3.282-.079-2.05-.038-2.233.794-3.59 1.26-2.057 3.04-3.019 5.604-3.03 4.147-.019 6.763 2.462 6.776 6.427.007 2.067-.667 3.629-2.068 4.788-1.758 1.454-4.83 1.97-7.039 1.184zm4.779-1.85c2.248-.939 3.195-4.297 1.856-6.583-1.76-3.002-6.495-3.032-8.241-.053-1.191 2.032-.758 4.736.968 6.046 1.63 1.237 3.406 1.43 5.417.59zm9.265 1.874c-1.356-.505-2.493-1.631-2.814-2.789-.144-.517-.262-2.876-.263-5.24l-.002-4.3h1.852v9.049l.879.879c1.511 1.511 4.054 1.501 5.487-.022.626-.665.648-.828.729-5.296l.083-4.61H258.79l-.098 4.697c-.112 5.33-.286 5.928-2.078 7.114-1.301.861-4.046 1.113-5.644.518zm27.858-.021c-1.32-.426-2.908-1.802-3.58-3.103-.572-1.104-.775-3.609-.389-4.78.524-1.588 1.77-3.04 3.258-3.802 1.157-.59 1.727-.708 3.376-.697 1.092.008 2.461.188 3.043.4.952.347 1.067.487 1.143 1.388.074.88.026.978-.397.803-2.491-1.032-4.427-1.169-6.058-.428-3.466 1.575-3.621 6.375-.266 8.26 1.362.766 3.477.768 5.446.005.8-.31 1.485-.564 1.521-.564.037 0 .066.415.066.922 0 .815-.116.972-.992 1.346-1.408.6-4.675.732-6.171.25zm-89.41-6.09v-6.218h1.852v12.436h-1.852zm7.673.794v-5.424h-4.498v-1.588h12.88l1.652 2.133 1.653 2.132 1.631-2.122c1.595-2.075 1.657-2.123 2.788-2.133.889-.008 1.097.067.898.32-.143.183-1.17 1.504-2.282 2.937l-2.022 2.605v6.564h-1.852v-6.394l-2.315-2.955c-2.108-2.69-2.322-2.889-2.399-2.227l-.083.728h-4.463v10.848h-1.588zm64.03-.794v-6.218l.727.007c.611.006 1.385.769 4.829 4.756l4.1 4.748.073-4.756.072-4.755h1.576V97.35h-.78c-.683 0-1.292-.59-4.83-4.674l-4.048-4.675-.072 4.675-.072 4.674H261.122zm26.722 0v-6.218H289.697v12.436H287.844zm4.498 0v-6.218h1.852v10.848h5.557v1.588H292.342zm-157.898-6.75c-6.152-.857-14.172-3.943-19.492-7.498-1.448-.968-2.736-1.76-2.862-1.76-1.928 0-2.721 4.017-1.638 8.292l.19.75-1.129-.576c-1.541-.786-3.46-2.772-4.194-4.34-.908-1.938-.832-4.557.231-7.962 1.03-3.296 1.333-6.897.707-8.391-.606-1.448-1.254-1.486-3.701-.219-2.304 1.193-3.003 1.28-4.57.568-2.924-1.328-3.519-4.885-1.206-7.199 1.287-1.287 2.408-1.556 6.518-1.564 6.889-.013 10.236-.967 14.299-4.074.205-.156.593-.043 1.109.324.436.31 1.706.917 2.822 1.346 3.927 1.513 5.185 2.67 5.185 4.77 0 .95.687 1.342 2.352 1.342 3.351 0 9.558 1.728 14.25 3.966 2.382 1.135 2.713 1.375 2.713 1.96 0 .66-.18.903-1.166 1.584-.446.309-.361.345.751.322 1.522-.032 2.147.58 2.415 2.366.324 2.162-.056 3.485-1.42 4.943-1.86 1.988-2.826 2.38-6.37 2.577-2.71.152-3.059.229-3.501.775-.374.462-.427.726-.221 1.111.329.615.921.632 2.809.084 1.697-.494 2.54-.345 3.418.602.465.502.639.993.639 1.802 0 3.158-3.658 4.835-8.938 4.1zM121.596 61.17c.365-1.445.256-2.821-.233-2.92-.97-.197-5.315 2.595-4.815 3.095.08.08.94.114 1.914.076.973-.038 1.947.052 2.166.2.609.412.768.337.968-.451zm113.75-1.062c-3.191-7.383-5.85-13.517-5.908-13.63-.059-.113 1.53-.173 3.53-.132l3.639.073 3.053 7.207c1.678 3.964 3.142 7.118 3.251 7.009.11-.11 1.668-3.353 3.463-7.208l3.264-7.008h5.715l3.175 7.012c1.746 3.856 3.26 7.103 3.366 7.215.105.112 1.594-3.073 3.31-7.078l3.119-7.281h3.571c3.292 0 3.558.036 3.396.463-.097.255-2.753 6.386-5.901 13.626l-5.725 13.163h-2.975l-4.057-8.599c-2.232-4.73-4.139-8.599-4.238-8.599-.1 0-.482.685-.85 1.522-.367.836-2.188 4.706-4.047 8.599l-3.38 7.077-1.486-.004-1.486-.004zm73.93 13.037c-5.367-1.214-9.96-5.542-11.09-10.454-.399-1.73-.347-4.42.118-6.208.61-2.341 1.634-4.04 3.691-6.121 3.07-3.108 6.496-4.417 11.523-4.405 4.6.01 8.178 1.396 11.163 4.324 7.442 7.298 4.373 19.024-5.88 22.469-2.257.758-7.041.956-9.525.395zm7.937-5.937c2.52-1.279 4.036-3.307 4.45-5.948.902-5.75-3.4-10.198-9.27-9.585-2.928.306-5.2 1.668-6.37 3.82-2.592 4.76-.688 10.293 4.134 12.013 1.93.689 5.4.541 7.056-.3zm-139.17-7.427V46.287h6.323l7.09 7.802 7.092 7.803.07-7.803.07-7.802h6.606V73.274h-5.544l-7.348-8.222-7.348-8.222-.07 8.222-.07 8.222h-6.872zm31.22 0V46.287h19.58V51.314h-12.7v5.292h12.17v5.291h-12.171v6.35h12.965V73.274h-19.844zm67.204-.018V46.25l7.607.084 7.607.084 1.694.919c2.763 1.497 4.067 3.695 4.088 6.887.015 2.307-.55 3.83-2.027 5.465-1.838 2.034-4.169 2.737-9.083 2.737h-3.006v10.848h-6.88V59.763zm11.96-2.639c2.116-.587 2.797-3.127 1.292-4.813-.767-.859-.79-.865-3.572-.955l-2.8-.09V57.4l2.05-.002c1.128-.001 2.492-.124 3.03-.274zm42.81 2.642v-13.51l7.474.082c7.149.078 7.531.108 8.794.69 1.501.692 2.264 1.33 3.346 2.805l.758 1.031v-4.577h26.458V51.314h-9.789v21.96h-6.88v-21.96h-9.392v2.448c0 2.19-.076 2.576-.724 3.678-.624 1.062-2.289 2.597-3.22 2.969-.162.065.015.388.404.736.382.341.997 1.037 1.368 1.546.653.898 4.95 9.883 4.95 10.351 0 .384-7.036.29-7.328-.098-.137-.182-.946-1.879-1.797-3.77-2.658-5.906-3.684-7.012-6.503-7.012h-1.04v11.113h-6.88zm12.514-3.09c.581-.337.958-.838 1.201-1.6.316-.987.302-1.216-.132-2.104-.648-1.326-1.609-1.736-4.39-1.873l-2.315-.114v6.493l2.395-.155c1.623-.105 2.668-.314 3.241-.647z" fill="#0f513f"/><path d="M66.933 163.783c-7.872-1.003-14.543-3.936-19.13-8.412-2.981-2.909-3.948-4.82-2.944-5.824.573-.573 1.242-.522 2.702.209 3.355 1.68 6.92 2.39 11.963 2.384 3.865-.004 5.895-.23 10.676-1.185 2-.4 2.693-.45 2.977-.214 1.282 1.064-1.224 2.916-6.244 4.614l-2.514.85 1.836.203c3.284.364 11.014-.021 15.23-.76 4.481-.784 9.69-2.179 12.272-3.286 1.977-.849 2.634-.833 3.23.076.626.956.084 1.8-2.194 3.413-4.523 3.204-11.319 6.177-16.706 7.31-2.496.525-9.048.89-11.154.622zm.076-18.362c-19.813-1.923-36.422-10.897-44.188-23.875-1.385-2.314-2.61-5.895-2.359-6.895.225-.895 1.295-1.613 2.085-1.4.328.09 1.892 1.179 3.476 2.422 6.397 5.024 13.983 8.515 25.018 11.514 2.1.57 3.914 1.188 4.03 1.37.353.556.249.945-.368 1.377-.475.332-1.458.414-5.093.424l-4.506.011 1.055.556c1.641.865 7.696 3.244 10.198 4.006 5.438 1.658 11.657 2.913 18.78 3.791 3.01.371 5.852.474 13.227.48 5.166.004 10.076-.083 10.912-.193 1.327-.175 1.586-.133 2.05.33.655.655.686 1.64.068 2.17-.887.761-8.961 2.532-15.525 3.405-4.57.607-14.95.886-18.86.507zm20.429-15.077c-25.649-1.937-47.691-11.722-64.466-28.617C10.676 89.342 2.459 73.94.393 59.407c-.561-3.949-.525-5.556.14-6.27.583-.626 1.32-.735 2.112-.31.275.147.977 1.284 1.559 2.526 1.394 2.974 4.242 7.755 6.75 11.33 7.104 10.127 18.412 21.058 29.85 28.855 2.94 2.002 3.374 2.392 3.374 3.022 0 .887-.435 1.359-1.255 1.359-.967 0-5.47-1.758-8.534-3.33l-2.778-1.427 2.007 1.945c8.674 8.406 22.256 16.194 38.21 21.91 6.79 2.432 16.955 5.212 26.457 7.234 2.511.534 4.703 1.142 4.961 1.376.628.568.585 1.734-.087 2.341-.502.454-1.089.502-6.68.547-3.372.027-7.44-.05-9.041-.171zm-5.57-46.722C66.6 73.503 57.662 58.182 54.845 37.3c-.65-4.82-.641-16.843.016-21.652.832-6.086 2.286-11.86 3.304-13.116.583-.72 1.971-.806 2.615-.163.38.38.442 1.338.484 7.519.031 4.45.211 8.558.485 11.052 2.13 19.435 8.083 34.437 18.254 46.002l1.83 2.081.6 3.612c.632 3.8 1.68 7.088 3.015 9.453.927 1.642 1.02 2.612.288 3.004-.845.452-1.125.345-3.866-1.471zM59.464 74.27c-4.758-3.205-7.84-5.723-8.845-7.223-2.288-3.42-4.335-13.785-3.958-20.046.273-4.55.688-5.556 2.29-5.556 1.097 0 1.567.794 2.138 3.61 1.975 9.733 7.013 21.14 12.151 27.51 1.292 1.602 1.752 2.37 1.651 2.756-.15.576-1.04 1.313-1.583 1.313-.183 0-1.913-1.064-3.844-2.364z" fill="#fbba00"/></svg>