<svg xmlns="http://www.w3.org/2000/svg" width="735.736" height="243.395" viewBox="0 0 735.736 243.395"><title>NHS Wales Informatics Service</title><g fill="#35538d"><path d="M518.995 35.03c-2.09-1.366-4.35-2.048-8.19-2.048-6.87 0-11.433 4.992-11.433 11.648 0 6.995 5.033 11.646 11.22 11.646 2.943 0 3.711-.3 4.778-.512v-9.045h-6.273v-3.497h10.538v15.485c-1.621.554-4.436 1.322-9.088 1.322-9.428 0-15.698-6.058-15.698-15.527 0-9.174 6.654-15.275 15.742-15.275 4.35 0 6.272.64 8.745 1.494l-.341 4.309m32.426 24.487h-4.65l-5.633-18.26h-.085l-5.504 18.26H530.9l-6.997-21.757h4.394l4.992 18.004h.084l5.548-18.004h4.735l5.46 18.004h.086l5.29-18.004h3.926l-6.997 21.757m23.85-10.366c-.852 0-1.705-.086-2.56-.086-2.175 0-7.55.343-7.55 4.182 0 2.304 2.218 3.54 4.053 3.54 3.968 0 6.057-2.474 6.057-5.716zm-11.901-9.855c2.004-1.194 4.392-2.049 7.166-2.049 6.228 0 8.746 3.072 8.746 9.003v9c0 2.477.086 3.629.17 4.267H575.7v-2.816h-.087c-.937 1.324-3.072 3.328-6.74 3.328-4.693 0-7.978-2.048-7.978-6.782 0-5.462 5.973-7.167 10.112-7.167 1.578 0 2.688 0 4.265.084 0-3.753-1.364-5.673-5.375-5.673-2.26 0-4.693.853-6.314 2.217l-.212-3.412m21.075 15.955c1.579 1.025 3.84 1.537 4.992 1.537 1.835 0 4.096-.768 4.096-3.115 0-3.968-9.429-3.626-9.429-9.726 0-4.524 3.372-6.7 7.68-6.7 1.877 0 3.413.385 4.99.855l-.34 3.497c-.897-.555-3.286-1.108-4.225-1.108-2.046 0-3.838.853-3.838 2.644 0 4.438 9.429 3.159 9.429 10.112 0 4.65-3.712 6.782-7.595 6.782-2.048 0-4.138-.213-5.973-1.193l.213-3.585m31.145-6.1c-.852 0-1.705-.086-2.559-.086-2.176 0-7.551.343-7.551 4.182 0 2.304 2.22 3.54 4.054 3.54 3.967 0 6.056-2.474 6.056-5.716zm-11.901-9.855c2.005-1.194 4.393-2.049 7.166-2.049 6.23 0 8.746 3.072 8.746 9.003v9c0 2.477.086 3.629.17 4.267h-3.753v-2.816h-.087c-.937 1.324-3.07 3.328-6.74 3.328-4.693 0-7.978-2.048-7.978-6.782 0-5.462 5.973-7.167 10.112-7.167 1.578 0 2.688 0 4.265.084 0-3.753-1.364-5.673-5.375-5.673-2.26 0-4.691.853-6.314 2.217l-.212-3.412m22.697-1.536h3.882v3.456h.086c1.194-2.474 4.095-3.969 7.125-3.969 5.63 0 8.149 3.5 8.149 9.344v12.926h-4.01V48.255c0-5.076-1.11-7.552-4.609-7.764-4.565 0-6.613 3.668-6.613 8.958v10.068h-4.01V37.76m38.995 11.39c-.852 0-1.706-.085-2.56-.085-2.176 0-7.55.343-7.55 4.182 0 2.304 2.218 3.54 4.053 3.54 3.967 0 6.057-2.474 6.057-5.716zm-11.903-9.854c2.006-1.194 4.394-2.049 7.167-2.049 6.229 0 8.746 3.072 8.746 9.003v9c0 2.477.087 3.629.17 4.267h-3.752v-2.816h-.087c-.937 1.324-3.072 3.328-6.741 3.328-4.692 0-7.977-2.048-7.977-6.782 0-5.462 5.973-7.167 10.111-7.167 1.58 0 2.688 0 4.266.084 0-3.753-1.364-5.673-5.375-5.673-2.261 0-4.693.853-6.314 2.217l-.214-3.412m36.777 7.252c0-3.326-1.962-6.057-5.417-6.057-3.926 0-5.547 3.243-5.846 6.057zm2.604 12.075c-1.538.554-3.286 1.406-6.87 1.406-7.722 0-11.263-4.692-11.263-11.774 0-6.443 4.053-11.008 10.196-11.008 7.253 0 9.6 5.29 9.6 12.288h-15.53c0 4.309 3.37 7.253 7.167 7.253 2.646 0 5.717-1.365 6.7-2.176v4.01m18.602-17.619H705.7v11.902c0 2.518 1.537 3.883 3.372 3.883 1.237 0 2.132-.384 2.73-.768v3.412c-.896.257-2.133.597-3.413.597-4.139 0-6.699-1.961-6.699-6.313V41.003h-4.906V37.76h4.906v-5.034l4.01-1.28v6.314h5.76v3.243m5.034-13.482h4.01v13.353h.086c1.45-2.303 3.968-3.627 6.996-3.627 5.632 0 8.15 3.5 8.15 9.344v12.926h-4.01V48.255c0-5.076-1.11-7.552-4.608-7.764-4.565 0-6.613 3.668-6.613 8.958v10.068h-4.01V27.521m-197.5 54.174c-2.09-1.365-4.35-2.048-8.19-2.048-6.87 0-11.433 4.992-11.433 11.648 0 6.996 5.033 11.646 11.22 11.646 2.943 0 3.711-.3 4.778-.512v-9.045h-6.273v-3.497h10.538v15.485c-1.621.555-4.436 1.323-9.088 1.323-9.428 0-15.698-6.059-15.698-15.528 0-9.173 6.654-15.274 15.742-15.274 4.35 0 6.272.64 8.745 1.493l-.341 4.31m32.426 24.487h-4.65l-5.633-18.26h-.085l-5.504 18.26H530.9l-6.997-21.757h4.394l4.992 18.003h.084l5.548-18.003h4.735l5.46 18.003h.086l5.29-18.003h3.926l-6.997 21.757m9.302 5.888c.512.171 1.196.341 1.878.341 3.584 0 4.778-4.948 4.778-5.376 0-.468-.512-1.577-.768-2.303l-7.381-20.307h4.395l5.845 18.003h.085l5.973-18.003h4.054l-8.022 22.226c-1.493 4.181-3.072 9.002-8.36 9.002-1.28 0-2.006-.17-2.731-.297l.254-3.286m33.407-24.915c-4.351 0-6.442 4.139-6.442 8.192 0 3.626 1.877 8.105 6.4 8.105 4.308 0 6.101-4.822 6.014-8.234.087-3.924-1.621-8.063-5.972-8.063zm-10.453-12.97h4.011v13.226h.085c1.238-2.005 3.414-3.5 7.21-3.5 6.314 0 9.386 5.164 9.386 11.008 0 5.973-2.773 11.775-9.343 11.775-3.882 0-6.357-1.962-7.423-3.583h-.086v3.07h-3.84V74.187m35.71 29.267c4.695 0 6.784-4.267 6.784-8.147 0-4.139-2.517-8.15-6.784-8.15-4.308 0-6.825 4.011-6.825 8.15 0 3.88 2.09 8.147 6.825 8.147zm0-19.54c6.613 0 11.05 4.778 11.05 11.393 0 6.227-4.522 11.389-11.05 11.389-6.57 0-11.092-5.162-11.092-11.39 0-6.614 4.438-11.392 11.092-11.392m25.258 19.54c4.523 0 6.4-4.48 6.4-8.105 0-4.053-2.09-8.192-6.442-8.192-4.351 0-6.059 4.095-5.972 8.063-.087 3.412 1.705 8.234 6.014 8.234zm6.57-.34h-.085c-1.066 1.62-3.54 3.582-7.423 3.582-6.57 0-9.343-5.846-9.343-11.775 0-5.844 3.07-11.007 9.387-11.007 3.795 0 5.971 1.494 7.209 3.5h.085V74.185h4.01v31.997h-3.84v-3.07m24.747-9.9c0-3.326-1.963-6.057-5.419-6.057-3.925 0-5.546 3.243-5.844 6.058zm2.602 12.075c-1.536.555-3.285 1.407-6.869 1.407-7.72 0-11.264-4.692-11.264-11.775 0-6.442 4.054-11.007 10.198-11.007 7.251 0 9.598 5.29 9.598 12.287h-15.528c0 4.31 3.37 7.253 7.167 7.253 2.645 0 5.717-1.365 6.698-2.176v4.011m22.272-9.728c0-4.522-2.09-8.404-6.359-8.404-4.052 0-6.057 4.394-6.057 8.106 0 4.096 2.304 7.68 6.057 7.68 3.756 0 6.359-3.328 6.359-7.382zm4.01 9.685c0 6.613-3.414 10.41-11.22 10.41-2.305 0-4.31-.298-7.808-1.494l.428-3.71c3.07 1.407 4.905 1.961 7.849 1.961 4.222 0 6.74-2.859 6.74-7.465v-2.134h-.085c-1.707 2.26-4.522 3.37-7.295 3.37-6.23 0-9.301-5.076-9.301-10.708 0-5.588 3.157-11.562 9.727-11.562 3.84 0 5.974 1.409 7.167 3.755h.086v-3.242h3.712v20.82m-208.462 41.23h4.266v29.778h-4.266v-29.778m11.478 8.02h3.883v3.456h.084c1.196-2.475 4.097-3.968 7.125-3.968 5.632 0 8.149 3.499 8.149 9.344v12.926h-4.01v-11.262c0-5.077-1.11-7.553-4.609-7.765-4.564 0-6.613 3.668-6.613 8.958v10.069h-4.009v-21.758m28.671 3.243h-5.12v-3.243h5.12v-2.004c0-5.29 1.364-8.746 7.295-8.746 1.024 0 1.877.128 2.688.256l-.171 3.242c-.47-.17-1.237-.255-1.92-.255-3.455 0-3.883 2.218-3.883 5.16v2.347h5.76v3.243h-5.76v18.515h-4.009v-18.515m23.636 15.785c4.693 0 6.783-4.267 6.783-8.148 0-4.139-2.517-8.15-6.783-8.15-4.308 0-6.826 4.011-6.826 8.15 0 3.881 2.09 8.148 6.826 8.148zm0-19.54c6.613 0 11.05 4.779 11.05 11.392 0 6.23-4.523 11.39-11.05 11.39-6.57 0-11.092-5.16-11.092-11.39 0-6.613 4.437-11.392 11.092-11.392m16.426.512h3.756v3.371h.084c1.066-2.261 3.372-3.883 5.674-3.883 1.195 0 1.792.128 2.646.299v3.584c-.726-.299-1.536-.384-2.219-.384-3.584 0-5.93 3.412-5.93 8.873v9.898h-4.011v-21.758m16.554 0h3.756v3.157h.084c1.537-2.517 3.713-3.669 6.912-3.669 2.519 0 5.034 1.28 6.186 4.224 1.494-3.114 4.779-4.224 6.74-4.224 5.547 0 7.552 3.584 7.552 8.32v13.95h-4.01v-12.97c0-2.687-.64-6.057-3.883-6.057-4.095 0-5.716 4.01-5.716 8.062v10.965h-4.01v-12.97c0-2.687-.64-6.057-3.883-6.057-4.095 0-5.717 4.01-5.717 8.062v10.965h-4.01v-21.758m50.898 11.39c-.852 0-1.705-.085-2.56-.085-2.176 0-7.55.343-7.55 4.181 0 2.304 2.218 3.542 4.053 3.542 3.968 0 6.057-2.475 6.057-5.718zm-11.902-9.854c2.005-1.195 4.393-2.048 7.166-2.048 6.23 0 8.746 3.07 8.746 9.003v9.001c0 2.474.087 3.626.171 4.266h-3.753v-2.816h-.087c-.937 1.323-3.072 3.329-6.74 3.329-4.693 0-7.978-2.05-7.978-6.785 0-5.461 5.973-7.166 10.112-7.166 1.578 0 2.688 0 4.265.084 0-3.753-1.364-5.673-5.375-5.673-2.26 0-4.693.853-6.314 2.217l-.213-3.412m34.26 1.707h-5.761v11.902c0 2.519 1.537 3.883 3.372 3.883 1.237 0 2.132-.384 2.73-.768v3.412c-.896.257-2.133.599-3.413.599-4.138 0-6.698-1.964-6.698-6.316V157.74h-4.907v-3.243h4.907v-5.033l4.009-1.28v6.313h5.761v3.243m5.547-3.243h4.01v21.758h-4.01zm4.266-4.862h-4.521v-4.523h4.521v4.523m20.906 8.53c-1.536-.639-3.072-.937-4.352-.937-4.478 0-6.995 4.01-6.995 8.149 0 3.881 2.089 8.148 7.253 8.148 1.364 0 3.07-.427 4.308-1.238l.298 3.584c-1.662.768-3.584.897-5.034.897-6.57 0-11.092-5.162-11.092-11.391 0-6.613 4.437-11.392 11.092-11.392 1.621 0 3.712.384 4.864.853l-.342 3.327m3.499 13.824c1.577 1.024 3.84 1.536 4.992 1.536 1.834 0 4.094-.768 4.094-3.115 0-3.968-9.428-3.627-9.428-9.726 0-4.523 3.371-6.699 7.68-6.699 1.878 0 3.412.384 4.99.853l-.34 3.498c-.896-.555-3.286-1.108-4.223-1.108-2.048 0-3.84.853-3.84 2.645 0 4.437 9.428 3.157 9.428 10.11 0 4.651-3.712 6.785-7.593 6.785-2.048 0-4.139-.216-5.974-1.195l.214-3.584M509.909 197.62c-2.176-.851-3.371-1.237-5.59-1.237-2.389 0-5.205.853-5.205 3.968 0 5.717 12.8 4.394 12.8 14.206 0 6.357-4.907 8.875-10.879 8.875-2.091 0-4.14-.599-6.102-1.238l.428-3.968c1.45.6 4.01 1.451 6.185 1.451 2.432 0 5.845-1.365 5.845-4.863 0-6.655-12.798-4.82-12.798-14.079 0-5.29 4.18-8.106 9.556-8.106 1.962 0 4.309.342 6.357 1.067l-.597 3.924m21.503 12.33c0-3.327-1.963-6.058-5.418-6.058-3.926 0-5.547 3.243-5.846 6.058zm2.603 12.074c-1.536.554-3.286 1.408-6.87 1.408-7.72 0-11.263-4.694-11.263-11.775 0-6.442 4.053-11.007 10.197-11.007 7.252 0 9.598 5.289 9.598 12.287h-15.529c0 4.308 3.37 7.252 7.167 7.252 2.646 0 5.718-1.364 6.7-2.176v4.01m7.04-20.861h3.755v3.37h.084c1.067-2.26 3.371-3.882 5.675-3.882 1.193 0 1.792.128 2.644.298v3.584c-.725-.298-1.535-.384-2.217-.384-3.584 0-5.931 3.412-5.931 8.873v9.898h-4.01v-21.757m26.239 21.757h-4.777l-7.81-21.757h4.395l5.888 17.747h.085l6.016-17.747h4.01l-7.807 21.757m12.202-21.757h4.01v21.757h-4.01zm4.267-4.864h-4.521v-4.523h4.52v4.523m20.907 8.531c-1.535-.638-3.072-.937-4.352-.937-4.479 0-6.996 4.01-6.996 8.15 0 3.88 2.09 8.147 7.253 8.147 1.364 0 3.072-.427 4.308-1.237l.299 3.584c-1.663.768-3.584.896-5.035.896-6.569 0-11.091-5.161-11.091-11.39 0-6.614 4.437-11.392 11.091-11.392 1.622 0 3.714.384 4.864.853l-.341 3.326m19.2 5.12c0-3.326-1.963-6.057-5.42-6.057-3.924 0-5.546 3.243-5.844 6.058zm2.602 12.075c-1.537.554-3.285 1.408-6.87 1.408-7.722 0-11.263-4.694-11.263-11.775 0-6.442 4.053-11.007 10.197-11.007 7.252 0 9.599 5.289 9.599 12.287h-15.53c0 4.308 3.371 7.252 7.167 7.252 2.647 0 5.717-1.364 6.7-2.176v4.01m-158.041 6.403h-4V26.742h4v201.684M135.618 67.408C152.924 44.116 149.422 21.748 121.679 0c-29.743 23.314-31.06 47.277-12.133 70.262 2.799 3.27 12.133 12.141 12.133 12.141s10.374-.198 26.15 6.064c0 0-7.165-12.552-17.462-21.44-11.865-10.232-25.054-28.545-8.688-43.718 11.048 10.243 8.627 21.917 2.239 31.57 0 0 .728 2.336 8.625 9.67 1.142 1.059 2.038 2.057 3.075 2.859M118.89 84.45s-7.857 8.356-12.252 22.329c-3.923 12.465-4.322 24.555-4.322 24.555-6.625-1.566-16.38-9.743-16.38-9.743C87.02 106.312 92.8 93.15 92.8 93.15c4.517-11.8 14.179-20.625 14.179-20.625L118.89 84.45m-51.488 23.323C44.114 90.47 21.742 93.97 0 121.714c23.31 29.74 47.273 31.06 70.26 12.13 3.271-2.798 12.137-12.13 12.137-12.13s-.194-10.377 6.071-26.154c0 0-12.553 7.165-21.44 17.463-10.24 11.866-28.545 25.055-43.723 8.691 10.246-11.05 21.919-8.627 31.573-2.24 0 0 2.332-.73 9.669-8.627 1.056-1.14 2.059-2.04 2.856-3.074"/><path d="M84.445 124.5s8.356 7.856 22.329 12.252c12.465 3.923 24.555 4.322 24.555 4.322-1.566 6.622-9.74 16.382-9.74 16.382-15.282-1.086-28.44-6.866-28.44-6.866-11.805-4.518-20.626-14.18-20.626-14.18l11.922-11.91m23.323 51.49c-17.304 23.284-13.8 45.66 13.941 67.405 29.74-23.311 31.06-47.278 12.136-70.26-2.8-3.272-12.136-12.143-12.136-12.143s-10.371.199-26.153-6.065c0 0 7.166 12.547 17.467 21.438 11.864 10.238 25.052 28.546 8.686 43.724-11.05-10.245-8.626-21.92-2.235-31.577 0 0-.732-2.331-8.63-9.666-1.138-1.057-2.038-2.061-3.076-2.856"/><path d="M124.497 158.946s7.856-8.356 12.253-22.33c3.921-12.465 4.321-24.555 4.321-24.555 6.623 1.567 16.381 9.74 16.381 9.74-1.087 15.281-6.865 28.44-6.865 28.44-4.517 11.805-14.18 20.632-14.18 20.632l-11.91-11.927m51.485-23.323c23.292 17.301 45.663 13.801 67.408-13.941-23.314-29.742-47.276-31.062-70.262-12.131-3.27 2.799-12.14 12.13-12.14 12.13s.197 10.371-6.065 26.154c0 0 12.551-7.165 21.44-17.467 10.236-11.862 28.545-25.05 43.72-8.686-10.246 11.05-21.919 8.626-31.572 2.235 0 0-2.333.734-9.67 8.63-1.059 1.139-2.057 2.039-2.859 3.076"/><path d="M158.94 118.897s-8.354-7.858-22.326-12.256c-12.466-3.922-24.555-4.32-24.555-4.32 1.564-6.625 9.741-16.382 9.741-16.382 15.28 1.085 28.44 6.867 28.44 6.867 11.801 4.517 20.625 14.178 20.625 14.178l-11.925 11.913M26.836 95.657a43.102 43.102 0 0 1 13.075-2.03c1.827 0 3.614.105 5.384.325 8.202-22.571 26.167-40.497 48.748-48.68-.202-1.692-.252-3.418-.252-5.162 0-4.647.72-9.124 2.084-13.313-33.48 9.083-59.879 35.41-69.039 68.86m68.817 120.9a43.041 43.041 0 0 1-2.027-13.074c0-1.826.103-3.616.325-5.385-22.573-8.202-40.5-26.168-48.684-48.751-1.691.201-3.418.252-5.159.252-4.65 0-9.125-.719-13.317-2.084 9.09 33.48 35.412 59.88 68.862 69.041m120.9-68.817a43.108 43.108 0 0 1-13.077 2.025c-1.824 0-3.617-.101-5.38-.325-8.206 22.573-26.171 40.503-48.748 48.685.2 1.693.25 3.42.25 5.159 0 4.652-.72 9.128-2.082 13.318 33.478-9.084 59.875-35.41 69.037-68.862M147.735 26.842a42.955 42.955 0 0 1 2.03 13.074c0 1.824-.106 3.614-.326 5.383 22.571 8.201 40.498 26.163 48.683 48.744 1.688-.201 3.414-.248 5.16-.248 4.647 0 9.12.721 13.318 2.08-9.09-33.478-35.418-59.875-68.865-69.033m123.918 135.931V134.92h1.419l41.028 43.866.581.499c.171-3.005.252-6.088.252-9.088V143.51l-.333-6.677-.083-.663c1.168.164 2.42.247 3.587.247.664 0 1.416-.083 2.085-.247-.082.663-.082 1.333-.17 2.003l-.416 8.172-.752 19.76-.247 18.68.247 9.425h-1.25c-1.669-2.004-3.336-4.004-5.086-5.92l-13.592-15.095-23.267-24.766-.166 7.84c-.084 4.167 0 8.254 0 12.338v6.671l.248 9.843.42 8.007a16.675 16.675 0 0 0-5.754 0c.333-3.669.584-7.339.667-11.01l.582-19.346m70.782 1.418l.252 18.093.335 9.006.164 1.839c-1.25-.087-2.583-.417-3.833-.417-1.503 0-2.919.33-4.421.417.082-.587.082-1.255.169-1.839l.335-6.587.329-19.51v-20.35l-.416-8.842c1.42.088 2.835.334 4.256.334 1.25 0 2.582-.165 3.833-.246-.081.746-.081 1.497-.164 2.249l-.335 7.586-.417 14.513 10.757.254 23.85-.254v-17.68l-.417-6.756c1.416.088 2.836.334 4.252.334 1.333 0 2.588-.165 3.921-.246-.165.746-.165 1.497-.252 2.249l-.752 27.186.252 18.762.417 8.843c-1.25-.087-2.5-.417-3.752-.417-1.502 0-2.918.33-4.42.417.082-.587.082-1.255.169-1.839l.417-8.588.248-18.511h-34.777m56.028 17.928c3.254 5.338 7.006 8.504 13.512 8.504 6.752 0 11.59-5.42 11.59-12.009 0-5.584-3.751-8.418-8.425-10.502-3.918-1.839-8.174-3.172-11.757-5.59-3.756-2.502-5.924-6.923-5.924-11.426 0-10.756 8.508-16.011 18.515-16.011 4.004 0 8.842 1.252 11.925 4.003-.999 2.167-1.586 4.503-2.25 6.835h-.833c-1.755-4.498-5.42-7.504-10.34-7.504-5.76 0-10.51 4.088-10.51 10.01 0 3.167 1.168 5.755 3.586 7.756 1.334 1.168 1.668 1.252 3.255 2 .999.502 2.084 1 3.165 1.419 1.25.5 2.506.999 3.752 1.585 1.25.581 2.67 1.081 3.839 1.75 1.833 1 3.917 2 5.254 3.586 2.086 2.584 3.419 5.42 3.419 8.837 0 11.927-9.26 18.85-20.598 18.85-4.087 0-10.763-1.588-13.593-4.671.833-2.418 1.25-4.919 1.585-7.422h.833m-117.31 45.84a10.36 10.36 0 0 0-1.86-.182c-.617 0-1.276.073-1.895.182-2.08-8.024-4.56-15.948-7.005-23.902l-.258-1.057c.986.075 1.97.184 2.957.184.982 0 2.006-.11 2.992-.184 1.458 6.13 3.136 12.188 4.816 18.245 2.078-6.095 4.449-12.078 6.309-18.245.621.111 1.244.184 1.861.184.584 0 1.204-.073 1.788-.184 1.644 6.167 4.017 12.112 5.803 18.245 1.934-6.022 3.866-12.078 5.4-18.245.545.075 1.091.184 1.64.184.545 0 1.131-.073 1.64-.184v.295c-2.991 8.136-5.834 16.345-8.352 24.664-.584-.109-1.24-.182-1.86-.182-.62 0-1.279.073-1.899.182-1.604-6.02-3.684-11.898-5.8-17.735-2.044 5.801-4.196 11.533-6.166 17.37l-.111.365m36.96-.293l2.699-6.238c2.7-6.13 5.287-12.333 7.586-18.644.476.075.912.18 1.388.18.472 0 .912-.105 1.384-.18l.256.621a632.612 632.612 0 0 0 9.561 23.821l.183.404v.331c-1.025-.076-2.084-.184-3.101-.184-1.021 0-2.043.073-3.065.184-.768-2.523-1.535-5-2.519-7.445-1.352-.038-2.663-.111-4.013-.111-1.499 0-2.955.035-4.45.073l-.182.514c-.801 2.293-1.713 4.557-2.299 6.969a8.716 8.716 0 0 0-1.714-.184 8.96 8.96 0 0 0-1.714.184zm6.859-9.377h6.674a237.625 237.625 0 0 0-3.248-8.498c-1.168 2.698-2.3 5.397-3.317 8.169l-.11.33M356.345 203c.986.074 1.97.184 2.955.184.985 0 2.007-.11 2.992-.184-.073 2.19-.256 4.344-.288 6.535-.037 1.422-.037 2.844-.037 4.268v6.897c0 1.528.069 3.064.069 4.594l1.97-.073c2.153-.038 4.268-.216 6.386-.398a7.491 7.491 0 0 0-.147 1.566c0 .512.036 1.056.147 1.57l-6.163-.22c-1.681-.034-3.321.111-4.965.111-1.021 0-2.007.035-3.028.11.256-3.944.33-7.886.33-11.825 0-1.457.035-2.919.035-4.374 0-2.705-.145-5.366-.218-8.063l-.038-.698m29.878 0c1.934.039 3.867.222 5.804.222 2.736 0 5.507-.148 8.243-.183-.184.878-.184 1.79-.074 2.701.038.143.038.29.074.435-2.772-.213-5.544-.508-8.32-.435-.032 1.274-.07 2.516-.07 3.795 0 1.349-.034 2.697-.034 4.049l8.278-.295c-.074.59-.178 1.134-.178 1.719 0 .475.104.912.178 1.382-2.15-.145-4.304-.255-6.493-.29-.581 0-1.205-.039-1.785-.039 0 1.536-.039 3.101-.039 4.639 0 1.528.039 3.064.039 4.594 2.806 0 5.614-.183 8.424-.471-.184.874-.184 1.784-.074 2.695.038.148.038.295.074.441-2.186-.035-4.412-.22-6.603-.22-1.424 0-2.881.111-4.305.111-1.096 0-2.153.035-3.248.11.073-.696.073-1.388.11-2.08.073-2.264.146-4.526.182-6.825 0-1.826.037-3.683.037-5.544v-4.27c0-1.897-.146-3.866-.22-5.762V203m41.374 4.93c-.727-1.9-2.115-3.102-4.196-3.102-1.204 0-2.007.144-2.917.988-.728.653-1.096 1.528-1.096 2.512 0 3.868 8.608 4.707 10.473 8.977.435.947.619 2.226.619 3.245 0 1.097-.4 2.48-.876 3.428-.84 1.755-2.154 2.739-3.867 3.54-1.64.765-3.139.95-4.924.95-2.006 0-4.161-.476-5.874-1.53.436-1.536.838-3.033 1.058-4.6h.692c.546 2.485 2.516 3.903 5.035 3.903 2.26 0 4.269-1.203 4.269-3.684 0-1.24-.476-1.968-1.35-2.807-1.278-.912-2.662-1.645-4.087-2.3-1.02-.476-1.97-1.205-2.917-1.788-1.788-1.094-2.516-3.466-2.516-5.472 0-2.517.838-4.194 2.77-5.764 1.788-1.426 3.39-1.786 5.655-1.786 1.934 0 3.757.399 5.437 1.456.11.11.221.145.327.255-.436 1.17-.803 2.373-1.168 3.58h-.547m-134.509-90.008l-.804 3.101c-2.189 1.127-4.778 1.567-7.225 1.567-1.822 0-2.99-.183-4.777-.546-1.023-.22-3.1-1.204-4.013-1.79-.95-.655-1.934-1.677-2.626-2.589-1.605-2.153-2.3-4.522-2.3-7.225 0-4.16 1.022-7.549 4.196-10.362 2.81-2.443 6.676-3.353 10.327-3.353 2.405 0 5.324.618 7.44 1.749-.328 1.241-.546 2.482-.839 3.72h-.51c-1.35-1.934-3.686-3.207-6.054-3.207-6.058 0-8.54 5.653-8.54 10.945 0 2.589.548 5.287 2.154 7.403 1.532 2.006 4.049 3.101 6.566 3.101 2.261 0 4.89-1.168 6.53-2.697l.475.183m14.228-20.579c1.095 0 2.19-.073 3.248-.22.508 1.059 1.021 2.154 1.53 3.212.55 1.168 1.095 2.3 1.644 3.43.51 1.06 1.06 2.118 1.567 3.175.184.399.404.911.73 1.2 0 .11.549-.69.586-.729.215-.36.435-.764.617-1.13.766-1.422 1.462-2.882 2.154-4.303.477-.988.912-2.007 1.352-2.99.252-.625.508-1.205.801-1.827.147.034.29.034.436.073.99.181 2.01.11 2.99-.073-2.551 4.782-5.286 9.193-7.586 13.865-.036 1.384-.073 2.81-.073 4.193 0 2.3.22 4.598.368 6.9-1.023-.073-2.082-.184-3.103-.184-1.059 0-2.08.072-3.101.183.256-2.776.403-5.548.403-8.32.032-.691.032-1.351.032-2.043-2.735-4.704-5.14-9.633-7.88-14.594 1.096.073 2.19.182 3.285.182m31.771-.184c.476.036.985.184 1.461.184.508 0 1.022-.11 1.494-.184 2.666 5.841 5.548 11.53 8.429 17.258l2.15-4.197a283.533 283.533 0 0 0 6.348-13.06c.147.035.258.035.404.074.911.145 1.823.11 2.698-.075.624 5.695 1.316 11.384 2.006 17.075.258 2.116.587 4.234.876 6.35.074.44.256 1.02.256 1.533-.985-.073-2.006-.182-2.992-.182-.984 0-1.969.109-2.954.182-.256-5.62-.986-11.2-1.53-16.82-2.777 5.583-5.511 11.164-8.1 16.82-.477-.073-.911-.108-1.389 0l-2.808-5.841c-1.676-3.535-3.468-7.04-5.18-10.577-.257 2.155-.546 4.307-.766 6.455-.11 1.387-.256 2.74-.367 4.122-.073 1.206-.182 2.374-.256 3.58a46.17 46.17 0 0 1-.146 2.26 8.884 8.884 0 0 0-1.714-.181c-.545 0-1.132.074-1.677.182 0-.366.184-1.094.257-1.35.399-1.825.655-3.684.986-5.548.398-2.369.69-4.742 1.02-7.115l1.494-10.945m45.675 15.508a29.943 29.943 0 0 0-1.059-1.86c-.109-.147-.073-.183-.256-.22 0 0-.184 0-.184.22 0 2.153.074 4.343.074 6.492.037.328.037.659.037.985.036 1.277.183 2.556.256 3.833-.984-.073-1.97-.182-2.955-.182-.985 0-1.969.109-2.954.182l.036-.695c.037-.803.073-1.603.147-2.407.184-2.372.184-4.782.184-7.187 0-2.19-.038-4.414-.038-6.605 0-2.697-.11-5.361-.256-8.064l2.515.074c1.75.037 3.505-.11 5.254-.11 1.714 0 4.38-.07 5.874.77 2.117 1.2 3.211 2.845 3.211 5.323 0 3.578-2.3 5.836-5.69 6.57 2.007 3.5 4.265 6.857 6.456 10.253l1.314 2.078c-1.094-.073-2.226-.182-3.32-.182-1.095 0-2.191.072-3.28.182l-4.234-7.48zm-1.388-9.121c0 .948-.037 1.896-.037 2.845 0 .875 0 1.75-.036 2.63 3.797.36 5.694-1.462 5.694-5.22 0-.763-.037-1.057-.184-1.822-.654-3.028-2.954-2.63-5.437-2.776v4.343m47.676-1.059c-.034 1.168-.105 2.373-.105 3.58 0 1.347-.072 2.696-.11 4.007-.073 4.16-.035 7.957-3.83 10.582-1.973 1.426-4.488 1.934-6.9 1.934-4.41 0-9.188-1.388-10.54-6.13-.184-.655-.256-1.31-.329-1.97-.11-.801-.075-1.676-.075-2.515-.036-1.498-.072-2.992-.072-4.525 0-1.494-.038-3.03-.038-4.56 0-1.388-.035-2.812-.035-4.196 0-.512-.07-1.02-.07-1.535 1.023.075 2.002.184 3.025.184.989 0 1.973-.074 2.954-.22a28.16 28.16 0 0 1-.178 1.79c-.183 2.883-.295 5.69-.295 8.537 0 2.006-.073 4.998.257 6.894.327 1.786.619 2.918 1.935 4.196 1.168 1.095 2.552 1.57 4.16 1.57 3.39 0 5.213-1.24 6.49-4.415.66-1.608.66-5.764.66-7.555 0-3.646-.036-7.33-.294-10.98.618.109 1.244.183 1.86.183.62 0 1.242-.074 1.825-.184-.18 1.755-.22 3.541-.295 5.328M354.658 57.26l.252 18.098.334 9.007.17 1.832c-1.256-.08-2.588-.411-3.839-.411-1.498 0-2.918.33-4.421.41.087-.58.087-1.249.17-1.831l.334-6.587.335-19.52V37.915l-.422-8.84c1.42.085 2.835.335 4.256.335 1.25 0 2.584-.167 3.835-.25-.083.748-.083 1.499-.166 2.25l-.334 7.586-.418 14.514-.086 3.75m-23.4 24.907c1.002 3.385-17.19 4.617-23.887 4.617-21.8 0-39.031-11.173-39.031-30.022 0-17.678 17.23-30.019 39.031-30.019 7.765 0 15.846 1.419 22.76 4.085l-3.51 5.67c-4.788-2.166-11.806-3.75-19.25-3.75-17.124 0-29.249 10.673-29.249 24.014 0 13.348 12.125 24.021 29.249 24.021 5.103 0 10.742-1.003 14.784-2.419l1.14-.976v-17.18l-.422-8.843c1.42.087 4.179.335 5.599.335 1.25 0 2.584-.166 3.834-.248-.082.746-.082 1.498-.165 2.249l-.335 7.593-.549 20.873m98.058 0c1.002 3.385-17.19 4.617-23.888 4.617-21.802 0-39.032-11.173-39.032-30.022 0-17.678 17.23-30.019 39.032-30.019 7.76 0 15.841 1.419 22.76 4.085l-3.515 5.67c-4.782-2.166-11.8-3.75-19.245-3.75-17.125 0-29.251 10.673-29.251 24.014 0 13.348 12.126 24.021 29.251 24.021 5.104 0 10.739-1.003 14.784-2.419l1.136-.976v-17.18l-.418-8.843c1.42.087 4.179.335 5.6.335 1.25 0 2.583-.166 3.835-.248-.084.746-.084 1.498-.17 2.249l-.334 7.593-.545 20.873"/></g></svg>