<svg xmlns="http://www.w3.org/2000/svg" xmlns:xlink="http://www.w3.org/1999/xlink" viewBox="0 0 249.002 91.025"><title>UKGovCamp</title><defs><linearGradient id="ukgc-grad-b" x1="62.501" y1="449.768" x2="37.42" y2="453.293" gradientUnits="userSpaceOnUse"><stop offset="0" stop-color="#8f1924"/><stop offset="1" stop-color="#d43b47"/></linearGradient><linearGradient id="ukgc-grad-a" x1="59.274" y1="418.916" x2="33.073" y2="408.503" gradientUnits="userSpaceOnUse"><stop offset="0" stop-color="#192751"/><stop offset="1" stop-color="#3d50a1"/></linearGradient></defs><path d="M121.786 51.117v2.174h-4.458v-1.788q-1.513 2.146-4.457 2.146-4.265 0-4.265-4.76v-6.357q0-.743-.688-.77l-.88-.055V39.45h4.842v8.723q0 1.459.413 2.201.413.743 1.706.743t2.064-.798q.798-.798.798-1.926v-5.806q0-.44-.166-.605-.137-.193-.522-.22l-.88-.055V39.45h4.842v10.787q0 .44.138.605.137.138.55.193zM125.193 50.21V36.808q0-.44-.166-.606-.137-.165-.522-.192l-.963-.055v-2.284h4.898v11.915q1.513-.138 2.641-.936 1.128-.798 1.541-2.091.083-.275.083-.44 0-.468-.523-.468l-1.046-.055V39.45h5.696v2.23l-1.32.054q-.358 2.807-2.422 4.43l2.696 4.843 1.679.083v2.201h-4.017l-3.137-5.723q-.908.247-1.871.385v3.054h.027l1.568.083v2.201h-6.548V51.2l.908-.083q.412-.055.605-.22.193-.192.193-.688zM151.048 53.264q-.247 3.054-1.76 4.485-1.514 1.43-4.734 1.43-3.22 0-5.035-.907v-3.825l2.614-.22v1.32q0 .744.688.991.688.275 1.898.275 1.762 0 2.477-1.073.715-1.045.715-2.972v-1.513q-1.32 1.54-3.66 1.54-1.43 0-2.53-.55-1.074-.55-1.68-1.485-1.183-1.871-1.183-4.403 0-3.605 1.954-5.448 1.954-1.871 5.2-1.871 2.697 0 5.091 1.018v10.208q0 2.34-.055 3zm-3.137-5.586v-5.916q-.963-.33-2.2-.33-1.68 0-2.587 1.238-.881 1.238-.881 3.357 0 4.347 2.862 4.347 1.183 0 1.98-.715.826-.743.826-1.981zM159.858 51.283q3 0 3-4.843 0-2.45-.689-3.715-.66-1.266-2.256-1.266-1.568 0-2.311 1.21-.743 1.212-.743 3.303 0 3.88 1.43 4.87.633.44 1.569.44zm-6.329-4.926q0-2.036.605-3.522.606-1.514 1.624-2.312 1.954-1.485 4.32-1.485 1.651 0 2.78.55 1.155.523 1.788 1.238.66.688 1.1 2.036.468 1.321.468 3.137 0 3.798-1.843 5.751-1.844 1.954-4.733 1.954-2.862 0-4.485-1.844-1.624-1.87-1.624-5.503zM175.975 39.45h5.806v2.147l-.853.055q-.55.055-.743.66l-3.55 10.98h-4.21l-3.852-10.952q-.138-.386-.303-.523-.137-.138-.495-.165l-.798-.055V39.45h6.466v2.202l-1.678.082 2.834 9.053h.055l2.752-9.053-1.431-.082zM186.31 46.22q0 2.338.88 3.632.881 1.293 2.532 1.293 1.679 0 3.302-1.183l1.183 2.118q-1.953 1.596-4.898 1.596-2.944 0-4.65-1.843-1.678-1.871-1.678-5.503 0-3.633 1.926-5.449 1.953-1.843 4.375-1.843 2.449 0 4.54 1.128v3.577l-2.531.193v-1.321q0-.743-.55-.908-.524-.193-1.101-.193-3.33 0-3.33 4.705zM208.288 40v10.237q0 .44.137.605.165.165.55.193l.881.055v2.201h-4.375v-1.596l-.083-.027q-1.375 1.98-3.77 1.98-2.806 0-4.154-1.788-1.349-1.788-1.349-4.898 0-3.742 1.816-5.833 1.817-2.091 5.449-2.091 2.339 0 4.898.963zm-3.192 8.916V41.79q-.77-.357-2.119-.357-1.844 0-2.67 1.485-.825 1.486-.825 3.935 0 4.458 2.862 4.458 1.21 0 1.981-.715.77-.743.77-1.679zM211.353 41.68v-2.23h4.65v1.789q1.541-2.201 4.21-2.201 2.697 0 3.633 2.2 1.54-2.2 4.182-2.2 1.982 0 3.055 1.21 1.073 1.184 1.073 3.577v7.182l1.568.083v2.201h-6.549V51.2l.908-.083q.413-.055.578-.22.193-.192.22-.66V44.54q0-1.513-.357-2.229-.33-.743-1.596-.743t-1.954.77q-.66.771-.66 2.064v6.604l1.513.083v2.201h-6.494V51.2l.908-.083q.413-.055.605-.22.193-.192.193-.688v-5.668q0-1.513-.358-2.229-.33-.743-1.623-.743-1.266 0-1.926.798-.66.798-.66 1.981v6.66l1.485.082v2.201h-6.494V51.2l.908-.083q.413-.055.606-.22.192-.192.192-.688h.028v-7.594q0-.468-.165-.633-.138-.193-.523-.22zM236.868 55.905V42.587q0-.468-.165-.633-.138-.192-.523-.192l-1.156-.083V39.45h4.65v1.789q.44-.826 1.596-1.513 1.156-.688 2.752-.688 4.98 0 4.98 6.989 0 3.715-1.623 5.696-1.623 1.981-4.403 1.981-1.65 0-2.944-.798v3.797l2.229.11v2.174h-7.1v-2.091l.909-.083q.412-.055.605-.247.193-.165.193-.66zm8.722-9.603q0-4.595-2.779-4.595-1.155 0-1.98.715-.799.688-.799 1.651v6.329q1.046.688 2.532.688 1.513 0 2.256-1.376.77-1.376.77-3.412z" fill="#1a2751"/><path d="M-24.702 435.593c6.608 1.912 12.002 1.23 15.24-3.446 3.237-4.675.498-8.435.133-10.867-.364-2.431-.586-6.365 4.74-6.556 5.326-.191 10.649 6.539 18.902 9.602 8.254 3.064 15.611-5.893 12.652-12.374-2.959-6.482-9.009-10.392-19.48-6.075 2.445-11.362 8.554-13.77 21.295-8.458 3.537 1.475 12.743 5.445 15.72 1.665 1.984-3.307-6.413-9.2-13.736-9.342 35.56-9.533 43.924 26.057 44.412 42.002-6.048-3.165-8.373-2.382-8.67-.543-.296 1.839 1.825 9.776-1.984 10.087-4.3.352-4.505-5.455-4.583-10.607-1.707-4.126-4.45.734-6.331.355-1.882-.38-7.607-3.638-9.308-1.725-2.079 2.457-2.315 6.78-7.016 6.78-5.15.33-9.827-5.055-15.568-4.37-5.74.685-7.2 1.426-11.192 5.939-1.352-1.05-5.229-6.147-11.15-5.513-5.92.635-5.39 6.707-9.63 8.28-4.24 1.573-6.808 1.305-14.446-4.834z" fill="url(#ukgc-grad-a)" stroke="url(#ukgc-grad-a)" stroke-linejoin="round" transform="translate(27.637 -387.656)"/><path d="M2.981 455.87s2.492 3.446 8.639 4.95c6.214.436 12.964-4.292 18.71-4.091 5.747.2 7.77 1.87 8.407 5.757.638 3.887-3.475 10.53-14.7 10.13 26.471 14.076 48.765 1.425 51.27-37.354 0 0-5.547-3.677-6.054-1.339-.59 2.726 1.254 9.474-4.48 10.43-5.733.956-6.407-3.951-7.05-8.917-.573-4.421-3.265-.83-5.537-.897-2.271-.067-4.945-2.72-6.68-1.28-1.49 1.236-1.699 3.42-4.466 5.007-5.767 2.745-12.414-1.853-17.536-3.366-3.942-1.135-6.304.317-10.683 5.438 1.614 7.348-2.406 17.32-9.84 15.531z" fill="url(#ukgc-grad-b)" stroke="url(#ukgc-grad-b)" stroke-linecap="round" stroke-linejoin="round" transform="translate(27.637 -387.656)"/><path d="M26.272 64.812s3.909 6.849 10.056 8.352c6.214 1.57 14.098-3.441 19.845-3.24 5.746.2 7.296 1.68 7.65 5.378.355 3.698-4.042 8.452-15.268 8.052 29.685 17.1 51.885 3.031 54.39-35.748 0 0-5.547-3.677-6.054-1.339-.592 2.726 1.253 9.474-4.48 10.43-5.734.956-6.408-3.951-7.05-8.917-.573-4.421-3.265-.83-5.537-.897-2.272-.067-4.946-2.72-6.68-1.28-1.49 1.236-1.7 3.42-4.467 5.007-5.767 2.745-12.413-1.853-17.535-3.365-3.943-1.136-8.478 1.922-12.857 7.043 1.33 8.955-4.013 14.013-12.013 10.524z" fill="none" stroke="#8f1924" stroke-linecap="round" stroke-linejoin="round"/><path d="M.5 46.286c3.669.609 10.461 2.046 14.434-3.331 3.973-5.377-1.09-8.767.067-12.772.775-2.683 3.441-5.206 6.878-5.253 6.874-.094 11.76 7.166 18.568 10.37 6.808 3.206 15.611-4.193 12.285-12.307-3.327-8.115-14.883-6.355-17.576-.095 2.776-11.61 8.523-18.448 21.26-13.134 3.538 1.475 10.773 4.842 13.75 1.063 1.984-3.308-4.441-8.6-11.765-8.741 35.561-9.533 43.924 26.057 44.412 42.003-6.047-3.166-8.373-2.383-8.67-.544-.296 1.839 1.826 9.776-1.984 10.087-4.3.352-4.505-5.454-4.583-10.607-1.706-4.126-4.449.734-6.33.355-1.883-.38-7.608-3.638-9.308-1.725-2.08 2.457-2.316 6.78-7.017 6.78-5.15.331-9.827-5.055-15.568-4.37-5.74.685-9.662 2.906-12.662 7.843-1.352-1.05-6.878-5.933-11.717-6.615-4.839-.68-6.008 4.01-10.016 6.426-4.01 2.416-10.021.67-14.458-5.433z" fill="none" stroke="#192751" stroke-linejoin="round"/></svg>