<svg xmlns="http://www.w3.org/2000/svg" width="408.123" height="187.159" viewBox="0 0 107.982 49.519"><title>Netcall</title><path d="M23.398 48.221c-9.207-1.058-16.363-4.242-19.8-8.807-2.071-2.75-2.843-5.55-2.434-8.823l.183-1.466.603 1.485c2.687 6.61 10.464 10.75 22.673 12.068 3.6.388 12.726.177 16.81-.39C61.045 39.57 77.64 31.395 94.3 16.248c1.796-1.633 2.195-1.91 1.635-1.143-5.213 7.157-13.586 14.61-22.757 20.257-11.437 7.042-23.99 11.456-36.317 12.772-3.707.396-10.4.44-13.462.087zm81.42-36.41c.737-1.762.325-3.05-1.234-3.86-1.699-.885-7.33-.304-12.431 1.28-1.083.337-1.969.56-1.969.495 0-.064 1.3-.735 2.89-1.49 9.997-4.753 15.218-5.14 14.83-1.1-.066.69-.564 2.142-1.16 3.383-1.03 2.15-1.637 2.996-.926 1.292z" fill="#f80e0d"/><path d="M3.322 3.682h-.057v17.912h-1.94V1.058h2.197l11.865 17.94h.057V1.058h1.94v20.536H15.13zM31.1 13.18q0-1.084-.314-2.025-.285-.97-.884-1.654-.57-.714-1.455-1.113-.884-.428-2.025-.428-1.14 0-2.025.428-.856.428-1.483 1.141-.599.713-.97 1.654-.37.942-.485 1.997zm-9.64 1.426q0 1.198.313 2.282.314 1.055.913 1.854.627.77 1.568 1.255.942.456 2.168.456 1.683 0 2.88-.884 1.199-.884 1.598-2.51h1.911q-.314 1.055-.827 1.968-.513.884-1.284 1.57-.77.655-1.825 1.025-1.055.371-2.453.371-1.768 0-3.052-.599-1.283-.599-2.11-1.625-.827-1.056-1.227-2.453-.4-1.426-.4-3.052 0-1.626.457-3.052.485-1.426 1.34-2.482.885-1.083 2.14-1.682 1.255-.628 2.852-.628 3.052 0 4.792 2.11 1.74 2.083 1.711 6.076zm19.046 7.045q-.314.057-.827.2-.514.142-1.141.142-1.284 0-1.968-.627-.656-.656-.656-2.31V8.246h-2.082V6.817h2.082V2.712h1.711V6.82h2.767v1.427h-2.767v10.125q0 .542.029.941.028.4.17.656.143.257.429.371.313.114.855.114.343 0 .685-.057.37-.057.713-.143zm12.222-10.183q-.457-1.654-1.57-2.566-1.112-.942-2.823-.942-1.312 0-2.253.542-.942.542-1.54 1.455-.6.884-.885 2.025-.285 1.112-.285 2.253 0 1.17.257 2.282.285 1.112.884 1.997.599.884 1.54 1.426.941.513 2.282.513 1.91 0 3.052-1.055 1.169-1.056 1.483-2.91h1.825q-.228 1.227-.741 2.254-.485.998-1.284 1.74-.77.713-1.854 1.112-1.084.4-2.481.4-1.769 0-3.052-.6-1.284-.599-2.11-1.625-.828-1.056-1.227-2.482-.4-1.426-.4-3.052 0-1.54.428-2.938.457-1.426 1.312-2.51.856-1.083 2.111-1.71 1.283-.657 2.938-.657 2.567 0 4.135 1.227 1.598 1.226 1.997 3.822zm13.754 2.368q-1.084.456-2.196.6-1.112.141-2.225.227-1.968.143-3.08.884-1.084.742-1.084 2.253 0 .685.257 1.198.285.485.713.828.456.313 1.027.484.599.143 1.198.143 1.026 0 1.996-.257.97-.256 1.711-.77.77-.542 1.227-1.34.456-.827.456-1.94zm-2.88-.856q.484-.057 1.14-.17.685-.115 1.113-.315.428-.2.513-.656.114-.485.114-.884 0-1.312-.855-2.139-.828-.856-2.824-.856-.884 0-1.626.171-.741.143-1.312.542-.542.371-.913 1.027-.342.628-.456 1.597h-1.74q.086-1.312.6-2.224.513-.942 1.311-1.512.827-.599 1.883-.856 1.083-.285 2.281-.285 1.113 0 2.082.257.999.228 1.712.77.741.513 1.14 1.398.429.884.429 2.167v8.043q0 1 .342 1.284.37.257 1.454-.143v1.34l-.599.172q-.37.114-.741.114-.4 0-.77-.085-.428-.057-.685-.257-.256-.228-.428-.514-.142-.313-.2-.656-.056-.37-.056-.77-1.084 1.198-2.482 1.826-1.397.627-3.023.627-.97 0-1.882-.256-.885-.257-1.57-.8-.684-.54-1.083-1.31-.4-.8-.4-1.884 0-3.764 5.163-4.449zm7.627 8.614V1.058h1.712v20.536zm4.634 0V1.058h1.711v20.536z" fill="#4d4d4d"/></svg>