<svg width="252" height="63" xmlns="http://www.w3.org/2000/svg" viewBox="0 0 252 63"><g fill="#ec604b" fill-rule="evenodd"><title>Convivio</title><path d="M132.954 33.196c-1.031 5.642-5.517 8.934-11.234 8.934-6.615 0-11.834-5.14-11.834-11.753 0-6.582 5.22-11.755 11.834-11.755 5.485 0 10.139 3.291 11.202 8.63l-5.385 1.275c-.698-3.248-2.958-4.836-5.817-4.836-3.524 0-6.349 2.855-6.349 6.684 0 3.828 2.825 6.713 6.35 6.713 2.824 0 5.083-1.611 5.849-4.98l5.384 1.088zm20.374 0c0 5.34-4.189 8.899-9.142 8.899-5.052 0-9.24-3.56-9.24-8.899 0-5.305 4.188-8.866 9.24-8.866 4.953 0 9.142 3.56 9.142 8.866zm-5.119 0c0-2.62-1.961-4.365-4.021-4.365-2.16 0-4.122 1.745-4.122 4.365 0 2.653 1.961 4.366 4.122 4.366 2.06 0 4.021-1.713 4.021-4.366zm24.794-1.914v10.345h-5.284v-9.202c0-1.981-1.164-3.324-2.86-3.324-2.094 0-3.457 1.445-3.457 4.702v7.824h-5.318v-16.86h5.318v1.612c1.263-1.343 3.025-2.116 5.119-2.116 3.89 0 6.482 2.787 6.482 7.019zm13.495 10.345h-5.419l-6.913-16.892h5.618l4.022 10.41 3.989-10.41h5.618zm15.088-21.829c0 1.713-1.286 2.988-3.091 2.988-1.805 0-3.059-1.275-3.059-2.988.044-1.684 1.408-3.026 3.075-3.026 1.667 0 3.03 1.342 3.075 3.026zm-5.745 21.83v-16.86h5.318v16.86h-5.318zm20.069-.001h-5.418l-6.913-16.892h5.618l4.021 10.41 3.99-10.41h5.617zm15.084-21.829c0 1.713-1.286 2.988-3.09 2.988-1.806 0-3.06-1.275-3.06-2.988.044-1.684 1.408-3.026 3.075-3.026 1.667 0 3.031 1.342 3.075 3.026zm-5.744 21.83v-16.86h5.315v16.86h-5.315zm26.722-8.432c0 5.34-4.188 8.899-9.142 8.899-5.052 0-9.24-3.56-9.24-8.899 0-5.305 4.188-8.866 9.24-8.866 4.954 0 9.142 3.56 9.142 8.866zm-5.118 0c0-2.62-1.962-4.365-4.022-4.365-2.16 0-4.121 1.745-4.121 4.365 0 2.653 1.96 4.366 4.121 4.366 2.06 0 4.024-1.713 4.024-4.366h-.002z"/><g stroke-width=".5" stroke="#F8F4EA"><path d="M59.206 28.57a.174.174 0 0 1-.161-.05.178.178 0 0 1-.043-.166l4.006-15.25a.68.68 0 0 1 .276-.464.667.667 0 0 1 .524-.113l4.96.216c.35.07.585.402.537.758l-3.728 13.17a.676.676 0 0 1-.525.578l-5.846 1.322zm-1.94 5.049a.68.68 0 0 1 .276-.464.667.667 0 0 1 .524-.113l4.408 1.942c.349.07.584.402.535.758l-1.607 6.396a.676.676 0 0 1-.525.577l-2.258.58-3.185-.98 1.832-8.696z"/><path d="M36.503 44.34l-6.518-2.75a.888.888 0 0 1-.509-.784l-.054-2.208a.685.685 0 0 1 .069-.527.673.673 0 0 1 .423-.316l56.153-13.498a.665.665 0 0 1 .373.018l8.245 2.434a.678.678 0 0 1 .454.622v1.824c.01.32-.2.602-.507.68l-58.129 14.51"/><path d="M84.358 28.08a.565.565 0 0 0 .358-.255.576.576 0 0 0 .071-.437l-1.842-8.423a.672.672 0 0 0-.789-.514l-4.76 1.125a.672.672 0 0 0-.432.298.685.685 0 0 0-.088.521l1.744 8.41a.57.57 0 0 0 .249.358.56.56 0 0 0 .426.075l5.063-1.159zm1.036 6.698l-4.704 1.18a.68.68 0 0 0-.485.812l2.472 11.45a.677.677 0 0 0 .391.47l3.316 1.43c.135.06.286.071.429.034l1.83-.47a.68.68 0 0 0 .489-.81L86.217 35.28a.679.679 0 0 0-.307-.426.666.666 0 0 0-.516-.076h0zm-46.689 6.336L43.28 60.73a.68.68 0 0 1-.489.815l-1.822.47a.666.666 0 0 1-.428-.034l-3.315-1.43a.677.677 0 0 1-.391-.474l-4.448-20.29a.683.683 0 0 1 .2-.65.667.667 0 0 1 .657-.148l5.014 1.634a.68.68 0 0 1 .446.491h0zm-2.746-7.207l-8.6 2.057a.986.986 0 0 1-.643-.062l-7.118-3.224a.68.68 0 0 1-.391-.703l.598-4.922a.68.68 0 0 1 .334-.511.666.666 0 0 1 .606-.03l15.25 6.954a.232.232 0 0 1-.036.44h0z"/><path d="M16.154 46.876l-2.275.497a.666.666 0 0 1-.462-.067L11.214 46.1a.681.681 0 0 1-.343-.686l6.686-24.133a.68.68 0 0 1 .276-.464.667.667 0 0 1 .524-.113l4.408 1.943c.349.07.584.401.536.758L16.679 46.3a.676.676 0 0 1-.525.576h0zm-1.757-23.661l-1.636 5.906a.677.677 0 0 1-.524.608L8.084 30.92a.666.666 0 0 1-.418-.04l-6.139-2.732a.679.679 0 0 1-.4-.6L1.064 25.6a.678.678 0 0 1 .536-.686l11.99-2.421a.667.667 0 0 1 .582.157.683.683 0 0 1 .224.566h0zm20.159 11.027a.666.666 0 0 1-.429-.033l-3.081-.857a.677.677 0 0 1-.391-.473l-2.348-10.512a.683.683 0 0 1 .2-.65.667.667 0 0 1 .657-.148l5.01 1.637a.676.676 0 0 1 .448.49L37 33.257a.393.393 0 0 1-.286.475l-2.158.511z"/><path d="M63.315 1.092a.665.665 0 0 0-.328-.016L10.373 11.687a.677.677 0 0 0-.535.666v5.206c0 .276.164.525.416.63l22.7 9.42c.13.054.274.066.411.033l55.45-13.102a.678.678 0 0 0 .516-.683l-.127-4.314a.679.679 0 0 0-.476-.628L63.315 1.092zm-19.382 9.854l-17.014 3.603c-.473.1-.965.052-1.41-.137l-.409-.175a.401.401 0 0 1 .073-.758l17-3.607c.472-.1.963-.053 1.408.136l.429.18a.401.401 0 0 1-.077.762v-.004zm32.34-1.453l-20.09 4.492c-.489.11-1 .06-1.46-.142l-.388-.165a.401.401 0 0 1 .072-.758l19.98-4.475a2.36 2.36 0 0 1 1.22.052l.697.217a.4.4 0 0 1 .288.402.4.4 0 0 1-.32.377h0zm-24.248-.255l-4.394.953a2.35 2.35 0 0 1-1.393-.128l-.455-.188a.401.401 0 0 1 .069-.764l4.408-.956c.47-.1.96-.053 1.403.133l.436.185a.401.401 0 0 1-.074.765h0zm-.857 5.912l-5.345 1.156a2.352 2.352 0 0 1-1.415-.124l-.44-.183a.401.401 0 0 1 .065-.758l5.369-1.16a2.353 2.353 0 0 1 1.478.151l.365.165a.401.401 0 0 1-.077.751v.002z"/></g></g></svg>