<svg xmlns="http://www.w3.org/2000/svg" width="1321.057" height="343.836" viewBox="0 0 349.53 90.973"><title>Mace &amp; Menter</title><path d="M2.616 64.956c-1.255-1.33-1.225-2.626.122-5.345.557-1.125 1.164-2.462 1.35-2.971.185-.51.438-1.164.562-1.455 1.697-3.975 3.96-16.127 3.956-21.246-.002-2.545.382-3.523 1.577-4.019 1.006-.416 2.587-.188 3.245.47.308.308.585 1.168.749 2.323.534 3.772.804 4.845 1.67 6.624.997 2.047 6.13 9.109 6.605 9.087.409-.019 5.358-6.256 7.409-9.336.896-1.346 2.337-3.85 3.202-5.564 1.688-3.347 2.224-3.871 3.956-3.871a2.57 2.57 0 0 1 1.667.638l.742.638-.09 7.762c-.151 13.115.752 19.632 2.971 21.449 2.32 1.899 5.948-1.825 5.988-6.146.02-2.127.617-4.582 1.566-6.439.954-1.864 1.869-2.95 3.592-4.266 1.12-.855 1.683-1.157 3.646-1.958 1.351-.55 4.954-.372 7.094.352 1.709.578 1.982.609 2.362.265.702-.636 3.004-.51 3.785.206 1.03.946 1.178 1.85.945 5.755-.117 1.964-.22 5.428-.227 7.698-.013 3.672.039 4.174.47 4.564.794.719 1.944.543 3.14-.481 1.558-1.334 2.159-2.826 2.482-6.168.348-3.61 1.053-5.869 2.445-7.84 2.162-3.058 5.554-4.652 9.901-4.652 2.761 0 4.643.553 6.144 1.806.805.672.905.9.905 2.054 0 1.562-.606 2.602-1.746 2.999-1.31.457-2.063.338-3.438-.545-1.147-.736-1.44-.811-2.62-.672-3.223.382-4.988 2.97-4.99 7.322-.003 2.113.702 4.16 1.741 5.067 1.565 1.363 2.53 1.667 5.263 1.657 2.187-.008 2.859-.113 3.873-.604 3.084-1.492 4.566-3.725 4.853-7.31.596-7.431 5.1-11.774 12.209-11.774 4.858 0 7.92 1.834 9.217 5.523 1.287 3.659-.71 7.914-4.5 9.59-1.88.832-5.49 1.361-7.859 1.152-2.425-.214-2.556-.019-1.118 1.662 1.216 1.42 3.195 2.184 5.626 2.172 3.581-.02 6.751-1.094 8.505-2.883 1.437-1.466 2.84-1.47 3.594-.01 1.085 2.097-2.081 5.32-6.793 6.916-1.249.424-2.534.599-5.028.685-2.949.101-3.577.043-5.256-.487-2.203-.695-4.517-2.107-5.74-3.504-.468-.535-.927-.973-1.02-.973-.093 0-.81.64-1.591 1.422-2.55 2.55-5.472 3.597-10.053 3.602-2.271.002-3.314-.122-4.625-.552-2.054-.674-4.18-2.045-5.154-3.32l-.721-.946-1.435 1.61c-1.966 2.208-4.05 3.211-6.67 3.211-2.172 0-3.869-.65-4.905-1.882-.353-.42-.77-.763-.926-.763-.156 0-.772.353-1.368.785-1.797 1.301-3.664 1.86-6.214 1.86-2.92 0-4.553-.72-6.443-2.84l-1.324-1.485-1.585 1.512c-2.217 2.114-3.903 2.813-6.785 2.813-1.875 0-2.502-.115-3.694-.679-1.517-.718-2.863-2.15-3.663-3.894-1.276-2.787-1.95-8.463-1.514-12.737.487-4.759.373-5.484-.6-3.837-.264.447-1.719 2.359-3.232 4.248-3.74 4.667-3.719 4.62-2.995 6.663.72 2.036.96 5.313.507 6.934-.433 1.545-1.668 2.65-3.21 2.868-4.137.586-6.02-2.482-4.978-8.114.365-1.972-.037-2.874-2.902-6.516-1.195-1.519-2.288-2.977-2.429-3.241-.43-.803-.727-.544-.893.777-.738 5.883-2.448 12.963-3.73 15.446-.694 1.346-1.877 2.082-3.343 2.082-1.191 0-1.435-.103-2.229-.944zm58.405-5.284c1.465-.517 2.541-1.53 3.176-2.988.417-.958.499-1.81.499-5.183v-4.038l-1.023-.306c-1.407-.422-4.283-.385-5.361.069-1.817.763-2.933 2.493-3.35 5.192-.508 3.28.475 6.156 2.437 7.127 1.294.64 2.088.668 3.622.127zm51.167-7.149c.75-.383 1.24-.903 1.683-1.785.745-1.486.624-2.283-.52-3.428-.737-.736-.9-.784-2.206-.65-1.874.194-2.875.751-3.79 2.109-.689 1.024-1.384 2.838-1.384 3.61 0 .96 4.422 1.062 6.217.144zm66.64 12.433c-1.165-1.236-1.21-2.626-.149-4.651 1.837-3.506 3.33-8.097 4.718-14.513.712-3.29 1.415-9.178 1.417-11.866.002-2.46.007-2.48.902-3.374.668-.668 1.128-.898 1.786-.896 2.063.01 3.134 1.418 3.135 4.12 0 1.867.745 4.363 1.926 6.46 1.09 1.936 5.793 8.207 6.137 8.184.346-.022 2.486-2.611 5.71-6.908a47.485 47.485 0 0 0 4.456-7.174c2.073-4.093 2.623-4.685 4.353-4.685.61 0 1.196.223 1.68.64l.741.64-.095 6.862c-.14 10.079.527 17.713 1.797 20.586 1.075 2.429 2.812 2.926 4.67 1.336 1.57-1.345 2.29-3.019 2.511-5.848.353-4.49 1.253-6.936 3.396-9.226 2.514-2.688 5.221-3.706 9.485-3.568 2.46.079 3.066.194 4.5.854 1.794.827 3.23 2.21 3.935 3.791.646 1.449.65 5.17.006 6.512-1.65 3.443-6.728 5.541-12.208 5.044-1.888-.17-1.991-.152-1.824.32.261.735 1.149 1.66 2.348 2.45.998.656 1.238.694 4.233.682 4.81-.02 7.482-1.052 10.108-3.901 2.059-2.233 2.907-4.91 3.23-10.185.206-3.37.248-3.558.963-4.303.637-.665.945-.78 2.087-.774 1.447.006 2.096.38 2.901 1.674l.47.755.704-.674c1.369-1.309 3.657-2.14 6.18-2.246 3.924-.164 6.286 1.049 7.532 3.865.527 1.192.618 1.833.62 4.366 0 1.633-.137 4.494-.306 6.357-.294 3.235-.284 3.42.223 4.101.87 1.172 2.093 1.105 3.57-.194 2.092-1.843 3.23-5.261 3.549-10.668l.183-3.109h-1.692c-1.22-.002-1.933-.148-2.553-.526-.758-.463-.86-.66-.86-1.678 0-1.61.5-1.983 2.785-2.082l1.846-.08.132-3.307c.075-1.861.273-3.552.454-3.868.49-.856 2.087-1.507 3.297-1.345 2.412.324 3.128 1.604 3.128 5.588v2.692l3.241-.103c3.065-.098 3.292-.07 4.168.526.776.527.939.809 1.007 1.741.065.9-.046 1.24-.584 1.778-.644.644-.773.664-4.254.664h-3.59l-.259.679c-.142.373-.258 3.097-.258 6.053 0 5.846.185 6.831 1.433 7.65 1.445.946 4.302.381 6.109-1.209 1.542-1.358 1.968-2.287 2.274-4.97.439-3.842.759-5.23 1.572-6.818 2.034-3.974 5.796-6.147 10.642-6.147 5 0 8.343 2.033 9.406 5.719 1.16 4.02-.787 7.816-4.888 9.53-1.742.727-5.348 1.212-7.564 1.016-2.388-.21-2.485-.08-1.09 1.465 1.538 1.702 2.399 1.986 5.919 1.95 4.807-.05 7.98-1.186 10.597-3.796 2.254-2.246 2.632-3.249 2.632-6.987 0-1.709-.136-3.644-.301-4.301-.634-2.52.89-4.596 3.374-4.596 1.065 0 1.485.149 2.29.813.543.447.987 1.046.987 1.33 0 .802.68.877 1.64.182.836-.605 1.288-.836 2.936-1.499 1.586-.637 4.733-.341 6.977.657 2.236.995 2.874 3.293 1.384 4.99-.733.834-.963.935-2.132.935-1.079 0-1.498-.15-2.362-.845-2.075-1.667-4.688-.895-6.915 2.041-1.983 2.617-2.106 3.101-2.297 9.037-.155 4.799-.225 5.396-.693 5.914-1.228 1.357-2.863 1.661-4.28.797-.851-.519-1.667-1.747-1.667-2.511 0-.455-.29-.532-.674-.178-.488.45-2.733 1.588-3.998 2.027-2.39.828-4.712 1.18-7.763 1.177-4.677-.005-7.608-1.04-10.25-3.619-.791-.772-1.496-1.405-1.567-1.405-.07 0-.722.65-1.447 1.444-2.393 2.618-4.636 3.586-8.296 3.58-3.313-.006-4.961-.647-6.672-2.598l-.847-.966-.873.826c-2.043 1.937-4.116 2.742-7.057 2.742-3.106 0-4.978-1.202-6.182-3.967-.554-1.273-.553-.654-.028-10.074.226-4.051-.363-5.01-3.074-5.01-2.464 0-4.391 1.239-5.352 3.44-.477 1.093-.513 1.695-.433 7.32l.087 6.13-.645.688c-.355.378-1.07.813-1.588.966-2.017.597-4.249-1.034-4.249-3.104 0-.488-.07-.887-.154-.887-.085 0-.65.396-1.257.88-3.177 2.535-6.651 3.595-11.818 3.605-4.75.01-7.448-.94-10.204-3.587-.817-.785-1.51-1.428-1.54-1.428-.03 0-.503.59-1.052 1.31-1.049 1.374-3.09 2.855-4.685 3.397-1.613.547-5.087.41-6.505-.256-2.272-1.067-3.446-2.635-4.637-6.19-.58-1.73-.613-2.203-.597-8.513.01-3.675-.01-6.68-.043-6.68-.034 0-.51.624-1.06 1.388-.55.764-1.79 2.342-2.756 3.506-.966 1.164-2.2 2.784-2.74 3.6-.97 1.464-.978 1.5-.6 2.514.779 2.094 1.02 3.555.918 5.574-.186 3.674-1.267 4.902-4.342 4.931-3.506.033-4.793-2.361-4.095-7.611.297-2.23.289-2.309-.382-3.541-.377-.693-1.584-2.385-2.683-3.76-1.098-1.376-2.108-2.71-2.245-2.964-.441-.824-.717-.496-.89 1.058-.092.837-.28 2.117-.417 2.845-1.477 7.872-2.32 10.873-3.613 12.86-.755 1.16-1.565 1.56-3.162 1.56-1.048 0-1.334-.129-2.104-.945zm58.355-12.369c1.599-.818 2.27-1.783 2.27-3.264 0-1.023-.128-1.308-.9-1.998-.83-.74-1.015-.793-2.314-.659-1.351.14-2.668.806-3.482 1.762-.507.595-1.284 2.392-1.469 3.394-.204 1.105.298 1.341 2.873 1.354 1.416.007 2.128-.132 3.022-.589zm70.956.308c1.881-.638 3.148-2.13 3.148-3.709 0-1.671-1.583-2.782-3.576-2.508-2.336.32-4.24 2.36-4.786 5.13-.145.734-.08.892.459 1.108.885.354 3.686.342 4.755-.02z"/><path d="M240.511 90.586c-13.804-.899-22.584-1.943-31.088-3.7-20.346-4.203-36.604-11.811-47.714-22.33-1.667-1.577-2.434-2.141-2.67-1.964-.183.137-1.155.872-2.16 1.634-5.917 4.484-11.448 4.958-16.3 1.395-3.164-2.323-4.581-5.202-4.39-8.915.095-1.834.262-2.47 1.088-4.142 1.124-2.274 3.778-5.124 5.951-6.392.749-.436 1.364-.927 1.367-1.09.003-.162-.52-1.077-1.16-2.032-1.61-2.4-2.275-4.3-2.275-6.493 0-4.19 2.763-6.657 7.458-6.657 2.312 0 4.039.635 5.382 1.978 3.43 3.43 2.204 9.552-2.597 12.971-.817.582-1.492 1.223-1.499 1.425-.023.662 8.822 11.408 9.39 11.408.45 0 3.125-3.7 4.455-6.165 3.423-6.34 4.282-13.156 2.387-18.924-2.158-6.566-8.265-12.925-16.774-17.465-11.092-5.919-26.51-9.997-43.127-11.407-9.877-.838-17.744-1.002-26.193-.545-13.044.704-19.765 1.354-31.486 3.046-10.18 1.47-21.946 3.899-29.447 6.08l-1.466.426-.007 1.524c-.03 6.142-5.962 10.212-11.89 8.158-2.741-.95-4.715-3.193-5.491-6.238C-.751 12.227 1.3 7.898 5.032 6.089c1.114-.54 1.721-.642 3.837-.645 2.133-.003 2.693.091 3.696.62 1.659.874 2.85 1.86 3.497 2.893.658 1.05.682 1.05 5.375-.194C34.622 5.268 53.63 2.202 69.062 1.08 81.975.14 84.652 0 89.567 0c6.475 0 18.537.892 25.4 1.878 20.918 3.007 37.812 9.744 46.706 18.626 2.886 2.882 4.656 5.338 6.103 8.469 3.982 8.62 2.33 19.47-4.321 28.385-.947 1.27-1.773 2.438-1.834 2.596-.173.446 4.536 4.802 8.02 7.42 14.763 11.09 37.07 18.039 63.991 19.933 14.475 1.018 22.327 1.015 38.365-.017 18.125-1.165 40.186-4.37 56.489-8.204 3.542-.833 3.392-.71 3.394-2.801.003-5.1 3.7-8.814 8.776-8.814 9.431 0 12.33 12.622 3.837 16.7-1.326.637-1.924.762-3.628.763-2.842 0-4.665-.718-6.512-2.565l-1.424-1.424-3.61.826c-17.162 3.927-38.163 7.044-55.073 8.174-17.377 1.162-23.837 1.285-33.734.64zm101.865-8.593c2.154-.595 4.363-3.526 4.363-5.79 0-2.95-3.109-6.086-6.033-6.086-2.436 0-5.275 2.28-5.857 4.705-.52 2.165-.022 3.79 1.68 5.485 1.842 1.834 3.538 2.323 5.847 1.686zM150.363 64.649c2.117-.71 6.672-3.827 6.672-4.566 0-.109-.815-1.14-1.81-2.292-.996-1.152-3.209-3.82-4.917-5.93-1.709-2.11-3.282-3.936-3.496-4.056-.55-.31-3.494 1.66-5.061 3.387-1.913 2.106-2.708 3.905-2.705 6.12.002 1.533.127 2.042.781 3.183.8 1.395 2.446 2.995 3.847 3.739 2.054 1.091 4.265 1.229 6.69.415zm-.98-21.931c1.638-1.203 2.813-2.691 3.453-4.376.426-1.12.46-1.506.212-2.424-.37-1.374-1.68-2.702-3.037-3.078-1.401-.39-1.92-.37-3.387.13-2.659.906-3.424 3.483-1.91 6.435 1.145 2.235 2.568 4.254 2.997 4.254.214 0 .967-.424 1.672-.941zM11.47 19.422c3.048-1.52 4.22-5.028 2.684-8.042-1.023-2.01-2.94-3.173-5.23-3.174-2.63-.002-4.463 1.213-5.59 3.703-.892 1.97-.592 4.097.831 5.895 1.81 2.285 4.687 2.923 7.305 1.618z" fill="#6cb31b"/></svg>