<svg width="517.411" height="101.907" viewBox="0 0 136.898 26.963" xmlns="http://www.w3.org/2000/svg"><title>UK Health Camp</title><path style="fill:#e5332a" d="M0 0h136.898v26.963H0z"/><path d="M13.865 12.105c1.023-.43 1.063-2.046.605-2.88-.605-1.13-2.14-.942-3.176-.646.283-.821.808-1.952 1.763-2.113.942-.162 1.871.417 2.679.807.726.337 2.018.767 2.543-.161.162-.39-.31-.714-.74-.983-.417-.269-.861-.525-1.319-.686 10.04-2.127 10.31 18.936-.31 15.935a12.141 12.141 0 0 1-2.22-.888c.996.08 2.059-.027 2.853-.673.686-.552 1.036-1.696-.08-1.965-1.01-.243-2.1.377-3.096.457-1.252.108-2.315.135-3.028-.848.551-.067.982-.215 1.197-.376.377-.27.74-.646.768-1.131.067-.929-.646-1.79-1.44-2.18-.364-.175-.808-.243-1.198-.135-.512.148-.66.592-1.023.929-.35.336-.673.578-1.158.673-.565.094-1.103-.175-1.547-.512-.243-.188-.444-.403-.646-.619.901.135 2.113.364 2.638-.66.43-.82-.081-1.749.376-2.57.58-1.063 2.046-.229 2.773.189.834.484 1.655 1.507 2.786 1.036zm4.697-1.548a.39.39 0 0 0-.39.39v1.535h-1.535a.39.39 0 0 0-.39.39v1.157c0 .216.175.39.39.39h1.535v1.535c0 .215.175.39.39.39h1.157a.39.39 0 0 0 .39-.39v-1.561h1.535a.39.39 0 0 0 .39-.39v-1.158a.39.39 0 0 0-.39-.39h-1.548v-1.521a.39.39 0 0 0-.39-.39h-1.144z" style="fill:#fff"/><path d="M34.242 18.98q-1.949 0-2.977-1.15-1.028-1.152-1.028-3.668V8.79h2.271v5.6q0 1.474.445 2.057t1.289.583q.844 0 1.304-.583.46-.583.46-2.056V8.79h2.18v5.37q0 2.517-1.013 3.668-.997 1.151-2.931 1.151zM39.974 18.796V8.791h2.256v4.097h.061l2.977-4.097h2.486l-3.023 3.99 3.576 6.015h-2.471l-2.44-4.22-1.166 1.534v2.686zM51.407 18.796V8.791h2.256v3.851h3.453V8.791h2.27v10.005h-2.27v-4.174h-3.453v4.174zM64.444 18.98q-.814 0-1.52-.26-.706-.277-1.227-.783-.522-.522-.814-1.259-.291-.736-.291-1.688 0-.92.307-1.657.307-.752.798-1.258.506-.522 1.15-.798.645-.277 1.336-.277.813 0 1.411.277.614.276 1.013.767.415.49.614 1.166.2.66.2 1.443 0 .307-.031.583-.03.276-.061.414H62.77q.153.829.675 1.228.537.383 1.304.383.814 0 1.642-.506l.752 1.366q-.583.399-1.304.629-.706.23-1.396.23Zm-1.688-4.818h2.746q0-.645-.291-1.044-.292-.399-.982-.399-.537 0-.952.353-.399.353-.521 1.09zM70.206 18.98q-.522 0-.951-.184-.415-.169-.706-.476-.292-.322-.46-.736-.154-.415-.154-.906 0-1.197 1.013-1.872t3.268-.905q-.03-.507-.306-.798-.261-.307-.89-.307-.492 0-.983.184-.475.184-1.028.506l-.813-1.488q.736-.445 1.534-.721.814-.277 1.72-.277 1.472 0 2.24.844.782.829.782 2.594v4.358h-1.841l-.154-.783h-.061q-.491.43-1.028.706-.537.261-1.182.261zm.767-1.75q.384 0 .66-.168.277-.169.583-.476v-1.335q-1.197.169-1.657.491-.46.322-.46.767 0 .369.23.553.245.169.644.169zM77.918 18.98q-.583 0-.982-.184-.4-.184-.645-.506-.23-.338-.338-.798-.107-.476-.107-1.06V8.04h2.256v8.486q0 .353.123.49.138.139.276.139h.123q.061 0 .153-.03l.276 1.672q-.184.077-.475.123-.277.061-.66.061zM82.637 18.98q-.706 0-1.213-.215-.49-.215-.813-.598-.307-.384-.46-.921-.138-.552-.138-1.212v-3.085h-1.044v-1.672l1.166-.093.261-2.025h1.872v2.025h1.827v1.765h-1.827v3.054q0 .645.261.936.277.276.722.276.184 0 .368-.046.2-.046.353-.107l.353 1.642q-.307.092-.721.184-.415.092-.967.092zM85.054 18.796V8.039h2.256v2.639l-.108 1.366q.43-.384.998-.706.568-.338 1.35-.338 1.243 0 1.796.814.568.813.568 2.255v4.727h-2.256v-4.435q0-.829-.23-1.136-.215-.306-.706-.306-.43 0-.737.199-.307.184-.675.537v5.141zM100.185 18.98q-.951 0-1.795-.322-.844-.338-1.489-.982-.629-.645-.997-1.596-.368-.967-.368-2.225 0-1.243.383-2.21.384-.982 1.028-1.658.645-.675 1.504-1.028.86-.353 1.811-.353.967 0 1.734.4.767.383 1.274.905l-1.197 1.442q-.384-.353-.813-.568-.415-.23-.952-.23-.506 0-.967.23-.445.215-.782.63-.323.414-.522 1.012-.184.599-.184 1.35 0 1.55.66 2.41.66.844 1.764.844.614 0 1.09-.26.491-.277.86-.676l1.196 1.412q-1.258 1.473-3.238 1.473zM106.148 18.98q-.522 0-.952-.184-.414-.169-.706-.476-.291-.322-.46-.736-.154-.415-.154-.906 0-1.197 1.013-1.872t3.269-.905q-.03-.507-.307-.798-.261-.307-.89-.307-.491 0-.982.184-.476.184-1.028.506l-.814-1.488q.737-.445 1.535-.721.813-.277 1.719-.277 1.473 0 2.24.844.783.829.783 2.594v4.358h-1.842l-.153-.783h-.062q-.49.43-1.028.706-.537.261-1.181.261zm.767-1.75q.383 0 .66-.168.276-.169.583-.476v-1.335q-1.197.169-1.658.491-.46.322-.46.767 0 .369.23.553.246.169.645.169zM111.787 18.796v-7.612h1.842l.153.983h.062q.475-.476 1.013-.814.537-.353 1.289-.353.813 0 1.304.338.506.322.798.936.506-.522 1.059-.89.568-.384 1.335-.384 1.228 0 1.795.829.583.813.583 2.24v4.727h-2.255v-4.435q0-.829-.23-1.136-.215-.306-.706-.306-.568 0-1.305.736v5.141h-2.256v-4.435q0-.829-.23-1.136-.215-.306-.706-.306-.583 0-1.289.736v5.141zM124.41 21.62V11.184h1.841l.153.752h.062q.445-.399.997-.66.568-.276 1.167-.276.69 0 1.243.277.552.276.936.782.383.507.583 1.228.215.706.215 1.58 0 .983-.277 1.75-.26.752-.72 1.289-.446.522-1.029.798-.568.276-1.182.276-.49 0-.951-.2-.46-.214-.86-.598l.077 1.212v2.226zm3.468-4.481q.583 0 .997-.522.414-.537.414-1.719 0-2.056-1.32-2.056-.66 0-1.304.69v3.116q.307.276.614.383.307.108.599.108z" style="fill:#fff"/></svg>