<?xml version="1.0" encoding="UTF-8" standalone="no"?>
<!-- Generator: Adobe Illustrator 18.0.0, SVG Export Plug-In . SVG Version: 6.00 Build 0)  -->

<svg
   xmlns:dc="http://purl.org/dc/elements/1.1/"
   xmlns:cc="http://creativecommons.org/ns#"
   xmlns:rdf="http://www.w3.org/1999/02/22-rdf-syntax-ns#"
   xmlns:svg="http://www.w3.org/2000/svg"
   xmlns="http://www.w3.org/2000/svg"
   xmlns:sodipodi="http://sodipodi.sourceforge.net/DTD/sodipodi-0.dtd"
   xmlns:inkscape="http://www.inkscape.org/namespaces/inkscape"
   version="1.1"
   id="Layer_1"
   x="0px"
   y="0px"
   viewBox="0 0 137.61254 121.70314"
   enable-background="new 0 0 841.9 659.7"
   xml:space="preserve"
   inkscape:version="0.91 r13725"
   sodipodi:docname="ukhealthcamp.svg"
   width="137.61255"
   height="121.70314"><metadata
     id="metadata9"><rdf:RDF><cc:Work
         rdf:about=""><dc:format>image/svg+xml</dc:format><dc:type
           rdf:resource="http://purl.org/dc/dcmitype/StillImage" /><dc:title></dc:title></cc:Work></rdf:RDF></metadata><defs
     id="defs7" /><sodipodi:namedview
     pagecolor="#ffffff"
     bordercolor="#666666"
     borderopacity="1"
     objecttolerance="10"
     gridtolerance="10"
     guidetolerance="10"
     inkscape:pageopacity="0"
     inkscape:pageshadow="2"
     inkscape:window-width="2054"
     inkscape:window-height="1317"
     id="namedview5"
     showgrid="false"
     fit-margin-top="0"
     fit-margin-left="0"
     fit-margin-right="0"
     fit-margin-bottom="0"
     inkscape:zoom="2.6036346"
     inkscape:cx="78.950005"
     inkscape:cy="5.2883228"
     inkscape:window-x="71"
     inkscape:window-y="0"
     inkscape:window-maximized="0"
     inkscape:current-layer="Layer_1" /><path
     d="m 63.699992,50.623114 c 7.6,-3.2 7.9,-15.2 4.5,-21.4 -4.5,-8.4 -15.9,-7 -23.6,-4.8 2.1,-6.1 6,-14.5000004 13.1,-15.7000004 7,-1.2 13.9,3.1000004 19.9,6.0000004 5.4,2.5 15,5.7 18.9,-1.2 1.2,-2.9 -2.3,-5.3000004 -5.5,-7.3000004 -3.1,-2 -6.4,-3.9 -9.8,-5.1 74.599998,-15.7999996 76.599998,140.6999964 -2.3,118.3999964 -5.7,-1.6 -11.2,-3.9 -16.5,-6.6 7.4,0.6 15.3,-0.2 21.2,-5 5.1,-4.1 7.7,-12.599996 -0.6,-14.599996 -7.5,-1.8 -15.6,2.8 -23,3.4 -9.3,0.8 -17.2,1 -22.5,-6.3 4.1,-0.5 7.3,-1.6 8.9,-2.8 2.8,-2 5.5,-4.8 5.7,-8.4 0.5,-6.9 -4.8,-13.3 -10.7,-16.2 -2.7,-1.3 -6,-1.8 -8.9,-1 -3.8,1.1 -4.9,4.4 -7.6,6.9 -2.6,2.5 -5,4.3 -8.6,5 -4.2,0.7 -8.1999996,-1.3 -11.4999996,-3.8 -1.8,-1.4 -3.3,-3 -4.8000000293945,-4.6 6.7000000293945,1 15.6999996293945,2.7 19.5999996293945,-4.9 3.2,-6.1 -0.6,-13 2.8,-19.1 4.3,-7.9 15.2,-1.7 20.6,1.4 6.2,3.6 12.3,11.2 20.7,7.7 z m 34.9,-11.5 c -1.6,0 -2.9,1.3 -2.9,2.9 l 0,11.4 -11.4,0 c -1.6,0 -2.9,1.3 -2.9,2.9 l 0,8.6 c 0,1.6 1.3,2.9 2.9,2.9 l 11.4,0 0,11.4 c 0,1.6 1.3,2.9 2.9,2.9 l 8.599998,0 c 1.6,0 2.9,-1.3 2.9,-2.9 l 0,-11.6 11.4,0 c 1.6,0 2.9,-1.3 2.9,-2.9 l 0,-8.6 c 0,-1.6 -1.3,-2.9 -2.9,-2.9 l -11.5,0 0,-11.3 c 0,-1.6 -1.3,-2.9 -2.9,-2.9 l -8.499998,0 z"
     id="path3"
     inkscape:connector-curvature="0"
     style="fill:#e53321;fill-opacity:1" /></svg>