<?xml version="1.0" encoding="UTF-8"?>
<!DOCTYPE svg PUBLIC "-//W3C//DTD SVG 1.1//EN" "http://www.w3.org/Graphics/SVG/1.1/DTD/svg11.dtd">
<svg version="1.1" xmlns="http://www.w3.org/2000/svg" xmlns:xlink="http://www.w3.org/1999/xlink" x="0" y="0" width="294.72" height="121.44" viewBox="0, 0, 294.72, 121.44">
  <g id="Fill_Image"/>
  <g id="LOGO">
    <g>
      <path d="M241.987,73.541 C240.728,75.758 239.012,77.491 236.84,78.739 C234.667,79.988 232.272,80.613 229.655,80.613 C225.803,80.613 222.515,79.236 219.792,76.481 C217.067,73.728 215.706,70.381 215.706,66.443 C215.706,62.226 217.245,58.71 220.322,55.897 C223.021,53.449 226.125,52.225 229.631,52.225 C232.165,52.225 234.548,52.862 236.778,54.135 C239.008,55.41 240.748,57.138 242,59.322 C243.25,61.506 243.876,63.863 243.876,66.395 C243.876,68.941 243.246,71.324 241.987,73.541 M212.64,80.641 L205.68,80.641 L205.68,78.615 C205.612,78.656 205.549,78.7 205.479,78.739 C203.306,79.988 200.912,80.613 198.295,80.613 C194.443,80.613 191.156,79.236 188.431,76.481 C185.708,73.728 184.345,70.381 184.345,66.443 C184.345,62.226 185.884,58.71 188.963,55.897 C191.662,53.449 194.764,52.225 198.27,52.225 C200.804,52.225 203.187,52.862 205.418,54.135 C205.508,54.187 205.591,54.244 205.68,54.296 L205.68,40.561 L212.64,40.561 z M243.236,33.806 C235.311,25.993 225.753,22.084 214.559,22.084 C203.362,22.084 193.803,25.993 185.883,33.806 C177.96,41.624 174,51.111 174,62.273 C174,73.44 177.96,82.972 185.883,90.87 C193.803,98.768 203.362,102.721 214.559,102.721 C225.753,102.721 235.311,98.768 243.236,90.87 C251.155,82.972 255.119,73.44 255.119,62.273 C255.119,51.111 251.155,41.624 243.236,33.806" fill="#2ECEA6"/>
      <path d="M140.04,52.32 L131.64,52.32 L120.36,64.56 L120.36,40.56 L113.64,40.56 L113.64,80.64 L120.36,80.64 L120.36,67.92 L132.12,80.64 L140.52,80.64 L127.18,66.339 z M75.56,54.088 C73.774,52.788 71.436,52.138 68.543,52.138 C65.877,52.138 63.68,52.695 61.951,53.808 C61.349,54.195 60.8,54.646 60.3,55.151 C59.922,54.765 59.512,54.411 59.069,54.088 C57.284,52.788 54.945,52.138 52.052,52.138 C49.386,52.138 47.189,52.695 45.46,53.808 C43.731,54.921 42.423,56.517 41.534,58.598 C40.807,60.304 40.443,63.473 40.443,68.104 L40.44,80.64 L46.92,80.64 L46.92,66.239 C46.92,63.737 47.198,62.213 47.473,61.449 C47.845,60.426 48.416,59.65 49.186,59.122 C49.955,58.593 50.891,58.329 51.992,58.329 C53.093,58.329 54.02,58.598 54.774,59.134 C55.527,59.67 56.074,60.422 56.414,61.389 C56.754,62.356 57,63.993 57,66.48 L57,80.64 L63.48,80.64 L63.48,68.4 C63.48,67.3 63.515,66.202 63.48,65.279 C63.516,63.384 63.73,62.097 63.964,61.449 C64.336,60.426 64.907,59.65 65.677,59.122 C66.446,58.593 67.381,58.329 68.482,58.329 C69.584,58.329 70.512,58.598 71.265,59.134 C72.018,59.67 72.565,60.422 72.905,61.389 C73.245,62.356 73.56,63.993 73.56,66.48 L73.56,80.64 L80.04,80.64 L80.04,68.4 C80.04,64.158 79.846,61.133 79.329,59.524 C78.601,57.2 77.345,55.388 75.56,54.088 M165.654,66.455 C165.654,63.924 165.028,61.567 163.778,59.382 C162.527,57.198 160.786,55.47 158.556,54.196 C156.325,52.923 153.943,52.285 151.409,52.285 C147.903,52.285 144.8,53.51 142.101,55.958 C139.022,58.771 137.484,62.285 137.484,66.504 C137.484,70.442 138.846,73.787 141.57,76.542 C144.293,79.297 147.582,80.674 151.433,80.674 C154.05,80.674 156.445,80.049 158.618,78.801 C160.44,77.753 161.937,76.36 163.117,74.631 L156.917,71.989 C156.866,72.047 156.816,72.106 156.762,72.162 C155.361,73.635 153.605,74.371 151.495,74.371 C149.384,74.371 147.641,73.643 146.264,72.187 C145.41,71.284 144.684,70.127 144.36,68.88 L165.48,68.88 C165.622,68.063 165.654,67.31 165.654,66.455 M103.494,54.134 C101.264,52.861 98.881,52.224 96.347,52.224 C92.841,52.224 89.738,53.448 87.039,55.897 C83.961,58.709 82.422,62.225 82.422,66.443 C82.422,70.38 83.784,73.727 86.508,76.481 C89.232,79.236 92.52,80.612 96.372,80.612 C98.988,80.612 101.383,79.987 103.556,78.738 C103.673,78.672 103.925,78.55 104.04,78.48 L104.04,80.64 L110.52,80.64 L110.52,66 C110.52,66 110.815,63.285 108.716,59.321 C107.538,57.097 105.724,55.409 103.494,54.134" fill="#5F5A58"/>
    </g>
  </g>
</svg>
