<svg viewBox="0 0 148.7 32.2" xmlns="http://www.w3.org/2000/svg"><title>Healthforge</title><path d="M38.9 23.5V7.3h2v6.6c.5-.5 1-.9 1.6-1.2s1.2-.5 2-.5c.6 0 1.1.1 1.6.3s.9.5 1.2.9.5.8.7 1.3.2 1.1.2 1.7v7.1h-2v-7.1c0-.8-.2-1.5-.6-2s-1-.7-1.8-.7c-.6 0-1.1.1-1.6.4s-1 .7-1.4 1.1v8.2h-1.9zM55.6 12.2c.7 0 1.3.1 1.8.3.6.2 1.1.5 1.5 1 .4.4.7.9 1 1.6.2.6.3 1.3.3 2.1 0 .3 0 .5-.1.6s-.2.2-.4.2h-7.4c0 .7.1 1.3.3 1.8s.4 1 .7 1.3.7.6 1.1.8.9.3 1.4.3.9-.1 1.3-.2.7-.2.9-.4.5-.3.6-.4c.2-.1.3-.2.4-.2.2 0 .3.1.4.2l.6.7c-.2.3-.5.5-.9.8-.3.2-.7.4-1.1.5l-1.2.3c-.4.1-.8.1-1.2.1-.8 0-1.5-.1-2.1-.4s-1.2-.6-1.7-1.1-.8-1.1-1.1-1.9c-.3-.7-.4-1.6-.4-2.6 0-.8.1-1.5.4-2.2s.6-1.3 1-1.8 1-.9 1.6-1.2c.7-.1 1.5-.2 2.3-.2zm0 1.4c-.9 0-1.7.3-2.2.8s-.9 1.3-1 2.3h6.1c0-.5-.1-.9-.2-1.2-.1-.4-.3-.7-.5-1s-.5-.5-.9-.6-.8-.3-1.3-.3zM70.9 23.5H70c-.2 0-.3 0-.5-.1s-.2-.2-.2-.4l-.2-1c-.3.3-.6.5-.9.7s-.6.4-.9.5-.6.3-1 .3c-.3.1-.7.1-1.2.1-.4 0-.8-.1-1.2-.2s-.7-.3-1-.5-.5-.5-.7-.9-.2-.8-.2-1.3c0-.4.1-.9.4-1.3.2-.4.6-.8 1.2-1.1s1.2-.6 2.1-.8 1.9-.3 3.2-.3v-.9c0-.9-.2-1.5-.6-2-.4-.4-.9-.7-1.6-.7-.5 0-.9.1-1.2.2s-.6.3-.8.4c-.2.2-.4.3-.6.4s-.3.2-.5.2c-.1 0-.2 0-.3-.1s-.2-.2-.2-.3l-.4-.6c.6-.6 1.3-1 2-1.3s1.5-.4 2.4-.4c.6 0 1.2.1 1.7.3s.9.5 1.2.9.6.8.7 1.3c.2.5.3 1.1.3 1.7v7.2zm-5.1-1.2c.3 0 .7 0 .9-.1.3-.1.6-.2.8-.3.3-.1.5-.3.7-.5s.5-.4.7-.6v-2.3c-.9 0-1.7.1-2.3.2s-1.1.3-1.5.4c-.4.2-.7.4-.9.7s-.3.5-.3.8 0 .5.1.8c.1.2.2.4.4.5l.6.3c.3.1.5.1.8.1zM76 7.3v16.2h-2V7.3zM82.9 23.7c-.9 0-1.6-.2-2-.7-.5-.5-.7-1.2-.7-2.1v-6.8h-1.3c-.1 0-.2 0-.3-.1s-.1-.2-.1-.3v-.8l1.8-.2.5-3.4c0-.1.1-.2.1-.3.1-.1.2-.1.3-.1h1v3.7h3.2V14h-3.2v6.7c0 .5.1.8.3 1s.5.3.9.3c.2 0 .4 0 .5-.1.2-.1.3-.1.4-.2s.2-.1.3-.2c0 .1 0 .1.1.1s.2.1.3.2l.6.9c-.3.3-.7.6-1.2.7-.5.2-1 .3-1.5.3zM87.7 23.5V7.3h2v6.6c.5-.5 1-.9 1.6-1.2s1.2-.5 2-.5c.6 0 1.1.1 1.6.3s.9.5 1.2.9.5.8.7 1.3.2 1.1.2 1.7v7.1h-2v-7.1c0-.8-.2-1.5-.6-2s-1-.7-1.8-.7c-.6 0-1.1.1-1.6.4s-1 .7-1.4 1.1v8.2h-1.9zM100.4 23.5V14l-1.2-.1c-.2 0-.3-.1-.4-.2s-.1-.2-.1-.3v-.8h1.8v-1.1c0-.6.1-1.2.3-1.7s.4-.9.8-1.3c.3-.3.7-.6 1.2-.8s1-.3 1.6-.3c.5 0 1 .1 1.4.2v1c0 .1-.1.2-.2.3s-.3 0-.5 0h-.3c-.3 0-.6 0-.9.1s-.5.2-.7.4-.3.5-.5.8c-.1.3-.2.7-.2 1.2v1h3.2v1.4h-3.2v9.5h-2.1zM111.8 12.2c.8 0 1.5.1 2.2.4s1.2.7 1.7 1.2.8 1.1 1.1 1.8c.2.7.4 1.5.4 2.4s-.1 1.7-.4 2.4c-.2.7-.6 1.3-1.1 1.8s-1 .9-1.7 1.2-1.4.4-2.2.4-1.5-.1-2.2-.4-1.2-.7-1.7-1.2-.8-1.1-1.1-1.8-.4-1.5-.4-2.4.1-1.7.4-2.4c.2-.7.6-1.3 1.1-1.8s1-.9 1.7-1.2 1.4-.4 2.2-.4zm0 10c1.1 0 1.9-.4 2.5-1.1.5-.7.8-1.8.8-3.1s-.3-2.4-.8-3.1-1.4-1.1-2.5-1.1c-.6 0-1 .1-1.5.3-.4.2-.8.5-1 .8-.3.4-.5.8-.6 1.3s-.2 1.1-.2 1.8.1 1.3.2 1.8.3 1 .6 1.3c.3.4.6.6 1 .8.5.2 1 .3 1.5.3zM119.6 23.5V12.4h1.1c.2 0 .4 0 .4.1.1.1.1.2.2.4l.1 1.7c.4-.8.9-1.4 1.4-1.8.6-.4 1.2-.7 2-.7.3 0 .6 0 .8.1s.5.2.7.3L126 14c-.1.2-.2.3-.3.3s-.3 0-.5-.1-.5-.1-.9-.1c-.7 0-1.3.2-1.7.6-.5.4-.8 1-1.1 1.7v7.1zM132.2 12.2c.5 0 .9.1 1.4.2.4.1.8.3 1.2.5h3v.7c0 .2-.2.4-.5.5l-1.3.2c.2.5.4 1 .4 1.6 0 .5-.1 1-.3 1.5-.2.4-.5.8-.9 1.1s-.8.6-1.3.7c-.5.2-1.1.3-1.7.3-.5 0-1-.1-1.5-.2-.2.2-.4.3-.5.5s-.2.3-.2.5c0 .3.1.5.3.6s.5.2.8.3c.4.1.8.1 1.2.1h1.4c.5 0 .9 0 1.4.1.4.1.8.2 1.2.4s.6.4.8.8c.2.3.3.8.3 1.3s-.1 1-.4 1.4c-.2.5-.6.9-1 1.2s-1 .6-1.6.8-1.4.3-2.2.3-1.5-.1-2.1-.2c-.6-.2-1.1-.4-1.5-.6s-.7-.6-.9-.9c-.2-.4-.3-.7-.3-1.1 0-.5.2-1 .5-1.4s.8-.7 1.4-.9c-.3-.1-.6-.3-.8-.6-.2-.2-.3-.6-.3-1 0-.2 0-.3.1-.5s.1-.3.3-.5c.1-.2.3-.3.4-.5.2-.2.4-.3.6-.4-.5-.3-1-.7-1.3-1.2s-.5-1.1-.5-1.8c0-.5.1-1 .3-1.5.2-.4.5-.8.9-1.1s.8-.6 1.3-.7 1.3-.5 1.9-.5zm3.5 11.9c0-.3-.1-.5-.2-.7-.2-.2-.4-.3-.6-.4-.3-.1-.6-.2-.9-.2s-.7-.1-1.1-.1h-1.2c-.4 0-.8 0-1.1-.1-.4.2-.8.4-1 .7-.3.3-.4.6-.4 1 0 .2.1.5.2.7s.3.4.6.6.6.3 1 .4.9.1 1.4.1 1 0 1.4-.1.8-.2 1.1-.4.5-.4.7-.6c0-.3.1-.6.1-.9zm-3.5-6c.4 0 .7-.1 1.1-.2.3-.1.6-.3.8-.5s.4-.4.5-.7.2-.6.2-.9c0-.7-.2-1.2-.6-1.6s-1-.6-1.8-.6-1.4.2-1.8.6-.6.9-.6 1.6c0 .3.1.6.2.9s.3.5.5.7.5.4.8.5c-.1.1.3.2.7.2zM144.1 12.2c.7 0 1.3.1 1.8.3s1.1.5 1.5 1 .7.9 1 1.6c.2.6.3 1.3.3 2.1 0 .3 0 .5-.1.6s-.2.2-.4.2h-7.4c0 .7.1 1.3.3 1.8s.4 1 .7 1.3.7.6 1.1.8.9.3 1.4.3.9-.1 1.3-.2.7-.2.9-.4.5-.3.6-.4c.2-.1.3-.2.4-.2.2 0 .3.1.4.2l.5.7c-.2.3-.5.5-.9.8-.3.2-.7.4-1.1.5l-1.2.3c-.4.1-.8.1-1.2.1-.8 0-1.5-.1-2.1-.4s-1.2-.6-1.7-1.1-.8-1.1-1.1-1.9c-.3-.7-.4-1.6-.4-2.6 0-.8.1-1.5.4-2.2s.6-1.3 1-1.8 1-.9 1.6-1.2c.8-.1 1.6-.2 2.4-.2zm0 1.4c-.9 0-1.7.3-2.2.8s-.9 1.3-1 2.3h6.1c0-.5-.1-.9-.2-1.2-.1-.4-.3-.7-.5-1s-.5-.5-.9-.6c-.4-.2-.8-.3-1.3-.3z"/><path d="M32.1 16.1c0 8.9-7.2 16.1-16.1 16.1S0 25 0 16.1 7.2 0 16 0s16.1 7.2 16.1 16.1z" fill="#286ea9"/><path d="M19.6 16.2l-.1.1c-1.4.7-2.3 2.2-2.3 3.9v2.4c0 1.6-1.2 2.8-2.6 2.8S12 24.1 12 22.6v-5.5c2.7-.3 4.8-2.6 4.8-5.4V6.9c0-.4-.3-.7-.7-.7h-1.7c-.4 0-.7.3-.7.7s.3.7.7.7h1v4.1c0 2.2-1.8 4-4 4s-4-1.8-4-4V7.6h1.1c.4 0 .7-.3.7-.7s-.3-.7-.7-.7H6.7c-.4 0-.7.3-.7.7v4.8c0 2.6 2 4.9 4.6 5.3v5.6c0 2.4 1.8 4.3 4 4.3s4-1.9 4-4.3v-2.5c0-1.2.7-2.3 1.8-2.7l.3-.1z" fill="#fff"/><path d="M26.5 16.6l.6-1.1h1.8c-.4-.7-1.1-1.1-1.9-1.1s-1.5.4-1.9 1.1v.4h-4.5l1.4 1.4h3.1v.5c.4.7 1.1 1.1 1.9 1.1s1.6-.5 1.9-1.1h-1.8z" fill="#8dbae4"/></svg>