<svg xmlns="http://www.w3.org/2000/svg" viewBox="0 0 118 50"><defs><path id="a" d="M.092 45.866h7.775V.15H.092z"/><path id="b" d="M.033 45.866h7.775V.15H.033z"/><path id="c" d="M0 49.923h118V0H0z"/><path id="d" d="M0 49.923h118V0H0z"/><path id="e" d="M0 49.923h118V0H0z"/><path id="f" d="M0 49.923h118V0H0z"/><path id="g" d="M0 49.923h118V0H0z"/><path id="h" d="M0 49.923h118V0H0z"/><path id="i" d="M0 49.923h118V0H0z"/><path id="j" d="M0 49.923h118V0H0z"/></defs><g fill="none" fill-rule="evenodd"><path d="M118 8.097a3.89 3.89 0 0 0-3.887-3.89 3.889 3.889 0 0 0-3.888 3.89v37.936a3.89 3.89 0 0 0 3.888 3.89 3.89 3.89 0 0 0 3.886-3.89V8.097zM106.338 8.097a3.888 3.888 0 1 0-7.775 0v37.936c0 2.148 1.74 3.89 3.888 3.89a3.889 3.889 0 0 0 3.887-3.89V8.097z" fill="#15AA99"/><path d="M87.848 38.92c-.804 0-1.713.41-2.4 1.146-1.695 1.839-4.319 3.037-7.015 3.037-4.44 0-8.387-3.31-9.355-7.533h-3.365c-1.95 0-3.53-1.449-3.53-3.4 0-.107.006-.212.016-.317h-.002c-.06.568-.092 1.144-.092 1.728 0 9.025 7.31 16.342 16.328 16.342 4.75 0 9.026-2.03 12.01-5.272a3.52 3.52 0 0 0 .935-2.398c0-1.951-1.58-3.334-3.53-3.334m-9.415-21.68c-8.382 0-15.286 6.321-16.219 14.46h.002c.23-1.721 1.708-3.017 3.497-3.017h4.552c1.715-2.812 4.8-4.79 8.168-4.79 3.358 0 6.477 1.992 8.208 4.79h4.506c1.949 0 3.53 1.537 3.53 3.489 0-.137-.007-.316-.022-.448-.923-8.15-7.833-14.484-16.222-14.484" fill="#7FBA2A"/><path d="M86.641 28.682H70.265c-.892 1.46-1.413 3.147-1.413 4.899 0 .679.078 1.345.226 1.99h22.068c-1.811 0-2.943-1.279-3.146-3.038-.153-1.367-.634-2.679-1.359-3.851" fill="#7FBA2A"/><path d="M91.146 28.682h-4.505c.725 1.172 1.206 2.484 1.36 3.851.201 1.76 1.334 3.037 3.145 3.037a3.6 3.6 0 0 0 .255-.008h.001a3.79 3.79 0 0 0 .286-.03l.023-.003a3.62 3.62 0 0 0 1.075-.333.361.361 0 0 0 .024-.011l.006-.004a3.33 3.33 0 0 0 1.86-3.01c0-1.951-1.58-3.489-3.53-3.489m-20.881 0h-4.552c-1.95 0-3.53 1.538-3.53 3.489 0 1.95 1.58 3.4 3.53 3.4h3.365a8.877 8.877 0 0 1-.226-1.99c0-1.752.521-3.438 1.413-4.899" fill="#009A3A"/><path d="M16.326 6.449h-3.002v6.888h3.002c1.9 0 3.44-1.542 3.44-3.444a3.442 3.442 0 0 0-3.44-3.444m-9.883 0H3.44C1.54 6.449 0 7.99 0 9.893a3.443 3.443 0 0 0 3.44 3.444h3.003V6.45" fill="#15AA99"/><path d="M9.884 0a3.443 3.443 0 0 0-3.441 3.444v3.004h6.881V3.444A3.443 3.443 0 0 0 9.884 0m3.44 13.337H6.443v3.004a3.443 3.443 0 0 0 3.44 3.444c1.9 0 3.441-1.542 3.441-3.444v-3.004" fill="#7FBA2A"/><path fill="#009A3A" d="M6.443 13.337h6.882V6.449H6.443z"/><path d="M26.49 44.7l.002-.006 3.651-10.043-5.399-14.85a3.89 3.89 0 0 0-3.654-2.562 3.892 3.892 0 0 0-3.654 5.224l9.05 24.893.002.006.017.037a3.876 3.876 0 0 1-.016-2.7M35.546 22.463a3.88 3.88 0 0 1-.002-2.661l-5.4 14.85 3.65 10.042.002.005a3.88 3.88 0 0 1-.048 2.785c.016-.041.033-.081.048-.123l.003-.006 5.4-14.845-3.653-10.047z" fill="#0080A4"/><path d="M30.143 34.651l-3.652 10.042-.002.006a3.894 3.894 0 0 0 1.716 4.706l.002.001.003.002a3.894 3.894 0 0 0 2.969.374l.002-.001.003-.001c.097-.027.193-.058.288-.092l.083-.031c.002-.002.004-.002.007-.003a3.895 3.895 0 0 0 2.235-4.954l-.003-.006-3.65-10.043" fill="#005571"/><path d="M44.599 44.7l.002-.006 3.652-10.043-5.4-14.85c-.01-.03-.024-.058-.035-.087.334.851.37 1.823.033 2.75h.001L39.198 32.51l5.397 14.846.003.006.03.072a3.877 3.877 0 0 1-.03-2.735" fill="#00A9D5"/><path d="M39.199 17.24c-.961 0-1.887.359-2.595.993a3.894 3.894 0 0 0-1.058 4.23l3.653 10.048 3.653-10.047a3.893 3.893 0 0 0-3.653-5.224" fill="#005571"/><path d="M58.637 17.476a3.89 3.89 0 0 0-4.983 2.326l-5.401 14.85 3.65 10.042.002.006c.342.94.298 1.927-.05 2.788.017-.042.035-.084.05-.127l.002-.006h.001l9.053-24.89a3.893 3.893 0 0 0-2.324-4.99" fill="#00A9D5"/><path d="M48.253 34.651L44.6 44.693h.001l-.003.006a3.896 3.896 0 0 0 2.325 4.989 3.877 3.877 0 0 0 2.365.094l.003-.001h.003c.096-.028.192-.059.287-.093l.083-.031.007-.003a3.907 3.907 0 0 0 1.195-.741 3.896 3.896 0 0 0 1.04-4.214l-.003-.005-3.65-10.043" fill="#0085B0"/></g></svg>