<svg xmlns="http://www.w3.org/2000/svg" viewBox="0 0 490.8 102.4"><title>Valtech</title><path d="M52.526 26.027L36.959 80.86h-.28L21.507 26.027H0l26.337 74.417h20.266l26.472-74.417h-20.55zm84.536 59.868V45.603c0-18.322-18.899-21.532-29.233-21.532-15.029 0-30.604 3.21-32.81 26.013h18.615c.546-4.341 2.202-10.351 11.854-10.351 4.958 0 12.68.42 12.68 8.67 0 4.197-3.717 5.455-6.753 5.879L94.05 56.937c-12.282 1.817-21.376 9.238-21.376 23.778 0 15.387 11.308 21.685 22.34 21.685 13.095 0 19.31-6.154 23.713-10.77.415 4.197.695 5.315 1.795 8.814h20.82v-2.94c-2.349-.834-4.28-2.795-4.28-11.609zm-18.899-12.168c0 9.089-8.679 14.684-17.226 14.684-3.726 0-8.963-2.097-8.963-8.95 0-8.11 5.932-9.932 13.1-11.194 7.996-1.253 11.158-2.516 13.089-4.057v9.517zm30.478 26.716h19.31V0h-19.31zM204.63 5.88h-19.302v20.148h-9.927v13.985h9.927v45.184c0 9.648 3.027 16.082 19.716 16.082h2.481c3.036 0 6.067-.136 9.098-.28V86.174c-1.38.14-2.752.275-3.992.275-7.866 0-7.997-1.672-7.997-6.01V40.012h11.989V26.027h-11.99V5.879zm53.634 18.191c-32.124 0-35.16 28.665-35.16 37.62 0 30.638 15.855 40.706 36.545 40.706 12.543 0 27.162-5.87 32.26-23.773h-19.86c-1.516 5.31-7.028 8.11-12.4 8.11-15.584 0-16.69-12.591-17.244-18.186h50.324v-3.495c0-33.989-19.986-40.981-34.465-40.981zM242.961 55.82c1.105-9.788 5.931-15.667 15.033-15.667 6.203 0 13.785 3.639 14.885 15.667h-29.918zm90.035-15.243h.974c8.276 0 11.033 7.268 11.858 12.024h19.576c-1.79-23.219-20.82-28.534-32.408-28.534-24.809 0-35.151 17.209-35.151 41.266 0 15.662 6.342 37.068 33.92 37.068 26.887 0 32.81-21.401 33.504-29.093h-19.576c0 3.494-3.307 13.012-13.099 13.012-14.619 0-14.898-16.09-14.898-24.202-.004-9.233 3.17-21.541 15.3-21.541zm81.772-16.506c-10.478 0-18.755 5.451-21.232 11.6h-.28V0h-19.3v100.443h19.3V57.78c0-11.33 6.622-17.204 15.165-17.204 12.273 0 12.548 9.228 12.548 14.684v45.183h19.306V48.966c.004-16.366-11.168-24.896-25.508-24.896zm37.5 62.384v13.99h38.615v-13.99z"/></svg>