<?xml version="1.0" encoding="utf-8"?>
<!-- Generator: Adobe Illustrator 16.0.0, SVG Export Plug-In . SVG Version: 6.00 Build 0)  -->
<!DOCTYPE svg PUBLIC "-//W3C//DTD SVG 1.1//EN" "http://www.w3.org/Graphics/SVG/1.1/DTD/svg11.dtd">
<svg version="1.1" id="LOGO_1_" xmlns="http://www.w3.org/2000/svg" xmlns:xlink="http://www.w3.org/1999/xlink" x="0px" y="0px"
	 width="294.72px" height="121.44px" viewBox="0 0 294.72 121.44" enable-background="new 0 0 294.72 121.44" xml:space="preserve">
<g id="_x2E_">
	<g>
		<path fill="#FFFFFF" d="M243.236,33.806c-7.925-7.813-17.483-11.722-28.677-11.722c-11.197,0-20.756,3.909-28.676,11.722
			C177.959,41.623,174,51.111,174,62.273c0,11.167,3.96,20.698,11.884,28.597c7.92,7.897,17.479,11.851,28.676,11.851
			c11.193,0,20.752-3.953,28.677-11.851c7.919-7.898,11.883-17.43,11.883-28.597C255.119,51.111,251.155,41.623,243.236,33.806z
			 M212.64,80.64h-6.96v-2.025c-0.068,0.041-0.132,0.085-0.201,0.124c-2.173,1.249-4.567,1.874-7.185,1.874
			c-3.852,0-7.139-1.377-9.863-4.132c-2.724-2.754-4.086-6.101-4.086-10.038c0-4.218,1.539-7.733,4.617-10.546
			c2.699-2.448,5.802-3.673,9.308-3.673c2.534,0,4.917,0.637,7.147,1.911c0.09,0.052,0.174,0.108,0.263,0.161V40.56h6.96V80.64z
			 M241.987,73.541c-1.259,2.217-2.975,3.95-5.147,5.198c-2.173,1.249-4.567,1.874-7.185,1.874c-3.852,0-7.14-1.377-9.863-4.132
			c-2.725-2.754-4.086-6.101-4.086-10.038c0-4.218,1.539-7.733,4.616-10.546c2.699-2.448,5.803-3.673,9.309-3.673
			c2.534,0,4.917,0.637,7.147,1.911c2.229,1.274,3.97,3.003,5.222,5.187c1.25,2.184,1.876,4.542,1.876,7.073
			C243.875,68.941,243.246,71.324,241.987,73.541z"/>
	</g>
</g>
<g id="make">
	<g>
		<path fill="#FFFFFF" d="M103.134,54.135c-2.23-1.273-4.613-1.911-7.147-1.911c-3.505,0-6.608,1.225-9.308,3.673
			c-3.078,2.812-4.617,6.328-4.617,10.546c0,3.938,1.362,7.284,4.086,10.038c2.724,2.755,6.012,4.132,9.863,4.132
			c2.617,0,5.012-0.625,7.185-1.874c0.117-0.066,0.37-0.188,0.484-0.259v2.16h6.48V66c0,0,0.295-2.715-1.804-6.679
			C107.178,57.098,105.364,55.409,103.134,54.135z M166.734,66.456c0-2.531-0.626-4.889-1.876-7.073
			c-1.251-2.184-2.992-3.913-5.223-5.187c-2.23-1.273-4.612-1.911-7.146-1.911c-3.506,0-6.609,1.225-9.308,3.672
			c-3.078,2.813-4.617,6.328-4.617,10.546c0,3.938,1.361,7.283,4.086,10.038c2.724,2.755,6.012,4.132,9.863,4.132
			c2.617,0,5.012-0.625,7.185-1.873c1.822-1.048,3.319-2.441,4.499-4.17l-6.199-2.642c-0.052,0.058-0.102,0.116-0.155,0.173
			c-1.401,1.473-3.157,2.209-5.268,2.209s-3.854-0.729-5.23-2.185c-0.854-0.902-1.58-2.06-1.904-3.307h21.12
			C166.702,68.063,166.734,67.31,166.734,66.456z M75.2,54.088c-1.785-1.3-4.124-1.95-7.017-1.95c-2.666,0-4.863,0.557-6.592,1.67
			c-0.602,0.388-1.15,0.838-1.65,1.343c-0.378-0.386-0.789-0.74-1.231-1.063c-1.785-1.3-4.124-1.95-7.017-1.95
			c-2.666,0-4.863,0.557-6.592,1.67c-1.729,1.113-3.038,2.709-3.926,4.79c-0.727,1.706-1.091,4.875-1.091,9.506L40.08,80.64h6.48
			v-14.4c0-2.502,0.277-4.026,0.553-4.79c0.373-1.023,0.943-1.8,1.713-2.328c0.77-0.528,1.705-0.792,2.806-0.792
			c1.102,0,2.029,0.269,2.782,0.805c0.753,0.536,1.3,1.288,1.64,2.255c0.34,0.967,0.586,2.604,0.586,5.091v14.16h6.48V68.4
			c0-1.1,0.035-2.197,0-3.12c0.036-1.896,0.251-3.183,0.484-3.83c0.373-1.023,0.943-1.8,1.713-2.328
			c0.769-0.528,1.705-0.792,2.806-0.792s2.029,0.269,2.782,0.805s1.3,1.288,1.64,2.255c0.34,0.967,0.655,2.604,0.655,5.091v14.16
			h6.48V68.4c0-4.241-0.194-7.267-0.711-8.875C78.241,57.2,76.985,55.388,75.2,54.088z M139.68,52.32h-8.4L120,64.56v-24h-6.72
			v40.08H120V67.92l11.76,12.72h8.4L126.82,66.339L139.68,52.32z"/>
	</g>
</g>
</svg>
