<svg xmlns="http://www.w3.org/2000/svg" viewBox="30 10 234.72 101.44"><title>Make Do</title><path fill="#2CC795" d="M243.236 33.806c-7.925-7.813-17.483-11.722-28.677-11.722-11.197 0-20.756 3.909-28.676 11.722C177.959 41.623 174 51.111 174 62.273c0 11.167 3.96 20.698 11.884 28.597 7.92 7.897 17.479 11.851 28.676 11.851 11.193 0 20.752-3.953 28.677-11.851 7.919-7.898 11.883-17.43 11.883-28.597-.001-11.162-3.965-20.65-11.884-28.467zM212.64 80.64h-6.96v-2.025c-.068.041-.132.085-.201.124-2.173 1.249-4.567 1.874-7.185 1.874-3.852 0-7.139-1.377-9.863-4.132-2.724-2.754-4.086-6.101-4.086-10.038 0-4.218 1.539-7.733 4.617-10.546 2.699-2.448 5.802-3.673 9.308-3.673 2.534 0 4.917.637 7.147 1.911.09.052.174.108.263.161V40.56h6.96v40.08zm29.347-7.099c-1.259 2.217-2.975 3.95-5.147 5.198-2.173 1.249-4.567 1.874-7.185 1.874-3.852 0-7.14-1.377-9.863-4.132-2.725-2.754-4.086-6.101-4.086-10.038 0-4.218 1.539-7.733 4.616-10.546 2.699-2.448 5.803-3.673 9.309-3.673 2.534 0 4.917.637 7.147 1.911 2.229 1.274 3.97 3.003 5.222 5.187a14.003 14.003 0 0 1 1.876 7.073 14.25 14.25 0 0 1-1.889 7.146z"/><path fill="#4C4846" d="M103.134 54.135c-2.23-1.273-4.613-1.911-7.147-1.911-3.505 0-6.608 1.225-9.308 3.673-3.078 2.812-4.617 6.328-4.617 10.546 0 3.938 1.362 7.284 4.086 10.038 2.724 2.755 6.012 4.132 9.863 4.132 2.617 0 5.012-.625 7.185-1.874.117-.066.37-.188.484-.259v2.16h6.48V66s.295-2.715-1.804-6.679c-1.178-2.223-2.992-3.912-5.222-5.186zm63.6 12.321c0-2.531-.626-4.889-1.876-7.073-1.251-2.184-2.992-3.913-5.223-5.187-2.23-1.273-4.612-1.911-7.146-1.911-3.506 0-6.609 1.225-9.308 3.672-3.078 2.813-4.617 6.328-4.617 10.546 0 3.938 1.361 7.283 4.086 10.038 2.724 2.755 6.012 4.132 9.863 4.132 2.617 0 5.012-.625 7.185-1.873a13.578 13.578 0 0 0 4.499-4.17l-6.199-2.642c-.052.058-.102.116-.155.173-1.401 1.473-3.157 2.209-5.268 2.209s-3.854-.729-5.23-2.185c-.854-.902-1.58-2.06-1.904-3.307h21.12c.141-.815.173-1.568.173-2.422zM75.2 54.088c-1.785-1.3-4.124-1.95-7.017-1.95-2.666 0-4.863.557-6.592 1.67a9.755 9.755 0 0 0-1.65 1.343 9.868 9.868 0 0 0-1.231-1.063c-1.785-1.3-4.124-1.95-7.017-1.95-2.666 0-4.863.557-6.592 1.67-1.729 1.113-3.038 2.709-3.926 4.79-.727 1.706-1.091 4.875-1.091 9.506L40.08 80.64h6.48v-14.4c0-2.502.277-4.026.553-4.79.373-1.023.943-1.8 1.713-2.328.77-.528 1.705-.792 2.806-.792 1.102 0 2.029.269 2.782.805.753.536 1.3 1.288 1.64 2.255.34.967.586 2.604.586 5.091v14.16h6.48V68.4c0-1.1.035-2.197 0-3.12.036-1.896.251-3.183.484-3.83.373-1.023.943-1.8 1.713-2.328.769-.528 1.705-.792 2.806-.792s2.029.269 2.782.805 1.3 1.288 1.64 2.255c.34.967.655 2.604.655 5.091v14.16h6.48V68.4c0-4.241-.194-7.267-.711-8.875-.728-2.325-1.984-4.137-3.769-5.437zm64.48-1.768h-8.4L120 64.56v-24h-6.72v40.08H120V67.92l11.76 12.72h8.4l-13.34-14.301 12.86-14.019z"/></svg>