<svg id="Layer_1" xmlns="http://www.w3.org/2000/svg" viewBox="0 0 279.8 72.4"><style>.st0{fill:#1aa3dd}.st1{fill:#006a97}.st2{enable-background:new}.st3{fill:#0c6e99}.st4{fill:#10a5de}</style><title>Artboard 1</title><path class="st0" d="M13.9 48.3L0 40.2v16.1l13.9 8 14 8.1V56.3z"/><path class="st1" d="M13.9 16.1L0 24.1v16.1l13.9 8.1V32.2l14-8.1V8zM41.8 48.3l-13.9 8v16.1l13.9-8.1 13.9-8V40.2z"/><path class="st0" d="M41.8 0V48.3l13.9-8.1V8z"/><g class="st2"><path class="st3" d="M95.2 54.2c-1 .3-2.3.6-3.9.9-1.6.3-3.2.4-5 .4-1.8 0-3.4-.3-4.8-.8s-2.6-1.3-3.6-2.4c-1-1-1.8-2.3-2.3-3.7-.5-1.5-.8-3.1-.8-4.9 0-1.8.2-3.4.7-4.9.4-1.5 1.1-2.7 2-3.7s1.9-1.8 3.2-2.4c1.2-.6 2.7-.8 4.3-.8 1.1 0 2.1.1 2.9.4.8.3 1.6.5 2.2.9v-11l5.2-.9v32.9zM80.1 43.5c0 2.3.5 4.1 1.6 5.4 1.1 1.3 2.6 2 4.5 2 .8 0 1.5 0 2.1-.1.6-.1 1.1-.2 1.4-.2v-13c-.5-.3-1.1-.6-1.8-.9-.8-.3-1.6-.4-2.4-.4-1.9 0-3.3.6-4.2 1.9-.7 1.3-1.2 3.1-1.2 5.3zM109.9 39.2l4.8-6.9h5.5l-7.6 10.8c1.6 2 3.1 4 4.6 6 1.5 2 2.7 4 3.6 5.7h-5.7c-.3-.5-.6-1.1-1-1.7-.4-.6-.9-1.3-1.3-2-.5-.7-1-1.4-1.5-2-.5-.7-1-1.3-1.5-1.9-1 1.2-2 2.5-3 3.9s-1.8 2.7-2.4 3.8H99c.4-.9 1-1.8 1.6-2.7.6-1 1.3-1.9 2-2.9s1.4-2 2.2-3c.8-1 1.5-2 2.2-2.9l-7.7-11.1h5.8l4.8 6.9z"/></g><g class="st2"><path class="st3" d="M138.2 40.7c-.7 2.5-1.4 5-2.1 7.4-.8 2.4-1.5 4.7-2.3 6.8h-4.3c-.6-1.3-1.2-2.8-1.8-4.5-.6-1.7-1.3-3.5-1.9-5.5-.6-1.9-1.3-4-1.9-6.1-.6-2.1-1.3-4.3-1.9-6.5h5.5c.3 1.2.6 2.5.9 3.9.3 1.4.7 2.8 1.1 4.3.4 1.5.8 2.9 1.2 4.3.4 1.4.8 2.7 1.2 3.8.4-1.3.9-2.7 1.3-4.1l1.2-4.2c.4-1.4.7-2.8 1.1-4.1.3-1.3.6-2.6.9-3.8h4c.3 1.2.5 2.4.9 3.8.3 1.3.7 2.7 1 4.1.4 1.4.7 2.8 1.2 4.2s.8 2.8 1.3 4.1c.4-1.2.8-2.4 1.2-3.8.4-1.4.8-2.8 1.2-4.3.4-1.5.8-2.9 1.1-4.3.3-1.4.7-2.7.9-3.9h5.4c-.6 2.2-1.2 4.4-1.9 6.5-.6 2.1-1.3 4.2-1.9 6.1-.6 1.9-1.3 3.8-1.9 5.5-.6 1.7-1.3 3.2-1.9 4.5h-4.3c-.7-2.1-1.5-4.4-2.3-6.8-.8-2.4-1.5-4.9-2.2-7.4z"/></g><g class="st2"><path class="st4" d="M180.9 54.2c-.8.3-1.9.6-3.2.8s-2.9.4-4.9.4c-1.6 0-3.1-.3-4.5-.8s-2.5-1.3-3.5-2.3c-1-1-1.7-2.2-2.2-3.7-.5-1.4-.8-3.1-.8-4.9 0-1.7.2-3.3.7-4.7.4-1.4 1.1-2.7 2-3.7s1.9-1.8 3.2-2.4c1.3-.6 2.7-.9 4.3-.9 1.5 0 2.7.2 3.8.6 1.1.4 1.9.8 2.4 1.2v-12l2.8-.5v32.9zm-2.8-17.6c-.3-.2-.6-.4-1-.6-.4-.2-.8-.4-1.4-.6-.5-.2-1.1-.4-1.7-.5-.6-.1-1.2-.2-1.9-.2-1.4 0-2.5.2-3.5.7-.9.5-1.7 1.1-2.3 2-.6.8-1 1.8-1.3 2.9-.3 1.1-.4 2.3-.4 3.5 0 2.9.7 5.2 2.2 6.8s3.4 2.4 5.8 2.4c1.4 0 2.5-.1 3.4-.2s1.5-.3 1.9-.4V36.6zM191.8 25.8c0 .7-.2 1.2-.6 1.6-.4.4-.9.6-1.5.6s-1.1-.2-1.5-.6-.6-.9-.6-1.6c0-.7.2-1.2.6-1.6.4-.4.9-.6 1.5-.6s1.1.2 1.5.6c.4.4.6.9.6 1.6zm-.6 29.1h-2.8V32.5h2.8v22.4zM213.2 52.3c-.2.1-.4.3-.8.5-.3.2-.8.4-1.3.6-.5.2-1.1.4-1.7.5-.6.1-1.4.2-2.2.2-1.3 0-2.6-.2-3.8-.6-1.2-.4-2.3-1-3.2-1.9s-1.6-2-2.2-3.4c-.5-1.4-.8-3-.8-5 0-1.6.2-3.1.7-4.4.5-1.4 1.2-2.5 2.1-3.5.9-1 2-1.8 3.3-2.3 1.3-.6 2.8-.8 4.4-.8 2.1 0 3.7.1 5 .4 1.3.3 2.3.5 3.1.8v20.4c0 3.3-.9 5.7-2.6 7.2s-4.2 2-7.6 2c-1.4 0-2.7-.1-3.9-.3-1.2-.2-2.2-.5-3-.8l.6-2.6c.7.3 1.6.6 2.8.8 1.2.2 2.4.3 3.6.3 2.7 0 4.6-.5 5.8-1.5 1.2-1 1.8-2.8 1.8-5.3v-1.3zm0-17c-.5-.1-1.1-.3-1.9-.4-.8-.1-1.9-.2-3.3-.2-1.2 0-2.3.2-3.2.6s-1.7 1-2.4 1.8-1.2 1.7-1.5 2.7c-.3 1.1-.5 2.2-.5 3.5 0 1.5.2 2.7.6 3.8.4 1.1.9 1.9 1.6 2.6.6.7 1.4 1.1 2.2 1.4.8.3 1.7.5 2.6.5 1.3 0 2.4-.2 3.5-.6 1.1-.4 1.9-.8 2.4-1.3V35.3zM226.9 25.8c0 .7-.2 1.2-.6 1.6-.4.4-.9.6-1.5.6s-1.1-.2-1.5-.6c-.4-.4-.6-.9-.6-1.6 0-.7.2-1.2.6-1.6.4-.4.9-.6 1.5-.6s1.1.2 1.5.6c.4.4.6.9.6 1.6zm-.7 29.1h-2.8V32.5h2.8v22.4zM236.3 32.5h8.9v2.4h-8.9v11.9c0 1.3.1 2.3.3 3.1.2.8.5 1.4.9 1.8.4.4.9.7 1.5.9.6.1 1.2.2 1.9.2 1.2 0 2.1-.1 2.9-.4.7-.3 1.3-.5 1.7-.8l.7 2.3c-.4.3-1.1.6-2.1.9s-2.1.5-3.3.5c-1.4 0-2.5-.2-3.5-.5-.9-.4-1.7-.9-2.2-1.6s-1-1.7-1.2-2.7c-.2-1.1-.3-2.4-.3-3.9V26l2.8-.5v7zM257.2 32c1.5 0 2.7.2 3.7.6s1.9 1 2.5 1.7c.6.7 1.1 1.6 1.4 2.6.3 1 .4 2.1.4 3.3v14.1c-.3.1-.7.2-1.3.3-.5.1-1.2.2-1.9.3-.7.1-1.5.2-2.4.3-.9.1-1.8.1-2.7.1-1.2 0-2.3-.1-3.3-.4-1-.3-1.9-.7-2.6-1.2-.7-.6-1.3-1.3-1.7-2.2-.4-.9-.6-2-.6-3.2 0-1.2.2-2.2.7-3.1.5-.9 1.1-1.6 1.9-2.1.8-.6 1.8-1 3-1.2s2.4-.4 3.8-.4c.4 0 .8 0 1.3.1.4 0 .9.1 1.3.2s.8.1 1.1.2.5.1.6.2v-1.4c0-.8-.1-1.5-.2-2.3s-.4-1.4-.8-2c-.4-.6-.9-1.1-1.6-1.4-.7-.4-1.6-.5-2.8-.5-1.6 0-2.9.1-3.7.3-.8.2-1.4.4-1.8.6l-.4-2.5c.5-.2 1.2-.4 2.3-.6 1.1-.3 2.4-.4 3.8-.4zm.3 20.9c1.1 0 2.1 0 2.9-.1.8-.1 1.5-.2 2.1-.3v-7.9c-.3-.1-.8-.3-1.5-.5s-1.6-.2-2.9-.2c-.7 0-1.4.1-2.2.2-.8.1-1.4.3-2.1.6-.6.3-1.2.8-1.6 1.4-.4.6-.6 1.3-.6 2.3 0 .8.1 1.5.4 2.1.3.6.7 1 1.2 1.4.5.3 1.1.6 1.8.8.8.1 1.6.2 2.5.2zM278.1 55.3c-1 0-1.8-.2-2.5-.4s-1.3-.5-1.8-1c-.5-.4-.8-1-1.1-1.7-.2-.7-.4-1.6-.4-2.7V21.8l2.8-.5v28.1c0 .7.1 1.2.2 1.7s.3.8.6 1 .6.4 1 .5c.4.1.9.2 1.5.3l-.3 2.4z"/></g></svg>