<svg xmlns="http://www.w3.org/2000/svg" viewBox="0 0 71.202 15.658"><title>Nomensa</title><defs><style>.c{fill:#001a4b}</style></defs><path d="M71.2 9.129V4.565a4.564 4.564 0 1 0-2.029 3.794v.77zm-4.564-2.03a2.535 2.535 0 1 1 2.535-2.534A2.535 2.535 0 0 1 66.636 7.1zm-23.13-2.534a4.567 4.567 0 1 0-.528 2.146l-1.725-.947a2.611 2.611 0 0 1-2.32 1.412 2.646 2.646 0 0 1-2.554-2.116h7.09a4.609 4.609 0 0 0 .038-.495zm-6.878-1.156a2.556 2.556 0 0 1 4.643-.03zm-28.514.648a4.057 4.057 0 0 0-8.115 0v5.072h2.03V4.057a2.03 2.03 0 1 1 4.056 0v5.072h2.029zm17.322 5.072h2.03V4.057c0-1.12.682-2.03 1.804-2.03s1.804.908 1.804 2.03v5.072h2.03V4.057c0-2.241-1.588-4.056-3.832-4.056-1.211 0-2.074.53-2.817 1.376C25.71.533 24.849 0 23.637 0c-2.241 0-3.831 1.818-3.831 4.056v5.072h2.03V4.057c0-1.12.682-2.03 1.804-2.03s1.804.908 1.804 2.03zm25.437 0h2.021V4.057a4.057 4.057 0 0 0-8.114 0v5.072h2.029V4.057a2.03 2.03 0 0 1 4.056 0zM13.959.001a4.564 4.564 0 1 0 4.564 4.564A4.564 4.564 0 0 0 13.959.001zm2.825 7.39h-5.651V1.739h5.651z" class="c"/><path d="M15.75 2.774h-3.583v3.582h3.583zm-1.035 2.55h-1.508v-1.51h1.514zm40.452 1.008a3.633 3.633 0 0 0 2.368.953c.614 0 1.14-.265 1.14-.794 0-1.294-4.233-1.124-4.233-3.916 0-1.616 1.447-2.553 3.32-2.553 1.958 0 2.91.987 2.91.987l-.793 1.588a3.297 3.297 0 0 0-2.117-.75c-.56 0-1.105.239-1.105.795 0 1.225 4.233 1.071 4.233 3.865 0 1.447-1.26 2.606-3.32 2.606a4.858 4.858 0 0 1-3.371-1.278z" class="c"/><path d="M12.657 14.792v-2.893h.283v1.318h1.68v-1.318h.283v2.893h-.284v-1.32h-1.68v1.32zm3.003-.754v-1.315h.28v1.241q0 .11.008.191.008.08.034.165.028.084.074.138.049.053.13.087.085.034.202.034.229 0 .406-.123.178-.124.269-.319.09-.197.09-.424v-.99h.28v2.069h-.272v-.31l.008-.164h-.008q-.034.082-.1.169-.064.084-.163.168-.098.083-.243.135-.143.052-.303.052-.36 0-.527-.197-.164-.197-.164-.607zm2.476.754v-2.07h.275v.308l-.008.165h.008q.075-.213.294-.368.219-.155.456-.155.281 0 .436.131.157.129.205.388h.008q.086-.217.297-.368.211-.15.464-.15.364 0 .525.202.162.203.162.601v1.316h-.279v-1.248q0-.138-.018-.239-.018-.102-.064-.193-.044-.09-.137-.136-.092-.048-.229-.048-.23 0-.412.172-.18.171-.243.412-.036.117-.036.302v.978h-.28v-1.248q0-.106-.007-.185-.008-.08-.035-.166-.026-.087-.072-.14-.046-.055-.128-.09-.083-.035-.195-.035-.241 0-.426.178-.183.177-.251.43-.03.13-.03.278v.978zm3.629-.565q0-.144.052-.259.055-.114.133-.187.08-.074.203-.128.122-.054.227-.08.106-.027.247-.04.14-.015.221-.017.08-.004.185-.004h.114v-.054q0-.535-.514-.535-.153 0-.3.05-.144.051-.214.1l-.07.05-.131-.216.032-.026q.02-.016.092-.056.073-.04.151-.07.08-.032.205-.056.125-.027.255-.027.376 0 .575.205.199.203.199.591v1.324h-.268v-.227l.008-.173h-.008l-.012.026q-.006.016-.034.063-.028.046-.062.09-.034.042-.095.094-.058.05-.124.089-.066.038-.163.062-.094.026-.2.026-.105 0-.208-.024-.1-.024-.19-.074-.089-.05-.157-.12-.069-.073-.109-.174-.04-.102-.04-.223zm.287-.016q0 .157.121.276.123.116.342.116.188 0 .337-.119.149-.12.22-.293.075-.173.075-.357v-.09h-.118l-.159.001q-.066.002-.177.012-.108.008-.189.026-.078.018-.168.053-.09.034-.149.082-.056.048-.096.125-.039.074-.039.168zm2.048.581v-2.07h.275v.308l-.008.165h.008q.024-.063.067-.127.044-.066.116-.138.073-.073.16-.13.091-.055.218-.091.126-.037.267-.037.37 0 .53.203.161.201.161.601v1.316h-.28V13.55q0-.11-.007-.19-.008-.081-.036-.165-.026-.085-.075-.137-.048-.054-.132-.088-.083-.034-.2-.034-.262 0-.471.164-.21.163-.28.42-.034.123-.034.28v.992zm2.464-2.544v-.35h.291v.35zm.008 2.544v-2.07h.279v2.07zm.816-.252l.153-.2.026.028q.018.016.078.06.06.042.127.077.068.032.172.06.105.026.213.026.177 0 .296-.086.12-.087.12-.243 0-.08-.048-.145-.048-.066-.126-.109-.079-.044-.18-.088-.098-.046-.204-.082-.105-.039-.205-.093-.099-.056-.177-.118-.078-.065-.127-.163-.048-.098-.048-.219 0-.265.205-.418.207-.155.502-.155.123 0 .234.024.11.022.18.057.07.032.123.066.054.034.076.056l.024.024-.126.213-.022-.02q-.012-.012-.063-.044-.048-.034-.104-.058-.054-.026-.145-.046-.088-.02-.185-.02-.172 0-.293.08-.118.078-.118.241 0 .092.06.165.062.07.16.118.099.048.217.093.121.044.24.098.118.054.217.123.098.066.158.174.063.107.063.246 0 .253-.2.417-.196.163-.508.163-.14 0-.27-.032-.131-.03-.218-.074-.084-.045-.15-.089-.067-.044-.097-.076zm2.014-2.292v-.35h.29v.35zm.008 2.544v-2.07h.279v2.07zm.985 0v-2.07h.275v.308l-.008.165h.008q.024-.063.066-.127.044-.066.117-.138.072-.073.16-.13.09-.055.217-.091.127-.037.268-.037.37 0 .53.203.16.201.16.601v1.316h-.279V13.55q0-.11-.008-.19-.008-.081-.036-.165-.026-.085-.074-.137-.048-.054-.133-.088-.082-.034-.199-.034-.263 0-.472.164-.209.163-.279.42-.034.123-.034.28v.992zm2.628.468q.028.016.078.04t.197.065q.147.04.283.04.324 0 .525-.161t.2-.488v-.191l.009-.147h-.008q-.191.362-.655.362-.414 0-.67-.297-.252-.298-.252-.766 0-.47.243-.757.243-.288.655-.288.152 0 .279.037.126.034.197.086.072.05.122.102.05.05.067.087l.018.034h.008q-.004-.024-.004-.07v-.225h.27v2.019q0 .19-.055.345-.055.157-.15.261-.091.105-.22.175-.127.07-.27.1-.14.033-.297.033-.353 0-.677-.165zm.675-.731q.128 0 .233-.042.106-.043.193-.133.088-.092.136-.253.05-.163.05-.384 0-.79-.654-.79-.302 0-.47.207-.167.207-.167.579t.185.595q.184.22.494.22zm3.528.263v-2.638h-1.04V11.9h2.362v.255H37.51v2.638zm1.178-1.032q0-.25.08-.457.08-.207.219-.343.14-.137.325-.211.185-.077.396-.077.275 0 .474.133.201.133.296.346.094.212.094.476l-.008.144h-1.587q.006.257.116.446.113.19.29.282.179.092.395.092.107 0 .21-.026.104-.026.176-.062.073-.037.129-.073.058-.038.086-.064l.028-.026.129.213-.036.032q-.022.018-.1.068-.077.05-.161.089-.083.038-.211.068-.127.032-.258.032-.466 0-.775-.303-.308-.306-.308-.78zm.3-.22h1.3q-.011-.31-.176-.47-.165-.163-.412-.163-.269 0-.466.167-.197.165-.245.466zm2.002.22q0-.312.145-.561.145-.251.392-.388.249-.139.55-.139.143 0 .272.03.13.03.214.075.085.044.15.088.063.044.094.075l.028.03-.145.209-.028-.027q-.016-.018-.076-.06-.06-.044-.127-.076-.064-.034-.167-.06-.102-.028-.207-.028-.343 0-.574.233-.231.233-.231.598 0 .362.233.597.235.235.58.235.119 0 .23-.03.112-.03.186-.072.075-.045.133-.087.06-.044.088-.074l.026-.03.127.219-.034.036q-.022.02-.099.076-.076.056-.162.1-.087.043-.225.077-.139.036-.286.036-.305 0-.552-.134-.247-.137-.392-.386-.143-.25-.143-.563zm2.432 1.032v-2.893h.28v1.119l-.009.169h.008q.032-.08.099-.165.066-.084.164-.165.1-.082.247-.132.147-.053.314-.053.37 0 .53.203.161.201.161.601v1.316h-.28V13.55q0-.11-.007-.19-.008-.081-.036-.165-.027-.085-.075-.137-.048-.054-.132-.088-.083-.034-.2-.034-.262 0-.471.164-.21.163-.28.424-.034.117-.034.275v.993zm2.472 0v-2.07h.275v.308l-.008.165h.008q.024-.063.066-.127.044-.066.117-.138.072-.073.16-.13.09-.055.217-.091.127-.037.268-.037.37 0 .53.203.16.201.16.601v1.316h-.279V13.55q0-.11-.008-.19-.008-.081-.036-.165-.026-.085-.074-.137-.048-.054-.133-.088-.082-.034-.199-.034-.263 0-.472.164-.209.163-.279.42-.034.123-.034.28v.992zm2.318-1.045q0-.301.147-.548.147-.247.398-.386.251-.14.55-.14.3 0 .55.14.252.139.399.386.146.247.146.548 0 .23-.086.434-.086.205-.235.35-.147.142-.35.227-.2.084-.424.084-.223 0-.425-.084-.201-.085-.35-.227-.147-.145-.233-.35-.087-.205-.087-.434zm.29 0q0 .36.235.603.235.241.57.241.336 0 .571-.241.235-.243.235-.603 0-.347-.235-.582-.235-.237-.57-.237-.336 0-.571.237-.235.235-.235.582zm2.427.555v-2.403h.28v2.342q0 .183.064.248.066.064.167.064l.068-.004v.25q-.048.009-.103.009-.062 0-.118-.01-.054-.008-.123-.038-.068-.032-.118-.085-.048-.052-.083-.148t-.034-.225zm.909-.555q0-.301.147-.548.146-.247.397-.386.251-.14.55-.14.3 0 .551.14.251.139.398.386.147.247.147.548 0 .23-.087.434-.086.205-.235.35-.146.142-.35.227-.2.084-.423.084-.223 0-.426-.084-.201-.085-.35-.227-.146-.145-.233-.35-.086-.205-.086-.434zm.29 0q0 .36.234.603.235.241.57.241.336 0 .571-.241.235-.243.235-.603 0-.347-.235-.582-.235-.237-.57-.237-.336 0-.57.237-.236.235-.236.582zm2.603 1.513q.029.016.079.04t.197.065q.146.04.283.04.323 0 .524-.161t.201-.488v-.191l.008-.147h-.008q-.19.362-.655.362-.414 0-.669-.297-.253-.298-.253-.766 0-.47.243-.757.243-.288.655-.288.153 0 .28.037.126.034.196.086.073.05.123.102.05.05.066.087l.018.034h.008q-.004-.024-.004-.07v-.225h.271v2.019q0 .19-.056.345-.054.157-.148.261-.093.105-.221.175-.127.07-.27.1-.14.033-.297.033-.354 0-.677-.165zm.675-.731q.13 0 .234-.042.106-.043.192-.133.089-.092.137-.253.05-.163.05-.384 0-.79-.655-.79-.301 0-.47.207-.167.207-.167.579t.185.595q.185.22.494.22zm1.283 1.004l.108-.223.034.026q.025.016.089.043.064.026.122.026.245 0 .392-.338l.129-.291-.866-2.053h.31l.608 1.508.074.22h.008q.03-.117.07-.22l.597-1.508h.304l-1.019 2.5q-.08.202-.237.316-.157.117-.36.117-.094 0-.186-.03-.09-.03-.133-.063z" aria-label="Humanising Technology" class="c"/></svg>