<svg xmlns="http://www.w3.org/2000/svg" viewBox="0 -20 270 75"><title>Nomensa</title><defs><style>.c{fill:#001a4b}</style></defs><path class="c" d="M430.19 504.38v-17.25a17.25 17.25 0 1 0-7.67 14.34v2.91zm-17.25-7.67a9.58 9.58 0 1 1 9.58-9.58 9.58 9.58 0 0 1-9.58 9.58zM325.52 487.13a17.26 17.26 0 1 0-2 8.11l-6.52-3.58a9.87 9.87 0 0 1-8.77 5.34 10 10 0 0 1-9.65-8h26.8a17.42 17.42 0 0 0 .14-1.87zm-26-4.37a9.66 9.66 0 0 1 17.55-.11zM191.75 485.21a15.33 15.33 0 0 0-30.67 0v19.17h7.67v-19.17a7.67 7.67 0 1 1 15.33 0v19.17h7.67zM257.22 504.38h7.67v-19.17c0-4.23 2.58-7.67 6.82-7.67s6.82 3.43 6.82 7.67v19.17h7.67v-19.17c0-8.47-6-15.33-14.48-15.33-4.58 0-7.84 2-10.65 5.2-2.81-3.19-6.07-5.2-10.65-5.2-8.47 0-14.48 6.87-14.48 15.33v19.17h7.67v-19.17c0-4.23 2.58-7.67 6.82-7.67s6.82 3.43 6.82 7.67zM353.36 504.38H361v-19.17a15.33 15.33 0 0 0-30.67 0v19.17H338v-19.17a7.67 7.67 0 0 1 15.33 0zM213.84 469.88a17.25 17.25 0 1 0 17.25 17.25 17.25 17.25 0 0 0-17.25-17.25zm10.68 27.93h-21.36v-21.36h21.36z" transform="translate(-161.09 -469.88)"/><path class="c" d="M220.61 480.36h-13.54v13.54h13.54zM216.7 490H211v-5.71h5.72zM369.59 493.81a13.73 13.73 0 0 0 8.95 3.6c2.32 0 4.31-1 4.31-3 0-4.89-16-4.25-16-14.8 0-6.11 5.47-9.65 12.55-9.65 7.4 0 11 3.73 11 3.73l-3 6a12.46 12.46 0 0 0-8-2.83c-2.12 0-4.18.9-4.18 3 0 4.63 16 4.05 16 14.61 0 5.47-4.76 9.85-12.55 9.85a18.36 18.36 0 0 1-12.74-4.83z" transform="translate(-161.09 -469.88)"/></svg>