<svg xmlns="http://www.w3.org/2000/svg" viewBox="0 0 303.477 168.48"><title>Vix Digital</title><g transform="matrix(.61557 0 0 .61557 -.843 130.783)" fill="#ef476f"><path d="M1.37 1.94h11.32L27.25 43 42 1.94h11.32L32.48 59.79H21.86zM69.42 1.94h10.93v57.85H69.42zM97 1.94h12.39l12.16 18.58 12.22-18.58h12.37L127.79 30l19.51 29.8h-12.39L121.6 39.45l-13.31 20.34H95.82L115.39 30zM164.06 59.79V1.94h12c8.667 0 14.947.693 18.84 2.08a25.187 25.187 0 0 1 13.15 10.229 31.076 31.076 0 0 1 4.74 17.34A30.429 30.429 0 0 1 209 46.89a24.06 24.06 0 0 1-9.75 9.75c-4 2.1-9.604 3.149-16.81 3.149h-18.38zm5.55-5.47h6.68c8 0 13.547-.497 16.64-1.49a19.191 19.191 0 0 0 10.26-7.64 23.517 23.517 0 0 0 3.74-13.5 24.765 24.765 0 0 0-4.05-14.3 20.403 20.403 0 0 0-11.29-8.131C187.977 8.153 182.013 7.6 173.7 7.6h-4.09zM231.23 1.94H237v57.85h-5.78zM314.12 11.65l-4.48 4.25A34.19 34.19 0 0 0 299 8.68a28.53 28.53 0 0 0-11.229-2.461 26.78 26.78 0 0 0-13 3.341 24.265 24.265 0 0 0-9.53 9.06 23.393 23.393 0 0 0-3.38 12.09 23.866 23.866 0 0 0 3.5 12.41 24.811 24.811 0 0 0 9.67 9.24 27.812 27.812 0 0 0 13.529 3.359 23.123 23.123 0 0 0 15.101-5 19.856 19.856 0 0 0 7.31-13.06H292.61v-5.6h24.939c-.053 8.939-2.72 16.04-8 21.3-5.279 5.26-12.313 7.887-21.1 7.88-10.667 0-19.137-3.644-25.41-10.93a29.073 29.073 0 0 1-7.2-19.471 29.841 29.841 0 0 1 4.16-15.29 29.375 29.375 0 0 1 11.33-11.069 32.986 32.986 0 0 1 16.28-4 36.256 36.256 0 0 1 13.85 2.649 41.401 41.401 0 0 1 12.661 8.522zM335.78 1.94h5.779v57.85h-5.779zM357.13 7.6V1.94h31.7V7.6h-12.9v52.19H370V7.6zM422.33 1.94l27 57.85h-6.25l-9.1-19H409l-9 19h-6.45l27.36-57.85zm-.73 12.29l-9.91 20.939h19.78zM466.33 1.94h5.78V54.2h22.26v5.58h-28z"/></g><g stroke-miterlimit="10" stroke="#ef476f"><path d="M104.357 37.374a51.208 51.208 0 1 1 29.115 66.293" fill="none" stroke-width="9.49918455"/><path d="M115.295 21.525l5.928-3.747 30.341 75.236 34.85-75.852 5.897 4.278-40.37 88.386-2.027-.054z" fill="#ef476f" stroke-width="2.3749888500000003"/></g></svg>