<?xml version="1.0" encoding="UTF-8" standalone="no"?>
<!-- Created with Inkscape (http://www.inkscape.org/) -->

<svg
   xmlns:dc="http://purl.org/dc/elements/1.1/"
   xmlns:cc="http://creativecommons.org/ns#"
   xmlns:rdf="http://www.w3.org/1999/02/22-rdf-syntax-ns#"
   xmlns:svg="http://www.w3.org/2000/svg"
   xmlns="http://www.w3.org/2000/svg"
   xmlns:sodipodi="http://sodipodi.sourceforge.net/DTD/sodipodi-0.dtd"
   xmlns:inkscape="http://www.inkscape.org/namespaces/inkscape"
   width="10cm"
   height="10cm"
   viewBox="0 0 100 99.999997"
   version="1.1"
   id="svg8"
   inkscape:version="0.92.3 (2405546, 2018-03-11)"
   sodipodi:docname="ukhc-stickers-single-bleed.svg">
  <defs
     id="defs2" />
  <sodipodi:namedview
     id="base"
     pagecolor="#ffffff"
     bordercolor="#666666"
     borderopacity="1.0"
     inkscape:pageopacity="0.0"
     inkscape:pageshadow="2"
     inkscape:zoom="1.4"
     inkscape:cx="40.905517"
     inkscape:cy="280.37174"
     inkscape:document-units="mm"
     inkscape:current-layer="layer1"
     showgrid="false"
     units="cm"
     inkscape:pagecheckerboard="true"
     inkscape:window-width="2560"
     inkscape:window-height="1377"
     inkscape:window-x="-8"
     inkscape:window-y="-8"
     inkscape:window-maximized="1" />
  <metadata
     id="metadata5">
    <rdf:RDF>
      <cc:Work
         rdf:about="">
        <dc:format>image/svg+xml</dc:format>
        <dc:type
           rdf:resource="http://purl.org/dc/dcmitype/StillImage" />
        <dc:title />
      </cc:Work>
    </rdf:RDF>
  </metadata>
  <g
     inkscape:label="Graphics"
     inkscape:groupmode="layer"
     id="layer1"
     transform="translate(0,-197.00002)">
    <path
       style="fill:#e53321;fill-opacity:1;stroke-width:1.37324953"
       d="M 214.50586 91.308594 C 209.77653 91.338234 204.84756 91.877564 199.73242 92.960938 A 5.106669 5.106669 0 0 0 199.08984 102.77148 C 203.14194 104.20162 207.37767 106.6025 211.48438 109.25195 A 5.106669 5.106669 0 0 0 211.54297 109.29688 C 213.6711 110.62697 215.67381 112.04519 216.54688 112.98633 C 216.64192 113.08879 216.59231 113.05105 216.6582 113.13477 C 215.1328 115.17507 213.28653 115.79071 209.95508 115.55664 C 206.16479 115.29034 201.41102 113.57906 197.99609 111.99805 C 190.16655 108.20329 179.79729 101.29 167.67188 103.36133 C 161.01875 104.48578 156.16132 108.91564 152.7832 113.70312 C 149.40508 118.49065 147.22702 123.86256 145.70312 128.28906 A 5.106669 5.106669 0 0 0 151.93359 134.85938 C 156.85571 133.45305 162.92574 132.39101 167.88672 132.87305 C 172.84769 133.35509 176.24891 134.87533 178.43555 138.95703 A 5.106669 5.106669 0 0 0 178.45703 139 C 180.09337 141.98394 181.1184 147.44935 180.45703 152.05273 C 179.79671 156.64883 177.92262 159.8882 174.79492 161.21289 C 174.7922 161.21402 174.79178 161.21176 174.78906 161.21289 C 170.64188 162.93824 167.84822 162.09645 163.94531 159.86914 C 160.03985 157.64035 155.86964 153.83521 150.89258 150.94531 A 5.106669 5.106669 0 0 0 150.87109 150.92969 C 147.15227 148.79482 141.29461 145.33248 134.82227 143.76953 C 131.58609 142.98808 128.08156 142.64696 124.5332 143.64453 C 120.99552 144.63908 117.62338 147.22307 115.57812 150.95898 C 112.46025 156.56444 112.74178 162.26347 112.91406 166.75 C 113.0865 171.24072 113.11667 174.54843 111.67383 177.29883 A 5.106669 5.106669 0 0 0 111.6582 177.33594 C 109.77942 180.99713 107.48682 181.95277 103.61914 182.38477 C 99.751459 182.81677 94.725878 182.04357 90.037109 181.34375 A 5.106669 5.106669 0 0 0 85.556641 189.88477 C 87.615822 192.08135 89.862386 194.50535 92.738281 196.74219 A 5.106669 5.106669 0 0 0 92.791016 196.7793 C 97.860005 200.61949 104.66572 204.27188 112.50781 202.96484 A 5.106669 5.106669 0 0 0 112.64062 202.94336 C 118.76206 201.75319 123.16825 198.43475 126.98242 194.77148 C 129.37246 192.5453 130.82026 190.32199 132.01758 188.91797 C 133.21125 187.51818 133.90005 186.92376 135.29492 186.51172 C 137.78772 185.83103 141.19943 186.26705 143.89453 187.55859 C 150.40656 190.76787 156.21796 198.19313 155.73633 204.83984 A 5.106669 5.106669 0 0 0 155.72852 204.92773 C 155.58681 207.47827 153.31273 210.24427 150.03711 212.58398 A 5.106669 5.106669 0 0 0 149.94141 212.6582 C 149.16112 213.24343 145.21374 214.89738 140.16016 215.51367 A 5.106669 5.106669 0 0 0 136.64648 223.58203 C 141.00741 229.58861 147.00758 232.85225 153.16602 234.08789 C 159.31726 235.32206 165.62919 234.88007 172.09375 234.32422 C 178.07232 233.83946 183.59345 231.9197 188.68945 230.60938 C 193.78546 229.29909 198.2873 228.63069 202.07227 229.53906 C 204.04861 230.01808 204.74795 230.66126 205.07617 231.10547 C 205.40536 231.551 205.57831 232.05676 205.49023 233.07617 C 205.31407 235.115 203.37949 238.64173 200.89062 240.64258 A 5.106669 5.106669 0 0 0 200.86133 240.65625 C 194.27506 246.01471 184.89292 247.17119 175.38672 246.40039 A 5.106669 5.106669 0 0 0 172.6543 256.0332 C 180.15868 259.8562 188.01977 263.15652 196.24805 265.4668 C 223.0476 273.04135 244.79642 266.1886 259.30273 251.4043 C 273.80904 236.61999 281.4019 214.63171 283.03711 191.78125 C 284.67231 168.93076 280.33935 145.07201 269.83789 126.10547 C 259.33643 107.13893 242.12566 92.97771 219.16797 91.447266 C 217.63679 91.34519 216.0823 91.298714 214.50586 91.308594 z M 224.68555 150.00195 L 236.35742 150.00195 C 238.5546 150.00195 240.33984 151.78715 240.33984 153.98438 L 240.33984 169.50195 L 256.13281 169.50195 C 258.33 169.50195 260.11523 171.28722 260.11523 173.48438 L 260.11523 185.29492 C 260.11523 187.49211 258.33 189.27734 256.13281 189.27734 L 240.47656 189.27734 L 240.47656 205.20703 C 240.47656 207.40422 238.69132 209.18945 236.49414 209.18945 L 224.68555 209.18945 C 222.48836 209.18945 220.70312 207.40422 220.70312 205.20703 L 220.70312 189.55273 L 205.04688 189.55273 C 202.84969 189.55273 201.06445 187.76754 201.06445 185.57031 L 201.06445 173.75977 C 201.06445 171.5625 202.84969 169.77734 205.04688 169.77734 L 220.70312 169.77734 L 220.70312 154.12305 C 220.70313 151.92582 222.48836 150.14062 224.68555 150.14062 L 224.68555 150.00195 z "
       transform="matrix(0.26458333,0,0,0.26458333,0,197.00002)"
       id="path815" />
  </g>
  <g
     inkscape:groupmode="layer"
     id="layer2"
     inkscape:label="Cut Line"
     style="display:inline">
    <path
       transform="translate(0,-197.00002)"
       d="m 46.767373,240.90293 c 2.761385,-1.16268 2.87038,-5.52275 1.635032,-7.77545 -1.635032,-3.05205 -5.777096,-2.54337 -8.574804,-1.74403 0.763019,-2.21637 2.180034,-5.26842 4.759738,-5.70442 2.543382,-0.43601 5.050414,1.12635 7.230448,2.18003 1.96203,0.90835 5.450084,2.07104 6.867113,-0.43601 0.436007,-1.05368 -0.835677,-1.92569 -1.998366,-2.65237 -1.126354,-0.72667 -2.325365,-1.41702 -3.560727,-1.85303 27.105092,-5.74076 27.831774,51.12179 -0.835677,43.01933 -2.071026,-0.58134 -4.069392,-1.41702 -5.995086,-2.39804 2.688699,0.21801 5.559079,-0.0726 7.702777,-1.81668 1.853035,-1.4897 2.797707,-4.57807 -0.218004,-5.30476 -2.725035,-0.65401 -5.668088,1.01735 -8.356787,1.23535 -3.379059,0.29068 -6.249439,0.36335 -8.175134,-2.28903 1.489688,-0.18167 2.652377,-0.58134 3.233715,-1.01734 1.017358,-0.72668 1.998367,-1.74403 2.071039,-3.05205 0.181667,-2.50705 -1.744027,-4.83241 -3.887725,-5.88609 -0.981022,-0.47234 -2.180034,-0.65401 -3.233728,-0.36335 -1.380679,0.39967 -1.780349,1.5987 -2.761372,2.50705 -0.944685,0.90835 -1.816699,1.56236 -3.124719,1.81668 -1.526024,0.25434 -2.979375,-0.47233 -4.178387,-1.38068 -0.65401,-0.50868 -1.199025,-1.09001 -1.744027,-1.67137 2.43436,0.36335 5.70441,0.98103 7.121439,-1.78034 1.162689,-2.21637 -0.218003,-4.72342 1.017345,-6.93979 1.56236,-2.87037 5.522757,-0.61767 7.484787,0.50868 2.252706,1.30802 4.469062,4.06939 7.52111,2.79771 z"
       id="path822"
       inkscape:connector-curvature="0"
       style="fill:none;fill-opacity:1;stroke:#000000;stroke-width:0.2;stroke-miterlimit:4;stroke-dasharray:none;stroke-opacity:1"
       sodipodi:nodetypes="cccccccccccccccccccccccccc" />
  </g>
</svg>
