<?xml version="1.0" encoding="UTF-8" standalone="no"?>
<svg
   xmlns:dc="http://purl.org/dc/elements/1.1/"
   xmlns:cc="http://creativecommons.org/ns#"
   xmlns:rdf="http://www.w3.org/1999/02/22-rdf-syntax-ns#"
   xmlns:svg="http://www.w3.org/2000/svg"
   xmlns="http://www.w3.org/2000/svg"
   xmlns:sodipodi="http://sodipodi.sourceforge.net/DTD/sodipodi-0.dtd"
   xmlns:inkscape="http://www.inkscape.org/namespaces/inkscape"
   id="Layer_1"
   x="0px"
   y="0px"
   viewBox="0 0 2475 3525"
   preserveAspectRatio="none"
   version="1.1"
   inkscape:version="0.91 r13725"
   sodipodi:docname="poster_template_mono_ontheday.svg">
  <metadata
     id="metadata30">
    <rdf:RDF>
      <cc:Work
         rdf:about="">
        <dc:format>image/svg+xml</dc:format>
        <dc:type
           rdf:resource="http://purl.org/dc/dcmitype/StillImage" />
        <dc:title></dc:title>
      </cc:Work>
    </rdf:RDF>
  </metadata>
  <sodipodi:namedview
     pagecolor="#ffffff"
     bordercolor="#666666"
     borderopacity="1"
     objecttolerance="10"
     gridtolerance="10"
     guidetolerance="10"
     inkscape:pageopacity="0"
     inkscape:pageshadow="2"
     inkscape:window-width="1821"
     inkscape:window-height="1291"
     id="namedview28"
     showgrid="false"
     inkscape:zoom="0.26780142"
     inkscape:cx="1366.3268"
     inkscape:cy="1670.3893"
     inkscape:window-x="191"
     inkscape:window-y="0"
     inkscape:window-maximized="0"
     inkscape:current-layer="Layer_1" />
  <defs
     id="defs3">
    <style
       id="bx-google-fonts">@import url(https://fonts.googleapis.com/css?family=Open+Sans:300,300italic,400,400italic,600,600italic,700,700italic,800,800italic);</style>
  </defs>
  <text
     x="302.92593"
     y="2635.7773"
     style="font-weight:bold;font-size:240px;line-height:125%;font-family:'Open Sans';white-space:pre;fill:#e5332a"
     id="text6"
     sodipodi:linespacing="125%">
    <tspan
       style="font-style:normal;font-variant:normal;font-weight:bold;font-stretch:normal;font-size:260px;line-height:125%;font-family:'Source Sans Pro';-inkscape-font-specification:'Source Sans Pro, Bold';text-align:start;writing-mode:lr-tb;text-anchor:start"
       id="tspan4179">UK Health Camp</tspan>
  </text>
  <path
     d="m 1164.9911,970.10672 c 107.9162,-45.44138 112.1807,-215.83263 63.9013,-303.87554 -63.9013,-119.26832 -225.7749,-99.3949 -335.11392,-68.15465 29.82867,-86.6202 85.19929,-205.89223 186.01882,-222.93136 99.4023,-17.04284 197.3745,44.02425 282.572,85.19564 76.6704,35.49724 212.9928,80.9442 268.369,-17.03913 17.041,-41.18439 -32.6592,-75.25707 -78.0969,-103.65375 -44.0243,-28.40412 -90.8736,-55.38552 -139.1585,-72.41907 1059.2898,-224.354062 1087.6939,1997.86994 -32.6592,1681.23084 -80.9294,-22.7188 -159.03,-55.3818 -234.2926,-93.7189 105.0801,8.5215 217.2535,-2.8343 301.0375,-71 72.4135,-58.2143 109.3279,-178.9146 -8.5289,-207.3113 -106.4954,-25.5605 -221.503,39.7617 -326.585,48.2794 -132.05417,11.3557 -244.23677,14.1993 -319.49201,-89.4601 58.22167,-7.1005 103.65937,-22.7188 126.37999,-39.7598 39.75803,-28.3985 78.08769,-68.1564 80.93122,-119.2813 7.0987,-97.9741 -68.15463,-188.8475 -151.93124,-230.0319 -38.33901,-18.4507 -85.19751,-25.5605 -126.3726,-14.1863 -53.9572,15.609 -69.57549,62.4675 -107.92188,97.9741 -36.91812,35.4935 -71.00009,61.0485 -122.11561,70.987 -59.63508,9.9442 -116.42845,-18.4506 -163.29627,-53.9572 -25.5624,-19.8734 -46.85852,-42.5941 -68.1565,-65.3111 95.13976,14.1956 222.93135,38.3372 278.31129,-69.5792 45.43767,-86.6164 -8.51956,-184.59418 39.75982,-271.21253 61.05782,-112.17146 215.83268,-24.13783 292.51059,19.88641 88.03921,51.11552 174.6483,159.03182 293.9296,109.32974 z m 495.5666,-163.29626 c -22.7207,0 -41.1807,18.45998 -41.1807,41.18067 l 0,161.87357 -161.8661,0 c -22.7207,0 -41.1844,18.4637 -41.1844,41.1732 l 0,122.1231 c 0,22.7169 18.4637,41.1806 41.1844,41.1806 l 161.8661,0 0,161.8661 c 0,22.73 18.46,41.1807 41.1807,41.1807 l 122.1174,0 c 22.7151,0 41.1807,-18.4507 41.1807,-41.1807 l 0,-164.7078 161.8717,0 c 22.7188,0 41.1807,-18.4655 41.1807,-41.1733 l 0,-122.1229 c 0,-22.717 -18.4619,-41.1807 -41.1807,-41.1807 l -163.2944,0 0,-160.45458 c 0,-22.71883 -18.4563,-41.18067 -41.1714,-41.18067 l -120.704,0 z"
     style="fill:#e5332a;fill-rule:evenodd"
     id="path8"
     inkscape:connector-curvature="0" />
  <text
     x="492.60202"
     y="3002.606"
     style="font-size:127.99980164px;line-height:125%;font-family:'Open Sans';white-space:pre;fill:#e5332a"
     id="text20"
     sodipodi:linespacing="125%">
    <tspan
       style="font-style:normal;font-variant:normal;font-weight:normal;font-stretch:normal;font-size:130px;line-height:125%;font-family:'Source Sans Pro';-inkscape-font-specification:'Source Sans Pro, Normal';text-align:start;writing-mode:lr-tb;text-anchor:start"
       id="tspan4181">#ukhc17 | @UKHealthCamp</tspan>
  </text>
  <g
     transform="matrix(2.908272,0,0,2.908272,-220.72708,1392.4307)"
     id="g22">
    <text
       x="356.45163"
       y="620.47546"
       style="font-weight:bold;font-size:33.00930023px;font-family:'Open Sans';white-space:pre;fill:#e5332a"
       id="text26">
      <tspan
         style="font-style:normal;font-variant:normal;font-weight:bold;font-stretch:normal;font-size:33.52506256px;line-height:125%;font-family:'Source Sans Pro';-inkscape-font-specification:'Source Sans Pro, Bold';text-align:start;letter-spacing:0.3438468px;writing-mode:lr-tb;text-anchor:start"
         id="tspan4183">ukhealthcamp.com</tspan>
    </text>
  </g>
</svg>
